<?xml version="1.0" standalone="no"?>
<!DOCTYPE svg PUBLIC "-//W3C//DTD SVG 1.1//EN" "http://www.w3.org/Graphics/SVG/1.1/DTD/svg11.dtd" >
<svg xmlns="http://www.w3.org/2000/svg" xmlns:xlink="http://www.w3.org/1999/xlink" version="1.1">
<metadata>
Created by FontForge 20161116 at Thu Aug  7 19:51:34 2014
 By Jimmy Wärting
Copyright (c) 2014 by Slobodan Jelesijevic &#38; Tour de Force Font Foundry. All rights reserved.
</metadata>
<defs>
<font id="GalebRegular" horiz-adv-x="742" >
  <font-face 
    font-family="Galeb Regular"
    font-weight="400"
    font-stretch="normal"
    units-per-em="1000"
    panose-1="2 0 5 5 3 0 0 2 0 3"
    ascent="750"
    descent="-250"
    x-height="557"
    cap-height="809"
    bbox="-120 -273 1373 1071"
    underline-thickness="50"
    underline-position="-100"
    stemh="81"
    stemv="89"
    unicode-range="U+0020-FB02"
  />
<missing-glyph horiz-adv-x="300" 
 />
    <glyph glyph-name=".notdef" horiz-adv-x="300" 
 />
    <glyph glyph-name="exclam" unicode="!" horiz-adv-x="336" 
d="M125 809h88v-621h-88v621zM120 0v121h96v-121h-96z" />
    <glyph glyph-name="quotedbl" unicode="&#x22;" horiz-adv-x="352" 
d="M70 825h62l-7 -305h-55v305zM220 825h62l-7 -305h-55v305z" />
    <glyph glyph-name="numbersign" unicode="#" horiz-adv-x="683" 
d="M74 448v70h146l43 291h72l-44 -291h139l44 291h71l-43 -291h121v-70h-132l-15 -106h132v-70h-143l-40 -272h-72l40 272h-139l-40 -272h-71l40 272h-123v70h134l15 106h-135zM281 448l-16 -106h139l16 106h-139z" />
    <glyph glyph-name="dollar" unicode="$" horiz-adv-x="651" 
d="M303 -113v95c-128 5 -241 66 -273 195l88 46c8 -94 93 -149 185 -153v325c-36 9 -73 19 -107 41c-62 39 -102 96 -102 176c0 128 93 197 209 210v98h70v-97c87 -8 171 -54 207 -136l-85 -46c-16 54 -65 87 -122 94v-259c42 -11 84 -23 122 -44c67 -39 116 -116 116 -201
c0 -141 -108 -226 -238 -245v-99h-70zM423 357c-16 8 -33 15 -50 20v-301c76 17 140 67 140 153c0 63 -41 102 -90 128zM252 518c15 -9 33 -16 51 -22v236c-59 -12 -111 -49 -111 -119c0 -45 28 -77 60 -95z" />
    <glyph glyph-name="ampersand" unicode="&#x26;" horiz-adv-x="644" 
d="M224 580l45 -65l97 56c32 18 45 45 45 79c0 51 -43 93 -96 93c-56 0 -108 -45 -108 -105c0 -23 5 -42 17 -58zM174 460l14 8l-40 59c-23 32 -34 67 -34 106c0 102 84 192 196 192c100 0 184 -79 184 -180c0 -65 -37 -116 -89 -147l-90 -51l190 -275c26 44 40 93 41 149
l78 -44c-9 -69 -31 -127 -70 -176l70 -101h-113l-24 36c-52 -36 -113 -54 -182 -54c-138 0 -265 96 -265 255c0 94 56 176 134 223zM442 102l-207 299l-16 -8c-52 -32 -89 -91 -88 -153c2 -100 78 -179 179 -179c48 0 93 14 132 41z" />
    <glyph glyph-name="quotesingle" unicode="'" horiz-adv-x="202" 
d="M70 825h62l-7 -305h-55v305z" />
    <glyph glyph-name="parenleft" unicode="(" horiz-adv-x="337" 
d="M146 277c-1 -191 90 -379 221 -510l-57 -40c-157 148 -250 345 -250 550s93 403 250 551l57 -40c-131 -131 -222 -320 -221 -511z" />
    <glyph glyph-name="parenright" unicode=")" horiz-adv-x="337" 
d="M191 277c1 191 -90 380 -221 511l57 40c157 -148 250 -346 250 -551s-93 -402 -250 -550l-57 40c131 131 222 319 221 510z" />
    <glyph glyph-name="asterisk" unicode="*" horiz-adv-x="598" 
d="M271 825h55v-90l-2 -85l5 -4l83 21l104 23l12 -54l-100 -22l-83 -15l-3 -6l48 -69l70 -108l-46 -30l-70 107l-42 70h-6l-43 -70l-69 -107l-46 30l68 106l49 71l-2 6l-85 16l-98 21l12 54l103 -23l84 -21l5 5l-3 84v90z" />
    <glyph glyph-name="plus" unicode="+" horiz-adv-x="549" 
d="M50 240v77h186v186h77v-186h186v-77h-186v-186h-77v186h-186z" />
    <glyph glyph-name="comma" unicode="," horiz-adv-x="273" 
d="M50 -131l51 250h102l-88 -250h-65z" />
    <glyph glyph-name="hyphen" unicode="-" horiz-adv-x="363" 
d="M50 234v89h263v-89h-263z" />
    <glyph glyph-name="period" unicode="." horiz-adv-x="235" 
d="M70 0v121h95v-121h-95z" />
    <glyph glyph-name="slash" unicode="/" horiz-adv-x="400" 
d="M324 809h76l-326 -809h-74z" />
    <glyph glyph-name="zero" unicode="0" horiz-adv-x="782" 
d="M169 520v-235c0 -123 99 -222 222 -222s222 99 222 222v235c0 123 -99 222 -222 222s-222 -99 -222 -222zM80 292v220c0 172 139 311 311 311s311 -139 311 -311v-220c0 -172 -139 -310 -311 -310s-311 138 -311 310z" />
    <glyph glyph-name="one" unicode="1" horiz-adv-x="388" 
d="M180 0l-1 628l6 102h-6l-152 -13l-7 81l248 21l-1 -819h-87z" />
    <glyph glyph-name="two" unicode="2" horiz-adv-x="599" 
d="M458 575c0 84 -65 167 -157 167c-77 0 -140 -59 -159 -135l-77 43c28 100 128 173 236 173c133 0 248 -105 248 -248c0 -68 -22 -123 -71 -174l-223 -229l-86 -80v-7h380v-85h-509v74l373 391c31 32 45 67 45 110z" />
    <glyph glyph-name="three" unicode="3" horiz-adv-x="590" 
d="M199 409v80h72c64 0 123 60 123 127c0 68 -60 126 -131 126c-54 0 -101 -32 -122 -83l-79 44c37 74 114 120 201 120c118 0 223 -85 223 -207c0 -71 -38 -128 -93 -161v-6c80 -39 137 -117 137 -214c0 -139 -119 -253 -263 -253c-112 0 -208 62 -247 166l81 47
c16 -75 87 -132 166 -132c92 0 171 75 171 172c0 87 -73 174 -166 174h-73z" />
    <glyph glyph-name="four" unicode="4" horiz-adv-x="655" 
d="M524 0h-89v190h-410v67l410 552h89v-538h81v-81h-81v-190zM136 271h299v403h-7l-55 -84l-175 -236l-62 -76v-7z" />
    <glyph glyph-name="five" unicode="5" horiz-adv-x="630" 
d="M72 396l35 413h424v-85h-346l-11 -131l-15 -83h8c39 22 82 33 128 33c159 0 295 -118 295 -281c0 -162 -131 -280 -295 -280c-102 0 -201 48 -255 139l78 43c33 -61 104 -101 177 -101c105 0 203 82 203 199c0 106 -87 200 -203 200c-59 0 -108 -22 -146 -66h-77z" />
    <glyph glyph-name="six" unicode="6" horiz-adv-x="676" 
d="M169 254c0 -105 82 -191 182 -191s182 86 182 191s-82 191 -182 191s-182 -86 -182 -191zM80 254v296c0 150 122 273 275 273c97 0 187 -50 238 -137l-76 -41c-32 57 -92 97 -162 97c-101 0 -186 -84 -186 -192v-95h6c46 47 105 71 178 71c151 0 273 -122 273 -272
s-122 -272 -273 -272s-273 122 -273 272z" />
    <glyph glyph-name="seven" unicode="7" horiz-adv-x="545" 
d="M20 728v81h505v-73l-362 -736h-99l308 625l51 95v8h-403z" />
    <glyph glyph-name="eight" unicode="8" horiz-adv-x="645" 
d="M450 455v-6c77 -39 135 -117 135 -214c0 -70 -26 -130 -77 -180c-51 -49 -113 -73 -185 -73c-73 0 -135 24 -185 73c-52 49 -78 109 -78 180c0 96 54 172 133 212v6c-57 35 -96 91 -96 163c0 57 22 106 67 148c42 39 94 59 156 59c60 0 112 -20 156 -59
c43 -42 65 -91 65 -148c0 -71 -36 -128 -91 -161zM151 235c0 -95 76 -172 171 -172s172 77 172 172s-77 173 -172 173s-171 -78 -171 -173zM188 615c0 -70 59 -126 131 -126s131 56 131 126s-59 127 -131 127s-131 -57 -131 -127z" />
    <glyph glyph-name="nine" unicode="9" horiz-adv-x="676" 
d="M507 551c0 105 -82 191 -182 191s-182 -86 -182 -191s82 -191 182 -191s182 86 182 191zM596 551v-296c0 -150 -122 -273 -275 -273c-97 0 -187 50 -238 137l76 41c32 -57 92 -97 162 -97c101 0 186 84 186 192v95h-6c-46 -47 -105 -71 -178 -71
c-151 0 -273 122 -273 272s122 272 273 272s273 -122 273 -272z" />
    <glyph glyph-name="colon" unicode=":" horiz-adv-x="240" 
d="M75 0v121h95v-121h-95zM70 435v122h95v-122h-95z" />
    <glyph glyph-name="semicolon" unicode=";" horiz-adv-x="273" 
d="M50 -131l51 250h102l-88 -250h-65zM108 435v122h95v-122h-95z" />
    <glyph glyph-name="less" unicode="&#x3c;" horiz-adv-x="572" 
d="M502 535v-85l-290 -136l-72 -32v-6l74 -31l288 -136v-86l-442 208v96z" />
    <glyph glyph-name="equal" unicode="=" horiz-adv-x="589" 
d="M70 145v77h449v-77h-449zM70 335v77h449v-77h-449z" />
    <glyph glyph-name="greater" unicode="&#x3e;" horiz-adv-x="572" 
d="M70 450v85l442 -208v-96l-442 -208v86l288 136l74 31v6l-72 32z" />
    <glyph glyph-name="question" unicode="?" horiz-adv-x="556" 
d="M337 441c54 33 88 66 88 134c0 86 -70 168 -162 168c-84 0 -154 -69 -162 -154l-81 45c29 116 128 190 244 190c134 0 252 -96 252 -252c0 -102 -44 -152 -133 -206c-54 -32 -95 -68 -95 -138v-41h-88v42c0 108 43 154 137 212zM196 0v121h95v-121h-95z" />
    <glyph glyph-name="at" unicode="@" horiz-adv-x="1228" 
d="M598 491c-118 0 -207 -97 -207 -214c0 -116 91 -213 207 -213c112 0 206 94 206 213c0 114 -88 214 -206 214zM901 72h142c34 59 48 136 48 208c0 131 -55 249 -140 337c-87 85 -205 139 -337 139c-268 0 -469 -210 -477 -476c3 -262 209 -476 477 -476
c131 0 256 56 350 153l50 -45c-100 -108 -246 -175 -400 -175c-287 0 -544 230 -544 543c0 287 231 544 544 544c149 0 285 -61 385 -160c97 -99 159 -235 159 -384c0 -98 -26 -196 -81 -286h-240l-15 93h-7c-54 -70 -126 -105 -217 -105c-153 0 -296 120 -296 295
c0 153 121 296 296 296c79 0 146 -28 199 -84h7v67h86v-306c0 -60 3 -119 11 -178z" />
    <glyph glyph-name="A" unicode="A" horiz-adv-x="747" 
d="M216 288h315l-119 306l-35 99h-8l-34 -99zM565 200h-383l-78 -200h-104l317 809h113l317 -809h-103z" />
    <glyph glyph-name="B" unicode="B" horiz-adv-x="771" 
d="M491 0h-371v809h365c58 0 107 -18 147 -56c40 -37 60 -84 60 -141c0 -74 -33 -129 -99 -165v-5c83 -34 138 -115 138 -210c0 -67 -23 -123 -72 -167c-47 -44 -103 -65 -168 -65zM216 482h257c66 0 120 53 120 119s-54 120 -120 120h-257v-239zM478 394h-262v-306h262
c84 0 153 69 153 153s-69 153 -153 153z" />
    <glyph glyph-name="C" unicode="C" horiz-adv-x="836" 
d="M824 662l-77 -60c-58 82 -151 135 -256 135c-176 0 -317 -150 -317 -334s141 -333 317 -333c105 0 198 53 256 135l79 -58c-77 -100 -199 -165 -335 -165c-233 0 -421 188 -421 421s188 422 421 422c135 0 256 -64 333 -163z" />
    <glyph glyph-name="D" unicode="D" horiz-adv-x="869" 
d="M394 0h-274v809h274c224 0 405 -181 405 -405s-181 -404 -405 -404zM397 721h-181v-633h181c163 0 298 141 298 316s-135 317 -298 317z" />
    <glyph glyph-name="E" unicode="E" horiz-adv-x="704" 
d="M684 721h-468v-239h389v-88h-389v-306h468v-88h-564v809h564v-88z" />
    <glyph glyph-name="F" unicode="F" horiz-adv-x="659" 
d="M654 721h-438v-247h360v-88h-360v-386h-96v809h534v-88z" />
    <glyph glyph-name="G" unicode="G" horiz-adv-x="878" 
d="M491 825c127 0 243 -58 320 -151l-75 -58c-59 73 -148 121 -245 121c-176 0 -317 -150 -317 -334s141 -333 317 -333c95 0 182 43 241 116v145h-301v88h397v-269c-85 -105 -202 -168 -337 -168c-233 0 -421 188 -421 421s188 422 421 422z" />
    <glyph glyph-name="H" unicode="H" horiz-adv-x="931" 
d="M715 809h96v-809h-96v412h-499v-412h-96v809h96v-309h499v309z" />
    <glyph glyph-name="I" unicode="I" horiz-adv-x="334" 
d="M120 809h94v-809h-94v809z" />
    <glyph glyph-name="J" unicode="J" horiz-adv-x="526" 
d="M315 180v629h96v-622c0 -114 -92 -205 -206 -205c-91 0 -169 60 -195 142l86 43c5 -55 52 -97 109 -97c60 0 107 43 110 110z" />
    <glyph glyph-name="K" unicode="K" horiz-adv-x="767" 
d="M216 462l396 347h132l-382 -335v-9l60 -55l345 -410h-123l-349 416l-79 -70v-346h-96v809h96v-347z" />
    <glyph glyph-name="L" unicode="L" horiz-adv-x="655" 
d="M216 809v-721h439v-88h-535v809h96z" />
    <glyph glyph-name="M" unicode="M" horiz-adv-x="1052" 
d="M807 552l-232 -552h-92l-237 551l-23 72h-7v-623h-96v808h116l251 -585l38 -87h8l36 87l246 585h117v-808h-96v623h-7z" />
    <glyph glyph-name="N" unicode="N" horiz-adv-x="915" 
d="M225 660h-9v-660h-96v809h99l429 -587l43 -72h8v659h96v-809h-98l-429 588z" />
    <glyph glyph-name="O" unicode="O" horiz-adv-x="983" 
d="M70 403c0 233 188 422 421 422s422 -189 422 -422s-189 -421 -422 -421s-421 188 -421 421zM174 403c0 -184 141 -333 317 -333s318 149 318 333s-142 334 -318 334s-317 -150 -317 -334z" />
    <glyph glyph-name="P" unicode="P" horiz-adv-x="737" 
d="M217 413h242c85 0 154 69 154 154s-69 154 -154 154h-242v-308zM475 325h-258v-325h-97v809h355c134 0 242 -108 242 -242s-108 -242 -242 -242z" />
    <glyph glyph-name="Q" unicode="Q" horiz-adv-x="983" 
d="M654 14v-8l93 -15l115 -30l-24 -85l-453 121c-181 47 -315 210 -315 406c0 233 188 422 421 422s422 -189 422 -422c0 -175 -107 -325 -259 -389zM174 403c0 -184 141 -333 317 -333s318 149 318 333s-142 334 -318 334s-317 -150 -317 -334z" />
    <glyph glyph-name="R" unicode="R" horiz-adv-x="765" 
d="M460 721h-244v-303h244c84 0 152 67 152 151s-68 152 -152 152zM490 330v-6l65 -76l180 -248h-118l-240 330h-161v-330h-96v809h356c132 0 240 -108 240 -240c0 -127 -100 -232 -226 -239z" />
    <glyph glyph-name="S" unicode="S" horiz-adv-x="651" 
d="M30 177l88 46c9 -97 100 -153 196 -153c98 0 199 52 199 159c0 63 -41 102 -90 128c-71 37 -153 33 -227 79c-62 39 -102 96 -102 176c0 143 117 213 251 213c97 0 195 -47 235 -138l-85 -46c-18 62 -79 96 -147 96c-74 0 -156 -36 -156 -124c0 -45 28 -77 60 -95
c70 -40 167 -42 243 -86c67 -39 116 -116 116 -201c0 -160 -140 -249 -293 -249c-134 0 -254 61 -288 195z" />
    <glyph glyph-name="T" unicode="T" horiz-adv-x="647" 
d="M371 0h-96v721h-270v88h637v-88h-271v-721z" />
    <glyph glyph-name="U" unicode="U" horiz-adv-x="872" 
d="M666 300v509h96v-504c0 -180 -146 -323 -326 -323s-326 144 -326 324v503h96v-509c0 -127 103 -230 230 -230s230 103 230 230z" />
    <glyph glyph-name="V" unicode="V" horiz-adv-x="754" 
d="M442 0h-129l-303 809h103l230 -617l30 -88h8l29 88l230 617h104z" />
    <glyph glyph-name="W" unicode="W" horiz-adv-x="1070" 
d="M376 0h-110l-251 809h100l176 -567l24 -89h7l18 89l137 567h116l137 -567l18 -89h7l24 89l176 567h100l-251 -809h-109l-139 570l-17 89h-8l-19 -89z" />
    <glyph glyph-name="X" unicode="X" horiz-adv-x="741" 
d="M731 0h-116l-185 260l-56 90h-7l-56 -90l-185 -260h-116l303 428l-272 381h118l152 -215l56 -90h7l56 90l153 215h117l-272 -381z" />
    <glyph glyph-name="Y" unicode="Y" horiz-adv-x="716" 
d="M312 0v320l-302 489h112l180 -291l54 -98h8l55 98l181 291h106l-298 -486v-323h-96z" />
    <glyph glyph-name="Z" unicode="Z" horiz-adv-x="645" 
d="M20 0v93l416 541l67 75v8h-467v92h584v-92l-417 -543l-69 -75v-7h486v-92h-600z" />
    <glyph glyph-name="bracketleft" unicode="[" horiz-adv-x="361" 
d="M351 -183v-80h-261v1072h261v-80h-177v-912h177z" />
    <glyph glyph-name="backslash" unicode="\" horiz-adv-x="400" 
d="M0 809h76l324 -809h-74z" />
    <glyph glyph-name="bracketright" unicode="]" horiz-adv-x="361" 
d="M10 -263v80h177v912h-177v80h261v-1072h-261z" />
    <glyph glyph-name="asciicircum" unicode="^" horiz-adv-x="559" 
d="M283 750h-6l-33 -72l-104 -211h-70l177 358h66l176 -358h-69l-104 210z" />
    <glyph glyph-name="underscore" unicode="_" horiz-adv-x="589" 
d="M50 -263v67h489v-67h-489z" />
    <glyph glyph-name="grave" unicode="`" horiz-adv-x="257" 
d="M50 804h77l80 -169h-69z" />
    <glyph glyph-name="a" unicode="a" 
d="M153 278c0 -119 91 -215 204 -215s205 96 205 215s-92 216 -205 216s-204 -97 -204 -216zM357 575c84 0 150 -30 197 -91h8v73h89v-307c0 -88 6 -171 19 -249l-75 -9l-17 106h-6c-47 -77 -118 -116 -215 -116c-164 0 -297 132 -297 296s133 297 297 297z" />
    <glyph glyph-name="b" unicode="b" 
d="M179 278c0 -119 91 -215 204 -215s205 96 205 215s-92 216 -205 216s-204 -97 -204 -216zM384 -18c-87 0 -168 39 -214 116h-6l-17 -106l-75 9c13 84 19 167 19 249v559h89v-325h7c47 61 123 91 197 91c164 0 298 -133 298 -297s-134 -296 -298 -296z" />
    <glyph glyph-name="c" unicode="c" horiz-adv-x="642" 
d="M610 435l-78 -44c-36 62 -101 103 -175 103c-113 0 -204 -96 -204 -215s91 -216 204 -216c75 0 141 42 177 106l78 -45c-52 -85 -147 -142 -255 -142c-164 0 -297 132 -297 296s133 297 297 297c106 0 200 -56 253 -140z" />
    <glyph glyph-name="d" unicode="d" 
d="M563 278c0 119 -91 216 -204 216s-205 -97 -205 -216s92 -215 205 -215s204 96 204 215zM358 -18c-164 0 -298 132 -298 296s134 297 298 297c74 0 150 -30 197 -91h7v325h89v-559c0 -82 6 -165 19 -249l-75 -9l-17 106h-6c-46 -77 -127 -116 -214 -116z" />
    <glyph glyph-name="e" unicode="e" horiz-adv-x="705" 
d="M653 249h-498c14 -105 100 -186 204 -186c76 0 147 31 188 92l74 -49c-58 -83 -153 -124 -264 -124c-164 0 -297 132 -297 296s133 297 297 297c111 0 208 -60 259 -150c30 -51 44 -116 37 -176zM357 494c-98 0 -179 -72 -199 -168h399c-21 96 -103 168 -200 168z" />
    <glyph glyph-name="f" unicode="f" horiz-adv-x="340" 
d="M30 476v81h52v104c0 89 68 164 166 164c44 0 83 -16 116 -48c6 -6 11 -12 16 -19l-73 -43c-1 2 -3 4 -6 7c-15 15 -32 22 -53 22c-43 0 -77 -35 -77 -76v-111h159v-81h-159v-476h-89v476h-52z" />
    <glyph glyph-name="g" unicode="g" horiz-adv-x="743" 
d="M153 279c0 -119 91 -216 204 -216s205 97 205 216s-92 215 -205 215s-204 -96 -204 -215zM357 575h1c87 0 168 -39 214 -116h6l17 106l76 -9c-13 -79 -20 -162 -20 -249v-260c0 -198 -126 -310 -322 -310c-96 0 -194 48 -247 134l76 42c32 -58 104 -95 171 -95
c141 0 233 70 233 217v37h-7c-47 -60 -123 -90 -198 -90c-164 0 -297 132 -297 296s133 297 297 297z" />
    <glyph glyph-name="h" unicode="h" horiz-adv-x="732" 
d="M386 575c76 0 133 -24 182 -71s73 -111 74 -193v-311h-89v310c0 109 -73 184 -188 184c-102 0 -186 -76 -186 -184v-310h-89v809h89v-326h5c53 61 117 92 202 92z" />
    <glyph glyph-name="i" unicode="i" horiz-adv-x="283" 
d="M186 0h-89v557h89v-557zM90 630v102h103v-102h-103z" />
    <glyph glyph-name="j" unicode="j" horiz-adv-x="283" 
d="M-120 -182l73 42c14 -24 38 -42 68 -42c41 0 76 29 76 77v662h89v-656c0 -91 -71 -164 -162 -164c-61 0 -111 29 -144 81zM90 630v102h103v-102h-103z" />
    <glyph glyph-name="k" unicode="k" horiz-adv-x="588" 
d="M295 325l67 -72l216 -252l-1 -1h-113l-235 271l-50 -42v-229h-89v809h89v-475l264 223h125l-206 -174l-67 -51v-7z" />
    <glyph glyph-name="l" unicode="l" horiz-adv-x="269" 
d="M179 809v-809h-89v809h89z" />
    <glyph glyph-name="m" unicode="m" horiz-adv-x="1037" 
d="M528 475h6c39 67 100 100 185 100c69 0 125 -24 166 -71s62 -112 62 -194v-310h-89v310c-1 64 -15 111 -44 140s-64 44 -105 44c-81 0 -146 -65 -146 -184v-310h-88v310c-1 128 -67 184 -148 184c-83 0 -147 -65 -147 -184v-310h-89v310c0 80 -6 162 -19 247l75 9l15 -91
h5c45 67 104 100 179 100c85 0 145 -33 182 -100z" />
    <glyph glyph-name="n" unicode="n" horiz-adv-x="734" 
d="M644 311v-311h-89v310c0 109 -73 184 -188 184c-102 0 -186 -76 -186 -184v-310h-89v308c0 81 -7 164 -20 249l76 9l16 -99h8c48 65 120 108 215 108c77 0 134 -24 183 -71s73 -111 74 -193z" />
    <glyph glyph-name="o" unicode="o" horiz-adv-x="715" 
d="M153 279c0 -119 91 -216 204 -216s205 97 205 216s-92 215 -205 215s-204 -96 -204 -215zM60 278c0 164 133 297 297 297s298 -133 298 -297s-134 -296 -298 -296s-297 132 -297 296z" />
    <glyph glyph-name="p" unicode="p" 
d="M179 279c0 -119 91 -216 204 -216s205 97 205 216s-92 215 -205 215s-204 -96 -204 -215zM384 575c164 0 298 -132 298 -296s-134 -297 -298 -297c-74 0 -150 30 -197 91h-7v-336h-89v570c0 82 -6 165 -19 249l75 9l17 -106h6c46 77 127 116 214 116z" />
    <glyph glyph-name="q" unicode="q" 
d="M563 279c0 119 -91 215 -204 215s-205 -96 -205 -215s92 -216 205 -216s204 97 204 216zM358 575c87 0 168 -39 214 -116h6l17 106l75 -9c-13 -84 -19 -167 -19 -249v-570h-89v336h-7c-47 -61 -123 -91 -197 -91c-164 0 -298 133 -298 297s134 296 298 296z" />
    <glyph glyph-name="r" unicode="r" horiz-adv-x="344" 
d="M160 482h7c38 56 96 92 167 93v-89c-95 0 -155 -60 -155 -188v-298h-89v307c0 80 -6 160 -18 242l76 14z" />
    <glyph glyph-name="s" unicode="s" horiz-adv-x="477" 
d="M239 -18c-90 0 -182 43 -219 136l78 42c10 -61 74 -97 141 -97c60 1 124 31 124 99c0 49 -46 80 -93 89l-76 15c-72 15 -130 67 -130 157c0 95 88 151 180 152c76 0 154 -36 188 -112l-79 -41c-6 46 -59 72 -109 72c-49 -1 -92 -27 -92 -71c0 -42 29 -66 76 -74l68 -12
c78 -14 158 -79 155 -175c-4 -114 -101 -180 -212 -180z" />
    <glyph glyph-name="t" unicode="t" horiz-adv-x="294" 
d="M20 476v81h60v172h89v-172h115v-81h-115v-298c0 -73 49 -113 114 -116v-80c-108 0 -203 79 -203 203v291h-60z" />
    <glyph glyph-name="u" unicode="u" horiz-adv-x="734" 
d="M90 246v311h89v-310c0 -109 73 -184 188 -184c102 0 186 76 186 184v310h89v-308c0 -81 7 -164 20 -249l-76 -9l-16 99h-8c-48 -65 -120 -108 -215 -108c-77 0 -134 24 -183 71s-73 111 -74 193z" />
    <glyph glyph-name="v" unicode="v" horiz-adv-x="616" 
d="M359 0h-103l-246 557h95l174 -386l30 -84h6l30 84l173 386h88z" />
    <glyph glyph-name="w" unicode="w" horiz-adv-x="846" 
d="M303 0h-93l-200 557h94l123 -341l26 -85h7l21 84l101 342h82l101 -341l21 -85h8l26 85l122 341h94l-199 -557h-93l-96 324l-21 86h-7l-22 -86z" />
    <glyph glyph-name="x" unicode="x" horiz-adv-x="561" 
d="M10 0l211 284l-193 273h107l85 -120l57 -84h7l56 84l84 120h100l-189 -266l216 -291h-110l-102 138l-59 85h-8l-59 -85l-102 -138h-101z" />
    <glyph glyph-name="y" unicode="y" horiz-adv-x="596" 
d="M256 -15l6 13l-252 559h97l165 -368l29 -93h8l28 79l161 382h88l-256 -603c-33 -77 -75 -148 -127 -217l-61 52c46 57 83 124 114 196z" />
    <glyph glyph-name="z" unicode="z" horiz-adv-x="509" 
d="M365 469v7h-330v81h454v-73l-283 -329l-63 -67v-7h346v-81h-469v73l288 336z" />
    <glyph glyph-name="braceleft" unicode="{" horiz-adv-x="408" 
d="M438 825v-80h-77c-74 0 -128 -57 -131 -131v-229c0 -47 -23 -90 -69 -110v-5c47 -12 69 -61 69 -108v-214c0 -71 57 -131 131 -131h77v-80h-77c-119 0 -215 94 -215 215v211c0 38 -32 71 -70 71h-56v79h56c38 0 69 31 70 70l-1 227c0 118 96 215 216 215h77z" />
    <glyph glyph-name="bar" unicode="|" horiz-adv-x="320" 
d="M120 -263v1088h80v-1088h-80z" />
    <glyph glyph-name="braceright" unicode="}" horiz-adv-x="408" 
d="M-30 745v80h77c120 0 216 -97 216 -215l-1 -227c1 -39 32 -70 70 -70h56v-79h-56c-38 0 -70 -33 -70 -71v-211c0 -121 -96 -215 -215 -215h-77v80h77c74 0 131 60 131 131v214c0 47 22 96 69 108v5c-46 20 -69 63 -69 110v229c-3 74 -57 131 -131 131h-77z" />
    <glyph glyph-name="asciitilde" unicode="~" horiz-adv-x="594" 
d="M71 226v88c35 23 62 31 90 31c91 0 173 -50 266 -50c35 0 66 15 91 42v-88c-24 -20 -59 -31 -91 -31c-91 0 -173 50 -266 50c-34 0 -64 -15 -90 -42z" />
    <glyph glyph-name="exclamdown" unicode="&#xa1;" horiz-adv-x="336" 
d="M213 -252h-88v621h88v-621zM120 436v121h96v-121h-96z" />
    <glyph glyph-name="cent" unicode="&#xa2;" horiz-adv-x="642" 
d="M324 -114v99c-146 18 -259 142 -259 293s113 276 259 294v99h70v-98c93 -10 173 -63 221 -138l-78 -44c-31 53 -83 90 -143 100v-425c61 10 114 48 145 103l78 -45c-47 -77 -129 -130 -223 -140v-98h-70zM158 279c0 -105 71 -193 166 -212v423
c-95 -19 -166 -106 -166 -211z" />
    <glyph glyph-name="sterling" unicode="&#xa3;" horiz-adv-x="544" 
d="M230 96v-8h304v-88h-484v88h76c42 48 64 104 65 169c1 50 -14 99 -45 148h-96v81h42c-14 31 -21 64 -21 99c0 127 95 240 239 240c98 0 180 -59 222 -152l-77 -59c-12 69 -69 130 -145 130c-90 0 -148 -72 -148 -155c0 -37 13 -72 38 -103h256v-81h-208
c22 -49 33 -99 32 -149c-1 -58 -18 -111 -50 -160z" />
    <glyph glyph-name="currency" unicode="&#xa4;" horiz-adv-x="713" 
d="M117 -1l-47 46l83 82c-34 43 -54 98 -54 157s20 113 54 157l-83 83l47 47l82 -83c44 34 99 54 158 54s113 -21 157 -54l82 83l47 -47l-82 -83c34 -43 54 -98 54 -157s-21 -114 -54 -157l82 -82l-47 -46l-82 81c-43 -34 -98 -54 -157 -54c-60 0 -115 20 -158 54zM172 284
c0 -102 83 -185 185 -185s185 83 185 185s-83 185 -185 185s-185 -83 -185 -185z" />
    <glyph glyph-name="yen" unicode="&#xa5;" horiz-adv-x="716" 
d="M101 320v67h169l-260 422h112l180 -291l54 -98h8l55 98l181 291h106l-259 -422h169v-67h-208v-100h208v-67h-208v-153h-96v153h-211v67h211v100h-211z" />
    <glyph glyph-name="brokenbar" unicode="&#xa6;" horiz-adv-x="320" 
d="M120 387v438h80v-438h-80zM120 -263v438h80v-438h-80z" />
    <glyph glyph-name="section" unicode="&#xa7;" horiz-adv-x="576" 
d="M149 434c-19 -25 -29 -52 -29 -81c0 -71 50 -115 117 -143l150 -64c15 -6 29 -13 42 -21c19 25 29 52 29 81c0 72 -53 117 -118 143l-149 64c-16 7 -30 13 -42 21zM492 71c29 -36 44 -76 44 -119c0 -146 -121 -215 -257 -215c-98 0 -196 46 -242 142l80 46
c21 -67 92 -107 162 -107c81 0 165 34 165 134c0 24 -8 45 -23 63c-15 19 -38 36 -69 49l-157 69c-144 62 -218 213 -110 355c-29 36 -43 76 -43 121c0 138 119 215 257 215c99 0 189 -48 239 -137l-79 -46c-20 63 -94 102 -160 102c-86 0 -165 -40 -165 -134
c0 -24 8 -46 23 -65c15 -20 37 -36 68 -49l158 -69c143 -61 216 -215 109 -355z" />
    <glyph glyph-name="dieresis" unicode="&#xa8;" horiz-adv-x="392" 
d="M50 641v114h82v-114h-82zM260 641v114h82v-114h-82z" />
    <glyph glyph-name="copyright" unicode="&#xa9;" horiz-adv-x="987" 
d="M499 671c90 1 160 -39 220 -112l-65 -51c-39 54 -85 87 -153 87c-96 0 -183 -79 -183 -193c0 -104 77 -190 183 -192c63 0 113 35 153 87l66 -49c-54 -67 -127 -113 -218 -113c-146 0 -270 110 -270 267c2 153 121 267 267 269zM70 403c0 233 188 422 421 422
s422 -189 422 -422s-189 -421 -422 -421s-421 188 -421 421zM133 402c0 -198 161 -359 359 -359s359 161 359 359s-161 359 -359 359s-359 -161 -359 -359z" />
    <glyph glyph-name="ordfeminine" unicode="&#xaa;" horiz-adv-x="589" 
d="M141 598c0 -86 65 -155 147 -155c81 0 147 69 147 155s-66 155 -147 155c-82 0 -147 -69 -147 -155zM452 455h-4c-40 -57 -90 -85 -159 -85c-127 0 -229 102 -229 227c0 126 102 228 229 228c55 0 110 -21 143 -64h4v51h78v-235c0 -66 5 -130 15 -192l-66 -9z" />
    <glyph glyph-name="guillemotleft" unicode="&#xab;" horiz-adv-x="470" 
d="M196 492h74l-88 -149l-38 -62v-6l38 -61l88 -150h-74l-126 214zM346 492h74l-88 -149l-38 -62v-6l38 -61l88 -150h-74l-126 214z" />
    <glyph glyph-name="logicalnot" unicode="&#xac;" horiz-adv-x="630" 
d="M560 151h-78v195h-412v77h490v-272z" />
    <glyph glyph-name="registered" unicode="&#xae;" horiz-adv-x="982" 
d="M367 423h138c51 0 79 35 81 82c-2 42 -30 80 -81 80h-138v-162zM367 347v-202h-80v516h227c82 0 157 -69 157 -157c0 -76 -47 -138 -129 -155l30 -35l123 -169h-99l-147 202h-82zM70 403c0 233 188 422 421 422s422 -189 422 -422s-189 -421 -422 -421s-421 188 -421 421
zM133 402c0 -198 161 -359 359 -359s359 161 359 359s-161 359 -359 359s-359 -161 -359 -359z" />
    <glyph glyph-name="macron" unicode="&#xaf;" horiz-adv-x="380" 
d="M50 677v62h280v-62h-280z" />
    <glyph glyph-name="degree" unicode="&#xb0;" horiz-adv-x="472" 
d="M62 652c0 96 78 173 174 173s173 -77 173 -173s-77 -174 -173 -174s-174 78 -174 174zM134 652c0 -55 47 -102 102 -102c56 0 102 47 102 102c0 56 -46 102 -102 102c-55 0 -102 -46 -102 -102z" />
    <glyph glyph-name="plusminus" unicode="&#xb1;" horiz-adv-x="550" 
d="M50 0v77h450v-77h-450zM314 110h-78v186h-186v77h186v186h78v-186h186v-77h-186v-186z" />
    <glyph glyph-name="twosuperior" unicode="&#xb2;" horiz-adv-x="410" 
d="M293 676c0 45 -35 91 -86 91c-41 0 -77 -36 -89 -83l-55 32c18 62 79 109 144 109c81 0 153 -60 153 -149c0 -40 -15 -75 -45 -106l-113 -117l-61 -53v-4h218v-63h-309v52l219 229c16 19 24 37 24 62z" />
    <glyph glyph-name="threesuperior" unicode="&#xb3;" horiz-adv-x="411" 
d="M284 604v-4c46 -21 77 -67 77 -123c0 -96 -74 -154 -161 -154c-67 0 -126 39 -150 104l57 35c10 -46 50 -81 93 -81c52 0 94 38 94 96c0 47 -39 96 -91 96h-48v58h48c34 0 66 32 66 67c0 40 -32 69 -71 69c-28 0 -55 -20 -67 -52l-57 33c23 47 72 77 124 77
c74 0 138 -48 138 -127c0 -40 -20 -73 -52 -94z" />
    <glyph glyph-name="acute" unicode="&#xb4;" horiz-adv-x="257" 
d="M130 804h77l-88 -169h-69z" />
    <glyph glyph-name="mu" unicode="&#xb5;" horiz-adv-x="732" 
d="M187 41h-8v-303h-89v819h89v-310c0 -109 73 -184 188 -184c102 0 186 76 186 184v310h89v-308c0 -81 7 -164 20 -249l-76 -9l-16 99h-8c-48 -65 -120 -108 -215 -108c-72 0 -116 20 -160 59z" />
    <glyph glyph-name="paragraph" unicode="&#xb6;" horiz-adv-x="810" 
d="M309 809h461v-63h-83v-1009h-70v1009h-238v-1009h-70v491c-157 0 -289 126 -289 291c0 155 130 289 289 290z" />
    <glyph glyph-name="periodcentered" unicode="&#xb7;" horiz-adv-x="235" 
d="M70 344v121h95v-121h-95z" />
    <glyph glyph-name="cedilla" unicode="&#xb8;" horiz-adv-x="301" 
d="M151 -48l1 -2c53 -3 99 -41 99 -103c0 -60 -45 -103 -103 -103c-42 0 -81 25 -98 69l47 24c4 -23 25 -42 51 -42s52 23 52 52c0 26 -23 52 -52 52c-15 0 -34 -7 -41 -20l-54 11l79 118h57l-17 -27z" />
    <glyph glyph-name="onesuperior" unicode="&#xb9;" horiz-adv-x="256" 
d="M143 333v373l3 54c-29 -2 -63 -6 -91 -8l-5 58l156 13v-490h-63z" />
    <glyph glyph-name="ordmasculine" unicode="&#xba;" horiz-adv-x="577" 
d="M60 597c0 126 102 228 228 228c125 0 229 -102 229 -228c0 -125 -104 -227 -229 -227c-126 0 -228 102 -228 227zM142 597c0 -86 64 -154 147 -154c81 0 147 68 147 154s-66 156 -147 156c-83 0 -147 -70 -147 -156z" />
    <glyph glyph-name="guillemotright" unicode="&#xbb;" horiz-adv-x="470" 
d="M200 492h74l126 -214l-126 -214h-74l88 150l38 61v6l-38 62zM50 492h74l126 -214l-126 -214h-74l88 150l38 61v6l-38 62z" />
    <glyph glyph-name="onequarter" unicode="&#xbc;" horiz-adv-x="843" 
d="M747 0h-63v112h-239v48l241 325h61v-314h46v-59h-46v-112zM528 171h156v215h-4l-31 -52l-85 -114l-36 -45v-4zM143 333v373l3 54c-29 -2 -63 -6 -91 -8l-5 58l156 13v-490h-63zM609 809h-76l-324 -809h74z" />
    <glyph glyph-name="onehalf" unicode="&#xbd;" horiz-adv-x="838" 
d="M143 333v373l3 54c-29 -2 -63 -6 -91 -8l-5 58l156 13v-490h-63zM559 809h-76l-324 -809h74zM721 343c0 45 -35 91 -86 91c-41 0 -77 -36 -89 -83l-55 32c18 62 79 109 144 109c81 0 153 -60 153 -149c0 -40 -15 -75 -45 -106l-113 -117l-61 -53v-4h218v-63h-309v52
l219 229c16 19 24 37 24 62z" />
    <glyph glyph-name="threequarters" unicode="&#xbe;" horiz-adv-x="902" 
d="M604 809h76l-326 -809h-74zM284 604v-4c46 -21 77 -67 77 -123c0 -96 -74 -154 -161 -154c-67 0 -126 39 -150 104l57 35c10 -46 50 -81 93 -81c52 0 94 38 94 96c0 47 -39 96 -91 96h-48v58h48c34 0 66 32 66 67c0 40 -32 69 -71 69c-28 0 -55 -20 -67 -52l-57 33
c23 47 72 77 124 77c74 0 138 -48 138 -127c0 -40 -20 -73 -52 -94zM806 0h-63v112h-239v48l241 325h61v-314h46v-59h-46v-112zM587 171h156v215h-4l-31 -52l-85 -114l-36 -45v-4z" />
    <glyph glyph-name="questiondown" unicode="&#xbf;" horiz-adv-x="556" 
d="M219 116c-54 -33 -88 -66 -88 -134c0 -86 70 -168 162 -168c84 0 154 69 162 154l81 -45c-29 -116 -128 -190 -244 -190c-134 0 -252 96 -252 252c0 102 44 152 133 206c54 32 95 68 95 138v41h88v-42c0 -108 -43 -154 -137 -212zM360 557v-121h-95v121h95z" />
    <glyph glyph-name="Agrave" unicode="&#xc0;" horiz-adv-x="747" 
d="M216 288h315l-119 306l-35 99h-8l-34 -99zM565 200h-383l-78 -200h-104l317 809h113l317 -809h-103zM285 1056h77l80 -169h-69z" />
    <glyph glyph-name="Aacute" unicode="&#xc1;" horiz-adv-x="747" 
d="M216 288h315l-119 306l-35 99h-8l-34 -99zM565 200h-383l-78 -200h-104l317 809h113l317 -809h-103zM435 1056h77l-88 -169h-69z" />
    <glyph glyph-name="Acircumflex" unicode="&#xc2;" horiz-adv-x="747" 
d="M216 288h315l-119 306l-35 99h-8l-34 -99zM565 200h-383l-78 -200h-104l317 809h113l317 -809h-103zM291 895h-84l130 161h73l130 -161h-84l-25 32l-54 78h-7l-54 -78z" />
    <glyph glyph-name="Atilde" unicode="&#xc3;" horiz-adv-x="747" 
d="M216 288h315l-119 306l-35 99h-8l-34 -99zM565 200h-383l-78 -200h-104l317 809h113l317 -809h-103zM241 922l-47 41c25 29 58 59 101 59c55 0 101 -42 154 -42c24 0 44 21 57 38l47 -41c-28 -32 -62 -59 -105 -59c-53 0 -97 41 -151 41c-24 0 -43 -20 -56 -37z" />
    <glyph glyph-name="Adieresis" unicode="&#xc4;" horiz-adv-x="747" 
d="M216 288h315l-119 306l-35 99h-8l-34 -99zM565 200h-383l-78 -200h-104l317 809h113l317 -809h-103zM227 893v114h82v-114h-82zM437 893v114h82v-114h-82z" />
    <glyph glyph-name="Aring" unicode="&#xc5;" horiz-adv-x="747" 
d="M216 288h315l-119 306l-35 99h-8l-34 -99zM565 200h-383l-78 -200h-104l317 809h113l317 -809h-103zM273 970c0 56 44 101 100 101s101 -45 101 -101s-45 -100 -101 -100s-100 44 -100 100zM322 970c0 -28 23 -51 51 -51c29 0 52 23 52 51c0 29 -23 52 -52 52
c-28 0 -51 -23 -51 -52z" />
    <glyph glyph-name="AE" unicode="&#xc6;" horiz-adv-x="1018" 
d="M454 289v432h-8l-55 -97l-208 -335h271zM454 0v201h-326l-125 -201h-103l503 809h595v-88h-448v-239h370v-88h-370v-306h448v-88h-544z" />
    <glyph glyph-name="Ccedilla" unicode="&#xc7;" horiz-adv-x="836" 
d="M498 -48l1 -2c53 -3 99 -41 99 -103c0 -60 -45 -103 -103 -103c-42 0 -81 25 -98 69l47 24c4 -23 25 -42 51 -42s52 23 52 52c0 26 -23 52 -52 52c-15 0 -34 -7 -41 -20l-54 11l62 93c-219 15 -392 196 -392 420c0 233 188 422 421 422c135 0 256 -64 333 -163l-77 -60
c-58 82 -151 135 -256 135c-176 0 -317 -150 -317 -334s141 -333 317 -333c105 0 198 53 256 135l79 -58c-72 -93 -182 -155 -306 -164l-1 -2z" />
    <glyph glyph-name="Egrave" unicode="&#xc8;" horiz-adv-x="704" 
d="M684 721h-468v-239h389v-88h-389v-306h468v-88h-564v809h564v-88zM313 1056h77l80 -169h-69z" />
    <glyph glyph-name="Eacute" unicode="&#xc9;" horiz-adv-x="704" 
d="M684 721h-468v-239h389v-88h-389v-306h468v-88h-564v809h564v-88zM433 1056h77l-88 -169h-69z" />
    <glyph glyph-name="Ecircumflex" unicode="&#xca;" horiz-adv-x="704" 
d="M684 721h-468v-239h389v-88h-389v-306h468v-88h-564v809h564v-88zM329 895h-84l130 161h73l130 -161h-84l-25 32l-54 78h-7l-54 -78z" />
    <glyph glyph-name="Edieresis" unicode="&#xcb;" horiz-adv-x="704" 
d="M684 721h-468v-239h389v-88h-389v-306h468v-88h-564v809h564v-88zM256 893v114h82v-114h-82zM466 893v114h82v-114h-82z" />
    <glyph glyph-name="Igrave" unicode="&#xcc;" horiz-adv-x="334" 
d="M120 809h94v-809h-94v809zM88 1056h77l80 -169h-69z" />
    <glyph glyph-name="Iacute" unicode="&#xcd;" horiz-adv-x="334" 
d="M120 809h94v-809h-94v809zM168 1056h77l-88 -169h-69z" />
    <glyph glyph-name="Icircumflex" unicode="&#xce;" horiz-adv-x="334" 
d="M120 809h94v-809h-94v809zM85 895h-84l130 161h73l130 -161h-84l-25 32l-54 78h-7l-54 -78z" />
    <glyph glyph-name="Idieresis" unicode="&#xcf;" horiz-adv-x="334" 
d="M120 809h94v-809h-94v809zM21 893v114h82v-114h-82zM231 893v114h82v-114h-82z" />
    <glyph glyph-name="Eth" unicode="&#xd0;" horiz-adv-x="851" 
d="M23 401v80h79v328h274c224 0 405 -181 405 -405s-181 -404 -405 -404h-274v401h-79zM379 721h-181v-240h188v-80h-188v-313h181c163 0 298 141 298 316s-135 317 -298 317z" />
    <glyph glyph-name="Ntilde" unicode="&#xd1;" horiz-adv-x="915" 
d="M225 660h-9v-660h-96v809h99l429 -587l43 -72h8v659h96v-809h-98l-429 588zM335 922l-47 41c25 29 58 59 101 59c55 0 101 -42 154 -42c24 0 44 21 57 38l47 -41c-28 -32 -62 -59 -105 -59c-53 0 -97 41 -151 41c-24 0 -43 -20 -56 -37z" />
    <glyph glyph-name="Ograve" unicode="&#xd2;" horiz-adv-x="983" 
d="M70 403c0 233 188 422 421 422s422 -189 422 -422s-189 -421 -422 -421s-421 188 -421 421zM174 403c0 -184 141 -333 317 -333s318 149 318 333s-142 334 -318 334s-317 -150 -317 -334zM413 1056h77l80 -169h-69z" />
    <glyph glyph-name="Oacute" unicode="&#xd3;" horiz-adv-x="983" 
d="M70 403c0 233 188 422 421 422s422 -189 422 -422s-189 -421 -422 -421s-421 188 -421 421zM174 403c0 -184 141 -333 317 -333s318 149 318 333s-142 334 -318 334s-317 -150 -317 -334zM503 1056h77l-88 -169h-69z" />
    <glyph glyph-name="Ocircumflex" unicode="&#xd4;" horiz-adv-x="983" 
d="M70 403c0 233 188 422 421 422s422 -189 422 -422s-189 -421 -422 -421s-421 188 -421 421zM174 403c0 -184 141 -333 317 -333s318 149 318 333s-142 334 -318 334s-317 -150 -317 -334zM409 895h-84l130 161h73l130 -161h-84l-25 32l-54 78h-7l-54 -78z" />
    <glyph glyph-name="Otilde" unicode="&#xd5;" horiz-adv-x="983" 
d="M70 403c0 233 188 422 421 422s422 -189 422 -422s-189 -421 -422 -421s-421 188 -421 421zM174 403c0 -184 141 -333 317 -333s318 149 318 333s-142 334 -318 334s-317 -150 -317 -334zM359 922l-47 41c25 29 58 59 101 59c55 0 101 -42 154 -42c24 0 44 21 57 38
l47 -41c-28 -32 -62 -59 -105 -59c-53 0 -97 41 -151 41c-24 0 -43 -20 -56 -37z" />
    <glyph glyph-name="Odieresis" unicode="&#xd6;" horiz-adv-x="983" 
d="M70 403c0 233 188 422 421 422s422 -189 422 -422s-189 -421 -422 -421s-421 188 -421 421zM174 403c0 -184 141 -333 317 -333s318 149 318 333s-142 334 -318 334s-317 -150 -317 -334zM345 893v114h82v-114h-82zM555 893v114h82v-114h-82z" />
    <glyph glyph-name="multiply" unicode="&#xd7;" horiz-adv-x="550" 
d="M500 109l-55 -55l-170 170l-170 -170l-55 55l170 170l-170 169l55 55l170 -170l170 170l55 -55l-170 -169z" />
    <glyph glyph-name="Oslash" unicode="&#xd8;" horiz-adv-x="983" 
d="M70 403c0 233 188 422 421 422c79 0 154 -22 218 -61l58 75h96l-94 -119c88 -78 144 -191 144 -317c0 -233 -189 -421 -422 -421c-90 0 -172 28 -240 75l-45 -57h-96l82 105c-76 76 -122 182 -122 298zM809 403c0 95 -38 180 -99 241l-402 -514c52 -38 115 -60 183 -60
c176 0 318 149 318 333zM174 403c0 -85 29 -162 79 -221l398 509c-47 29 -102 46 -160 46c-176 0 -317 -150 -317 -334z" />
    <glyph glyph-name="Ugrave" unicode="&#xd9;" horiz-adv-x="872" 
d="M666 300v509h96v-504c0 -180 -146 -323 -326 -323s-326 144 -326 324v503h96v-509c0 -127 103 -230 230 -230s230 103 230 230zM347 1056h77l80 -169h-69z" />
    <glyph glyph-name="Uacute" unicode="&#xda;" horiz-adv-x="872" 
d="M666 300v509h96v-504c0 -180 -146 -323 -326 -323s-326 144 -326 324v503h96v-509c0 -127 103 -230 230 -230s230 103 230 230zM447 1056h77l-88 -169h-69z" />
    <glyph glyph-name="Ucircumflex" unicode="&#xdb;" horiz-adv-x="872" 
d="M666 300v509h96v-504c0 -180 -146 -323 -326 -323s-326 144 -326 324v503h96v-509c0 -127 103 -230 230 -230s230 103 230 230zM353 895h-84l130 161h73l130 -161h-84l-25 32l-54 78h-7l-54 -78z" />
    <glyph glyph-name="Udieresis" unicode="&#xdc;" horiz-adv-x="872" 
d="M666 300v509h96v-504c0 -180 -146 -323 -326 -323s-326 144 -326 324v503h96v-509c0 -127 103 -230 230 -230s230 103 230 230zM290 893v114h82v-114h-82zM500 893v114h82v-114h-82z" />
    <glyph glyph-name="Yacute" unicode="&#xdd;" horiz-adv-x="716" 
d="M312 0v320l-302 489h112l180 -291l54 -98h8l55 98l181 291h106l-298 -486v-323h-96zM399 1056h77l-88 -169h-69z" />
    <glyph glyph-name="Thorn" unicode="&#xde;" horiz-adv-x="727" 
d="M217 249h232c85 0 154 69 154 154s-69 154 -154 154h-232v-308zM120 0v809h97v-164h248c134 0 242 -108 242 -242s-108 -242 -242 -242h-248v-161h-97z" />
    <glyph glyph-name="germandbls" unicode="&#xdf;" horiz-adv-x="706" 
d="M504 459v-6c89 -39 152 -120 152 -221c0 -139 -94 -250 -235 -250c-89 0 -174 46 -204 136l78 46c8 -63 62 -102 124 -102c90 0 144 73 144 170c0 92 -69 169 -163 169h-101v81h61c69 0 131 59 131 132c0 75 -54 131 -140 131c-106 0 -163 -75 -163 -173v-572h-88v572
c0 140 95 254 253 254c128 0 230 -85 230 -214c0 -66 -26 -117 -79 -153z" />
    <glyph glyph-name="agrave" unicode="&#xe0;" 
d="M153 278c0 -119 91 -215 204 -215s205 96 205 215s-92 216 -205 216s-204 -97 -204 -216zM357 575c84 0 150 -30 197 -91h8v73h89v-307c0 -88 6 -171 19 -249l-75 -9l-17 106h-6c-47 -77 -118 -116 -215 -116c-164 0 -297 132 -297 296s133 297 297 297zM282 804h77
l80 -169h-69z" />
    <glyph glyph-name="aacute" unicode="&#xe1;" 
d="M153 278c0 -119 91 -215 204 -215s205 96 205 215s-92 216 -205 216s-204 -97 -204 -216zM357 575c84 0 150 -30 197 -91h8v73h89v-307c0 -88 6 -171 19 -249l-75 -9l-17 106h-6c-47 -77 -118 -116 -215 -116c-164 0 -297 132 -297 296s133 297 297 297zM402 804h77
l-88 -169h-69z" />
    <glyph glyph-name="acircumflex" unicode="&#xe2;" 
d="M153 278c0 -119 91 -215 204 -215s205 96 205 215s-92 216 -205 216s-204 -97 -204 -216zM357 575c84 0 150 -30 197 -91h8v73h89v-307c0 -88 6 -171 19 -249l-75 -9l-17 106h-6c-47 -77 -118 -116 -215 -116c-164 0 -297 132 -297 296s133 297 297 297zM288 643h-84
l130 161h73l130 -161h-84l-25 32l-54 78h-7l-54 -78z" />
    <glyph glyph-name="atilde" unicode="&#xe3;" 
d="M153 278c0 -119 91 -215 204 -215s205 96 205 215s-92 216 -205 216s-204 -97 -204 -216zM357 575c84 0 150 -30 197 -91h8v73h89v-307c0 -88 6 -171 19 -249l-75 -9l-17 106h-6c-47 -77 -118 -116 -215 -116c-164 0 -297 132 -297 296s133 297 297 297zM238 670l-47 41
c25 29 58 59 101 59c55 0 101 -42 154 -42c24 0 44 21 57 38l47 -41c-28 -32 -62 -59 -105 -59c-53 0 -97 41 -151 41c-24 0 -43 -20 -56 -37z" />
    <glyph glyph-name="adieresis" unicode="&#xe4;" 
d="M153 278c0 -119 91 -215 204 -215s205 96 205 215s-92 216 -205 216s-204 -97 -204 -216zM357 575c84 0 150 -30 197 -91h8v73h89v-307c0 -88 6 -171 19 -249l-75 -9l-17 106h-6c-47 -77 -118 -116 -215 -116c-164 0 -297 132 -297 296s133 297 297 297zM225 641v114h82
v-114h-82zM435 641v114h82v-114h-82z" />
    <glyph glyph-name="aring" unicode="&#xe5;" 
d="M153 278c0 -119 91 -215 204 -215s205 96 205 215s-92 216 -205 216s-204 -97 -204 -216zM357 575c84 0 150 -30 197 -91h8v73h89v-307c0 -88 6 -171 19 -249l-75 -9l-17 106h-6c-47 -77 -118 -116 -215 -116c-164 0 -297 132 -297 296s133 297 297 297zM270 718
c0 56 44 101 100 101s101 -45 101 -101s-45 -100 -101 -100s-100 44 -100 100zM319 718c0 -28 23 -51 51 -51c29 0 52 23 52 51c0 29 -23 52 -52 52c-28 0 -51 -23 -51 -52z" />
    <glyph glyph-name="ae" unicode="&#xe6;" horiz-adv-x="1206" 
d="M1154 249h-498c14 -105 100 -186 204 -186c76 0 147 31 188 92l74 -49c-58 -83 -153 -124 -264 -124c-76 0 -140 28 -188 74h-8c2 -19 5 -37 8 -55l-75 -9l-17 106h-6c-47 -77 -118 -116 -215 -116c-164 0 -297 132 -297 296s133 297 297 297c84 0 150 -30 197 -91h8v73
h89v-68h8c48 53 117 86 199 86c111 0 208 -60 259 -150c30 -51 44 -116 37 -176zM153 278c0 -119 91 -215 204 -215s205 96 205 215s-92 216 -205 216s-204 -97 -204 -216zM858 494c-98 0 -179 -72 -199 -168h399c-21 96 -103 168 -200 168z" />
    <glyph glyph-name="ccedilla" unicode="&#xe7;" horiz-adv-x="642" 
d="M361 -48l1 -2c53 -3 99 -41 99 -103c0 -60 -45 -103 -103 -103c-42 0 -81 25 -98 69l47 24c4 -23 25 -42 51 -42s52 23 52 52c0 26 -23 52 -52 52c-15 0 -34 -7 -41 -20l-54 11l62 94c-149 15 -265 140 -265 294c0 164 133 297 297 297c106 0 200 -56 253 -140l-78 -44
c-36 62 -101 103 -175 103c-113 0 -204 -96 -204 -215s91 -216 204 -216c75 0 141 42 177 106l78 -45c-48 -78 -132 -132 -229 -141l-1 -2z" />
    <glyph glyph-name="egrave" unicode="&#xe8;" horiz-adv-x="705" 
d="M653 249h-498c14 -105 100 -186 204 -186c76 0 147 31 188 92l74 -49c-58 -83 -153 -124 -264 -124c-164 0 -297 132 -297 296s133 297 297 297c111 0 208 -60 259 -150c30 -51 44 -116 37 -176zM357 494c-98 0 -179 -72 -199 -168h399c-21 96 -103 168 -200 168z
M274 804h77l80 -169h-69z" />
    <glyph glyph-name="eacute" unicode="&#xe9;" horiz-adv-x="705" 
d="M653 249h-498c14 -105 100 -186 204 -186c76 0 147 31 188 92l74 -49c-58 -83 -153 -124 -264 -124c-164 0 -297 132 -297 296s133 297 297 297c111 0 208 -60 259 -150c30 -51 44 -116 37 -176zM357 494c-98 0 -179 -72 -199 -168h399c-21 96 -103 168 -200 168z
M404 804h77l-88 -169h-69z" />
    <glyph glyph-name="ecircumflex" unicode="&#xea;" horiz-adv-x="705" 
d="M653 249h-498c14 -105 100 -186 204 -186c76 0 147 31 188 92l74 -49c-58 -83 -153 -124 -264 -124c-164 0 -297 132 -297 296s133 297 297 297c111 0 208 -60 259 -150c30 -51 44 -116 37 -176zM357 494c-98 0 -179 -72 -199 -168h399c-21 96 -103 168 -200 168z
M280 643h-84l130 161h73l130 -161h-84l-25 32l-54 78h-7l-54 -78z" />
    <glyph glyph-name="edieresis" unicode="&#xeb;" horiz-adv-x="705" 
d="M653 249h-498c14 -105 100 -186 204 -186c76 0 147 31 188 92l74 -49c-58 -83 -153 -124 -264 -124c-164 0 -297 132 -297 296s133 297 297 297c111 0 208 -60 259 -150c30 -51 44 -116 37 -176zM357 494c-98 0 -179 -72 -199 -168h399c-21 96 -103 168 -200 168z
M216 641v114h82v-114h-82zM426 641v114h82v-114h-82z" />
    <glyph glyph-name="igrave" unicode="&#xec;" horiz-adv-x="269" 
d="M179 0h-89v557h89v-557zM56 804h77l80 -169h-69z" />
    <glyph glyph-name="iacute" unicode="&#xed;" horiz-adv-x="269" 
d="M179 0h-89v557h89v-557zM136 804h77l-88 -169h-69z" />
    <glyph glyph-name="icircumflex" unicode="&#xee;" horiz-adv-x="269" 
d="M179 0h-89v557h89v-557zM52 643h-84l130 161h73l130 -161h-84l-25 32l-54 78h-7l-54 -78z" />
    <glyph glyph-name="idieresis" unicode="&#xef;" horiz-adv-x="269" 
d="M179 0h-89v557h89v-557zM-11 641v114h82v-114h-82zM199 641v114h82v-114h-82z" />
    <glyph glyph-name="eth" unicode="&#xf0;" horiz-adv-x="715" 
d="M153 279c0 -119 91 -216 204 -216s205 97 205 216s-92 215 -205 215s-204 -96 -204 -215zM415 569v7l-57 73l-16 21h-140v72h91l-49 67h100l48 -67h165v-72h-114l158 -222c34 -48 54 -107 54 -170c0 -164 -134 -296 -298 -296s-297 132 -297 296s133 297 297 297
c20 0 39 -2 58 -6z" />
    <glyph glyph-name="ntilde" unicode="&#xf1;" horiz-adv-x="734" 
d="M644 311v-311h-89v310c0 109 -73 184 -188 184c-102 0 -186 -76 -186 -184v-310h-89v308c0 81 -7 164 -20 249l76 9l16 -99h8c48 65 120 108 215 108c77 0 134 -24 183 -71s73 -111 74 -193zM244 670l-47 41c25 29 58 59 101 59c55 0 101 -42 154 -42c24 0 44 21 57 38
l47 -41c-28 -32 -62 -59 -105 -59c-53 0 -97 41 -151 41c-24 0 -43 -20 -56 -37z" />
    <glyph glyph-name="ograve" unicode="&#xf2;" horiz-adv-x="715" 
d="M153 279c0 -119 91 -216 204 -216s205 97 205 216s-92 215 -205 215s-204 -96 -204 -215zM60 278c0 164 133 297 297 297s298 -133 298 -297s-134 -296 -298 -296s-297 132 -297 296zM279 804h77l80 -169h-69z" />
    <glyph glyph-name="oacute" unicode="&#xf3;" horiz-adv-x="715" 
d="M153 279c0 -119 91 -216 204 -216s205 97 205 216s-92 215 -205 215s-204 -96 -204 -215zM60 278c0 164 133 297 297 297s298 -133 298 -297s-134 -296 -298 -296s-297 132 -297 296zM389 804h77l-88 -169h-69z" />
    <glyph glyph-name="ocircumflex" unicode="&#xf4;" horiz-adv-x="715" 
d="M153 279c0 -119 91 -216 204 -216s205 97 205 216s-92 215 -205 215s-204 -96 -204 -215zM60 278c0 164 133 297 297 297s298 -133 298 -297s-134 -296 -298 -296s-297 132 -297 296zM275 643h-84l130 161h73l130 -161h-84l-25 32l-54 78h-7l-54 -78z" />
    <glyph glyph-name="otilde" unicode="&#xf5;" horiz-adv-x="715" 
d="M153 279c0 -119 91 -216 204 -216s205 97 205 216s-92 215 -205 215s-204 -96 -204 -215zM60 278c0 164 133 297 297 297s298 -133 298 -297s-134 -296 -298 -296s-297 132 -297 296zM225 670l-47 41c25 29 58 59 101 59c55 0 101 -42 154 -42c24 0 44 21 57 38l47 -41
c-28 -32 -62 -59 -105 -59c-53 0 -97 41 -151 41c-24 0 -43 -20 -56 -37z" />
    <glyph glyph-name="odieresis" unicode="&#xf6;" horiz-adv-x="715" 
d="M153 279c0 -119 91 -216 204 -216s205 97 205 216s-92 215 -205 215s-204 -96 -204 -215zM60 278c0 164 133 297 297 297s298 -133 298 -297s-134 -296 -298 -296s-297 132 -297 296zM211 641v114h82v-114h-82zM421 641v114h82v-114h-82z" />
    <glyph glyph-name="divide" unicode="&#xf7;" horiz-adv-x="589" 
d="M249 0v121h95v-121h-95zM244 435v122h96v-122h-96zM70 240v77h449v-77h-449z" />
    <glyph glyph-name="oslash" unicode="&#xf8;" horiz-adv-x="715" 
d="M60 278c0 164 133 297 297 297c56 0 109 -16 154 -43l34 43h84l-66 -83c56 -54 92 -130 92 -214c0 -164 -134 -296 -298 -296c-61 0 -117 18 -164 48l-24 -30h-84l58 72c-52 53 -83 126 -83 206zM562 279c0 56 -20 107 -54 145l-261 -327c32 -21 69 -34 110 -34
c113 0 205 97 205 216zM153 279c0 -52 17 -99 46 -137l259 324c-30 18 -65 28 -101 28c-113 0 -204 -96 -204 -215z" />
    <glyph glyph-name="ugrave" unicode="&#xf9;" horiz-adv-x="734" 
d="M90 246v311h89v-310c0 -109 73 -184 188 -184c102 0 186 76 186 184v310h89v-308c0 -81 7 -164 20 -249l-76 -9l-16 99h-8c-48 -65 -120 -108 -215 -108c-77 0 -134 24 -183 71s-73 111 -74 193zM278 804h77l80 -169h-69z" />
    <glyph glyph-name="uacute" unicode="&#xfa;" horiz-adv-x="734" 
d="M90 246v311h89v-310c0 -109 73 -184 188 -184c102 0 186 76 186 184v310h89v-308c0 -81 7 -164 20 -249l-76 -9l-16 99h-8c-48 -65 -120 -108 -215 -108c-77 0 -134 24 -183 71s-73 111 -74 193zM398 804h77l-88 -169h-69z" />
    <glyph glyph-name="ucircumflex" unicode="&#xfb;" horiz-adv-x="734" 
d="M90 246v311h89v-310c0 -109 73 -184 188 -184c102 0 186 76 186 184v310h89v-308c0 -81 7 -164 20 -249l-76 -9l-16 99h-8c-48 -65 -120 -108 -215 -108c-77 0 -134 24 -183 71s-73 111 -74 193zM284 643h-84l130 161h73l130 -161h-84l-25 32l-54 78h-7l-54 -78z" />
    <glyph glyph-name="udieresis" unicode="&#xfc;" horiz-adv-x="734" 
d="M90 246v311h89v-310c0 -109 73 -184 188 -184c102 0 186 76 186 184v310h89v-308c0 -81 7 -164 20 -249l-76 -9l-16 99h-8c-48 -65 -120 -108 -215 -108c-77 0 -134 24 -183 71s-73 111 -74 193zM221 641v114h82v-114h-82zM431 641v114h82v-114h-82z" />
    <glyph glyph-name="yacute" unicode="&#xfd;" horiz-adv-x="596" 
d="M256 -15l6 13l-252 559h97l165 -368l29 -93h8l28 79l161 382h88l-256 -603c-33 -77 -75 -148 -127 -217l-61 52c46 57 83 124 114 196zM349 804h77l-88 -169h-69z" />
    <glyph glyph-name="thorn" unicode="&#xfe;" horiz-adv-x="741" 
d="M178 278c0 -119 91 -215 204 -215s205 96 205 215s-92 216 -205 216s-204 -97 -204 -216zM681 279c0 -164 -134 -297 -298 -297c-84 0 -150 30 -197 91h-7v-336h-89v1072h89v-325h7c47 61 113 91 197 91c164 0 298 -132 298 -296z" />
    <glyph glyph-name="ydieresis" unicode="&#xff;" horiz-adv-x="596" 
d="M256 -15l6 13l-252 559h97l165 -368l29 -93h8l28 79l161 382h88l-256 -603c-33 -77 -75 -148 -127 -217l-61 52c46 57 83 124 114 196zM152 641v114h82v-114h-82zM362 641v114h82v-114h-82z" />
    <glyph glyph-name="Amacron" unicode="&#x100;" horiz-adv-x="747" 
d="M216 288h315l-119 306l-35 99h-8l-34 -99zM565 200h-383l-78 -200h-104l317 809h113l317 -809h-103zM233 929v62h280v-62h-280z" />
    <glyph glyph-name="amacron" unicode="&#x101;" 
d="M153 278c0 -119 91 -215 204 -215s205 96 205 215s-92 216 -205 216s-204 -97 -204 -216zM357 575c84 0 150 -30 197 -91h8v73h89v-307c0 -88 6 -171 19 -249l-75 -9l-17 106h-6c-47 -77 -118 -116 -215 -116c-164 0 -297 132 -297 296s133 297 297 297zM241 677v62h280
v-62h-280z" />
    <glyph glyph-name="Abreve" unicode="&#x102;" horiz-adv-x="747" 
d="M216 288h315l-119 306l-35 99h-8l-34 -99zM565 200h-383l-78 -200h-104l317 809h113l317 -809h-103zM194 994h77c25 -22 59 -32 101 -32c33 0 71 7 101 32h80c-38 -62 -109 -95 -181 -95c-69 0 -133 28 -178 95z" />
    <glyph glyph-name="abreve" unicode="&#x103;" 
d="M153 278c0 -119 91 -215 204 -215s205 96 205 215s-92 216 -205 216s-204 -97 -204 -216zM357 575c84 0 150 -30 197 -91h8v73h89v-307c0 -88 6 -171 19 -249l-75 -9l-17 106h-6c-47 -77 -118 -116 -215 -116c-164 0 -297 132 -297 296s133 297 297 297zM201 742h77
c25 -22 59 -32 101 -32c33 0 71 7 101 32h80c-38 -62 -109 -95 -181 -95c-69 0 -133 28 -178 95z" />
    <glyph glyph-name="Aogonek" unicode="&#x104;" horiz-adv-x="747" 
d="M701 -174l46 -24c-20 -33 -51 -58 -94 -58c-87 0 -137 103 -78 171l75 85h-6l-79 200h-383l-78 -200h-104l317 809h113l317 -809h-29l-104 -120c-30 -30 -4 -85 39 -85c21 0 38 12 48 31zM216 288h315l-119 306l-35 99h-8l-34 -99z" />
    <glyph glyph-name="aogonek" unicode="&#x105;" 
d="M644 -174l46 -24c-20 -33 -51 -58 -94 -58c-87 0 -137 103 -78 171l75 85l-15 98h-6c-47 -77 -118 -116 -215 -116c-164 0 -297 132 -297 296s133 297 297 297c84 0 150 -30 197 -91h8v73h89v-307c0 -88 6 -171 19 -249l-9 -1l-104 -120c-30 -30 -4 -85 39 -85
c21 0 38 12 48 31zM153 278c0 -119 91 -215 204 -215s205 96 205 215s-92 216 -205 216s-204 -97 -204 -216z" />
    <glyph glyph-name="Cacute" unicode="&#x106;" horiz-adv-x="836" 
d="M824 662l-77 -60c-58 82 -151 135 -256 135c-176 0 -317 -150 -317 -334s141 -333 317 -333c105 0 198 53 256 135l79 -58c-77 -100 -199 -165 -335 -165c-233 0 -421 188 -421 421s188 422 421 422c135 0 256 -64 333 -163zM519 1056h77l-88 -169h-69z" />
    <glyph glyph-name="cacute" unicode="&#x107;" horiz-adv-x="642" 
d="M610 435l-78 -44c-36 62 -101 103 -175 103c-113 0 -204 -96 -204 -215s91 -216 204 -216c75 0 141 42 177 106l78 -45c-52 -85 -147 -142 -255 -142c-164 0 -297 132 -297 296s133 297 297 297c106 0 200 -56 253 -140zM392 804h77l-88 -169h-69z" />
    <glyph glyph-name="Ccircumflex" unicode="&#x108;" horiz-adv-x="836" 
d="M824 662l-77 -60c-58 82 -151 135 -256 135c-176 0 -317 -150 -317 -334s141 -333 317 -333c105 0 198 53 256 135l79 -58c-77 -100 -199 -165 -335 -165c-233 0 -421 188 -421 421s188 422 421 422c135 0 256 -64 333 -163zM425 895h-84l130 161h73l130 -161h-84l-25 32
l-54 78h-7l-54 -78z" />
    <glyph glyph-name="ccircumflex" unicode="&#x109;" horiz-adv-x="642" 
d="M610 435l-78 -44c-36 62 -101 103 -175 103c-113 0 -204 -96 -204 -215s91 -216 204 -216c75 0 141 42 177 106l78 -45c-52 -85 -147 -142 -255 -142c-164 0 -297 132 -297 296s133 297 297 297c106 0 200 -56 253 -140zM278 643h-84l130 161h73l130 -161h-84l-25 32
l-54 78h-7l-54 -78z" />
    <glyph glyph-name="Cdotaccent" unicode="&#x10a;" horiz-adv-x="836" 
d="M824 662l-77 -60c-58 82 -151 135 -256 135c-176 0 -317 -150 -317 -334s141 -333 317 -333c105 0 198 53 256 135l79 -58c-77 -100 -199 -165 -335 -165c-233 0 -421 188 -421 421s188 422 421 422c135 0 256 -64 333 -163zM457 893v114h82v-114h-82z" />
    <glyph glyph-name="cdotaccent" unicode="&#x10b;" horiz-adv-x="642" 
d="M610 435l-78 -44c-36 62 -101 103 -175 103c-113 0 -204 -96 -204 -215s91 -216 204 -216c75 0 141 42 177 106l78 -45c-52 -85 -147 -142 -255 -142c-164 0 -297 132 -297 296s133 297 297 297c106 0 200 -56 253 -140zM320 641v114h82v-114h-82z" />
    <glyph glyph-name="Ccaron" unicode="&#x10c;" horiz-adv-x="836" 
d="M824 662l-77 -60c-58 82 -151 135 -256 135c-176 0 -317 -150 -317 -334s141 -333 317 -333c105 0 198 53 256 135l79 -58c-77 -100 -199 -165 -335 -165c-233 0 -421 188 -421 421s188 422 421 422c135 0 256 -64 333 -163zM331 1056h84l25 -32l54 -78h7l54 78l25 32h83
l-129 -161h-73z" />
    <glyph glyph-name="ccaron" unicode="&#x10d;" horiz-adv-x="642" 
d="M610 435l-78 -44c-36 62 -101 103 -175 103c-113 0 -204 -96 -204 -215s91 -216 204 -216c75 0 141 42 177 106l78 -45c-52 -85 -147 -142 -255 -142c-164 0 -297 132 -297 296s133 297 297 297c106 0 200 -56 253 -140zM194 804h84l25 -32l54 -78h7l54 78l25 32h83
l-129 -161h-73z" />
    <glyph glyph-name="Dcaron" unicode="&#x10e;" horiz-adv-x="869" 
d="M394 0h-274v809h274c224 0 405 -181 405 -405s-181 -404 -405 -404zM397 721h-181v-633h181c163 0 298 141 298 316s-135 317 -298 317zM268 1056h84l25 -32l54 -78h7l54 78l25 32h83l-129 -161h-73z" />
    <glyph glyph-name="dcaron" unicode="&#x10f;" horiz-adv-x="785" 
d="M563 278c0 119 -91 216 -204 216s-205 -97 -205 -216s92 -215 205 -215s204 96 204 215zM358 -18c-164 0 -298 132 -298 296s134 297 298 297c74 0 150 -30 197 -91h7v325h89v-559c0 -82 6 -165 19 -249l-75 -9l-17 106h-6c-46 -77 -127 -116 -214 -116zM740 809
l-48 -238h62l83 238h-97z" />
    <glyph glyph-name="Dcroat" unicode="&#x110;" horiz-adv-x="869" 
d="M394 0h-275v401h-79v80h79v328h275c224 0 405 -181 405 -405s-181 -404 -405 -404zM396 721h-180v-240h187v-80h-187v-313h180c163 0 298 141 298 316s-135 317 -298 317z" />
    <glyph glyph-name="dcroat" unicode="&#x111;" 
d="M358 648v74h204v87h89v-87h74v-74h-74v-398c0 -82 6 -165 19 -249l-75 -9l-17 106h-6c-46 -77 -117 -116 -214 -116c-164 0 -298 132 -298 296s134 297 298 297c84 0 150 -30 197 -91h7v164h-204zM563 278c0 119 -91 216 -204 216s-205 -97 -205 -216s92 -215 205 -215
s204 96 204 215z" />
    <glyph glyph-name="Emacron" unicode="&#x112;" horiz-adv-x="704" 
d="M684 721h-468v-239h389v-88h-389v-306h468v-88h-564v809h564v-88zM272 929v62h280v-62h-280z" />
    <glyph glyph-name="emacron" unicode="&#x113;" horiz-adv-x="705" 
d="M653 249h-498c14 -105 100 -186 204 -186c76 0 147 31 188 92l74 -49c-58 -83 -153 -124 -264 -124c-164 0 -297 132 -297 296s133 297 297 297c111 0 208 -60 259 -150c30 -51 44 -116 37 -176zM357 494c-98 0 -179 -72 -199 -168h399c-21 96 -103 168 -200 168z
M222 677v62h280v-62h-280z" />
    <glyph glyph-name="Edotaccent" unicode="&#x116;" horiz-adv-x="704" 
d="M684 721h-468v-239h389v-88h-389v-306h468v-88h-564v809h564v-88zM381 893v114h82v-114h-82z" />
    <glyph glyph-name="edotaccent" unicode="&#x117;" horiz-adv-x="705" 
d="M653 249h-498c14 -105 100 -186 204 -186c76 0 147 31 188 92l74 -49c-58 -83 -153 -124 -264 -124c-164 0 -297 132 -297 296s133 297 297 297c111 0 208 -60 259 -150c30 -51 44 -116 37 -176zM357 494c-98 0 -179 -72 -199 -168h399c-21 96 -103 168 -200 168z
M321 641v114h82v-114h-82z" />
    <glyph glyph-name="Eogonek" unicode="&#x118;" horiz-adv-x="704" 
d="M638 -174l46 -24c-20 -33 -51 -58 -94 -58c-87 0 -137 103 -78 171l75 85h-467v809h564v-88h-468v-239h389v-88h-389v-306h468v-88h-29l-104 -120c-30 -30 -4 -85 39 -85c21 0 38 12 48 31z" />
    <glyph glyph-name="eogonek" unicode="&#x119;" horiz-adv-x="705" 
d="M384 -174l46 -24c-20 -33 -51 -58 -94 -58c-87 0 -137 103 -78 171l61 69c-146 18 -259 143 -259 294c0 164 133 297 297 297c111 0 208 -60 259 -150c30 -51 44 -116 37 -176h-498c14 -105 100 -186 204 -186c76 0 147 31 188 92l74 -49c-53 -76 -137 -116 -235 -123
l-89 -103c-30 -30 -4 -85 39 -85c21 0 38 12 48 31zM357 494c-98 0 -179 -72 -199 -168h399c-21 96 -103 168 -200 168z" />
    <glyph glyph-name="Ecaron" unicode="&#x11a;" horiz-adv-x="704" 
d="M684 721h-468v-239h389v-88h-389v-306h468v-88h-564v809h564v-88zM235 1056h84l25 -32l54 -78h7l54 78l25 32h83l-129 -161h-73z" />
    <glyph glyph-name="ecaron" unicode="&#x11b;" horiz-adv-x="705" 
d="M653 249h-498c14 -105 100 -186 204 -186c76 0 147 31 188 92l74 -49c-58 -83 -153 -124 -264 -124c-164 0 -297 132 -297 296s133 297 297 297c111 0 208 -60 259 -150c30 -51 44 -116 37 -176zM357 494c-98 0 -179 -72 -199 -168h399c-21 96 -103 168 -200 168z
M206 804h84l25 -32l54 -78h7l54 78l25 32h83l-129 -161h-73z" />
    <glyph glyph-name="Gcircumflex" unicode="&#x11c;" horiz-adv-x="878" 
d="M491 825c127 0 243 -58 320 -151l-75 -58c-59 73 -148 121 -245 121c-176 0 -317 -150 -317 -334s141 -333 317 -333c95 0 182 43 241 116v145h-301v88h397v-269c-85 -105 -202 -168 -337 -168c-233 0 -421 188 -421 421s188 422 421 422zM426 895h-84l130 161h73
l130 -161h-84l-25 32l-54 78h-7l-54 -78z" />
    <glyph glyph-name="gcircumflex" unicode="&#x11d;" horiz-adv-x="743" 
d="M153 279c0 -119 91 -216 204 -216s205 97 205 216s-92 215 -205 215s-204 -96 -204 -215zM357 575h1c87 0 168 -39 214 -116h6l17 106l76 -9c-13 -79 -20 -162 -20 -249v-260c0 -198 -126 -310 -322 -310c-96 0 -194 48 -247 134l76 42c32 -58 104 -95 171 -95
c141 0 233 70 233 217v37h-7c-47 -60 -123 -90 -198 -90c-164 0 -297 132 -297 296s133 297 297 297zM289 643h-84l130 161h73l130 -161h-84l-25 32l-54 78h-7l-54 -78z" />
    <glyph glyph-name="Gbreve" unicode="&#x11e;" horiz-adv-x="878" 
d="M491 825c127 0 243 -58 320 -151l-75 -58c-59 73 -148 121 -245 121c-176 0 -317 -150 -317 -334s141 -333 317 -333c95 0 182 43 241 116v145h-301v88h397v-269c-85 -105 -202 -168 -337 -168c-233 0 -421 188 -421 421s188 422 421 422zM319 994h77
c25 -22 59 -32 101 -32c33 0 71 7 101 32h80c-38 -62 -109 -95 -181 -95c-69 0 -133 28 -178 95z" />
    <glyph glyph-name="gbreve" unicode="&#x11f;" horiz-adv-x="743" 
d="M153 279c0 -119 91 -216 204 -216s205 97 205 216s-92 215 -205 215s-204 -96 -204 -215zM357 575h1c87 0 168 -39 214 -116h6l17 106l76 -9c-13 -79 -20 -162 -20 -249v-260c0 -198 -126 -310 -322 -310c-96 0 -194 48 -247 134l76 42c32 -58 104 -95 171 -95
c141 0 233 70 233 217v37h-7c-47 -60 -123 -90 -198 -90c-164 0 -297 132 -297 296s133 297 297 297zM202 742h77c25 -22 59 -32 101 -32c33 0 71 7 101 32h80c-38 -62 -109 -95 -181 -95c-69 0 -133 28 -178 95z" />
    <glyph glyph-name="Gdotaccent" unicode="&#x120;" horiz-adv-x="878" 
d="M491 825c127 0 243 -58 320 -151l-75 -58c-59 73 -148 121 -245 121c-176 0 -317 -150 -317 -334s141 -333 317 -333c95 0 182 43 241 116v145h-301v88h397v-269c-85 -105 -202 -168 -337 -168c-233 0 -421 188 -421 421s188 422 421 422zM458 893v114h82v-114h-82z" />
    <glyph glyph-name="gdotaccent" unicode="&#x121;" horiz-adv-x="743" 
d="M153 279c0 -119 91 -216 204 -216s205 97 205 216s-92 215 -205 215s-204 -96 -204 -215zM357 575h1c87 0 168 -39 214 -116h6l17 106l76 -9c-13 -79 -20 -162 -20 -249v-260c0 -198 -126 -310 -322 -310c-96 0 -194 48 -247 134l76 42c32 -58 104 -95 171 -95
c141 0 233 70 233 217v37h-7c-47 -60 -123 -90 -198 -90c-164 0 -297 132 -297 296s133 297 297 297zM330 641v114h82v-114h-82z" />
    <glyph glyph-name="Gcommaaccent" unicode="&#x122;" horiz-adv-x="878" 
d="M491 825c127 0 243 -58 320 -151l-75 -58c-59 73 -148 121 -245 121c-176 0 -317 -150 -317 -334s141 -333 317 -333c95 0 182 43 241 116v145h-301v88h397v-269c-85 -105 -202 -168 -337 -168c-233 0 -421 188 -421 421s188 422 421 422zM528 -44h-83l-39 -195h53z" />
    <glyph glyph-name="gcommaaccent" unicode="&#x123;" horiz-adv-x="743" 
d="M153 279c0 -119 91 -216 204 -216s205 97 205 216s-92 215 -205 215s-204 -96 -204 -215zM357 575h1c87 0 168 -39 214 -116h6l17 106l76 -9c-13 -79 -20 -162 -20 -249v-260c0 -198 -126 -310 -322 -310c-96 0 -194 48 -247 134l76 42c32 -58 104 -95 171 -95
c141 0 233 70 233 217v37h-7c-47 -60 -123 -90 -198 -90c-164 0 -297 132 -297 296s133 297 297 297zM463 873l-48 -238h-97l83 238h62z" />
    <glyph glyph-name="Hcircumflex" unicode="&#x124;" horiz-adv-x="931" 
d="M715 809h96v-809h-96v412h-499v-412h-96v809h96v-309h499v309zM383 895h-84l130 161h73l130 -161h-84l-25 32l-54 78h-7l-54 -78z" />
    <glyph glyph-name="hcircumflex" unicode="&#x125;" horiz-adv-x="732" 
d="M386 575c76 0 133 -24 182 -71s73 -111 74 -193v-311h-89v310c0 109 -73 184 -188 184c-102 0 -186 -76 -186 -184v-310h-89v809h89v-326h5c53 61 117 92 202 92zM310 896h-84l130 161h73l130 -161h-84l-25 32l-54 78h-7l-54 -78z" />
    <glyph glyph-name="Hbar" unicode="&#x126;" horiz-adv-x="931" 
d="M715 809h96v-123h83v-77h-83v-609h-96v412h-499v-412h-96v609h-81v77h81v123h96v-123h499v123zM216 500h499v109h-499v-109z" />
    <glyph glyph-name="hbar" unicode="&#x127;" horiz-adv-x="732" 
d="M386 575c76 0 133 -24 182 -71s73 -111 74 -193v-311h-89v310c0 109 -73 184 -188 184c-102 0 -186 -76 -186 -184v-310h-89v648h-73v74h73v87h89v-87h205v-74h-205v-165h5c53 61 117 92 202 92z" />
    <glyph glyph-name="Itilde" unicode="&#x128;" horiz-adv-x="334" 
d="M120 809h94v-809h-94v809zM35 922l-47 41c25 29 58 59 101 59c55 0 101 -42 154 -42c24 0 44 21 57 38l47 -41c-28 -32 -62 -59 -105 -59c-53 0 -97 41 -151 41c-24 0 -43 -20 -56 -37z" />
    <glyph glyph-name="itilde" unicode="&#x129;" horiz-adv-x="269" 
d="M179 0h-89v557h89v-557zM2 670l-47 41c25 29 58 59 101 59c55 0 101 -42 154 -42c24 0 44 21 57 38l47 -41c-28 -32 -62 -59 -105 -59c-53 0 -97 41 -151 41c-24 0 -43 -20 -56 -37z" />
    <glyph glyph-name="Imacron" unicode="&#x12a;" horiz-adv-x="334" 
d="M120 809h94v-809h-94v809zM27 929v62h280v-62h-280z" />
    <glyph glyph-name="imacron" unicode="&#x12b;" horiz-adv-x="269" 
d="M179 0h-89v557h89v-557zM-5 677v62h280v-62h-280z" />
    <glyph glyph-name="Iogonek" unicode="&#x12e;" horiz-adv-x="334" 
d="M171 -174l46 -24c-20 -33 -51 -58 -94 -58c-87 0 -137 103 -78 171l75 85v809h94v-809h-26l-104 -120c-30 -30 -4 -85 39 -85c21 0 38 12 48 31z" />
    <glyph glyph-name="iogonek" unicode="&#x12f;" horiz-adv-x="283" 
d="M148 -174l46 -24c-20 -33 -51 -58 -94 -58c-87 0 -137 103 -78 171l75 85v557h89v-557h-21l-104 -120c-30 -30 -4 -85 39 -85c21 0 38 12 48 31zM90 630v102h103v-102h-103z" />
    <glyph glyph-name="Idotaccent" unicode="&#x130;" horiz-adv-x="334" 
d="M120 809h94v-809h-94v809zM126 893v114h82v-114h-82z" />
    <glyph glyph-name="dotlessi" unicode="&#x131;" horiz-adv-x="269" 
d="M179 0h-89v557h89v-557z" />
    <glyph glyph-name="Jcircumflex" unicode="&#x134;" horiz-adv-x="526" 
d="M315 180v629h96v-622c0 -114 -92 -205 -206 -205c-91 0 -169 60 -195 142l86 43c5 -55 52 -97 109 -97c60 0 107 43 110 110zM280 895h-84l130 161h73l130 -161h-84l-25 32l-54 78h-7l-54 -78z" />
    <glyph glyph-name="jcircumflex" unicode="&#x135;" horiz-adv-x="283" 
d="M-120 -182l73 42c14 -24 38 -42 68 -42c41 0 76 29 76 77v662h89v-656c0 -91 -71 -164 -162 -164c-61 0 -111 29 -144 81zM59 643h-84l130 161h73l130 -161h-84l-25 32l-54 78h-7l-54 -78z" />
    <glyph glyph-name="Kcommaaccent" unicode="&#x136;" horiz-adv-x="767" 
d="M216 462l396 347h132l-382 -335v-9l60 -55l345 -410h-123l-349 416l-79 -70v-346h-96v809h96v-347zM443 -44h-83l-39 -195h53z" />
    <glyph glyph-name="kcommaaccent" unicode="&#x137;" horiz-adv-x="588" 
d="M295 325l67 -72l216 -252l-1 -1h-113l-235 271l-50 -42v-229h-89v809h89v-475l264 223h125l-206 -174l-67 -51v-7zM343 -44h-83l-39 -195h53z" />
    <glyph glyph-name="kgreenlandic" unicode="&#x138;" horiz-adv-x="588" 
d="M295 325l67 -72l216 -252l-1 -1h-113l-235 271l-50 -42v-229h-89v557h89v-223l264 223h125l-206 -174l-67 -51v-7z" />
    <glyph glyph-name="Lacute" unicode="&#x139;" horiz-adv-x="655" 
d="M216 809v-721h439v-88h-535v809h96zM329 1056h77l-88 -169h-69z" />
    <glyph glyph-name="lacute" unicode="&#x13a;" horiz-adv-x="269" 
d="M179 809v-809h-89v809h89zM154 1056h77l-88 -169h-69z" />
    <glyph glyph-name="Lcommaaccent" unicode="&#x13b;" horiz-adv-x="655" 
d="M216 809v-721h439v-88h-535v809h96zM417 -44h-83l-39 -195h53z" />
    <glyph glyph-name="lcommaaccent" unicode="&#x13c;" horiz-adv-x="269" 
d="M179 809v-809h-89v809h89zM174 -44h-83l-39 -195h53z" />
    <glyph glyph-name="Lcaron" unicode="&#x13d;" horiz-adv-x="655" 
d="M216 809v-721h439v-88h-535v809h96zM409 809l-48 -238h62l83 238h-97z" />
    <glyph glyph-name="lcaron" unicode="&#x13e;" horiz-adv-x="306" 
d="M179 809v-809h-89v809h89zM287 809l-48 -238h62l83 238h-97z" />
    <glyph glyph-name="Lslash" unicode="&#x141;" horiz-adv-x="689" 
d="M250 809v-311l180 102l41 -70l-221 -125v-317h439v-88h-535v350l-63 -35l-41 70l104 59v365h96z" />
    <glyph glyph-name="lslash" unicode="&#x142;" horiz-adv-x="359" 
d="M224 809v-304l84 48l41 -70l-125 -71v-412h-89v362l-84 -47l-41 70l125 70v354h89z" />
    <glyph glyph-name="Nacute" unicode="&#x143;" horiz-adv-x="915" 
d="M225 660h-9v-660h-96v809h99l429 -587l43 -72h8v659h96v-809h-98l-429 588zM509 1056h77l-88 -169h-69z" />
    <glyph glyph-name="nacute" unicode="&#x144;" horiz-adv-x="734" 
d="M644 311v-311h-89v310c0 109 -73 184 -188 184c-102 0 -186 -76 -186 -184v-310h-89v308c0 81 -7 164 -20 249l76 9l16 -99h8c48 65 120 108 215 108c77 0 134 -24 183 -71s73 -111 74 -193zM408 804h77l-88 -169h-69z" />
    <glyph glyph-name="Ncommaaccent" unicode="&#x145;" horiz-adv-x="915" 
d="M225 660h-9v-660h-96v809h99l429 -587l43 -72h8v659h96v-809h-98l-429 588zM497 -44h-83l-39 -195h53z" />
    <glyph glyph-name="ncommaaccent" unicode="&#x146;" horiz-adv-x="734" 
d="M644 311v-311h-89v310c0 109 -73 184 -188 184c-102 0 -186 -76 -186 -184v-310h-89v308c0 81 -7 164 -20 249l76 9l16 -99h8c48 65 120 108 215 108c77 0 134 -24 183 -71s73 -111 74 -193zM406 -44h-83l-39 -195h53z" />
    <glyph glyph-name="Ncaron" unicode="&#x147;" horiz-adv-x="915" 
d="M225 660h-9v-660h-96v809h99l429 -587l43 -72h8v659h96v-809h-98l-429 588zM291 1056h84l25 -32l54 -78h7l54 78l25 32h83l-129 -161h-73z" />
    <glyph glyph-name="ncaron" unicode="&#x148;" horiz-adv-x="734" 
d="M644 311v-311h-89v310c0 109 -73 184 -188 184c-102 0 -186 -76 -186 -184v-310h-89v308c0 81 -7 164 -20 249l76 9l16 -99h8c48 65 120 108 215 108c77 0 134 -24 183 -71s73 -111 74 -193zM210 804h84l25 -32l54 -78h7l54 78l25 32h83l-129 -161h-73z" />
    <glyph glyph-name="Eng" unicode="&#x14a;" horiz-adv-x="915" 
d="M225 660h-9v-660h-96v809h99l429 -586l43 -72h8v658h96v-867c0 -114 -92 -205 -206 -205c-91 0 -169 60 -195 142l86 43c5 -55 52 -97 109 -97c60 0 107 43 110 110v64l-431 589z" />
    <glyph glyph-name="eng" unicode="&#x14b;" horiz-adv-x="734" 
d="M338 -182l73 42c14 -24 38 -42 68 -42c41 0 76 29 76 77v415c0 109 -73 184 -188 184c-102 0 -186 -76 -186 -184v-310h-89v308c0 81 -7 164 -20 249l76 9l16 -99h8c48 65 120 108 215 108c77 0 134 -24 183 -71s73 -111 74 -193v-410c0 -91 -71 -164 -162 -164
c-61 0 -111 29 -144 81z" />
    <glyph glyph-name="Omacron" unicode="&#x14c;" horiz-adv-x="983" 
d="M70 403c0 233 188 422 421 422s422 -189 422 -422s-189 -421 -422 -421s-421 188 -421 421zM174 403c0 -184 141 -333 317 -333s318 149 318 333s-142 334 -318 334s-317 -150 -317 -334zM351 929v62h280v-62h-280z" />
    <glyph glyph-name="omacron" unicode="&#x14d;" horiz-adv-x="715" 
d="M153 279c0 -119 91 -216 204 -216s205 97 205 216s-92 215 -205 215s-204 -96 -204 -215zM60 278c0 164 133 297 297 297s298 -133 298 -297s-134 -296 -298 -296s-297 132 -297 296zM217 677v62h280v-62h-280z" />
    <glyph glyph-name="Ohungarumlaut" unicode="&#x150;" horiz-adv-x="983" 
d="M70 403c0 233 188 422 421 422s422 -189 422 -422s-189 -421 -422 -421s-421 188 -421 421zM174 403c0 -184 141 -333 317 -333s318 149 318 333s-142 334 -318 334s-317 -150 -317 -334zM428 1056h77l-88 -169h-69zM638 1056h77l-88 -169h-69z" />
    <glyph glyph-name="ohungarumlaut" unicode="&#x151;" horiz-adv-x="715" 
d="M153 279c0 -119 91 -216 204 -216s205 97 205 216s-92 215 -205 215s-204 -96 -204 -215zM60 278c0 164 133 297 297 297s298 -133 298 -297s-134 -296 -298 -296s-297 132 -297 296zM294 804h77l-88 -169h-69zM504 804h77l-88 -169h-69z" />
    <glyph glyph-name="OE" unicode="&#x152;" horiz-adv-x="1393" 
d="M1373 721h-468v-239h389v-88h-389v-306h468v-88h-564v124h-8c-75 -87 -185 -142 -310 -142c-233 0 -421 188 -421 421s188 422 421 422c126 0 236 -56 310 -143h8v127h564v-88zM174 403c0 -184 141 -333 317 -333s318 149 318 333s-142 334 -318 334s-317 -150 -317 -334
z" />
    <glyph glyph-name="oe" unicode="&#x153;" horiz-adv-x="1208" 
d="M153 279c0 -119 91 -216 204 -216s205 97 205 216s-92 215 -205 215s-204 -96 -204 -215zM860 494c-98 0 -179 -72 -199 -168h399c-21 96 -103 168 -200 168zM605 432h7c49 87 139 143 248 143c111 0 208 -60 259 -150c30 -51 44 -116 37 -176h-498
c14 -105 100 -186 204 -186c76 0 147 31 188 92l74 -49c-58 -83 -153 -124 -264 -124c-109 0 -199 55 -248 142h-7c-49 -87 -140 -142 -248 -142c-164 0 -297 132 -297 296s133 297 297 297c108 0 199 -56 248 -143z" />
    <glyph glyph-name="Racute" unicode="&#x154;" horiz-adv-x="765" 
d="M460 721h-244v-303h244c84 0 152 67 152 151s-68 152 -152 152zM490 330v-6l65 -76l180 -248h-118l-240 330h-161v-330h-96v809h356c132 0 240 -108 240 -240c0 -127 -100 -232 -226 -239zM424 1056h77l-88 -169h-69z" />
    <glyph glyph-name="racute" unicode="&#x155;" horiz-adv-x="344" 
d="M160 482h7c38 56 96 92 167 93v-89c-95 0 -155 -60 -155 -188v-298h-89v307c0 80 -6 160 -18 242l76 14zM173 804h77l-88 -169h-69z" />
    <glyph glyph-name="Rcommaaccent" unicode="&#x156;" horiz-adv-x="765" 
d="M460 721h-244v-303h244c84 0 152 67 152 151s-68 152 -152 152zM490 330v-6l65 -76l180 -248h-118l-240 330h-161v-330h-96v809h356c132 0 240 -108 240 -240c0 -127 -100 -232 -226 -239zM432 -44h-83l-39 -195h53z" />
    <glyph glyph-name="rcommaaccent" unicode="&#x157;" horiz-adv-x="344" 
d="M160 482h7c38 56 96 92 167 93v-89c-95 0 -155 -60 -155 -188v-298h-89v307c0 80 -6 160 -18 242l76 14zM171 -44h-83l-39 -195h53z" />
    <glyph glyph-name="Rcaron" unicode="&#x158;" horiz-adv-x="765" 
d="M460 721h-244v-303h244c84 0 152 67 152 151s-68 152 -152 152zM490 330v-6l65 -76l180 -248h-118l-240 330h-161v-330h-96v809h356c132 0 240 -108 240 -240c0 -127 -100 -232 -226 -239zM216 1056h84l25 -32l54 -78h7l54 78l25 32h83l-129 -161h-73z" />
    <glyph glyph-name="rcaron" unicode="&#x159;" horiz-adv-x="344" 
d="M160 482h7c38 56 96 92 167 93v-89c-95 0 -155 -60 -155 -188v-298h-89v307c0 80 -6 160 -18 242l76 14zM6 804h84l25 -32l54 -78h7l54 78l25 32h83l-129 -161h-73z" />
    <glyph glyph-name="Sacute" unicode="&#x15a;" horiz-adv-x="651" 
d="M30 177l88 46c9 -97 100 -153 196 -153c98 0 199 52 199 159c0 63 -41 102 -90 128c-71 37 -153 33 -227 79c-62 39 -102 96 -102 176c0 143 117 213 251 213c97 0 195 -47 235 -138l-85 -46c-18 62 -79 96 -147 96c-74 0 -156 -36 -156 -124c0 -45 28 -77 60 -95
c70 -40 167 -42 243 -86c67 -39 116 -116 116 -201c0 -160 -140 -249 -293 -249c-134 0 -254 61 -288 195zM377 1056h77l-88 -169h-69z" />
    <glyph glyph-name="sacute" unicode="&#x15b;" horiz-adv-x="477" 
d="M239 -18c-90 0 -182 43 -219 136l78 42c10 -61 74 -97 141 -97c60 1 124 31 124 99c0 49 -46 80 -93 89l-76 15c-72 15 -130 67 -130 157c0 95 88 151 180 152c76 0 154 -36 188 -112l-79 -41c-6 46 -59 72 -109 72c-49 -1 -92 -27 -92 -71c0 -42 29 -66 76 -74l68 -12
c78 -14 158 -79 155 -175c-4 -114 -101 -180 -212 -180zM290 804h77l-88 -169h-69z" />
    <glyph glyph-name="Scircumflex" unicode="&#x15c;" horiz-adv-x="651" 
d="M30 177l88 46c9 -97 100 -153 196 -153c98 0 199 52 199 159c0 63 -41 102 -90 128c-71 37 -153 33 -227 79c-62 39 -102 96 -102 176c0 143 117 213 251 213c97 0 195 -47 235 -138l-85 -46c-18 62 -79 96 -147 96c-74 0 -156 -36 -156 -124c0 -45 28 -77 60 -95
c70 -40 167 -42 243 -86c67 -39 116 -116 116 -201c0 -160 -140 -249 -293 -249c-134 0 -254 61 -288 195zM263 895h-84l130 161h73l130 -161h-84l-25 32l-54 78h-7l-54 -78z" />
    <glyph glyph-name="scircumflex" unicode="&#x15d;" horiz-adv-x="477" 
d="M239 -18c-90 0 -182 43 -219 136l78 42c10 -61 74 -97 141 -97c60 1 124 31 124 99c0 49 -46 80 -93 89l-76 15c-72 15 -130 67 -130 157c0 95 88 151 180 152c76 0 154 -36 188 -112l-79 -41c-6 46 -59 72 -109 72c-49 -1 -92 -27 -92 -71c0 -42 29 -66 76 -74l68 -12
c78 -14 158 -79 155 -175c-4 -114 -101 -180 -212 -180zM176 643h-84l130 161h73l130 -161h-84l-25 32l-54 78h-7l-54 -78z" />
    <glyph glyph-name="Scedilla" unicode="&#x15e;" horiz-adv-x="651" 
d="M326 -48l1 -2c53 -3 99 -41 99 -103c0 -60 -45 -103 -103 -103c-42 0 -81 25 -98 69l47 24c4 -23 25 -42 51 -42s52 23 52 52c0 26 -23 52 -52 52c-15 0 -34 -7 -41 -20l-54 11l62 93c-123 8 -229 69 -260 194l88 46c9 -97 100 -153 196 -153c98 0 199 52 199 159
c0 63 -41 102 -90 128c-71 37 -153 33 -227 79c-62 39 -102 96 -102 176c0 143 117 213 251 213c97 0 195 -47 235 -138l-85 -46c-18 62 -79 96 -147 96c-74 0 -156 -36 -156 -124c0 -45 28 -77 60 -95c70 -40 167 -42 243 -86c67 -39 116 -116 116 -201
c0 -150 -122 -237 -263 -248l-1 -2z" />
    <glyph glyph-name="scedilla" unicode="&#x15f;" horiz-adv-x="477" 
d="M249 -48l1 -2c53 -3 99 -41 99 -103c0 -60 -45 -103 -103 -103c-42 0 -81 25 -98 69l47 24c4 -23 25 -42 51 -42s52 23 52 52c0 26 -23 52 -52 52c-15 0 -34 -7 -41 -20l-54 11l62 93c-81 8 -160 51 -193 135l78 42c10 -61 74 -97 141 -97c60 1 124 31 124 99
c0 49 -46 80 -93 89l-76 15c-72 15 -130 67 -130 157c0 95 88 151 180 152c76 0 154 -36 188 -112l-79 -41c-6 46 -59 72 -109 72c-49 -1 -92 -27 -92 -71c0 -42 29 -66 76 -74l68 -12c78 -14 158 -79 155 -175c-4 -103 -83 -166 -179 -178l-2 -3z" />
    <glyph glyph-name="Scaron" unicode="&#x160;" horiz-adv-x="651" 
d="M30 177l88 46c9 -97 100 -153 196 -153c98 0 199 52 199 159c0 63 -41 102 -90 128c-71 37 -153 33 -227 79c-62 39 -102 96 -102 176c0 143 117 213 251 213c97 0 195 -47 235 -138l-85 -46c-18 62 -79 96 -147 96c-74 0 -156 -36 -156 -124c0 -45 28 -77 60 -95
c70 -40 167 -42 243 -86c67 -39 116 -116 116 -201c0 -160 -140 -249 -293 -249c-134 0 -254 61 -288 195zM179 1056h84l25 -32l54 -78h7l54 78l25 32h83l-129 -161h-73z" />
    <glyph glyph-name="scaron" unicode="&#x161;" horiz-adv-x="477" 
d="M239 -18c-90 0 -182 43 -219 136l78 42c10 -61 74 -97 141 -97c60 1 124 31 124 99c0 49 -46 80 -93 89l-76 15c-72 15 -130 67 -130 157c0 95 88 151 180 152c76 0 154 -36 188 -112l-79 -41c-6 46 -59 72 -109 72c-49 -1 -92 -27 -92 -71c0 -42 29 -66 76 -74l68 -12
c78 -14 158 -79 155 -175c-4 -114 -101 -180 -212 -180zM87 804h84l25 -32l54 -78h7l54 78l25 32h83l-129 -161h-73z" />
    <glyph glyph-name="Tcommaaccent" unicode="&#x162;" horiz-adv-x="647" 
d="M371 0h-96v721h-270v88h637v-88h-271v-721zM363 -44h-83l-39 -195h53z" />
    <glyph glyph-name="tcommaaccent" unicode="&#x163;" horiz-adv-x="294" 
d="M20 476v81h60v172h89v-172h115v-81h-115v-298c0 -73 49 -113 114 -116v-80c-108 0 -203 79 -203 203v291h-60zM206 -44h-83l-39 -195h53z" />
    <glyph glyph-name="Tcaron" unicode="&#x164;" horiz-adv-x="647" 
d="M371 0h-96v721h-270v88h637v-88h-271v-721zM157 1056h84l25 -32l54 -78h7l54 78l25 32h83l-129 -161h-73z" />
    <glyph glyph-name="tcaron" unicode="&#x165;" horiz-adv-x="376" 
d="M20 476v81h60v172h89v-172h115v-81h-115v-298c0 -73 49 -113 114 -116v-80c-108 0 -203 79 -203 203v291h-60zM314 571l48 238h97l-83 -238h-62z" />
    <glyph glyph-name="Tbar" unicode="&#x166;" horiz-adv-x="647" 
d="M371 0h-96v721h-270v88h637v-88h-271v-721zM183 929v62h280v-62h-280z" />
    <glyph glyph-name="tbar" unicode="&#x167;" horiz-adv-x="294" 
d="M20 476v81h60v172h89v-172h115v-81h-115v-103h115v-74h-115v-121c0 -73 49 -113 114 -116v-80c-108 0 -203 79 -203 203v114h-60v74h60v103h-60z" />
    <glyph glyph-name="Utilde" unicode="&#x168;" horiz-adv-x="872" 
d="M666 300v509h96v-504c0 -180 -146 -323 -326 -323s-326 144 -326 324v503h96v-509c0 -127 103 -230 230 -230s230 103 230 230zM303 922l-47 41c25 29 58 59 101 59c55 0 101 -42 154 -42c24 0 44 21 57 38l47 -41c-28 -32 -62 -59 -105 -59c-53 0 -97 41 -151 41
c-24 0 -43 -20 -56 -37z" />
    <glyph glyph-name="utilde" unicode="&#x169;" horiz-adv-x="734" 
d="M90 246v311h89v-310c0 -109 73 -184 188 -184c102 0 186 76 186 184v310h89v-308c0 -81 7 -164 20 -249l-76 -9l-16 99h-8c-48 -65 -120 -108 -215 -108c-77 0 -134 24 -183 71s-73 111 -74 193zM234 670l-47 41c25 29 58 59 101 59c55 0 101 -42 154 -42
c24 0 44 21 57 38l47 -41c-28 -32 -62 -59 -105 -59c-53 0 -97 41 -151 41c-24 0 -43 -20 -56 -37z" />
    <glyph glyph-name="Umacron" unicode="&#x16a;" horiz-adv-x="872" 
d="M666 300v509h96v-504c0 -180 -146 -323 -326 -323s-326 144 -326 324v503h96v-509c0 -127 103 -230 230 -230s230 103 230 230zM296 929v62h280v-62h-280z" />
    <glyph glyph-name="umacron" unicode="&#x16b;" horiz-adv-x="734" 
d="M90 246v311h89v-310c0 -109 73 -184 188 -184c102 0 186 76 186 184v310h89v-308c0 -81 7 -164 20 -249l-76 -9l-16 99h-8c-48 -65 -120 -108 -215 -108c-77 0 -134 24 -183 71s-73 111 -74 193zM227 677v62h280v-62h-280z" />
    <glyph glyph-name="Ubreve" unicode="&#x16c;" horiz-adv-x="872" 
d="M666 300v509h96v-504c0 -180 -146 -323 -326 -323s-326 144 -326 324v503h96v-509c0 -127 103 -230 230 -230s230 103 230 230zM256 994h77c25 -22 59 -32 101 -32c33 0 71 7 101 32h80c-38 -62 -109 -95 -181 -95c-69 0 -133 28 -178 95z" />
    <glyph glyph-name="ubreve" unicode="&#x16d;" horiz-adv-x="734" 
d="M90 246v311h89v-310c0 -109 73 -184 188 -184c102 0 186 76 186 184v310h89v-308c0 -81 7 -164 20 -249l-76 -9l-16 99h-8c-48 -65 -120 -108 -215 -108c-77 0 -134 24 -183 71s-73 111 -74 193zM187 742h77c25 -22 59 -32 101 -32c33 0 71 7 101 32h80
c-38 -62 -109 -95 -181 -95c-69 0 -133 28 -178 95z" />
    <glyph glyph-name="Uring" unicode="&#x16e;" horiz-adv-x="872" 
d="M666 300v509h96v-504c0 -180 -146 -323 -326 -323s-326 144 -326 324v503h96v-509c0 -127 103 -230 230 -230s230 103 230 230zM335 970c0 56 44 101 100 101s101 -45 101 -101s-45 -100 -101 -100s-100 44 -100 100zM384 970c0 -28 23 -51 51 -51c29 0 52 23 52 51
c0 29 -23 52 -52 52c-28 0 -51 -23 -51 -52z" />
    <glyph glyph-name="uring" unicode="&#x16f;" horiz-adv-x="734" 
d="M90 246v311h89v-310c0 -109 73 -184 188 -184c102 0 186 76 186 184v310h89v-308c0 -81 7 -164 20 -249l-76 -9l-16 99h-8c-48 -65 -120 -108 -215 -108c-77 0 -134 24 -183 71s-73 111 -74 193zM266 718c0 56 44 101 100 101s101 -45 101 -101s-45 -100 -101 -100
s-100 44 -100 100zM315 718c0 -28 23 -51 51 -51c29 0 52 23 52 51c0 29 -23 52 -52 52c-28 0 -51 -23 -51 -52z" />
    <glyph glyph-name="Uhungarumlaut" unicode="&#x170;" horiz-adv-x="872" 
d="M666 300v509h96v-504c0 -180 -146 -323 -326 -323s-326 144 -326 324v503h96v-509c0 -127 103 -230 230 -230s230 103 230 230zM352 1056h77l-88 -169h-69zM562 1056h77l-88 -169h-69z" />
    <glyph glyph-name="uhungarumlaut" unicode="&#x171;" horiz-adv-x="734" 
d="M90 246v311h89v-310c0 -109 73 -184 188 -184c102 0 186 76 186 184v310h89v-308c0 -81 7 -164 20 -249l-76 -9l-16 99h-8c-48 -65 -120 -108 -215 -108c-77 0 -134 24 -183 71s-73 111 -74 193zM293 804h77l-88 -169h-69zM503 804h77l-88 -169h-69z" />
    <glyph glyph-name="Uogonek" unicode="&#x172;" horiz-adv-x="872" 
d="M466 -174l46 -24c-20 -33 -51 -58 -94 -58c-87 0 -137 103 -78 171l61 69c-164 17 -291 154 -291 322v503h96v-509c0 -127 103 -230 230 -230s230 103 230 230v509h96v-504c0 -169 -129 -305 -293 -321l-90 -104c-30 -30 -4 -85 39 -85c21 0 38 12 48 31z" />
    <glyph glyph-name="uogonek" unicode="&#x173;" horiz-adv-x="734" 
d="M631 -174l46 -24c-20 -33 -51 -58 -94 -58c-87 0 -137 103 -78 171l79 89l-14 86h-8c-48 -65 -120 -108 -215 -108c-77 0 -134 24 -183 71s-73 111 -74 193v311h89v-310c0 -109 73 -184 188 -184c102 0 186 76 186 184v310h89v-308c0 -81 7 -164 20 -249l-16 -2
l-102 -118c-30 -30 -4 -85 39 -85c21 0 38 12 48 31z" />
    <glyph glyph-name="Wcircumflex" unicode="&#x174;" horiz-adv-x="1070" 
d="M376 0h-110l-251 809h100l176 -567l24 -89h7l18 89l137 567h116l137 -567l18 -89h7l24 89l176 567h100l-251 -809h-109l-139 570l-17 89h-8l-19 -89zM452 895h-84l130 161h73l130 -161h-84l-25 32l-54 78h-7l-54 -78z" />
    <glyph glyph-name="wcircumflex" unicode="&#x175;" horiz-adv-x="846" 
d="M303 0h-93l-200 557h94l123 -341l26 -85h7l21 84l101 342h82l101 -341l21 -85h8l26 85l122 341h94l-199 -557h-93l-96 324l-21 86h-7l-22 -86zM340 643h-84l130 161h73l130 -161h-84l-25 32l-54 78h-7l-54 -78z" />
    <glyph glyph-name="Ycircumflex" unicode="&#x176;" horiz-adv-x="716" 
d="M312 0v320l-302 489h112l180 -291l54 -98h8l55 98l181 291h106l-298 -486v-323h-96zM275 895h-84l130 161h73l130 -161h-84l-25 32l-54 78h-7l-54 -78z" />
    <glyph glyph-name="ycircumflex" unicode="&#x177;" horiz-adv-x="596" 
d="M256 -15l6 13l-252 559h97l165 -368l29 -93h8l28 79l161 382h88l-256 -603c-33 -77 -75 -148 -127 -217l-61 52c46 57 83 124 114 196zM225 643h-84l130 161h73l130 -161h-84l-25 32l-54 78h-7l-54 -78z" />
    <glyph glyph-name="Ydieresis" unicode="&#x178;" horiz-adv-x="716" 
d="M312 0v320l-302 489h112l180 -291l54 -98h8l55 98l181 291h106l-298 -486v-323h-96zM212 893v114h82v-114h-82zM422 893v114h82v-114h-82z" />
    <glyph glyph-name="Zacute" unicode="&#x179;" horiz-adv-x="645" 
d="M20 0v93l416 541l67 75v8h-467v92h584v-92l-417 -543l-69 -75v-7h486v-92h-600zM354 1056h77l-88 -169h-69z" />
    <glyph glyph-name="zacute" unicode="&#x17a;" horiz-adv-x="509" 
d="M365 469v7h-330v81h454v-73l-283 -329l-63 -67v-7h346v-81h-469v73l288 336zM286 804h77l-88 -169h-69z" />
    <glyph glyph-name="Zdotaccent" unicode="&#x17b;" horiz-adv-x="645" 
d="M20 0v93l416 541l67 75v8h-467v92h584v-92l-417 -543l-69 -75v-7h486v-92h-600zM281 893v114h82v-114h-82z" />
    <glyph glyph-name="zdotaccent" unicode="&#x17c;" horiz-adv-x="509" 
d="M365 469v7h-330v81h454v-73l-283 -329l-63 -67v-7h346v-81h-469v73l288 336zM223 641v114h82v-114h-82z" />
    <glyph glyph-name="Zcaron" unicode="&#x17d;" horiz-adv-x="645" 
d="M20 0v93l416 541l67 75v8h-467v92h584v-92l-417 -543l-69 -75v-7h486v-92h-600zM156 1056h84l25 -32l54 -78h7l54 78l25 32h83l-129 -161h-73z" />
    <glyph glyph-name="zcaron" unicode="&#x17e;" horiz-adv-x="509" 
d="M365 476v-7l-57 -60l-288 -336v-73h469v81h-346v7l63 67l283 329v73h-454v-81h330zM98 804h84l25 -32l54 -78h7l54 78l25 32h83l-129 -161h-73z" />
    <glyph glyph-name="florin" unicode="&#x192;" horiz-adv-x="477" 
d="M278 448l-100 -566c-15 -86 -87 -145 -174 -145c-49 0 -90 17 -124 51l58 59c18 -19 39 -29 64 -29c44 0 81 33 89 81l97 549h-133v81h147l27 150c14 94 88 145 173 145c49 0 90 -17 125 -52l-58 -58c-19 19 -40 29 -64 29c-44 0 -79 -28 -89 -81l-24 -133h134v-81h-148z
" />
    <glyph glyph-name="Scommaaccent" unicode="&#x218;" horiz-adv-x="651" 
d="M362 -44h-83l-39 -195h53zM30 177l88 46c9 -97 100 -153 196 -153c98 0 199 52 199 159c0 63 -41 102 -90 128c-71 37 -153 33 -227 79c-62 39 -102 96 -102 176c0 143 117 213 251 213c97 0 195 -47 235 -138l-85 -46c-18 62 -79 96 -147 96c-74 0 -156 -36 -156 -124
c0 -45 28 -77 60 -95c70 -40 167 -42 243 -86c67 -39 116 -116 116 -201c0 -160 -140 -249 -293 -249c-134 0 -254 61 -288 195z" />
    <glyph glyph-name="scommaaccent" unicode="&#x219;" horiz-adv-x="477" 
d="M239 -18c-90 0 -182 43 -219 136l78 42c10 -61 74 -97 141 -97c60 1 124 31 124 99c0 49 -46 80 -93 89l-76 15c-72 15 -130 67 -130 157c0 95 88 151 180 152c76 0 154 -36 188 -112l-79 -41c-6 46 -59 72 -109 72c-49 -1 -92 -27 -92 -71c0 -42 29 -66 76 -74l68 -12
c78 -14 158 -79 155 -175c-4 -114 -101 -180 -212 -180zM278 -44h-83l-39 -195h53z" />
    <glyph glyph-name="circumflex" unicode="&#x2c6;" horiz-adv-x="443" 
d="M139 643h-84l130 161h73l130 -161h-84l-25 32l-54 78h-7l-54 -78z" />
    <glyph glyph-name="caron" unicode="&#x2c7;" horiz-adv-x="443" 
d="M55 804h84l25 -32l54 -78h7l54 78l25 32h83l-129 -161h-73z" />
    <glyph glyph-name="breve" unicode="&#x2d8;" horiz-adv-x="459" 
d="M50 742h77c25 -22 59 -32 101 -32c33 0 71 7 101 32h80c-38 -62 -109 -95 -181 -95c-69 0 -133 28 -178 95z" />
    <glyph glyph-name="dotaccent" unicode="&#x2d9;" horiz-adv-x="182" 
d="M50 641v114h82v-114h-82z" />
    <glyph glyph-name="ring" unicode="&#x2da;" horiz-adv-x="301" 
d="M50 718c0 56 44 101 100 101s101 -45 101 -101s-45 -100 -101 -100s-100 44 -100 100zM99 718c0 -28 23 -51 51 -51c29 0 52 23 52 51c0 29 -23 52 -52 52c-28 0 -51 -23 -51 -52z" />
    <glyph glyph-name="ogonek" unicode="&#x2db;" horiz-adv-x="298" 
d="M202 -174l46 -24c-20 -33 -51 -58 -94 -58c-87 0 -137 103 -78 171l82 93h68l-111 -128c-30 -30 -4 -85 39 -85c21 0 38 12 48 31z" />
    <glyph glyph-name="tilde" unicode="&#x2dc;" horiz-adv-x="459" 
d="M97 670l-47 41c25 29 58 59 101 59c55 0 101 -42 154 -42c24 0 44 21 57 38l47 -41c-28 -32 -62 -59 -105 -59c-53 0 -97 41 -151 41c-24 0 -43 -20 -56 -37z" />
    <glyph glyph-name="hungarumlaut" unicode="&#x2dd;" horiz-adv-x="467" 
d="M130 804h77l-88 -169h-69zM340 804h77l-88 -169h-69z" />
    <glyph glyph-name="pi" unicode="&#x3c0;" horiz-adv-x="683" 
d="M82 476v81h541v-81h-66v-476h-88v476h-239c-4 -73 -15 -146 -29 -220c-18 -87 -44 -173 -82 -256h-98c45 78 73 169 94 264c15 70 24 141 28 212h-61z" />
    <glyph glyph-name="uni1E02" unicode="&#x1e02;" horiz-adv-x="771" 
d="M491 0h-371v809h365c58 0 107 -18 147 -56c40 -37 60 -84 60 -141c0 -74 -33 -129 -99 -165v-5c83 -34 138 -115 138 -210c0 -67 -23 -123 -72 -167c-47 -44 -103 -65 -168 -65zM216 482h257c66 0 120 53 120 119s-54 120 -120 120h-257v-239zM478 394h-262v-306h262
c84 0 153 69 153 153s-69 153 -153 153zM344 893v114h82v-114h-82z" />
    <glyph glyph-name="uni1E03" unicode="&#x1e03;" 
d="M179 278c0 -119 91 -215 204 -215s205 96 205 215s-92 216 -205 216s-204 -97 -204 -216zM384 -18c-87 0 -168 39 -214 116h-6l-17 -106l-75 9c13 84 19 167 19 249v559h89v-325h7c47 61 123 91 197 91c164 0 298 -133 298 -297s-134 -296 -298 -296zM344 893v114h82
v-114h-82z" />
    <glyph glyph-name="uni1E0A" unicode="&#x1e0a;" horiz-adv-x="869" 
d="M394 0h-274v809h274c224 0 405 -181 405 -405s-181 -404 -405 -404zM397 721h-181v-633h181c163 0 298 141 298 316s-135 317 -298 317zM373 893v114h82v-114h-82z" />
    <glyph glyph-name="uni1E0B" unicode="&#x1e0b;" 
d="M563 278c0 119 -91 216 -204 216s-205 -97 -205 -216s92 -215 205 -215s204 96 204 215zM358 -18c-164 0 -298 132 -298 296s134 297 298 297c74 0 150 -30 197 -91h7v325h89v-559c0 -82 6 -165 19 -249l-75 -9l-17 106h-6c-46 -77 -127 -116 -214 -116zM334 893v114h82
v-114h-82z" />
    <glyph glyph-name="uni1E1E" unicode="&#x1e1e;" horiz-adv-x="659" 
d="M654 721h-438v-247h360v-88h-360v-386h-96v809h534v-88zM358 893v114h82v-114h-82z" />
    <glyph glyph-name="uni1E1F" unicode="&#x1e1f;" horiz-adv-x="340" 
d="M30 476v81h52v104c0 89 68 164 166 164c44 0 83 -16 116 -48c6 -6 11 -12 16 -19l-73 -43c-1 2 -3 4 -6 7c-15 15 -32 22 -53 22c-43 0 -77 -35 -77 -76v-111h159v-81h-159v-476h-89v476h-52zM204 893v114h82v-114h-82z" />
    <glyph glyph-name="uni1E40" unicode="&#x1e40;" horiz-adv-x="1052" 
d="M807 552l-232 -552h-92l-237 551l-23 72h-7v-623h-96v808h116l251 -585l38 -87h8l36 87l246 585h117v-808h-96v623h-7zM485 893v114h82v-114h-82z" />
    <glyph glyph-name="uni1E41" unicode="&#x1e41;" horiz-adv-x="1037" 
d="M528 475h6c39 67 100 100 185 100c69 0 125 -24 166 -71s62 -112 62 -194v-310h-89v310c-1 64 -15 111 -44 140s-64 44 -105 44c-81 0 -146 -65 -146 -184v-310h-88v310c-1 128 -67 184 -148 184c-83 0 -147 -65 -147 -184v-310h-89v310c0 80 -6 162 -19 247l75 9l15 -91
h5c45 67 104 100 179 100c85 0 145 -33 182 -100zM477 641v114h82v-114h-82z" />
    <glyph glyph-name="uni1E56" unicode="&#x1e56;" horiz-adv-x="737" 
d="M217 413h242c85 0 154 69 154 154s-69 154 -154 154h-242v-308zM475 325h-258v-325h-97v809h355c134 0 242 -108 242 -242s-108 -242 -242 -242zM327 893v114h82v-114h-82z" />
    <glyph glyph-name="uni1E57" unicode="&#x1e57;" 
d="M179 279c0 -119 91 -216 204 -216s205 97 205 216s-92 215 -205 215s-204 -96 -204 -215zM384 575c164 0 298 -132 298 -296s-134 -297 -298 -297c-74 0 -150 30 -197 91h-7v-336h-89v570c0 82 -6 165 -19 249l75 9l17 -106h6c46 77 127 116 214 116zM340 641v114h82
v-114h-82z" />
    <glyph glyph-name="uni1E60" unicode="&#x1e60;" horiz-adv-x="651" 
d="M30 177l88 46c9 -97 100 -153 196 -153c98 0 199 52 199 159c0 63 -41 102 -90 128c-71 37 -153 33 -227 79c-62 39 -102 96 -102 176c0 143 117 213 251 213c97 0 195 -47 235 -138l-85 -46c-18 62 -79 96 -147 96c-74 0 -156 -36 -156 -124c0 -45 28 -77 60 -95
c70 -40 167 -42 243 -86c67 -39 116 -116 116 -201c0 -160 -140 -249 -293 -249c-134 0 -254 61 -288 195zM304 893v114h82v-114h-82z" />
    <glyph glyph-name="uni1E61" unicode="&#x1e61;" horiz-adv-x="477" 
d="M239 -18c-90 0 -182 43 -219 136l78 42c10 -61 74 -97 141 -97c60 1 124 31 124 99c0 49 -46 80 -93 89l-76 15c-72 15 -130 67 -130 157c0 95 88 151 180 152c76 0 154 -36 188 -112l-79 -41c-6 46 -59 72 -109 72c-49 -1 -92 -27 -92 -71c0 -42 29 -66 76 -74l68 -12
c78 -14 158 -79 155 -175c-4 -114 -101 -180 -212 -180zM207 641v114h82v-114h-82z" />
    <glyph glyph-name="uni1E6A" unicode="&#x1e6a;" horiz-adv-x="647" 
d="M371 0h-96v721h-270v88h637v-88h-271v-721zM282 893v114h82v-114h-82z" />
    <glyph glyph-name="uni1E6B" unicode="&#x1e6b;" horiz-adv-x="294" 
d="M20 476v81h60v172h89v-172h115v-81h-115v-298c0 -73 49 -113 114 -116v-80c-108 0 -203 79 -203 203v291h-60zM83 795v114h82v-114h-82z" />
    <glyph glyph-name="Wgrave" unicode="&#x1e80;" horiz-adv-x="1070" 
d="M376 0h-110l-251 809h100l176 -567l24 -89h7l18 89l137 567h116l137 -567l18 -89h7l24 89l176 567h100l-251 -809h-109l-139 570l-17 89h-8l-19 -89zM456 1056h77l80 -169h-69z" />
    <glyph glyph-name="wgrave" unicode="&#x1e81;" horiz-adv-x="846" 
d="M303 0h-93l-200 557h94l123 -341l26 -85h7l21 84l101 342h82l101 -341l21 -85h8l26 85l122 341h94l-199 -557h-93l-96 324l-21 86h-7l-22 -86zM324 804h77l80 -169h-69z" />
    <glyph glyph-name="Wacute" unicode="&#x1e82;" horiz-adv-x="1070" 
d="M376 0h-110l-251 809h100l176 -567l24 -89h7l18 89l137 567h116l137 -567l18 -89h7l24 89l176 567h100l-251 -809h-109l-139 570l-17 89h-8l-19 -89zM556 1056h77l-88 -169h-69z" />
    <glyph glyph-name="wacute" unicode="&#x1e83;" horiz-adv-x="846" 
d="M303 0h-93l-200 557h94l123 -341l26 -85h7l21 84l101 342h82l101 -341l21 -85h8l26 85l122 341h94l-199 -557h-93l-96 324l-21 86h-7l-22 -86zM454 804h77l-88 -169h-69z" />
    <glyph glyph-name="Wdieresis" unicode="&#x1e84;" horiz-adv-x="1070" 
d="M376 0h-110l-251 809h100l176 -567l24 -89h7l18 89l137 567h116l137 -567l18 -89h7l24 89l176 567h100l-251 -809h-109l-139 570l-17 89h-8l-19 -89zM389 893v114h82v-114h-82zM599 893v114h82v-114h-82z" />
    <glyph glyph-name="wdieresis" unicode="&#x1e85;" horiz-adv-x="846" 
d="M303 0h-93l-200 557h94l123 -341l26 -85h7l21 84l101 342h82l101 -341l21 -85h8l26 85l122 341h94l-199 -557h-93l-96 324l-21 86h-7l-22 -86zM277 641v114h82v-114h-82zM487 641v114h82v-114h-82z" />
    <glyph glyph-name="Ygrave" unicode="&#x1ef2;" horiz-adv-x="716" 
d="M312 0v320l-302 489h112l180 -291l54 -98h8l55 98l181 291h106l-298 -486v-323h-96zM269 1056h77l80 -169h-69z" />
    <glyph glyph-name="ygrave" unicode="&#x1ef3;" horiz-adv-x="596" 
d="M256 -15l6 13l-252 559h97l165 -368l29 -93h8l28 79l161 382h88l-256 -603c-33 -77 -75 -148 -127 -217l-61 52c46 57 83 124 114 196zM219 804h77l80 -169h-69z" />
    <glyph glyph-name="endash" unicode="&#x2013;" horiz-adv-x="746" 
d="M50 240v77h646v-77h-646z" />
    <glyph glyph-name="emdash" unicode="&#x2014;" horiz-adv-x="1006" 
d="M50 240v77h906v-77h-906z" />
    <glyph glyph-name="quoteleft" unicode="&#x2018;" horiz-adv-x="245" 
d="M195 809l-48 -238h-97l83 238h62z" />
    <glyph glyph-name="quoteright" unicode="&#x2019;" horiz-adv-x="245" 
d="M50 571l48 238h97l-83 -238h-62z" />
    <glyph glyph-name="quotesinglbase" unicode="&#x201a;" horiz-adv-x="245" 
d="M50 -125l48 238h97l-83 -238h-62z" />
    <glyph glyph-name="quotedblleft" unicode="&#x201c;" horiz-adv-x="415" 
d="M365 809l-48 -238h-97l83 238h62zM195 809l-48 -238h-97l83 238h62z" />
    <glyph glyph-name="quotedblright" unicode="&#x201d;" horiz-adv-x="415" 
d="M50 571l48 238h97l-83 -238h-62zM220 571l48 238h97l-83 -238h-62z" />
    <glyph glyph-name="quotedblbase" unicode="&#x201e;" horiz-adv-x="415" 
d="M50 -125l48 238h97l-83 -238h-62zM220 -125l48 238h97l-83 -238h-62z" />
    <glyph glyph-name="dagger" unicode="&#x2020;" horiz-adv-x="582" 
d="M10 490v67h246v252h70v-252h246v-67h-246v-753h-70v753h-246z" />
    <glyph glyph-name="daggerdbl" unicode="&#x2021;" horiz-adv-x="582" 
d="M256 809h70v-252h246v-67h-246v-442h246v-66h-246v-245h-70v245h-246v66h246v442h-246v67h246v252z" />
    <glyph glyph-name="bullet" unicode="&#x2022;" horiz-adv-x="407" 
d="M80 404c0 68 55 124 123 124s124 -56 124 -124s-56 -123 -124 -123s-123 55 -123 123z" />
    <glyph glyph-name="ellipsis" unicode="&#x2026;" horiz-adv-x="757" 
d="M70 0v121h95v-121h-95zM331 0v121h95v-121h-95zM592 0v121h95v-121h-95z" />
    <glyph glyph-name="perthousand" unicode="&#x2030;" horiz-adv-x="1281" 
d="M225 0h-83l497 809h83zM50 639c0 103 82 186 185 186s186 -83 186 -186s-83 -185 -186 -185s-185 82 -185 185zM123 639c0 -63 49 -112 112 -112s113 49 113 112s-50 113 -113 113s-112 -50 -112 -113zM440 167c0 103 82 186 185 186s186 -83 186 -186
s-83 -185 -186 -185s-185 82 -185 185zM513 167c0 -63 49 -112 112 -112s113 49 113 112s-50 113 -113 113s-112 -50 -112 -113zM860 167c0 103 82 186 185 186s186 -83 186 -186s-83 -185 -186 -185s-185 82 -185 185zM933 167c0 -63 49 -112 112 -112s113 49 113 112
s-50 113 -113 113s-112 -50 -112 -113z" />
    <glyph glyph-name="guilsinglleft" unicode="&#x2039;" horiz-adv-x="320" 
d="M196 492h74l-88 -149l-38 -62v-6l38 -61l88 -150h-74l-126 214z" />
    <glyph glyph-name="guilsinglright" unicode="&#x203a;" horiz-adv-x="320" 
d="M50 492h74l126 -214l-126 -214h-74l88 150l38 61v6l-38 62z" />
    <glyph glyph-name="fraction" unicode="&#x2044;" horiz-adv-x="480" 
d="M33 0h-83l497 809h83z" />
    <glyph glyph-name="Euro" unicode="&#x20ac;" horiz-adv-x="783" 
d="M661 225l72 -53c-47 -110 -158 -190 -286 -190c-173 0 -303 129 -311 299h-106l19 81h87v81h-106l19 81h87c5 156 127 301 311 301c119 0 226 -70 280 -178l-70 -55c-31 86 -112 152 -210 152c-129 0 -218 -97 -223 -220h376l-19 -81h-357v-81h376l-19 -81h-357
c3 -120 94 -219 222 -219c99 0 185 65 215 163z" />
    <glyph glyph-name="afii61289" unicode="&#x2113;" horiz-adv-x="497" 
d="M221 583v-224c36 39 65 81 87 124c29 57 42 116 42 174c0 35 -5 88 -53 88c-71 0 -75 -109 -76 -162zM221 237v-47c0 -59 28 -128 100 -128c49 1 74 25 97 72l79 -36c-38 -72 -97 -115 -174 -116c-105 0 -180 77 -189 187c-20 -13 -38 -27 -57 -39l-47 74
c38 25 72 50 103 75v299c0 107 29 247 166 247c97 0 143 -83 143 -175c0 -165 -95 -298 -221 -413z" />
    <glyph glyph-name="trademark" unicode="&#x2122;" horiz-adv-x="1091" 
d="M268 297h-70v446h-168v66h407v-66h-169v-446zM902 614l-133 -317h-65l-137 317l-15 51h-4v-368h-71v512h81l150 -349l25 -69h5l25 69c49 120 96 228 146 349h82v-512h-70v371h-5z" />
    <glyph glyph-name="Omega" unicode="&#x2126;" horiz-adv-x="884" 
d="M597 89h227v-89h-315v189c119 33 198 140 198 269c0 137 -112 279 -265 279c-146 0 -265 -129 -265 -279c0 -125 76 -234 198 -269v-189h-315v89h226v45c-129 55 -213 171 -213 324c0 191 162 367 368 367c200 0 369 -171 369 -367c0 -145 -76 -268 -213 -331v-38z" />
    <glyph glyph-name="estimated" unicode="&#x212e;" horiz-adv-x="656" 
d="M616 278h-435v-194c42 -41 94 -63 155 -63c89 0 159 43 208 129l38 -22c-40 -61 -81 -99 -120 -117c-40 -20 -81 -29 -126 -29c-80 0 -147 28 -199 82c-50 55 -77 128 -77 214c0 89 27 161 77 215c52 54 120 82 199 82c76 0 140 -25 194 -74c53 -49 81 -124 86 -223z
M181 316h312v157c-42 43 -95 65 -157 65c-61 0 -112 -22 -155 -65v-157z" />
    <glyph glyph-name="partialdiff" unicode="&#x2202;" horiz-adv-x="616" 
d="M272 62c128 0 167 181 178 278c-17 70 -79 114 -143 114c-101 0 -165 -122 -165 -214c0 -72 36 -178 130 -178zM444 477h8c-6 88 -50 267 -176 267c-38 0 -66 -11 -106 -48l-60 48c50 58 101 81 173 81c191 0 263 -243 263 -417c0 -167 -58 -426 -273 -426
c-144 0 -223 126 -223 257c0 137 107 294 259 294c51 0 106 -25 135 -56z" />
    <glyph glyph-name="Delta" unicode="&#x2206;" horiz-adv-x="682" 
d="M95 88l2 -7h480l3 7l-34 76l-176 459l-29 85h-7l-29 -85l-176 -459zM672 0h-662v81l285 744h92l285 -744v-81z" />
    <glyph glyph-name="product" unicode="&#x220f;" horiz-adv-x="912" 
d="M70 720v89h772v-89h-59v-983h-95v983h-465v-983h-96v983h-57z" />
    <glyph glyph-name="summation" unicode="&#x2211;" horiz-adv-x="678" 
d="M408 275l-66 74l-332 396v64h658v-81h-529l380 -452l-388 -451h537v-88h-658v72l331 383l67 75v8z" />
    <glyph glyph-name="minus" unicode="&#x2212;" horiz-adv-x="589" 
d="M70 240v77h449v-77h-449z" />
    <glyph glyph-name="radical" unicode="&#x221a;" horiz-adv-x="535" 
d="M149 481l145 -417c65 292 130 595 194 885l77 -16l-257 -1164l-208 611l-63 -24l-27 72z" />
    <glyph glyph-name="infinity" unicode="&#x221e;" horiz-adv-x="877" 
d="M250 188c66 0 112 61 146 112c-35 45 -80 115 -146 117c-61 0 -107 -52 -109 -114c0 -59 45 -115 109 -115zM441 237c-46 -63 -109 -123 -196 -123c-100 2 -185 84 -185 189c2 94 78 189 188 187c84 0 146 -57 195 -123c44 61 102 121 186 123c102 2 185 -81 187 -186
c2 -97 -76 -191 -185 -189c-95 0 -131 61 -190 122zM488 304c31 -46 74 -114 139 -116c62 -2 111 54 108 117c-2 58 -41 107 -104 112c-64 0 -107 -60 -143 -113z" />
    <glyph glyph-name="integral" unicode="&#x222b;" horiz-adv-x="384" 
d="M171 -38l-22 376l-24 409c-5 90 64 167 159 167c67 0 126 -43 150 -107l-84 -28c-10 26 -34 47 -66 47c-40 0 -73 -32 -71 -74l24 -409l22 -377c4 -88 -65 -167 -160 -167c-71 0 -125 44 -149 107l83 28c10 -26 35 -47 66 -47c41 0 73 31 72 75z" />
    <glyph glyph-name="approxequal" unicode="&#x2248;" horiz-adv-x="588" 
d="M70 155v88c35 23 62 31 90 31c91 0 173 -50 266 -50c35 0 66 15 91 42v-88c-24 -20 -59 -31 -91 -31c-91 0 -173 50 -266 50c-34 0 -64 -15 -90 -42zM71 295v88c35 23 62 31 90 31c91 0 173 -50 266 -50c35 0 66 15 91 42v-88c-24 -20 -59 -31 -91 -31
c-91 0 -173 50 -266 50c-34 0 -64 -15 -90 -42z" />
    <glyph glyph-name="notequal" unicode="&#x2260;" horiz-adv-x="609" 
d="M80 349v77h249l65 136h79l-65 -136h121v-77h-158l-54 -113h212v-77h-249l-65 -136h-79l65 136h-121v77h158l54 113h-212z" />
    <glyph glyph-name="lessequal" unicode="&#x2264;" horiz-adv-x="582" 
d="M512 77v-77h-442v77h442zM512 603v-85l-290 -136l-72 -32v-6l74 -31l288 -136v-86l-442 208v96z" />
    <glyph glyph-name="greaterequal" unicode="&#x2265;" horiz-adv-x="582" 
d="M70 0v77h442v-77h-442zM70 518v85l442 -208v-96l-442 -208v86l288 136l74 31v6l-72 32z" />
    <glyph glyph-name="lozenge" unicode="&#x25ca;" horiz-adv-x="552" 
d="M101 401l176 -350l174 346l-176 361zM246 848h62l219 -447l-221 -440h-61l-220 436z" />
    <glyph glyph-name="fi" unicode="&#xfb01;" horiz-adv-x="582" 
d="M485 0h-89v476h-215v-476h-89v476h-52v81h52v103c0 95 73 164 166 164c51 0 100 -24 132 -67l-73 -43c-8 19 -39 29 -59 29c-43 0 -77 -35 -77 -76v-110h304v-557zM389 630v102h103v-102h-103z" />
    <glyph glyph-name="fl" unicode="&#xfb02;" horiz-adv-x="575" 
d="M485 0h-89v744h-138c-43 0 -77 -35 -77 -76v-111h160v-81h-160v-476h-89v476h-52v81h52v104c0 94 73 164 166 164h227v-825z" />
    <glyph glyph-name="percent" unicode="%" horiz-adv-x="861" 
d="M225 0h-83l497 809h83zM50 639c0 103 82 186 185 186s186 -83 186 -186s-83 -185 -186 -185s-185 82 -185 185zM123 639c0 -63 49 -112 112 -112s113 49 113 112s-50 113 -113 113s-112 -50 -112 -113zM440 167c0 103 82 186 185 186s186 -83 186 -186
s-83 -185 -186 -185s-185 82 -185 185zM513 167c0 -63 49 -112 112 -112s113 49 113 112s-50 113 -113 113s-112 -50 -112 -113z" />
    <glyph glyph-name="TourDeForce" horiz-adv-x="1341" 
d="M1073 327l8 -56l-933 -132l-68 476l932 131l59 -410h-102v-9h104zM662 393c20 20 24 48 24 68c0 19 -4 45 -20 65c-15 19 -39 29 -66 29h-63v-187h63c25 0 47 9 62 25zM600 534c21 0 38 -8 48 -21s15 -30 15 -52c0 -23 -6 -42 -17 -54s-26 -18 -46 -18h-41v145h41z
M335 565v29h-156v-29h63v-199h31v199h62zM958 503v13h-88v-145h14v71h59v12h-59v49h74zM356 22h22c8 0 16 2 22 9c6 6 9 15 9 24c0 8 -2 17 -7 23c-6 7 -15 10 -24 10h-22v-66zM501 305v13h-156v-13h156zM378 28h-15v54h15c7 0 14 -2 19 -8c4 -5 5 -12 5 -19s-1 -15 -6 -20
s-11 -7 -18 -7zM1142 46c0 -7 2 -15 8 -20c3 -3 9 -5 14 -5c4 0 9 1 12 4v-3h6v68h-6v-23c-4 2 -8 4 -13 4s-10 -2 -13 -5c-6 -5 -8 -13 -8 -20zM579 64c-4 5 -10 7 -16 7s-12 -2 -17 -7c-4 -5 -6 -11 -6 -18c0 -6 2 -13 6 -18c4 -4 10 -7 17 -7c6 0 12 2 16 7
c5 5 6 11 6 18s-1 13 -6 18zM1027 64c-5 5 -11 7 -17 7s-12 -2 -16 -7c-5 -5 -6 -11 -6 -18c0 -6 1 -13 6 -18c4 -4 10 -7 16 -7s12 2 17 7c4 5 6 11 6 18s-2 13 -6 18zM232 64c-4 5 -10 7 -16 7s-12 -2 -17 -7c-4 -5 -6 -11 -6 -18c0 -6 2 -13 6 -18c4 -4 10 -7 17 -7
c6 0 12 2 16 7s6 11 6 18s-2 13 -6 18zM822 64c-4 5 -11 7 -17 7c-5 0 -11 -2 -16 -7c-4 -5 -6 -11 -6 -18c0 -6 1 -13 6 -18c4 -4 10 -7 16 -7s12 2 17 7c4 5 6 11 6 18s-2 13 -6 18zM839 316v11h-130v-11h130zM455 26l-2 5c-4 -3 -8 -4 -13 -4s-9 1 -13 5c-3 4 -4 8 -4 13
h34c0 6 -1 12 -5 18c-3 5 -8 8 -14 8s-12 -2 -16 -7s-5 -11 -5 -18s2 -13 6 -18s11 -7 16 -7c6 0 11 2 16 5zM698 26l-2 5c-4 -3 -9 -4 -13 -4c-5 0 -10 1 -13 5s-4 8 -4 13h33c0 6 -1 12 -4 18c-3 5 -9 8 -15 8s-11 -2 -15 -7s-5 -11 -5 -18s1 -13 6 -18c4 -5 10 -7 16 -7
c5 0 11 2 16 5zM793 60c3 4 8 5 12 5c5 0 10 -1 12 -5c4 -4 5 -9 5 -14s-1 -10 -5 -14c-2 -3 -7 -5 -12 -5c-4 0 -9 2 -12 5c-3 4 -4 9 -4 14s1 11 4 14zM204 60c3 4 7 5 12 5c4 0 9 -1 12 -5s4 -9 4 -14s-1 -10 -4 -14c-3 -3 -8 -5 -12 -5c-5 0 -10 2 -12 5
c-4 4 -5 9 -5 14s2 11 5 14zM551 60c3 4 8 5 12 5c5 0 9 -1 12 -5s4 -9 4 -14s-1 -10 -4 -14c-3 -3 -8 -5 -12 -5c-5 0 -9 2 -12 5c-4 4 -5 9 -5 14s2 11 5 14zM998 60c3 4 8 5 12 5c5 0 9 -1 12 -5s5 -9 5 -14s-1 -10 -5 -14c-3 -3 -7 -5 -12 -5s-9 2 -12 5
c-3 4 -4 9 -4 14s1 11 4 14zM1176 60v-30c-4 -2 -8 -3 -12 -3s-9 1 -12 5s-4 9 -4 14s1 11 4 14c3 4 7 5 11 5c5 0 9 -2 13 -5zM951 22v32h27v6h-27v22h33v6h-40v-66h7zM746 22v32h27v6h-27v22h34v6h-40v-66h6zM503 22v32h27v6h-27v22h34v6h-40v-66h6zM877 53
c0 5 -2 11 -6 14c-3 3 -8 4 -12 4c-5 0 -10 -3 -15 -6v5h-6v-48h6v36c4 4 10 7 15 7c4 0 7 -1 9 -3s3 -6 3 -9v-31h6v31zM1042 70v-31c0 -5 2 -11 6 -14c3 -3 7 -4 12 -4s10 3 15 7v-6h6v48h-6v-36c-4 -3 -9 -7 -15 -7c-4 0 -8 1 -10 4c-1 2 -2 5 -2 8v31h-6zM1132 53
c0 5 -1 11 -6 14c-3 3 -7 4 -11 4c-5 0 -11 -3 -15 -6l-1 5h-5v-48h6v36c4 4 9 7 15 7c3 0 7 -1 9 -3s2 -6 2 -9v-31h6v31zM1234 394h25v-28h-25v28zM1165 366v28h25v-28h-25zM1222 8l1 -6c5 0 11 2 14 6s5 9 7 13l17 49h-5l-14 -38l-17 38h-6l20 -47c-2 -4 -3 -8 -6 -11
s-7 -4 -11 -4zM1097 366v28h24v-28h-24zM248 70v-31c0 -5 2 -11 6 -14c3 -3 7 -4 11 -4c6 0 10 3 16 7v-6h5v48h-5v-36c-5 -3 -10 -7 -16 -7c-3 0 -7 1 -9 4c-2 2 -2 5 -2 8v31h-6zM167 22h6v60h19v6h-44v-6h19v-60zM654 63l1 6c-4 1 -8 2 -12 2c-7 0 -13 -2 -17 -7
s-6 -11 -6 -18s2 -13 6 -17c4 -5 11 -8 17 -8c4 0 8 1 12 3l-1 5c-4 -2 -7 -2 -11 -2c-5 0 -10 1 -13 5s-4 9 -4 14s1 10 4 14s9 5 13 5s7 0 11 -2zM896 65h10v5h-10v12h-5v-12h-6v-5h6v-26c0 -4 1 -8 3 -11c3 -4 8 -6 13 -6l2 5c-3 0 -7 1 -10 4c-2 2 -3 5 -3 8v26zM321 65
l-2 6c-5 -1 -9 -3 -14 -7v6h-6v-48h6v36c5 4 10 7 16 7zM1216 65l-1 6c-6 -1 -10 -3 -14 -7l-1 6h-5v-48h6v36c4 4 10 7 15 7zM617 65l-2 6c-5 -1 -9 -3 -14 -7v6h-5v-48h5v36c5 4 10 7 16 7zM450 51h-27c1 4 2 7 5 10c2 3 6 4 9 4c4 0 8 -2 10 -4c2 -3 3 -7 3 -10zM693 51
h-27c1 4 2 7 5 10c2 3 5 4 9 4s7 -2 9 -4c2 -3 3 -7 4 -10z" />
    <glyph glyph-name="commaaccent" horiz-adv-x="245" 
d="M89 -44h83l-69 -195h-53z" />
    <glyph glyph-name="space" unicode=" " horiz-adv-x="300" 
 />
    </font>
</defs>
</svg>
