<?xml version="1.0" encoding="utf-8"?>
<!-- Generator: Adobe Illustrator 16.0.0, SVG Export Plug-In . SVG Version: 6.00 Build 0)  -->
<!DOCTYPE svg PUBLIC "-//W3C//DTD SVG 1.1//EN" "http://www.w3.org/Graphics/SVG/1.1/DTD/svg11.dtd">
<svg version="1.1" id="Layer_1" xmlns="http://www.w3.org/2000/svg" xmlns:xlink="http://www.w3.org/1999/xlink" x="0px" y="0px"
	 width="3083.918px" height="924.886px" viewBox="0 0 3083.918 924.886" enable-background="new 0 0 3083.918 924.886"
	 xml:space="preserve">
<g>
	<path fill="#FFFFFF" d="M652,0c-0.773,1.808-1.363,3.723-2.348,5.408C588.102,110.932,526.506,216.43,465,321.981
		c-1.707,2.929-3.487,4.117-6.966,4.113c-87.797-0.103-175.594-0.104-263.391,0.005c-3.655,0.005-5.589-1.162-7.405-4.288
		C125.868,216.176,64.396,110.6,2.975,4.995C2.085,3.464,1.648,1.671,1,0C218,0,435,0,652,0z"/>
	<path fill="#FFFFFF" d="M682.463,2.292c8.574,14.552,16.771,28.448,24.953,42.353c54.631,92.845,109.238,185.703,163.965,278.491
		c2.016,3.418,2.1,5.88,0.131,9.368c-109.669,194.265-219.253,388.58-328.721,582.958c-2.34,4.156-4.766,5.639-9.596,5.633
		c-126.494-0.158-252.988-0.125-379.482-0.125c-1.824,0-3.647,0-6.645,0C325.694,614.468,503.916,308.66,682.463,2.292z"/>
	<path fill="#FFFFFF" d="M2097.45,665.996c2.522-6.576,4.616-11.914,6.621-17.283c39.644-106.166,79.268-212.335,118.918-318.497
		c3.461-9.265,3.537-9.472,13.624-9.524c16.825-0.087,33.653,0.282,50.479,0.167c3.398-0.023,4.051,1.735,4.963,4.21
		c23.228,62.988,46.463,125.973,69.797,188.923c17.961,48.457,36.055,96.869,54.103,145.295c0.69,1.852,1.509,3.658,2.656,6.422
		c1.115-2.58,1.934-4.322,2.633-6.109c43.563-111.438,87.135-222.875,130.586-334.355c1.306-3.349,2.935-4.446,6.438-4.403
		c14.792,0.179,29.588,0.076,44.888,0.076c-0.487,1.738-0.854,3.65-1.547,5.437c-48.71,125.669-97.451,251.329-146.151,377.003
		c-1.027,2.656-1.981,4.469-5.502,4.4c-20.155-0.396-40.317-0.617-60.479-0.648c-4.107-0.006-6.025-1.313-7.51-5.295
		c-40.182-107.912-80.52-215.768-120.834-323.631c-0.626-1.676-1.299-3.333-2.424-6.21c-1.237,2.856-2.057,4.542-2.713,6.289
		c-38.002,101.113-75.991,202.232-113.977,303.351c-2.746,7.313-5.548,14.605-8.094,21.988c-0.912,2.646-2.272,3.436-5.042,3.449
		c-20.494,0.092-40.991,0.209-61.479,0.723c-4.472,0.113-5.176-2.547-6.31-5.471c-18.857-48.652-37.825-97.262-56.551-145.965
		c-29.398-76.467-58.636-152.999-87.935-229.504c-0.64-1.67-1.19-3.374-2.103-5.972c15.619,0,30.524-0.174,45.416,0.236
		c1.723,0.047,4.078,3.051,4.92,5.17c12.152,30.58,24.15,61.222,36.08,91.891c31.332,80.54,62.611,161.098,93.92,241.647
		C2095.491,661.464,2096.226,663.089,2097.45,665.996z"/>
	<path fill="#FFFFFF" d="M3068.743,427.705c-16.364,0-31.118,0-46.114,0c-0.617-7.67-0.804-15.164-1.888-22.525
		c-4.047-27.46-16.45-40.434-44.813-43.966c-19.26-2.398-38.835-3.029-58.272-3.078c-51.657-0.128-103.323,0.187-154.973,1.045
		c-11.326,0.188-22.792,2.606-33.86,5.349c-21.103,5.227-32.582,19.777-35.57,40.896c-1.996,14.105-1.271,28.278,1.967,42.207
		c4.521,19.454,18.591,28.458,36.551,33.442c19.703,5.469,39.882,5.219,60.001,5.455c55.322,0.646,110.647,0.98,165.971,1.582
		c20.31,0.221,40.575,0.768,60.509,5.682c31.795,7.838,50.961,27.586,56.72,59.738c4.763,26.592,4.96,53.418,0.049,79.982
		c-6.861,37.125-29.158,59.918-65.751,69.566c-26.688,7.037-53.745,8.848-81.126,8.809c-56.331-0.082-112.671,0.59-168.99-0.225
		c-25.511-0.369-50.743-4.811-73.814-16.863c-26.291-13.734-38.619-36.734-41.171-65.346c-1.182-13.244-0.875-26.633-0.985-39.959
		c-0.06-7.148,0.577-7.797,7.69-7.904c12.777-0.188,25.561-0.053,39.105-0.053c0,11.42-0.462,21.9,0.1,32.326
		c1.056,19.58,9.625,35.121,27.779,43.477c9.078,4.18,19.135,7.418,29.019,8.418c20.339,2.063,40.856,3.119,61.306,3.184
		c46.491,0.146,92.995-0.098,139.47-1.199c13.64-0.324,27.431-3.125,40.741-6.439c24.667-6.141,38.018-23.066,40.241-48.059
		c1.116-12.553,1.205-25.393-0.05-37.92c-2.366-23.625-15.845-37.865-40.463-41.1c-19.405-2.549-39.178-2.877-58.801-3.131
		c-55.656-0.719-111.318-0.854-166.978-1.307c-22.609-0.186-44.755-3.408-66.162-10.943c-28.488-10.027-44.627-30.668-51.136-59.582
		c-4.076-18.114-3.123-36.389-2.1-54.715c0.896-16.021,5.65-30.689,14.313-44.077c12.315-19.037,31.025-28.469,52.111-34.339
		c20.824-5.796,42.137-8.716,63.616-8.872c59.644-0.432,119.295-0.354,178.94-0.002c21.145,0.125,42.147,2.161,62.607,8.455
		c30.025,9.237,46.396,30.075,51.178,60.216C3067.858,399.473,3067.774,413.37,3068.743,427.705z"/>
	<path fill="#FFFFFF" d="M1411.522,707.671c-9.997,0-19.802,0-29.605,0c-11.664,0-23.334-0.15-34.994,0.084
		c-3.834,0.078-6.49-1.168-9.188-3.814c-81.95-80.428-163.973-160.777-245.981-241.143c-31.659-31.025-63.308-62.066-94.983-93.076
		c-2.711-2.654-5.599-5.128-8.403-7.685c-0.496,0.131-0.994,0.263-1.49,0.395c0,114.812,0,229.62,0,344.833
		c-16.836,0-32.543,0-48.547,0c0-128.861,0-257.598,0-387.017c1.869,0,3.643,0,5.416,0c21.332,0,42.665,0.137,63.994-0.109
		c4.572-0.053,7.682,1.402,10.885,4.543c97.682,95.802,195.438,191.526,293.218,287.226c15.602,15.27,31.368,30.371,47.064,45.543
		c1.05,1.014,2.157,1.967,4.541,4.133c1.261-114.189,0.32-227.04,1.027-340.249c15.722,0,31.125,0,47.051,0
		C1411.522,449.811,1411.522,578.375,1411.522,707.671z"/>
	<path fill="#FFFFFF" d="M1556.028,363.573c0,40.943,0,80.869,0,121.495c106.305,0,212.367,0,318.609,0c0,14.592,0,28.48,0,43.311
		c-106.313,0-212.227,0-318.864,0c0,45.66,0,90.381,0,136.014c110.522,0,221.414,0,332.784,0c0,14.805,0,28.707,0,42.949
		c-126.624,0-253.346,0-380.156,0c0-128.727,0-257.158,0-385.983c126.876,0,253.384,0,380.266,0c0,13.97,0,27.746,0,42.216
		C1778.021,363.573,1667.295,363.573,1556.028,363.573z"/>
</g>
</svg>
