<?xml version="1.0" encoding="utf-8"?>
<!-- Generator: Adobe Illustrator 16.0.0, SVG Export Plug-In . SVG Version: 6.00 Build 0)  -->
<!DOCTYPE svg PUBLIC "-//W3C//DTD SVG 1.1//EN" "http://www.w3.org/Graphics/SVG/1.1/DTD/svg11.dtd">
<svg version="1.1" id="Layer_1" xmlns="http://www.w3.org/2000/svg" xmlns:xlink="http://www.w3.org/1999/xlink" x="0px" y="0px"
	 width="640px" height="175.17px" viewBox="0 0 640 175.17" enable-background="new 0 0 640 175.17" xml:space="preserve">
<g>
	<path fill="#FFFFFF" d="M0,146.159c6.422,0,12.847,0,19.228,0c0.208,0.273,0.452,0.457,0.507,0.686
		c2.804,11.657,13.417,16.635,24.307,11.358c2.799-1.354,4.552-3.446,4.452-6.761c-0.096-3.159-1.812-5.135-4.649-6.092
		c-7.521-2.543-15.12-4.863-22.603-7.512c-3.075-1.09-6.122-2.501-8.853-4.271c-15.011-9.741-14.199-31.355,1.744-39.51
		c12.261-6.271,25.176-6.381,37.702-0.631c9.148,4.2,13.469,11.941,13.809,22.625c-6.097,0-11.942,0.088-17.778-0.111
		c-0.727-0.025-1.692-1.472-2.051-2.444c-3.01-8.146-15.172-11.367-21.985-5.755c-3.483,2.871-3.455,7.664,0.509,10.037
		c3.131,1.875,6.7,3.074,10.165,4.32c6.442,2.312,13.019,4.26,19.414,6.69c8.913,3.387,13.943,9.847,14.358,19.563
		c0.447,10.455-4.11,18.129-13.563,22.361c-11.827,5.292-24.182,5.77-36.536,1.977c-8.802-2.701-14.239-8.902-16.63-17.781
		c-0.492-1.826-1.031-3.639-1.547-5.459C0,148.354,0,147.255,0,146.159z"/>
	<path fill="#FFFFFF" d="M229.859,172.46c-6.499,0-12.897,0-19.563,0c0-26.833,0-53.477,0-80.575c7.04,0,13.861-0.142,20.667,0.138
		c1.178,0.047,2.651,1.674,3.368,2.928c8.902,15.561,17.691,31.186,26.443,46.676c0-16.221,0-32.759,0-49.508
		c6.425,0,12.778,0,19.362,0c0,26.779,0,53.314,0,80.453c-7.138,0-14.199,0.104-21.25-0.129c-0.907-0.03-1.967-1.689-2.6-2.797
		c-8.36-14.627-16.655-29.291-24.969-43.946c-0.376-0.663-0.768-1.317-1.458-2.499C229.859,139.915,229.859,155.96,229.859,172.46z"
		/>
	<path fill="#FFFFFF" d="M167.539,2.41c0,26.783,0,53.32,0,80.448c-7.128,0-14.194,0.104-21.249-0.127
		c-0.908-0.03-1.971-1.674-2.6-2.777c-8.296-14.505-16.528-29.046-24.777-43.577c-0.449-0.79-0.931-1.56-1.718-2.876
		c0,16.707,0,32.75,0,49.108c-6.318,0-12.795,0-19.427,0c0-26.809,0-53.482,0-80.437c6.967,0,13.679-0.141,20.373,0.129
		c1.202,0.048,2.75,1.55,3.438,2.775c8.655,15.399,17.177,30.873,25.744,46.323c0.184,0.333,0.472,0.608,0.936,1.192
		c0-16.871,0-33.404,0-50.181C154.519,2.41,160.774,2.41,167.539,2.41z"/>
	<path fill="#FFFFFF" d="M256.958,2.17c6.936,0,13.504-0.141,20.057,0.124c1.225,0.05,2.826,1.477,3.509,2.687
		c8.598,15.267,17.057,30.613,25.558,45.936c0.246,0.442,0.554,0.85,1.08,1.654c0-16.925,0-33.364,0-50.104
		c6.204,0,12.569,0,19.26,0c0,26.589,0,53.223,0,80.426c-6.867,0-13.799,0.123-20.72-0.13c-1.048-0.039-2.329-1.646-3-2.817
		c-8.374-14.611-16.654-29.276-24.962-43.924c-0.455-0.803-0.953-1.58-1.664-2.757c0,16.666,0,32.833,0,49.333
		c-6.127,0-12.477,0-19.118,0C256.958,55.979,256.958,29.344,256.958,2.17z"/>
	<path fill="#FFFFFF" d="M524.64,92.153c0.935-0.102,1.719-0.262,2.503-0.262c11.654,0,23.315-0.194,34.967,0.09
		c16.896,0.41,28.434,9.848,32.337,26.263c2.25,9.475,2.214,19.08-0.033,28.532c-3.589,15.105-13.369,23.938-30.062,25.275
		c-13.063,1.047-26.273,0.209-39.712,0.209C524.64,145.681,524.64,119.028,524.64,92.153z M545.454,155.619
		c4.751,0,9.267,0.294,13.728-0.065c8.048-0.647,12.714-4.761,14.646-12.658c1.788-7.299,1.729-14.653-0.171-21.942
		c-1.359-5.208-4.193-9.687-9.605-10.779c-6.033-1.217-12.306-1.233-18.598-1.78C545.454,124.747,545.454,140.017,545.454,155.619z"
		/>
	<path fill="#FFFFFF" d="M292.512,172.313c0-26.736,0-53.254,0-79.698c0.313-0.243,0.521-0.544,0.727-0.546
		c13.141-0.023,26.324-0.693,39.41,0.146c15.785,1.014,25.881,10.287,29.683,25.676c2.369,9.592,2.332,19.32,0.055,28.898
		c-3.618,15.212-13.784,24.17-30.417,25.342C319.036,173.042,305.99,172.313,292.512,172.313z M313.307,155.433
		c5.325,0,10.255,0.351,15.115-0.084c6.875-0.615,11.204-4.746,13.067-11.317c2.215-7.818,2.185-15.706,0.02-23.525
		c-1.393-5.032-4.294-9.348-9.539-10.373c-6.043-1.18-12.316-1.188-18.664-1.721C313.307,124.665,313.307,139.834,313.307,155.433z"
		/>
	<path fill="#FFFFFF" d="M515.635,172.627c-7.128,0-13.684,0.097-20.229-0.122c-0.821-0.027-2.129-1.656-2.281-2.68
		c-0.581-3.919-0.792-7.893-1.124-11.848c-0.214-2.59-0.211-5.215-0.634-7.77c-0.759-4.57-3.32-7.223-7.942-7.518
		c-5.438-0.344-10.914-0.08-16.834-0.08c0,9.965,0,19.75,0,29.781c-6.973,0-13.486,0-20.284,0c0-26.701,0-53.35,0-80.521
		c2.815,0,5.517-0.042,8.214,0.006c13.694,0.248,27.477-0.353,41.061,1.011c15.929,1.6,23.956,17.077,16.765,31.072
		c-2.032,3.951-5.874,6.971-9.075,10.635c7.521,2.873,8.482,9.961,8.77,17.407c0.159,4.108,0.097,8.254,0.689,12.304
		C513.118,166.972,514.498,169.49,515.635,172.627z M466.665,126.776c7.388-0.375,14.36-0.348,21.219-1.219
		c4.329-0.55,6.356-4.174,6.268-8.838c-0.084-4.4-2.247-7.783-6.574-8.111c-6.882-0.521-13.833-0.139-20.911-0.139
		C466.665,114.198,466.665,120.037,466.665,126.776z"/>
	<path fill="#FFFFFF" d="M472.508,2.172c6.984,0,13.828-0.07,20.668,0.087c0.895,0.022,2.266,1.045,2.567,1.903
		c9.199,25.938,18.289,51.914,27.39,77.887c0.038,0.109-0.057,0.263-0.146,0.638c-7.003,0-14.068,0-21.587,0
		c-1.289-3.809-2.438-7.87-4.094-11.713c-0.524-1.222-2.363-2.608-3.646-2.653c-7.121-0.258-14.258-0.05-21.386-0.167
		c-2.168-0.035-3.177,0.745-3.745,2.799c-1.093,3.947-2.421,7.833-3.674,11.822c-7.031,0-13.861,0-21.361,0
		C453.209,55.786,462.821,29.086,472.508,2.172z M474.47,51.173c6.028,0,11.556,0,17.551,0c-2.893-8.964-5.704-17.683-8.518-26.403
		c-0.281,0.01-0.563,0.019-0.844,0.03C479.968,33.469,477.275,42.137,474.47,51.173z"/>
	<path fill="#FFFFFF" d="M361.409,172.651c3.213-9.014,6.174-17.391,9.182-25.75c6.169-17.144,12.433-34.252,18.482-51.437
		c0.983-2.801,2.319-3.802,5.271-3.664c5.338,0.248,10.699-0.039,16.039,0.177c1.164,0.047,2.973,1.021,3.318,1.987
		c9.187,25.662,18.222,51.378,27.265,77.093c0.126,0.357,0.017,0.799,0.017,1.582c-6.639,0-13.198,0.059-19.755-0.076
		c-0.817-0.017-1.686-0.973-2.39-1.639c-0.355-0.337-0.4-1.001-0.581-1.519c-1.309-3.747-1.571-9.005-4.21-10.831
		c-2.829-1.959-7.893-0.74-11.982-0.813c-3.838-0.07-7.685,0.104-11.518-0.058c-2.277-0.095-3.404,0.591-4.082,2.903
		c-1.175,4.014-1.714,9.455-4.525,11.406c-2.896,2.01-8.188,0.582-12.435,0.631C367.053,172.674,364.6,172.651,361.409,172.651z
		 M392.443,140.759c6.152,0,11.643,0,17.526,0c-2.95-9.083-5.762-17.74-8.573-26.395c-0.263,0.031-0.523,0.063-0.787,0.097
		C397.914,123.146,395.217,131.833,392.443,140.759z"/>
	<path fill="#FFFFFF" d="M251.677,82.92c-6.636,0-13.064,0.09-19.484-0.096c-0.978-0.027-2.39-1.128-2.791-2.076
		c-1.274-3.017-2.315-6.156-3.159-9.325c-0.687-2.58-2.071-3.358-4.686-3.288c-6.71,0.179-13.43,0.139-20.143,0.01
		c-2.397-0.045-3.726,0.564-4.397,3.09c-1.013,3.815-1.426,9.13-4.036,10.828c-3.025,1.969-8.146,0.748-12.36,0.85
		c-2.589,0.062-5.183,0.01-8.174,0.01c0.286-1.284,0.402-2.305,0.74-3.244c8.849-24.602,17.758-49.184,26.537-73.809
		c0.944-2.645,2.012-3.974,5.123-3.792c5.325,0.313,10.688-0.052,16.022,0.189c1.251,0.059,3.174,1.143,3.551,2.196
		c9.189,25.643,18.209,51.343,27.247,77.038C251.75,81.743,251.677,82.036,251.677,82.92z M220.66,51.286
		c-2.955-9.15-5.766-17.851-8.575-26.552c-0.27-0.001-0.537-0.005-0.807-0.006c-2.715,8.758-5.431,17.516-8.233,26.559
		C209.071,51.286,214.513,51.286,220.66,51.286z"/>
	<path fill="#FFFFFF" d="M205.419,172.636c-6.658,0-13.227,0.094-19.787-0.102c-0.953-0.03-2.263-1.264-2.712-2.256
		c-1.068-2.357-2.061-4.85-2.459-7.387c-0.709-4.531-3.226-5.479-7.417-5.233c-6.149,0.358-12.336,0.184-18.501,0.047
		c-2.165-0.048-3.35,0.655-3.723,2.76c-0.072,0.404-0.201,0.8-0.338,1.187c-1.272,3.576-1.582,8.416-4.113,10.354
		c-2.369,1.814-7.093,0.584-10.781,0.639c-3.129,0.045-6.259,0.01-9.925,0.01c2.896-8.062,5.616-15.639,8.338-23.211
		c6.435-17.914,12.929-35.809,19.25-53.762c1.016-2.884,2.372-4.066,5.546-3.89c5.33,0.298,10.694-0.035,16.031,0.188
		c1.122,0.047,2.836,1.114,3.189,2.103c9.181,25.657,18.219,51.362,27.267,77.067C205.408,171.507,205.361,171.929,205.419,172.636z
		 M165.773,114.519c-0.308-0.029-0.616-0.058-0.924-0.086c-2.682,8.733-5.363,17.467-8.114,26.424c6.21,0,11.613,0,17.496,0
		C171.336,131.841,168.554,123.181,165.773,114.519z"/>
	<path fill="#FFFFFF" d="M410.713,28.989c-6.085,0-11.689,0.085-17.285-0.083c-0.917-0.029-2.305-0.989-2.617-1.836
		c-2.627-7.08-8.168-9.753-15.113-9.829c-6.639-0.07-12.148,2.744-15.2,8.786c-5.454,10.792-5.544,21.983-0.546,32.902
		c3.117,6.81,9.117,9.505,16.558,8.991c7.158-0.494,12.085-3.812,14.363-10.85c0.305-0.942,1.733-2.123,2.679-2.158
		c5.456-0.206,10.926-0.101,16.389-0.101c-0.231,14.211-11.223,26.594-25.971,29.584c-26.053,5.283-47.246-11.223-48.443-37.79
		c-0.649-14.425,2.358-27.608,13.852-37.504c11.824-10.183,32.475-12.07,46.043-4.397C404.58,9.883,409.236,17.965,410.713,28.989z"
		/>
	<path fill="#FFFFFF" d="M58.438,18.822c-12.266,0-24.294,0-36.65,0c0,5.652,0,11.021,0,16.791c10.563,0,21.065,0,31.924,0
		c0,5.62,0,10.859,0,16.62c-10.558,0-21.153,0-32.215,0c0,10.418,0,20.336,0,30.471c-6.994,0-13.515,0-20.338,0
		c0-26.701,0-53.337,0-80.257c19.013,0,37.979,0,57.28,0C58.438,7.727,58.438,12.981,58.438,18.822z"/>
	<path fill="#FFFFFF" d="M113.678,172.487c-7.205,0-13.737,0-20.718,0c0-21.332,0-42.508,0-64.111c-7.901,0-15.378,0-23.15,0
		c0-5.693,0-10.953,0-16.359c22.201,0,44.123,0,66.413,0c0,5.27,0,10.494,0,16.1c-7.448,0-14.795,0-22.544,0
		C113.678,129.663,113.678,150.843,113.678,172.487z"/>
	<path fill="#FFFFFF" d="M528.483,2.38c6.919,0,13.446,0,20.376,0c0,20.981,0,41.748,0,62.991c13.194,0,25.997,0,39.073,0
		c0,6.001,0,11.527,0,17.308c-19.834,0-39.504,0-59.449,0C528.483,55.97,528.483,29.329,528.483,2.38z"/>
	<path fill="#FFFFFF" d="M65.274,2.276c6.832,0,13.257,0,20.04,0c0,26.72,0,53.362,0,80.328c-6.502,0-13.129,0-20.04,0
		C65.274,55.975,65.274,29.329,65.274,2.276z"/>
	<path fill="#FFFFFF" d="M438.943,2.39c0,27.009,0,53.551,0,80.314c-6.761,0-13.272,0-20.053,0c0-26.805,0-53.446,0-80.314
		C425.607,2.39,432.119,2.39,438.943,2.39z"/>
	<path fill="#FFFFFF" d="M639.3,152.974c0.044,9.209-7.339,16.752-16.532,16.892c-9.342,0.141-17.063-7.437-17.089-16.774
		c-0.022-9.238,7.336-16.727,16.561-16.841C631.693,136.133,639.253,143.546,639.3,152.974z"/>
</g>
</svg>
