<?xml version="1.0" encoding="utf-8"?>
<!-- Generator: Adobe Illustrator 16.0.0, SVG Export Plug-In . SVG Version: 6.00 Build 0)  -->
<!DOCTYPE svg PUBLIC "-//W3C//DTD SVG 1.1//EN" "http://www.w3.org/Graphics/SVG/1.1/DTD/svg11.dtd">
<svg version="1.1" id="Layer_1" xmlns="http://www.w3.org/2000/svg" xmlns:xlink="http://www.w3.org/1999/xlink" x="0px" y="0px"
	 width="652px" height="219.535px" viewBox="-5.5 -6.5 652 219.535" enable-background="new -5.5 -6.5 652 219.535"
	 xml:space="preserve">
<g>
	<g>
		<path fill-rule="evenodd" clip-rule="evenodd" fill="#FFFFFF" d="M639.905,50.998c-8.468,22.988-22.311,43.004-35.125,63.596
			c-18.439,29.632-33.346,60.99-45.184,93.795c-1.313,3.636-2.953,4.784-6.726,4.634c-7.927-0.316-15.876-0.097-24.519-0.097
			c1.234-2.184,2.055-3.759,2.986-5.265c9.994-16.134,19.939-32.298,30.074-48.342c1.783-2.822,1.998-5.141,0.826-8.279
			c-11.453-30.696-22.857-61.413-33.934-92.246c-1.65-4.593-3.758-6.543-8.485-5.802c-1.44,0.227-2.944,0.035-5.206,0.035
			c0.479-4.815,0.91-9.176,1.404-14.154c4.67,0,9.117,0,13.564,0c8.164,0,16.356,0.409,24.482-0.147
			c5.218-0.356,7.082,1.682,8.613,6.296c7.438,22.414,15.241,44.706,22.921,67.04c0.532,1.547,1.112,3.077,1.714,4.738
			c0.599-0.295,1.189-0.389,1.42-0.728c8.939-13.136,16.644-26.881,20.665-42.413c3.199-12.354,2.49-23.819-7.59-33.145
			c-0.466-0.432-0.768-1.04-1.387-1.9c6.198-7.818,12.364-15.598,18.636-23.51c9.383,7.431,17.989,14.925,20.848,26.894
			C639.905,44.998,639.905,47.998,639.905,50.998z"/>
		<path fill-rule="evenodd" clip-rule="evenodd" fill="#FFFFFF" d="M107.898,136.326c3.385,0,6.043-0.146,8.677,0.041
			c2.715,0.193,3.891-0.851,4.183-3.565c2.366-22.015,4.822-44.021,7.227-66.032c0.116-1.058,0.015-2.139-0.778-3.4
			c-0.828,1.536-1.708,3.046-2.474,4.611c-9.654,19.727-19.352,39.432-28.864,59.227c-1.359,2.828-2.957,3.856-6.063,3.755
			c-6.983-0.229-13.979-0.071-21.622-0.071c-3.089-11.49-6.177-22.976-9.263-34.461c-3.059-11.387-6.114-22.774-10.155-34.196
			c-2.913,24.427-5.827,48.853-8.822,73.973c4.06,0,7.792,0,12.203,0c-0.492,5.117-0.915,9.52-1.369,14.249
			c-16.925,0-33.646,0-50.683,0c0.379-4.007,0.51-7.833,1.243-11.541c0.206-1.039,2.119-2.318,3.365-2.46
			c3.11-0.354,6.287-0.116,10.062-0.116c4.42-40.241,8.809-80.196,13.276-120.872c-4.468,0-8.517,0-13.167,0
			c0.524-5.097,0.973-9.464,1.479-14.396c9.372,0,18.485,0,27.599,0c5.165,0,10.345,0.236,15.49-0.08
			c3.639-0.225,5.165,0.994,6.157,4.563c7.305,26.275,14.844,52.485,22.326,78.711c0.574,2.014,1.278,3.99,2.236,6.956
			c6.273-12.74,12.068-24.509,17.862-36.277c8.23-16.718,16.541-33.397,24.614-50.191c1.365-2.839,2.93-3.794,6.026-3.754
			c13.327,0.17,26.657,0.064,39.986,0.084c1.294,0.002,2.588,0.171,4.294,0.291c-0.402,4.04-0.505,7.868-1.322,11.536
			c-0.234,1.051-2.494,2.255-3.891,2.343c-9.39,0.593-9.532,0.486-10.566,9.809c-4.037,36.404-7.98,72.818-11.943,109.229
			c-0.049,0.455,0.113,0.932,0.248,1.925c3.932,0,7.86,0,12.599,0c-0.487,5.102-0.916,9.604-1.363,14.287
			c-20.141,0-39.883,0-60.177,0C106.99,145.743,107.415,141.331,107.898,136.326z"/>
		<path fill-rule="evenodd" clip-rule="evenodd" fill="#FFFFFF" d="M410.179,150.57c-17.738,0-34.999,0-52.886,0
			c1.067-9.813,2.099-19.34,3.139-28.865c1.897-17.379,3.878-34.75,5.636-52.145c0.373-3.692,1.278-8.195-3.09-10.221
			c-4.187-1.939-8.274-0.208-11.573,2.605c-11.02,9.396-15.873,21.956-17.523,35.899c-1.918,16.205-3.485,32.451-5.235,48.676
			c-0.141,1.301-0.527,2.576-0.838,4.048c-11.617,0-23.051,0-35.396,0c3.511-32.479,6.988-64.653,10.536-97.474
			c-4.74,0-9.147,0-13.914,0c0.579-5.052,1.082-9.445,1.599-13.958c16.546,0,32.646,0,49.212,0
			c-0.726,7.416-1.422,14.54-2.194,22.434c4.436-5.111,7.936-9.745,12.046-13.751c7.392-7.203,16.297-11.447,26.78-11.861
			c17.59-0.693,27.539,9.547,26.106,27.22c-0.78,9.622-2.122,19.198-3.2,28.796c-1.633,14.528-3.256,29.058-4.955,44.224
			c5.949,0,11.362,0,17.343,0C411.198,141.364,410.696,145.889,410.179,150.57z"/>
		<path fill-rule="evenodd" clip-rule="evenodd" fill="#FFFFFF" d="M234.001,35.436c5.442,0.656,10.981,0.872,16.308,2.049
			c19.098,4.219,30.581,16.543,33.68,36.175c2.435,15.422,1.095,30.647-4.591,45.208c-9.239,23.663-27.884,33.77-52.252,34.771
			c-5.612,0.23-11.389-0.123-16.89-1.215c-22.26-4.415-35.113-19.034-37.065-42.208c-1.042-12.365,0.115-24.649,3.834-36.563
			c7.106-22.759,24.869-36.222,49.426-37.56c2.492-0.137,4.997-0.019,7.496-0.019C233.964,35.861,233.982,35.648,234.001,35.436z
			 M208.046,107.446c0.457,0.047,0.913,0.093,1.37,0.139c0,6.646-0.127,13.295,0.07,19.935c0.068,2.28,0.733,4.611,1.495,6.79
			c3.971,11.372,17.583,14.295,25.557,5.191c2.863-3.269,5.144-7.51,6.319-11.692c2.102-7.481,4.058-15.208,4.473-22.918
			c0.839-15.569,0.916-31.201,0.658-46.796c-0.101-6.076-3.057-11.424-9.836-12.855c-6.97-1.473-13.216,0.427-17.014,6.563
			c-3.018,4.875-5.933,10.262-7.028,15.79C211.501,80.761,209.997,94.147,208.046,107.446z"/>
		<path fill-rule="evenodd" clip-rule="evenodd" fill="#FFFFFF" d="M513.47,131.303c0.14,0.624,0.286,0.944,0.27,1.256
			c-0.828,15.975,2.547,12.768-13.152,17.003c-14.196,3.83-28.781,5.039-43.567,3.559c-24.69-2.472-39.681-16.353-42.706-41.075
			c-1.691-13.821-0.623-27.644,4.174-40.897c7.964-22.001,24.305-33.004,47.097-34.982c5.606-0.487,11.393-0.5,16.947,0.3
			c21.114,3.039,32.614,16.09,34.183,38.365c0.313,4.439,0.045,8.921,0.045,13.689c-16.971,3.192-33.611,6.317-50.25,9.456
			c-4.74,0.894-9.5,1.711-14.188,2.823c-1.17,0.278-2.781,1.393-3.038,2.413c-3.492,13.829,7.306,31.101,21.348,33.773
			c12.711,2.418,25.186,0.849,37.303-3.625C509.767,132.684,511.597,131.999,513.47,131.303z M450.075,87.694
			c11.465-2.035,22.091-3.867,32.68-5.895c0.968-0.186,2.418-1.623,2.422-2.485c0.04-8.584,0.507-17.256-0.555-25.728
			c-0.748-5.965-5.604-8.635-11.699-8.695c-7.239-0.072-11.772,4.048-14.92,9.93C452.651,64.821,451.2,75.798,450.075,87.694z"/>
	</g>
</g>
</svg>
