<?xml version="1.0" encoding="utf-8"?>
<!-- Generator: Adobe Illustrator 16.0.0, SVG Export Plug-In . SVG Version: 6.00 Build 0)  -->
<!DOCTYPE svg PUBLIC "-//W3C//DTD SVG 1.1//EN" "http://www.w3.org/Graphics/SVG/1.1/DTD/svg11.dtd">
<svg version="1.1" id="Layer_1" xmlns="http://www.w3.org/2000/svg" xmlns:xlink="http://www.w3.org/1999/xlink" x="0px" y="0px"
	 width="215.965px" height="41.235px" viewBox="0 0 215.965 41.235" enable-background="new 0 0 215.965 41.235"
	 xml:space="preserve">
<g>
	<path fill="#FFFFFF" d="M24.785,15.387c0,6.225-0.022,12.448,0.015,18.673c0.011,1.729,0.595,2.291,2.354,2.595
		c0.698,0.12,1.38,0.203,1.291,1.186c-0.087,0.959-0.784,0.846-1.419,0.847c-2.52,0.003-5.038-0.002-7.557,0.001
		c-0.634,0.001-1.222-0.025-1.299-0.871c-0.074-0.813,0.461-0.988,1.085-1.15c1.71-0.439,2.144-0.863,2.288-2.6
		c0.273-3.305,0.526-6.611,0.669-9.922c0.17-3.953,0.247-7.91,0.304-11.865c0.037-2.479-0.362-2.974-2.704-3.646
		c-0.701-0.201-1.119-0.629-0.864-1.282c0.129-0.33,0.736-0.659,1.136-0.669c2.518-0.06,5.037-0.004,7.556-0.045
		c0.779-0.013,0.984,0.335,1.152,1.021c0.418,1.698,0.794,3.433,1.457,5.041c2.024,4.91,4.175,9.768,6.281,14.645
		c0.124,0.289,0.291,0.559,0.5,0.953c0.156-0.229,0.283-0.359,0.348-0.518c2.734-6.688,5.918-13.202,7.781-20.223
		c0.169-0.636,0.459-0.925,1.154-0.916c2.438,0.033,4.878-0.021,7.314,0.048c0.384,0.011,0.754,0.481,1.131,0.739
		c-0.299,0.396-0.548,0.845-0.912,1.161c-0.21,0.183-0.612,0.131-0.92,0.213c-1.423,0.379-1.968,0.979-2.004,2.441
		c-0.057,2.277-0.065,4.558-0.031,6.836c0.077,5.076,0.189,10.15,0.301,15.226c0.01,0.477,0.113,0.949,0.177,1.423
		c0.157,1.181,0.753,1.892,2.01,1.978c0.694,0.047,1.25,0.291,1.167,1.174c-0.084,0.893-0.735,0.807-1.33,0.807
		c-3.398,0.005-6.798,0.031-10.194-0.038c-0.398-0.009-0.785-0.55-1.178-0.845c0.34-0.359,0.622-0.932,1.029-1.041
		c2.033-0.543,2.315-0.77,2.378-2.914c0.059-1.957,0.019-3.918,0.001-5.877c-0.033-3.758-0.081-7.514-0.126-11.271
		c-0.003-0.229-0.033-0.455-0.075-0.997c-0.281,0.576-0.45,0.869-0.572,1.181c-2.688,6.84-5.375,13.68-8.049,20.525
		c-0.258,0.662-0.487,1.279-1.359,1.271c-0.856-0.01-1.074-0.581-1.337-1.27c-2.779-7.275-5.595-14.537-8.404-21.799
		c-0.037-0.095-0.138-0.165-0.208-0.246C25.009,15.37,24.896,15.378,24.785,15.387z"/>
	<path fill="#FFFFFF" d="M131.658,36.159c-0.58,0.326-0.893,0.492-1.193,0.672c-3.676,2.191-8.156,1.324-10.617-2.209
		c-2.563-3.678-2.646-7.666-0.744-11.607c1.881-3.895,5.131-5.895,9.492-6.001c0.438-0.011,0.879-0.003,1.317,0.008
		c1.642,0.039,1.646,0.041,1.644-1.549c0-2.277-0.037-4.557-0.002-6.835c0.016-0.998-0.279-1.749-1.084-2.384
		c-1.141-0.9-0.986-1.627,0.338-2.141c1.49-0.576,2.973-1.174,4.449-1.783c1.428-0.589,1.771-0.366,1.771,1.219
		c-0.004,9.233-0.014,18.466-0.006,27.699c0,0.795,0.107,1.59,0.197,2.383c0.11,0.984,0.637,1.308,1.584,0.957
		c0.541-0.201,1.156-0.396,1.297,0.459c0.121,0.725,0.164,1.434-0.844,1.679c-2.13,0.519-4.244,1.097-6.361,1.661
		c-0.84,0.225-1.219-0.114-1.237-0.941C131.65,37.104,131.658,36.764,131.658,36.159z M131.557,27.584c-0.004,0-0.011,0-0.016,0
		c0-1.641,0.07-3.285-0.035-4.918c-0.043-0.666-0.322-1.433-0.75-1.937c-1.708-2.012-4.605-1.592-5.955,0.95
		c-1.818,3.43-1.682,6.943,0.161,10.334c0.728,1.338,1.878,2.275,3.485,2.488c1.884,0.248,3.096-0.752,3.107-2.6
		C131.564,30.465,131.557,29.024,131.557,27.584z"/>
	<path fill="#FFFFFF" d="M114.451,38.387c-1.68,0-3.357-0.006-5.037,0.002c-0.674,0.005-1.318-0.186-1.216-0.939
		c0.054-0.398,0.583-0.916,1.001-1.047c1.705-0.533,1.781-0.568,1.24-2.316c-0.627-2.024-1.317-4.027-1.93-6.055
		c-0.308-1.02-0.841-1.516-1.976-1.466c-1.795,0.078-3.598,0.052-5.396,0.009c-0.892-0.023-1.394,0.277-1.657,1.17
		c-0.669,2.26-1.4,4.502-2.137,6.742c-0.342,1.045-0.031,1.616,1.075,1.747c0.315,0.037,0.708,0.044,0.914,0.229
		c0.311,0.281,0.694,0.729,0.661,1.07c-0.029,0.307-0.572,0.799-0.898,0.807c-2.797,0.063-5.596,0.061-8.393,0.002
		c-0.306-0.006-0.838-0.471-0.845-0.733c-0.011-0.376,0.366-0.763,0.582-1.144c0.015-0.024,0.072-0.037,0.11-0.039
		c2.606-0.059,3.252-2.051,3.958-3.996c2.642-7.291,5.454-14.524,7.837-21.897c0.705-2.178,1.882-3.568,3.517-4.853
		c0.883-0.692,1.507-0.479,1.907,0.765c1.124,3.501,2.194,7.019,3.322,10.518c1.815,5.631,3.673,11.247,5.483,16.877
		c0.445,1.389,1.222,2.289,2.75,2.449c0.73,0.076,1.348,0.457,1.277,1.305c-0.078,0.926-0.85,0.785-1.477,0.787
		c-1.561,0.008-3.119,0.002-4.678,0.002C114.451,38.383,114.451,38.385,114.451,38.387z M100.753,23.719
		c2.105,0,3.921,0.023,5.732-0.045c0.152-0.006,0.462-0.692,0.388-0.983c-0.313-1.233-0.74-2.439-1.135-3.653
		c-0.499-1.535-1.006-3.068-1.51-4.603c-0.102-0.004-0.203-0.01-0.305-0.015C102.896,17.437,101.867,20.452,100.753,23.719z"/>
	<path fill="#FFFFFF" d="M84.128,6.649c2.959,0,5.918,0.035,8.876-0.02c1.006-0.018,1.445,0.22,1.396,1.324
		c-0.079,1.756,0.038,3.52-0.032,5.275c-0.018,0.449-0.328,1.138-0.674,1.27c-0.682,0.26-1.001-0.288-1.195-0.958
		c-1.162-3.998-1.697-4.38-5.887-4.381c-0.839,0-1.679,0.021-2.518-0.001c-0.697-0.019-1.048,0.281-1.048,0.986
		c0.001,3.238,0,6.477-0.002,9.715c-0.001,0.728,0.405,0.963,1.078,0.951c1.239-0.021,2.479-0.004,3.718-0.011
		c1.193-0.007,1.977-0.543,2.215-1.758c0.063-0.313,0.115-0.628,0.191-0.938c0.16-0.647,0.195-1.445,1.185-1.32
		c0.939,0.119,0.764,0.868,0.76,1.489c-0.011,1.799-0.044,3.598-0.05,5.396c-0.002,0.879,0.113,1.767,0.023,2.635
		c-0.043,0.412-0.354,1.002-0.692,1.137c-0.622,0.246-1.021-0.184-1.129-0.857c-0.532-3.367-1.301-3.047-4.028-3.063
		c-3.286-0.02-3.293-0.008-3.284,3.299c0.007,2.318,0.003,4.639,0.061,6.956c0.051,2.118,0.48,2.585,2.531,2.899
		c0.689,0.105,1.274,0.289,1.232,1.145c-0.046,0.945-0.746,0.867-1.396,0.867c-3.638-0.002-7.276,0-10.915-0.003
		c-0.639-0.001-1.345,0.095-1.394-0.87c-0.045-0.88,0.563-1.025,1.232-1.146c1.833-0.328,2.346-0.828,2.354-2.703
		c0.037-7.635,0.035-15.27,0.009-22.907c-0.006-1.695-0.339-2.026-2.017-2.436c-0.643-0.157-1.151-0.388-1.064-1.173
		c0.094-0.856,0.738-0.8,1.349-0.8C78.051,6.65,81.09,6.649,84.128,6.649z"/>
	<path fill="#FFFFFF" d="M8.371,38.983c-1.987-0.537-4.006-0.986-5.945-1.662c-0.603-0.211-1.285-0.975-1.416-1.594
		c-0.41-1.941-0.613-3.932-0.796-5.911c-0.03-0.329,0.443-0.707,0.685-1.062c0.375,0.271,0.875,0.467,1.105,0.832
		c0.95,1.512,1.689,3.172,2.755,4.59c1.034,1.377,2.543,2.232,4.36,2.129c2.95-0.17,4.682-2.869,3.911-6.014
		c-0.417-1.701-1.395-3.059-2.761-4.101c-1.045-0.797-2.184-1.474-3.293-2.185c-2.795-1.789-4.917-4.037-5.473-7.489
		C0.705,11.55,3.948,7.131,8.957,6.434c2.592-0.36,5.105-0.038,7.541,0.854c0.363,0.133,0.795,0.597,0.852,0.961
		c0.268,1.732,0.469,3.48,0.568,5.23c0.021,0.375-0.473,0.779-0.729,1.171c-0.392-0.263-0.923-0.439-1.147-0.805
		c-0.666-1.08-1.088-2.326-1.83-3.342C12.767,8.524,10.3,8.067,8.49,9.278c-1.785,1.194-2.368,3.906-1.02,5.876
		c0.766,1.118,1.877,2.052,2.975,2.88c1.654,1.246,3.578,2.161,5.133,3.509c4.699,4.08,4.534,11.629-0.224,15.104
		c-2.05,1.497-4.413,1.987-6.897,2.038C8.428,38.786,8.4,38.885,8.371,38.983z"/>
	<path fill="#FFFFFF" d="M72.336,12.124c0.033,0.479,0.173,0.981,0.068,1.428c-0.092,0.396-0.459,1.027-0.698,1.023
		c-0.402-0.005-0.948-0.338-1.171-0.696c-0.689-1.112-1.082-2.453-1.923-3.413c-0.707-0.809-1.827-1.562-2.858-1.721
		c-3.08-0.473-5.257,2.308-4.334,5.307c0.55,1.787,1.84,2.961,3.353,3.926c1.348,0.859,2.762,1.621,4.064,2.543
		c3.374,2.39,5.05,5.668,4.536,9.808c-0.613,4.936-4.027,7.9-9.323,8.311c-2.473,0.191-4.89-0.168-7.109-1.287
		c-0.633-0.318-1.33-1.047-1.473-1.702c-0.414-1.899-0.601-3.854-0.775-5.794c-0.031-0.344,0.42-0.729,0.648-1.096
		c0.384,0.26,0.901,0.436,1.127,0.795c0.95,1.512,1.679,3.179,2.746,4.596c1.06,1.41,2.595,2.295,4.467,2.146
		c2.946-0.233,4.617-2.945,3.806-6.082c-0.45-1.741-1.476-3.109-2.895-4.146c-1.353-0.99-2.822-1.818-4.188-2.789
		c-2.797-1.99-4.516-4.62-4.517-8.155c-0.003-4.77,3.242-8.234,7.991-8.736c2.403-0.254,4.71,0.058,6.948,0.857
		c0.449,0.161,0.939,0.735,1.052,1.205c0.287,1.195,0.372,2.438,0.537,3.665C72.389,12.116,72.362,12.12,72.336,12.124z"/>
	<path fill="#FFFFFF" d="M194.254,26.661c-1.479,0-2.959,0.012-4.438-0.006c-0.862-0.01-1.221,0.357-1.174,1.24
		c0.201,3.801,3.369,6.697,7.094,6.424c1.193-0.087,2.263-0.484,3.021-1.488c0.363-0.479,0.712-1.078,1.442-0.604
		c0.771,0.503,0.523,1.18,0.17,1.795c-1.667,2.906-4.201,4.52-7.535,4.537c-3.354,0.02-6.033-1.424-7.71-4.43
		c-2.642-4.732-1.175-11.373,3.151-14.418c2.815-1.981,6.855-2.174,9.508-0.413c1.896,1.262,2.916,3.021,2.867,5.345
		c-0.029,1.408-0.406,1.887-1.84,1.953c-1.517,0.072-3.037,0.018-4.558,0.018C194.254,26.627,194.254,26.645,194.254,26.661z
		 M192.143,24.232c0,0.003,0,0.007,0,0.009c0.637,0,1.273,0.018,1.91-0.004c1.678-0.059,2.229-0.982,1.336-2.42
		c-0.324-0.523-0.93-1.008-1.512-1.211c-1.73-0.605-4.298,0.969-4.615,2.79c-0.043,0.235,0.367,0.761,0.621,0.798
		C190.622,24.303,191.389,24.232,192.143,24.232z"/>
	<path fill="#FFFFFF" d="M169.871,32.844c0.344-0.621,0.549-1.588,1.059-1.793c1.064-0.426,1.129,0.761,1.531,1.393
		c0.639,1,1.215,2.081,2.037,2.91c1.148,1.16,2.855,1.098,3.752,0.082c0.904-1.025,0.729-2.68-0.521-3.721
		c-0.758-0.633-1.646-1.116-2.51-1.61c-1.994-1.146-3.729-2.479-4.174-4.938c-0.406-2.252,0.549-4.604,2.477-5.813
		c2.658-1.669,5.459-1.589,8.272-0.491c0.401,0.158,0.823,0.71,0.912,1.146c0.229,1.125,0.345,2.286,0.358,3.434
		c0.004,0.336-0.446,0.906-0.754,0.953c-0.334,0.053-0.85-0.299-1.094-0.617c-0.602-0.783-0.979-1.756-1.648-2.459
		c-1.114-1.175-2.678-1.088-3.563,0.032c-0.844,1.067-0.568,2.319,0.816,3.241c1.296,0.859,2.703,1.554,3.98,2.439
		c3.102,2.15,3.77,6.543,1.323,9.258c-1.823,2.022-4.313,2.426-6.923,2.258c-0.118-0.008-0.234-0.043-0.354-0.063
		c-3.982-0.646-4.646-1.425-4.688-5.482C170.066,32.948,169.969,32.896,169.871,32.844z"/>
	<path fill="#FFFFFF" d="M150.152,30.497c0.453-1.137,0.916-2.271,1.359-3.412c0.62-1.604,1.219-3.215,1.842-4.816
		c0.303-0.777,0.217-1.313-0.73-1.479c-0.734-0.129-1.424-0.5-1.087-1.336c0.149-0.371,0.894-0.686,1.38-0.706
		c1.876-0.082,3.76-0.083,5.635,0.001c0.422,0.02,0.824,0.501,1.234,0.771c-0.314,0.391-0.582,1.06-0.953,1.123
		c-1.546,0.266-2.357,1.258-2.922,2.562c-1.684,3.889-3.348,7.785-5.018,11.678c-0.363,0.846-0.65,1.732-1.111,2.521
		c-0.268,0.457-0.827,1.068-1.221,1.045c-0.492-0.031-1.149-0.545-1.386-1.021c-0.793-1.611-1.438-3.295-2.127-4.957
		c-1.163-2.807-2.315-5.619-3.478-8.428c-0.652-1.578-1.352-3.085-3.313-3.464c-0.286-0.056-0.668-0.734-0.622-1.073
		c0.041-0.301,0.609-0.75,0.952-0.756c2.958-0.059,5.918-0.058,8.876,0.005c0.346,0.008,0.92,0.468,0.955,0.77
		c0.038,0.327-0.35,0.883-0.691,1.044c-1.518,0.717-1.543,0.682-0.947,2.238c0.979,2.568,1.97,5.133,2.955,7.697
		C149.875,30.499,150.014,30.499,150.152,30.497z"/>
	<path fill="#FFFFFF" d="M207.916,20.464c0.99-0.705,1.704-1.268,2.469-1.744c2.029-1.266,4.258-0.585,4.754,1.442
		c0.291,1.194-0.053,2.249-1.006,3.004c-0.964,0.766-2.052,0.813-3.141,0.205c-2.361-1.314-2.922-1.006-2.936,1.672
		c-0.017,3.035-0.016,6.07,0.004,9.106c0.01,1.632,0.26,1.884,1.9,2.151c0.354,0.059,0.781,0.039,1.038,0.234
		c0.296,0.225,0.624,0.666,0.597,0.981c-0.027,0.304-0.455,0.735-0.775,0.813c-0.567,0.135-1.189,0.043-1.789,0.045
		c-2.557,0.004-5.112,0.01-7.67,0.008c-0.592,0-1.258,0.092-1.393-0.758c-0.13-0.826,0.357-1.18,1.068-1.293
		c1.186-0.191,1.552-0.945,1.546-2.047c-0.017-3.435,0.045-6.871-0.045-10.305c-0.017-0.658-0.438-1.439-0.916-1.926
		c-1.072-1.093-1.005-1.752,0.423-2.363c1.357-0.581,2.712-1.173,4.051-1.796c1.342-0.626,1.723-0.41,1.752,1.06
		C207.855,19.347,207.883,19.737,207.916,20.464z"/>
	<path fill="#FFFFFF" d="M167.266,26.604c0,2.518,0.01,5.033-0.004,7.551c-0.006,1.178,0.369,2.02,1.674,2.215
		c0.693,0.104,1.16,0.565,0.898,1.248c-0.135,0.346-0.725,0.723-1.115,0.73c-2.756,0.064-5.514,0.07-8.27,0.002
		c-0.426-0.012-1.07-0.408-1.211-0.779c-0.256-0.686,0.285-1.123,0.955-1.219c1.26-0.178,1.611-0.955,1.604-2.107
		c-0.021-3.355-0.014-6.711,0.016-10.066c0.008-0.95-0.279-1.666-1.064-2.264c-1.014-0.769-0.816-1.628,0.365-2.123
		c1.508-0.63,3.013-1.273,4.496-1.96c1.172-0.542,1.654-0.298,1.662,0.982c0.018,2.597,0.006,5.192,0.006,7.79
		C167.273,26.604,167.27,26.604,167.266,26.604z"/>
	<path fill="#FFFFFF" d="M167.664,8.644c-0.002,1.979-1.596,3.51-3.625,3.485c-1.928-0.024-3.441-1.511-3.451-3.389
		c-0.01-2.112,1.389-3.483,3.545-3.473C166.193,5.277,167.667,6.687,167.664,8.644z"/>
</g>
</svg>
