<svg xmlns="http://www.w3.org/2000/svg" width="500" height="500" viewBox="0 0 500 500">

<g id="frame1">
<pattern  x="-70" y="-318" width="22.1" height="22.1" patternUnits="userSpaceOnUse" id="New_Pattern_2" viewBox="0 -22.1 22.1 22.1" style="overflow:visible;">
  <g>
    <rect x="0" y="-22.1" style="fill:none;" width="22.1" height="22.1"/>
    <circle style="fill:#FFFFFF;" cx="1.4" cy="-20.7" r="1.4"/>
    <circle style="fill:#FFFFFF;" cx="6.9" cy="-20.7" r="1.4"/>
    <circle style="fill:#FFFFFF;" cx="12.4" cy="-20.7" r="1.4"/>
    <circle style="fill:#FFFFFF;" cx="18" cy="-20.7" r="1.4"/>
    <circle style="fill:#FFFFFF;" cx="1.4" cy="-9.7" r="1.4"/>
    <circle style="fill:#FFFFFF;" cx="6.9" cy="-9.7" r="1.4"/>
    <circle style="fill:#FFFFFF;" cx="12.4" cy="-9.7" r="1.4"/>
    <circle style="fill:#FFFFFF;" cx="18" cy="-9.7" r="1.4"/>
    <circle style="fill:#FFFFFF;" cx="4.1" cy="-15.2" r="1.4"/>
    <circle style="fill:#FFFFFF;" cx="9.7" cy="-15.2" r="1.4"/>
    <circle style="fill:#FFFFFF;" cx="15.2" cy="-15.2" r="1.4"/>
    <circle style="fill:#FFFFFF;" cx="20.7" cy="-15.2" r="1.4"/>
    <circle style="fill:#FFFFFF;" cx="4.1" cy="-4.1" r="1.4"/>
    <circle style="fill:#FFFFFF;" cx="9.7" cy="-4.1" r="1.4"/>
    <circle style="fill:#FFFFFF;" cx="15.2" cy="-4.1" r="1.4"/>
    <circle style="fill:#FFFFFF;" cx="20.7" cy="-4.1" r="1.4"/>
    <rect x="0" y="-22.1" style="fill:none;" width="22.1" height="22.1"/>
  </g>
</pattern>
<circle style="fill:#3333FF;" cx="250" cy="250" r="234.7"/>
<line id="_x3C_Line_x3E_" style="fill:none;stroke:#FFFFFF;stroke-width:4;stroke-linecap:round;stroke-linejoin:round;stroke-miterlimit:10;" x1="343" y1="131.1" x2="409.7" y2="131.1"/>
<line style="fill:none;stroke:#FFFFFF;stroke-width:4;stroke-linecap:round;stroke-linejoin:round;stroke-miterlimit:10;" x1="369.8" y1="131.1" x2="369.8" y2="108.8"/>
<line style="fill:none;stroke:#FFFFFF;stroke-width:4;stroke-linecap:round;stroke-linejoin:round;stroke-miterlimit:10;" x1="391.7" y1="153.5" x2="391.7" y2="131.1"/>
<line style="fill:none;stroke:#FFFFFF;stroke-width:4;stroke-linecap:round;stroke-linejoin:round;stroke-miterlimit:10;" x1="83" y1="303" x2="156" y2="303"/>
<line style="fill:none;stroke:#FFFFFF;stroke-width:4;stroke-linecap:round;stroke-linejoin:round;stroke-miterlimit:10;" x1="107.3" y1="325.3" x2="145.7" y2="325.3"/>
<line style="fill:none;stroke:#FFFFFF;stroke-width:4;stroke-linecap:round;stroke-linejoin:round;stroke-miterlimit:10;" x1="109.8" y1="303" x2="109.8" y2="280.7"/>
<line style="fill:none;stroke:#FFFFFF;stroke-width:4;stroke-linecap:round;stroke-linejoin:round;stroke-miterlimit:10;" x1="131.7" y1="325.3" x2="131.7" y2="303"/>
<line style="fill:none;stroke:#FFFFFF;stroke-width:4;stroke-linecap:round;stroke-linejoin:round;stroke-miterlimit:10;" x1="355.2" y1="264.1" x2="428.2" y2="264.1"/>
<line style="fill:none;stroke:#FFFFFF;stroke-width:4;stroke-linecap:round;stroke-linejoin:round;stroke-miterlimit:10;" x1="369" y1="264.1" x2="369" y2="241.7"/>
<line style="fill:none;stroke:#FFFFFF;stroke-width:4;stroke-linecap:round;stroke-linejoin:round;stroke-miterlimit:10;" x1="415.2" y1="264.1" x2="415.2" y2="241.7"/>
<line style="fill:none;stroke:#FFFFFF;stroke-width:4;stroke-linecap:round;stroke-linejoin:round;stroke-miterlimit:10;" x1="390.8" y1="286.4" x2="390.8" y2="264.1"/>
<pattern  id="SVGID_1_" patternTransform="matrix(-1.7276 0 0 1.7276 -20950.959 5464.2319)">
</pattern>
<path style="fill:url(#SVGID_1_);stroke:#FFFFFF;stroke-width:4;stroke-linecap:round;stroke-linejoin:round;stroke-miterlimit:10;" d="
  M250.4,409"/>
<path style="fill:none;stroke:#FFFFFF;stroke-width:4;stroke-linecap:round;stroke-linejoin:round;stroke-miterlimit:10;" d="
  M262.3,426.5c-3.1,56.6-46.6,63.6-85.5,55.2"/>
<path style="fill:none;stroke:#FFFFFF;stroke-width:4;stroke-linecap:round;stroke-linejoin:round;stroke-miterlimit:10;" d="
  M337.6,386.6l-64.4-5.5l20.4-8.7C293.6,372.4,338.5,376.2,337.6,386.6z"/>
<path style="fill:none;stroke:#FFFFFF;stroke-width:4;stroke-linecap:round;stroke-linejoin:round;stroke-miterlimit:10;" d="
  M330.2,385.9c-0.6,6.9-28.6,9.2-52.2,7.1l-4.9-12L330.2,385.9z"/>
<path style="fill:none;stroke:#FFFFFF;stroke-width:4;stroke-linecap:round;stroke-linejoin:round;stroke-miterlimit:10;" d="
  M271.5,364.2c-2.4,1.2-19.1,5.9-19.1,5.9c-4.6-0.4-6.6-5-6.6-9.3c0-3.6,3.1-6.4,6.6-6l17.8,1.7"/>
<path style="fill:none;stroke:#FFFFFF;stroke-width:4;stroke-linecap:round;stroke-linejoin:round;stroke-miterlimit:10;" d="
  M295.2,372.5c1.8-21-13.7-39.4-34.7-41.2c-21-1.8-39.4,13.7-41.2,34.7"/>
<path style="fill:none;stroke:#FFFFFF;stroke-width:4;stroke-linecap:round;stroke-linejoin:round;stroke-miterlimit:10;" d="
  M274.5,487.2c6-6.8,25.1-31,29.4-39.1c9.9-18.6,2.8-41.6-15.8-51.5c-3.3-1.7-6.6-2.9-10.1-3.7"/>
<line style="fill:none;stroke:#FFFFFF;stroke-width:4;stroke-linecap:round;stroke-linejoin:round;stroke-miterlimit:10;" x1="219.3" y1="366" x2="217" y2="392.6"/>
<path id="head" style="fill:#3333FF;" d="M250.9,321.7c4.9-2.1,6.4-7,4.5-10.6c8.1-0.5,15.2,5.2,16.6,13c3.9-1.3,6-5.5,4.6-9.4l0,0
  c8.7,0.7,15.2,8.4,14.4,17.1c-0.5,5.9-5.7,10.3-11.6,9.8l-32.2-2.8c-7.2-0.6-13.6,4.7-14.2,12l-1.4,16.7
  c-0.8,8.7-8.5,15.1-17.2,14.3l-26.9,0c8.7,0.8,14.7-8.1,15.5-16.8l1.4-16.7c0.6-7.2,7-12.6,14.2-12c2-3.6,0.1-7.8-3.5-9.9l0,0
  c5-3.7,11.6-4,16.8-1.3l0,0c3.1-2.7,3.5-7.3,0.9-10.5l0,0C240,312.6,247.3,315.6,250.9,321.7z"/>
<circle style="fill:#FFFFFF;" cx="222.1" cy="339.9" r="2.4"/>
<circle style="fill:#FFFFFF;" cx="212.6" cy="339.9" r="2.4"/>
<circle style="fill:#FFFFFF;" cx="222.1" cy="359" r="2.4"/>
<circle style="fill:#FFFFFF;" cx="212.6" cy="359" r="2.4"/>
<circle style="fill:#FFFFFF;" cx="217.4" cy="349.5" r="2.4"/>
<circle style="fill:#FFFFFF;" cx="207.8" cy="349.5" r="2.4"/>
<circle style="fill:#FFFFFF;" cx="217.4" cy="368.6" r="2.4"/>
<path style="fill:#FFFFFF;" d="M220,453.9c-0.4,1.8,1.1,3.3,2.9,2.9c0.8-0.2,1.5-0.9,1.7-1.7c0.4-1.8-1.1-3.3-2.9-2.9
  C220.9,452.4,220.2,453.1,220,453.9z"/>
<path style="fill:#FFFFFF;" d="M224.8,463.5c-0.4,1.8,1.1,3.3,2.9,2.9c0.8-0.2,1.5-0.9,1.7-1.7c0.4-1.8-1.1-3.3-2.9-2.9
  C225.7,462,225,462.6,224.8,463.5z"/>
<path style="fill:#FFFFFF;" d="M205.4,463.5c-0.4,1.8,1.1,3.3,2.9,2.9c0.8-0.2,1.5-0.9,1.7-1.7c0.4-1.8-1.1-3.3-2.9-2.9
  C206.3,462,205.6,462.6,205.4,463.5z"/>
<path style="fill:#FFFFFF;" d="M215.3,463.5c-0.4,1.8,1.1,3.3,2.9,2.9c0.8-0.2,1.5-0.9,1.7-1.7c0.4-1.8-1.1-3.3-2.9-2.9
  C216.2,462,215.5,462.6,215.3,463.5z"/>
<path style="fill:#FFFFFF;" d="M220,473c-0.4,1.8,1.1,3.3,2.9,2.9c0.8-0.2,1.5-0.9,1.7-1.7c0.4-1.8-1.1-3.3-2.9-2.9
  C220.9,471.5,220.2,472.2,220,473z"/>
<path style="fill:#FFFFFF;" d="M191.3,473c-0.4,1.8,1.1,3.3,2.9,2.9c0.8-0.2,1.5-0.9,1.7-1.7c0.4-1.8-1.1-3.3-2.9-2.9
  C192.2,471.5,191.5,472.2,191.3,473z"/>
<path style="fill:#FFFFFF;" d="M215,482.5c-0.4,1.8,1.1,3.3,2.9,2.9c0.8-0.2,1.5-0.9,1.7-1.7c0.4-1.8-1.1-3.3-2.9-2.9
  C215.9,481,215.2,481.7,215,482.5z"/>
<path style="fill:#FFFFFF;" d="M200.7,473c-0.4,1.8,1.1,3.3,2.9,2.9c0.8-0.2,1.5-0.9,1.7-1.7c0.4-1.8-1.1-3.3-2.9-2.9
  C201.6,471.5,200.9,472.2,200.7,473z"/>
<path style="fill:#FFFFFF;" d="M210.2,473c-0.4,1.8,1.1,3.3,2.9,2.9c0.8-0.2,1.5-0.9,1.7-1.7c0.4-1.8-1.1-3.3-2.9-2.9
  C211.1,471.5,210.4,472.2,210.2,473z"/>
<path style="fill:#FFFFFF;" d="M229.5,453.9c-0.4,1.8,1.1,3.3,2.9,2.9c0.8-0.2,1.5-0.9,1.7-1.7c0.4-1.8-1.1-3.3-2.9-2.9
  C230.4,452.4,229.7,453.1,229.5,453.9z"/>
<path style="fill:#FFFFFF;" d="M229.5,472.9c-0.4,1.8,1.1,3.3,2.9,2.9c0.8-0.2,1.5-0.9,1.7-1.7c0.4-1.8-1.1-3.3-2.9-2.9
  C230.4,471.3,229.7,472,229.5,472.9z"/>
<path style="fill:#FFFFFF;" d="M234.2,463.5c-0.4,1.8,1.1,3.3,2.9,2.9c0.8-0.2,1.5-0.9,1.7-1.7c0.4-1.8-1.1-3.3-2.9-2.9
  C235,462,234.4,462.6,234.2,463.5z"/>
<path style="fill:#FFFFFF;" d="M243.9,463.5c-0.4,1.8,1.1,3.3,2.9,2.9c0.8-0.2,1.5-0.9,1.7-1.7c0.4-1.8-1.1-3.3-2.9-2.9
  C244.8,462,244.1,462.6,243.9,463.5z"/>
<path style="fill:#FFFFFF;" d="M238.9,454.1c-0.4,1.8,1.1,3.3,2.9,2.9c0.8-0.2,1.5-0.9,1.7-1.7c0.4-1.8-1.1-3.3-2.9-2.9
  C239.8,452.6,239.1,453.3,238.9,454.1z"/>
<path style="fill:#FFFFFF;" d="M234.2,444.4c-0.4,1.8,1.1,3.3,2.9,2.9c0.8-0.2,1.5-0.9,1.7-1.7c0.4-1.8-1.1-3.3-2.9-2.9
  C235,442.9,234.4,443.6,234.2,444.4z"/>
<circle style="fill:#FFFFFF;" cx="246.2" cy="445" r="2.4"/>
<circle style="fill:#FFFFFF;" cx="251" cy="435.5" r="2.4"/>
<circle style="fill:#FFFFFF;" cx="260.3" cy="435.5" r="2.4"/>
<circle style="fill:#FFFFFF;" cx="255.5" cy="445" r="2.4"/>
<circle style="fill:#FFFFFF;" cx="251" cy="454.7" r="2.4"/>
<circle style="fill:#FFFFFF;" cx="207.8" cy="368.6" r="2.4"/>
<circle style="fill:#FFFFFF;" cx="222.1" cy="378.1" r="2.4"/>
<circle style="fill:#FFFFFF;" cx="212.6" cy="378.1" r="2.4"/>
<circle style="fill:#FFFFFF;" cx="203" cy="378.1" r="2.4"/>
<circle style="fill:#FFFFFF;" cx="260.3" cy="320.8" r="2.4"/>
<circle style="fill:#FFFFFF;" cx="241.2" cy="320.8" r="2.4"/>
<circle style="fill:#FFFFFF;" cx="255.6" cy="330.4" r="2.4"/>
<circle style="fill:#FFFFFF;" cx="246" cy="330.4" r="2.4"/>
<circle style="fill:#FFFFFF;" cx="236.5" cy="330.4" r="2.4"/>
<circle style="fill:#FFFFFF;" cx="226.9" cy="330.4" r="2.4"/>
<circle style="fill:#FFFFFF;" cx="231.7" cy="339.9" r="2.4"/>
<circle style="fill:#FFFFFF;" cx="231.7" cy="359" r="2.4"/>
<circle style="fill:#FFFFFF;" cx="226.9" cy="349.5" r="2.4"/>
<circle style="fill:#FFFFFF;" cx="226.9" cy="368.6" r="2.4"/>
<circle style="fill:#FFFFFF;" cx="279.5" cy="320.8" r="2.4"/>
<circle style="fill:#FFFFFF;" cx="269.9" cy="320.8" r="2.4"/>
<circle style="fill:#FFFFFF;" cx="284.2" cy="330.4" r="2.4"/>
<circle style="fill:#FFFFFF;" cx="274.7" cy="330.4" r="2.4"/>
<circle style="fill:#FFFFFF;" cx="265.1" cy="330.4" r="2.4"/>
<circle style="fill:#FFFFFF;" cx="279.5" cy="339.9" r="2.4"/>
<circle style="fill:#FFFFFF;" cx="269.9" cy="339.9" r="2.4"/>
<path style="fill:none;stroke:#FFFFFF;stroke-width:4;stroke-linecap:round;stroke-linejoin:round;stroke-miterlimit:10;" d="
  M250.9,321.7c4.9-2.1,6.4-7,4.5-10.6c8.1-0.5,15.2,5.2,16.6,13c3.9-1.3,6-5.5,4.6-9.4l0,0c8.7,0.7,15.2,8.4,14.4,17.1
  c-0.5,5.9-5.7,10.3-11.6,9.8l-32.2-2.8c-7.2-0.6-13.6,4.7-14.2,12l-1.4,16.7c-0.8,8.7-8.5,15.1-17.2,14.3l-28.6,0
  c8.7,0.8,16.4-8.1,17.2-16.8l1.4-16.7c0.6-7.2,7-12.6,14.2-12c2-3.6,0.1-7.8-3.5-9.9l0,0c5-3.7,11.6-4,16.8-1.3l0,0
  c3.1-2.7,3.5-7.3,0.9-10.5l0,0C240,312.6,247.3,315.6,250.9,321.7z"/>
<path style="fill:none;stroke:#FFFFFF;stroke-width:4;stroke-linecap:round;stroke-linejoin:round;stroke-miterlimit:10;" d="
  M262.3,426.5c-10.5,39.5-61.5,70.2-92.1,43.2l0,0l27.4-55.4c9.6-16.7,30.9-22.4,47.5-12.9c2.9,1.7,5.5,3.7,7.7,6"/>
<path id="wing" style="fill:#3333FF;stroke:#FFFFFF;stroke-width:4;stroke-linecap:round;stroke-linejoin:round;stroke-miterlimit:10;" d="
  M262.3,426.5c-18.4,35.2-71.1,60.6-106.3,42.2l43.8-62.9c11.7-15.2,33.6-18.1,48.8-6.4c2.7,2.1,5,4.4,6.9,7"/>
<g id="eye">
  <path style="fill:#3333FF;" d="M269.5,366.7c-0.3,0-0.7,0-1-0.1c-3.3-0.6-5.6-3.7-5-7c0.5-3,3-5.1,6-5.1c0.3,0,0.7,0,1,0.1
    c3.3,0.6,5.6,3.7,5,7C275.1,364.6,272.5,366.7,269.5,366.7C269.5,366.7,269.5,366.7,269.5,366.7z"/>
  <path style="fill:#FFFFFF;" d="M269.5,356.5c0.2,0,0.4,0,0.7,0.1c2.2,0.4,3.7,2.5,3.4,4.7c-0.3,2-2.1,3.4-4,3.4
    c-0.2,0-0.4,0-0.7-0.1c-2.2-0.4-3.7-2.5-3.4-4.7C265.8,357.9,267.6,356.5,269.5,356.5 M269.5,352.5c-4,0-7.3,2.8-8,6.8
    c-0.4,2.1,0.1,4.3,1.4,6s3.1,2.9,5.3,3.3c0.4,0.1,0.9,0.1,1.3,0.1c4,0,7.3-2.8,8-6.8c0.7-4.4-2.3-8.6-6.7-9.3
    C270.4,352.5,270,352.5,269.5,352.5L269.5,352.5z"/>
</g>
<rect id="Rectangle-blue" x="100.2" y="95.7" transform="matrix(0.7071 0.7071 -0.7071 0.7071 126.2991 -70.246)" style="fill:#3333FF;stroke:#FFFFFF;stroke-width:4;stroke-linecap:round;stroke-linejoin:round;stroke-miterlimit:10;" width="95.5" height="43.2"/>
<path id="molot" style="fill:none;stroke:#FFFFFF;stroke-width:4;stroke-linecap:round;stroke-linejoin:round;stroke-miterlimit:10;" d="
  M100,83.5l-4.9-4.9c-8.5-8.5-17-30.7-8.6-39.2l8.6,8.6l20.2,20.2L100,83.5z"/>
<rect id="Rectangle2" x="106.2" y="62.2" transform="matrix(0.7071 0.7071 -0.7071 0.7071 88.7241 -55.3865)" style="fill:none;stroke:#FFFFFF;stroke-width:4;stroke-linecap:round;stroke-linejoin:round;stroke-miterlimit:10;" width="10.1" height="34.5"/>
<rect id="Rectangle1" x="66.4" y="149.4" transform="matrix(0.7071 0.7071 -0.7071 0.7071 141.6555 -33.172)" style="fill:none;stroke:#FFFFFF;stroke-width:4;stroke-linecap:round;stroke-linejoin:round;stroke-miterlimit:10;" width="89" height="10.1"/>
<path id="ark2" style="fill:none;stroke:#FFFFFF;stroke-width:4;stroke-linecap:round;stroke-linejoin:round;stroke-miterlimit:10;" d="
  M139.6,176c-5-5-5-13.2,0-18.2c5-5,13.2-5,18.2,0"/>
<path id="ark1" style="fill:none;stroke:#FFFFFF;stroke-width:4;stroke-linecap:round;stroke-linejoin:round;stroke-miterlimit:10;" d="
  M86.9,123.4c5,5,13.2,5,18.2,0c5-5,5-13.2,0-18.2"/>
<line id="_x3C_Line_x3E__2_" style="fill:none;stroke:#FFFFFF;stroke-width:4;stroke-linecap:round;stroke-linejoin:round;stroke-miterlimit:10;" x1="107.3" y1="158" x2="250" y2="15.3"/>

</g>


<g id="frame2">
<circle style="fill:#3333FF;" cx="250" cy="250" r="234.7"/>
<path style="fill:#3333FF;stroke:#FFFFFF;stroke-width:4;stroke-linecap:round;stroke-linejoin:round;stroke-miterlimit:10;" d="
  M238.5,365.4c-1.9,1.2-15.1,6.3-15.1,6.3c-3.6-0.3-5.1-4.9-5-9.2c0.1-3.6,2.5-6.4,5.3-6.2l14,1.4"/>
<g>
  <path style="fill:#3333FF;" d="M237,367.9c-0.3,0-0.7,0-1-0.1c-1.6-0.3-3-1.1-4-2.5c-1-1.3-1.3-3-1.1-4.6c0.5-3,3-5.1,6-5.1
    c0.3,0,0.7,0,1,0.1c3.3,0.6,5.6,3.7,5,7C242.6,365.8,240,367.9,237,367.9C237,367.9,237,367.9,237,367.9z"/>
  <path style="fill:#FFFFFF;" d="M237,357.7c0.2,0,0.5,0,0.7,0.1c2.2,0.4,3.8,2.5,3.4,4.7c-0.3,2-2.1,3.4-4.1,3.4
    c-0.2,0-0.5,0-0.7-0.1c-2.2-0.4-3.8-2.5-3.4-4.7C233.3,359.1,235.1,357.7,237,357.7 M237,353.7c-4,0-7.4,2.9-8,6.8
    c-0.4,2.1,0.1,4.3,1.4,6.1c1.3,1.8,3.1,2.9,5.3,3.3c0.4,0.1,0.9,0.1,1.3,0.1c4,0,7.4-2.9,8-6.8c0.7-4.4-2.3-8.6-6.7-9.3
    C237.9,353.7,237.5,353.7,237,353.7L237,353.7z"/>
</g>
<path style="fill:#3333FF;stroke:#FFFFFF;stroke-width:4;stroke-linecap:round;stroke-linejoin:round;stroke-miterlimit:10;" d="
  M262.5,365.4c1.9,1.2,15.1,6.3,15.1,6.3c3.6-0.3,5.1-4.9,5-9.2c-0.1-3.6-2.5-6.4-5.3-6.2l-14,1.4"/>
<g>
  <path style="fill:#3333FF;" d="M264,367.9c-3,0-5.5-2.2-6-5.1c-0.6-3.3,1.7-6.5,5-7c0.3-0.1,0.7-0.1,1-0.1c3,0,5.5,2.2,6,5.1
    c0.3,1.6-0.1,3.2-1.1,4.6c-1,1.3-2.4,2.2-4,2.5C264.6,367.9,264.3,367.9,264,367.9z"/>
  <path style="fill:#FFFFFF;" d="M264,357.7c2,0,3.7,1.4,4.1,3.4c0.4,2.2-1.1,4.4-3.4,4.7c-0.2,0-0.5,0.1-0.7,0.1
    c-2,0-3.7-1.4-4.1-3.4c-0.4-2.2,1.1-4.4,3.4-4.7C263.5,357.7,263.7,357.7,264,357.7 M264,353.7L264,353.7c-0.4,0-0.9,0-1.3,0.1
    c-4.4,0.7-7.4,4.9-6.7,9.3c0.7,3.9,4,6.8,8,6.8c0.4,0,0.9,0,1.3-0.1c2.1-0.4,4-1.5,5.3-3.3c1.3-1.8,1.8-3.9,1.4-6.1
    C271.3,356.5,268,353.7,264,353.7L264,353.7z"/>
</g>
<path style="fill:#3333FF;stroke:#FFFFFF;stroke-width:4;stroke-linecap:round;stroke-linejoin:round;stroke-miterlimit:10;" d="
  M272.5,396.3c0,0-2.3,9.4-22,9.4s-22-9.4-22-9.4"/>
<path style="fill:none;stroke:#FFFFFF;stroke-width:4;stroke-linecap:round;stroke-linejoin:round;stroke-miterlimit:10;" d="
  M211.3,387.4c0,0,0.1,7-6.4,7"/>
<path style="fill:none;stroke:#FFFFFF;stroke-width:4;stroke-linecap:round;stroke-linejoin:round;stroke-miterlimit:10;" d="
  M289.2,387.4c0,0-0.1,7,6.4,7"/>
<path style="fill:#FFFFFF;" d="M200.7,301.7"/>
<path style="fill:#FFFFFF;" d="M200.7,320.8"/>
<path style="fill:none;" d="M200.7,337.5"/>
<circle style="fill:#FFFFFF;" cx="198.4" cy="359" r="2.4"/>
<path style="fill:#FFFFFF;" d="M172.1,359"/>
<circle style="fill:#FFFFFF;" cx="193.6" cy="368.6" r="2.4"/>
<line style="fill:none;" x1="200.7" y1="375.7" x2="200.7" y2="337.5"/>
<circle style="fill:#FFFFFF;" cx="198.4" cy="378.1" r="2.4"/>
<path style="fill:#FFFFFF;" d="M172.1,378.1"/>
<circle style="fill:#FFFFFF;" cx="198.4" cy="397.2" r="2.4"/>
<path style="fill:#FFFFFF;" d="M196,387.7c0-1.3-1.1-2.4-2.4-2.4c-1.3,0-2.4,1.1-2.4,2.4"/>
<circle style="fill:#FFFFFF;" cx="193.6" cy="406.8" r="2.4"/>
<path style="fill:#FFFFFF;" d="M174.5,409.2"/>
<circle style="fill:#FFFFFF;" cx="236.6" cy="320.8" r="2.4"/>
<circle style="fill:#FFFFFF;" cx="227" cy="320.8" r="2.4"/>
<circle style="fill:#FFFFFF;" cx="217.5" cy="320.8" r="2.4"/>
<circle style="fill:#FFFFFF;" cx="207.9" cy="320.8" r="2.4"/>
<circle style="fill:#FFFFFF;" cx="231.8" cy="311.3" r="2.4"/>
<circle style="fill:#FFFFFF;" cx="222.2" cy="311.3" r="2.4"/>
<circle style="fill:#FFFFFF;" cx="231.8" cy="330.4" r="2.4"/>
<circle style="fill:#FFFFFF;" cx="222.2" cy="330.4" r="2.4"/>
<circle style="fill:#FFFFFF;" cx="212.7" cy="330.4" r="2.4"/>
<circle style="fill:#FFFFFF;" cx="236.6" cy="339.9" r="2.4"/>
<circle style="fill:#FFFFFF;" cx="227" cy="339.9" r="2.4"/>
<circle style="fill:#FFFFFF;" cx="217.5" cy="339.9" r="2.4"/>
<circle style="fill:#FFFFFF;" cx="207.9" cy="339.9" r="2.4"/>
<circle style="fill:#FFFFFF;" cx="207.9" cy="359" r="2.4"/>
<circle style="fill:#FFFFFF;" cx="203.1" cy="349.5" r="2.4"/>
<circle style="fill:#FFFFFF;" cx="207.9" cy="378.1" r="2.4"/>
<circle style="fill:#FFFFFF;" cx="207.9" cy="397.2" r="2.4"/>
<circle style="fill:#FFFFFF;" cx="203.1" cy="387.7" r="2.4"/>
<circle style="fill:#FFFFFF;" cx="212.7" cy="406.8" r="2.4"/>
<circle style="fill:#FFFFFF;" cx="203.1" cy="406.8" r="2.4"/>
<circle style="fill:#FFFFFF;" cx="274.8" cy="320.8" r="2.4"/>
<circle style="fill:#FFFFFF;" cx="265.2" cy="320.8" r="2.4"/>
<circle style="fill:#FFFFFF;" cx="255.7" cy="320.8" r="2.4"/>
<circle style="fill:#FFFFFF;" cx="246.1" cy="320.8" r="2.4"/>
<circle style="fill:#FFFFFF;" cx="270" cy="311.3" r="2.4"/>
<circle style="fill:#FFFFFF;" cx="260.5" cy="311.3" r="2.4"/>
<circle style="fill:#FFFFFF;" cx="241.3" cy="311.3" r="2.4"/>
<circle style="fill:#FFFFFF;" cx="270" cy="330.4" r="2.4"/>
<circle style="fill:#FFFFFF;" cx="260.5" cy="330.4" r="2.4"/>
<circle style="fill:#FFFFFF;" cx="250.9" cy="330.4" r="2.4"/>
<circle style="fill:#FFFFFF;" cx="241.3" cy="330.4" r="2.4"/>
<circle style="fill:#FFFFFF;" cx="274.8" cy="339.9" r="2.4"/>
<circle style="fill:#FFFFFF;" cx="265.2" cy="339.9" r="2.4"/>
<circle style="fill:#FFFFFF;" cx="255.7" cy="339.9" r="2.4"/>
<circle style="fill:#FFFFFF;" cx="246.1" cy="339.9" r="2.4"/>
<path style="fill:#FFFFFF;" d="M270,371c1.3,0,2.4-1.1,2.4-2.4c0-1.3-1.1-2.4-2.4-2.4c-1.3,0-2.4,1.1-2.4,2.4"/>
<circle style="fill:#FFFFFF;" cx="255.7" cy="378.1" r="2.4"/>
<circle style="fill:#FFFFFF;" cx="246.1" cy="378.1" r="2.4"/>
<circle style="fill:#FFFFFF;" cx="260.5" cy="387.7" r="2.4"/>
<circle style="fill:#FFFFFF;" cx="250.9" cy="387.7" r="2.4"/>
<circle style="fill:#FFFFFF;" cx="241.3" cy="387.7" r="2.4"/>
<circle style="fill:#FFFFFF;" cx="284.3" cy="320.8" r="2.4"/>
<path style="fill:#FFFFFF;" d="M279.6,308.9c-1.3,0-2.4,1.1-2.4,2.4s1.1,2.4,2.4,2.4"/>
<path style="fill:#FFFFFF;" d="M308.2,332.8"/>
<circle style="fill:#FFFFFF;" cx="289.1" cy="330.4" r="2.4"/>
<circle style="fill:#FFFFFF;" cx="279.6" cy="330.4" r="2.4"/>
<polyline style="fill:none;" points="277.2,299.3 277.2,337.5 315.4,337.5 "/>
<polyline style="fill:none;" points="277.2,299.3 277.2,337.5 315.4,337.5 "/>
<circle style="fill:#FFFFFF;" cx="293.9" cy="339.9" r="2.4"/>
<circle style="fill:#FFFFFF;" cx="284.3" cy="339.9" r="2.4"/>
<circle style="fill:#FFFFFF;" cx="303.4" cy="359" r="2.4"/>
<circle style="fill:#FFFFFF;" cx="293.9" cy="359" r="2.4"/>
<circle style="fill:#FFFFFF;" cx="298.7" cy="349.5" r="2.4"/>
<circle style="fill:#FFFFFF;" cx="289.1" cy="349.5" r="2.4"/>
<circle style="fill:#FFFFFF;" cx="308.2" cy="368.6" r="2.4"/>
<circle style="fill:#FFFFFF;" cx="298.7" cy="368.6" r="2.4"/>
<path style="fill:#FFFFFF;" d="M303.4,375.7c-1.3,0-2.4,1.1-2.4,2.4c0,1.3,1.1,2.4,2.4,2.4"/>
<circle style="fill:#FFFFFF;" cx="293.9" cy="378.1" r="2.4"/>
<circle style="fill:#FFFFFF;" cx="303.4" cy="397.2" r="2.4"/>
<circle style="fill:#FFFFFF;" cx="293.9" cy="397.2" r="2.4"/>
<circle style="fill:#FFFFFF;" cx="298.7" cy="387.7" r="2.4"/>
<circle style="fill:#FFFFFF;" cx="308.2" cy="406.8" r="2.4"/>
<circle style="fill:#FFFFFF;" cx="298.7" cy="406.8" r="2.4"/>
<circle style="fill:#FFFFFF;" cx="289.1" cy="406.8" r="2.4"/>
<path style="fill:none;stroke:#FFFFFF;stroke-width:4;stroke-linecap:round;stroke-linejoin:round;stroke-miterlimit:10;" d="
  M250.3,318.4c1.2-8.6,7.4-14.4,13.8-12.8l0,0c-1.7,3.4-1,8.1,1.5,10.4c2.5-7.2,8.7-10.8,14.4-8.2c-2.1,3-1.9,8.2,1.2,11.5
  c3.8-5,9.6-5.9,14.3-2l0,0c-2.4,2.2-3.1,6.6-1.6,10c0,0,4.1,3.7,4.1,10.4c0,12.2,7.1,29,16.9,29c-9.1,8.2-17.8,0-17.8,0l0.2,1.8
  c0.6,6.9,10.2,13.7,16.9,14.3c-13.4,10.1-24.9,4.5-24.9,4.5l0-34.2c0,0-0.2-11.8-13.1-11.8c0,0-9.3,4.5-25.9,4.5s-25.9-4.5-25.9-4.5
  c-12.8,0-13.1,11.8-13.1,11.8l0,34.2c0,0-11.5,5.6-24.9-4.5c6.7-0.6,16.3-7.4,16.9-14.3l0.2-1.8c0,0-8.7,8.2-17.8,0
  c9.8,0,16.9-16.8,16.9-29c0-6.7,4.1-10.4,4.1-10.4c1.5-3.4,0.8-7.8-1.6-10l0,0c4.7-4,10.5-3.1,14.3,2c3.1-3.3,3.2-8.5,1.2-11.5
  c5.7-2.7,11.9,1,14.4,8.2c2.5-2.3,3.2-7,1.5-10.4l0,0C242.8,304,249.1,309.7,250.3,318.4z"/>
<path style="fill:#3333FF;stroke:#FFFFFF;stroke-width:4;stroke-linecap:round;stroke-linejoin:round;stroke-miterlimit:10;" d="
  M175.3,472.6c-10.8-41.6,8.6-78.2,28-78.2c8.3,0,15.1,6.8,15.1,15.1"/>
<path style="fill:#3333FF;stroke:#FFFFFF;stroke-width:4;stroke-linecap:round;stroke-linejoin:round;stroke-miterlimit:10;" d="
  M325.7,472.6c10.8-41.6-8.6-78.2-28-78.2c-8.3,0-15.1,6.8-15.1,15.1"/>
<path style="fill:none;stroke:#FFFFFF;stroke-width:4;stroke-linecap:round;stroke-linejoin:round;stroke-miterlimit:10;" d="
  M202.4,480c14.6-7,15.9-29.1,15.9-29.1s1.3,26-3.4,33.8C214.8,484.7,207.6,482.4,202.4,480z"/>
<path style="fill:none;stroke:#FFFFFF;stroke-width:4;stroke-linecap:round;stroke-linejoin:round;stroke-miterlimit:10;" d="
  M298.6,479.8c-14.6-7-15.9-29-15.9-29s-1.3,26,3.4,33.8C286.2,484.6,292.3,482.7,298.6,479.8z"/>
<path style="fill:#3333FF;stroke:#FFFFFF;stroke-width:4;stroke-linecap:round;stroke-linejoin:round;stroke-miterlimit:10;" d="
  M265.1,382.7c0,0-1.5,11.6-14.6,11.6s-14.6-11.6-14.6-11.6"/>
<path style="fill:#3333FF;stroke:#FFFFFF;stroke-width:4;stroke-linecap:round;stroke-linejoin:round;stroke-miterlimit:10;" d="
  M250.5,373.6c0,0-13.5,4.5-18,9.5c0,0,12.8-0.9,18,3.1c5.1-4,18-3.1,18-3.1C264,378.1,250.5,373.6,250.5,373.6z"/>
<line style="fill:none;stroke:#FFFFFF;stroke-width:4;stroke-linecap:round;stroke-linejoin:round;stroke-miterlimit:10;" x1="343" y1="131.1" x2="409.7" y2="131.1"/>
<line style="fill:none;stroke:#FFFFFF;stroke-width:4;stroke-linecap:round;stroke-linejoin:round;stroke-miterlimit:10;" x1="369.8" y1="131.1" x2="369.8" y2="108.8"/>
<line style="fill:none;stroke:#FFFFFF;stroke-width:4;stroke-linecap:round;stroke-linejoin:round;stroke-miterlimit:10;" x1="391.7" y1="153.5" x2="391.7" y2="131.1"/>
<line style="fill:none;stroke:#FFFFFF;stroke-width:4;stroke-linecap:round;stroke-linejoin:round;stroke-miterlimit:10;" x1="83" y1="303" x2="156" y2="303"/>
<line style="fill:none;stroke:#FFFFFF;stroke-width:4;stroke-linecap:round;stroke-linejoin:round;stroke-miterlimit:10;" x1="107.3" y1="325.3" x2="145.7" y2="325.3"/>
<line style="fill:none;stroke:#FFFFFF;stroke-width:4;stroke-linecap:round;stroke-linejoin:round;stroke-miterlimit:10;" x1="109.8" y1="303" x2="109.8" y2="280.7"/>
<line style="fill:none;stroke:#FFFFFF;stroke-width:4;stroke-linecap:round;stroke-linejoin:round;stroke-miterlimit:10;" x1="131.7" y1="325.3" x2="131.7" y2="303"/>
<line style="fill:none;stroke:#FFFFFF;stroke-width:4;stroke-linecap:round;stroke-linejoin:round;stroke-miterlimit:10;" x1="355.2" y1="264.1" x2="428.2" y2="264.1"/>
<line style="fill:none;stroke:#FFFFFF;stroke-width:4;stroke-linecap:round;stroke-linejoin:round;stroke-miterlimit:10;" x1="369" y1="264.1" x2="369" y2="241.7"/>
<line style="fill:none;stroke:#FFFFFF;stroke-width:4;stroke-linecap:round;stroke-linejoin:round;stroke-miterlimit:10;" x1="415.2" y1="264.1" x2="415.2" y2="241.7"/>
<line style="fill:none;stroke:#FFFFFF;stroke-width:4;stroke-linecap:round;stroke-linejoin:round;stroke-miterlimit:10;" x1="390.8" y1="286.4" x2="390.8" y2="264.1"/>
<line style="fill:none;stroke:#FFFFFF;stroke-width:4;stroke-linecap:round;stroke-linejoin:round;stroke-miterlimit:10;" x1="131.7" y1="83.4" x2="131.7" y2="102.5"/>
<line style="fill:none;stroke:#FFFFFF;stroke-width:4;stroke-linecap:round;stroke-linejoin:round;stroke-miterlimit:10;" x1="140.9" y1="102.5" x2="121.8" y2="102.5"/>
<line style="fill:none;stroke:#FFFFFF;stroke-width:4;stroke-linecap:round;stroke-linejoin:round;stroke-miterlimit:10;" x1="250" y1="217.1" x2="250" y2="15.3"/>
<rect x="202.3" y="138" style="fill:none;stroke:#FFFFFF;stroke-width:4;stroke-linecap:round;stroke-linejoin:round;stroke-miterlimit:10;" width="95.5" height="43.2"/>
<path style="fill:none;stroke:#FFFFFF;stroke-width:4;stroke-linecap:round;stroke-linejoin:round;stroke-miterlimit:10;" d="
  M192.2,169.6h-6.9c-12,0-33.8-9.7-33.8-21.7h12.1h28.6V169.6z"/>
<rect x="192.2" y="141.5" style="fill:none;stroke:#FFFFFF;stroke-width:4;stroke-linecap:round;stroke-linejoin:round;stroke-miterlimit:10;" width="10.1" height="34.5"/>
<rect x="205.5" y="207" style="fill:none;stroke:#FFFFFF;stroke-width:4;stroke-linecap:round;stroke-linejoin:round;stroke-miterlimit:10;" width="89" height="10.1"/>
<path style="fill:none;stroke:#FFFFFF;stroke-width:4;stroke-linecap:round;stroke-linejoin:round;stroke-miterlimit:10;" d="
  M285.6,207c-7.1,0-12.9-5.8-12.9-12.9c0-7.1,5.8-12.9,12.9-12.9"/>
<path style="fill:none;stroke:#FFFFFF;stroke-width:4;stroke-linecap:round;stroke-linejoin:round;stroke-miterlimit:10;" d="
  M211.1,207c7.1,0,12.9-5.8,12.9-12.9c0-7.1-5.8-12.9-12.9-12.9"/>
<circle style="fill:#FFFFFF;" cx="290.8" cy="478.5" r="1.5"/>
<circle style="fill:#FFFFFF;" cx="285.1" cy="478.5" r="1.5"/>
<circle style="fill:#FFFFFF;" cx="216.1" cy="478.6" r="1.5"/>
<circle style="fill:#FFFFFF;" cx="210.2" cy="478.6" r="1.5"/>
<circle style="fill:#FFFFFF;" cx="213.1" cy="472.7" r="1.5"/>
<circle style="fill:#FFFFFF;" cx="287.8" cy="472.6" r="1.5"/>

 </g>

<g id="frame3">
<circle style="fill:#3333FF;" cx="250.1" cy="250" r="234.7"/>
<line style="fill:none;stroke:#FFFFFF;stroke-width:4;stroke-linecap:round;stroke-linejoin:round;stroke-miterlimit:10;" x1="343.1" y1="131.1" x2="409.7" y2="131.1"/>
<line style="fill:none;stroke:#FFFFFF;stroke-width:4;stroke-linecap:round;stroke-linejoin:round;stroke-miterlimit:10;" x1="369.9" y1="131.1" x2="369.9" y2="108.8"/>
<line style="fill:none;stroke:#FFFFFF;stroke-width:4;stroke-linecap:round;stroke-linejoin:round;stroke-miterlimit:10;" x1="391.7" y1="153.5" x2="391.7" y2="131.1"/>
<line style="fill:none;stroke:#FFFFFF;stroke-width:4;stroke-linecap:round;stroke-linejoin:round;stroke-miterlimit:10;" x1="83.1" y1="303" x2="156.1" y2="303"/>
<line style="fill:none;stroke:#FFFFFF;stroke-width:4;stroke-linecap:round;stroke-linejoin:round;stroke-miterlimit:10;" x1="107.4" y1="325.3" x2="145.7" y2="325.3"/>
<line style="fill:none;stroke:#FFFFFF;stroke-width:4;stroke-linecap:round;stroke-linejoin:round;stroke-miterlimit:10;" x1="109.9" y1="303" x2="109.9" y2="280.7"/>
<line style="fill:none;stroke:#FFFFFF;stroke-width:4;stroke-linecap:round;stroke-linejoin:round;stroke-miterlimit:10;" x1="131.7" y1="325.3" x2="131.7" y2="303"/>
<line style="fill:none;stroke:#FFFFFF;stroke-width:4;stroke-linecap:round;stroke-linejoin:round;stroke-miterlimit:10;" x1="355.2" y1="264.1" x2="428.2" y2="264.1"/>
<line style="fill:none;stroke:#FFFFFF;stroke-width:4;stroke-linecap:round;stroke-linejoin:round;stroke-miterlimit:10;" x1="369.1" y1="264.1" x2="369.1" y2="241.7"/>
<line style="fill:none;stroke:#FFFFFF;stroke-width:4;stroke-linecap:round;stroke-linejoin:round;stroke-miterlimit:10;" x1="415.2" y1="264.1" x2="415.2" y2="241.7"/>
<line style="fill:none;stroke:#FFFFFF;stroke-width:4;stroke-linecap:round;stroke-linejoin:round;stroke-miterlimit:10;" x1="390.9" y1="286.4" x2="390.9" y2="264.1"/>
<line style="fill:none;stroke:#FFFFFF;stroke-width:4;stroke-linecap:round;stroke-linejoin:round;stroke-miterlimit:10;" x1="131.7" y1="83.4" x2="131.7" y2="102.5"/>
<line style="fill:none;stroke:#FFFFFF;stroke-width:4;stroke-linecap:round;stroke-linejoin:round;stroke-miterlimit:10;" x1="140.9" y1="102.5" x2="121.9" y2="102.5"/>
<rect x="304.3" y="95.7" transform="matrix(0.7071 -0.7071 0.7071 0.7071 20.1557 283.3273)" style="fill:#3333FF;stroke:#FFFFFF;stroke-width:4;stroke-linecap:round;stroke-linejoin:round;stroke-miterlimit:10;" width="95.5" height="43.2"/>
<path style="fill:none;stroke:#FFFFFF;stroke-width:4;stroke-linecap:round;stroke-linejoin:round;stroke-miterlimit:10;" d="
  M318.3,165.3l-4.9,4.9c-8.5,8.5-30.7,17-39.2,8.6l8.6-8.6l20.2-20.2L318.3,165.3z"/>
<rect x="309.1" y="136.8" transform="matrix(0.7071 -0.7071 0.7071 0.7071 -16.9211 267.2651)" style="fill:none;stroke:#FFFFFF;stroke-width:4;stroke-linecap:round;stroke-linejoin:round;stroke-miterlimit:10;" width="10.1" height="34.5"/>
<rect x="344.7" y="149.4" transform="matrix(0.7071 -0.7071 0.7071 0.7071 4.799 320.4011)" style="fill:#3333FF;stroke:#FFFFFF;stroke-width:4;stroke-linecap:round;stroke-linejoin:round;stroke-miterlimit:10;" width="89" height="10.1"/>
<path style="fill:#3333FF;stroke:#FFFFFF;stroke-width:4;stroke-linecap:round;stroke-linejoin:round;stroke-miterlimit:10;" d="
  M410.7,125.7c-5,5-13.2,5-18.2,0c-5-5-5-13.2,0-18.2l-52.6,52.6c5-5,13.2-5,18.2,0s5,13.2,0,18.2L410.7,125.7z"/>
<line style="fill:none;stroke:#FFFFFF;stroke-width:4;stroke-linecap:round;stroke-linejoin:round;stroke-miterlimit:10;" x1="392.7" y1="158" x2="250" y2="15.3"/>
<path style="fill:none;stroke:#FFFFFF;stroke-width:4;stroke-linecap:round;stroke-linejoin:round;stroke-miterlimit:10;" d="
  M237.9,426.5c3.1,56.6,46.6,63.6,85.5,55.2L335,478l-31.3-54.8c-7.2-17.8-27.6-26.4-45.4-19.1c-3.1,1.3-6,2.9-8.5,4.9"/>
<path style="fill:none;stroke:#FFFFFF;stroke-width:4;stroke-linecap:round;stroke-linejoin:round;stroke-miterlimit:10;" d="
  M162.6,386.6l64.4-5.5l-20.4-8.7C206.6,372.4,161.7,376.2,162.6,386.6z"/>
<path style="fill:none;stroke:#FFFFFF;stroke-width:4;stroke-linecap:round;stroke-linejoin:round;stroke-miterlimit:10;" d="
  M170,385.9c0.6,6.9,28.6,9.2,52.2,7.1l4.9-12L170,385.9z"/>
<path style="fill:none;stroke:#FFFFFF;stroke-width:4;stroke-linecap:round;stroke-linejoin:round;stroke-miterlimit:10;" d="
  M228.7,364.2c2.4,1.2,19.1,5.9,19.1,5.9c4.6-0.4,6.6-5,6.6-9.3c0-3.6-3.1-6.4-6.6-6l-17.8,1.7"/>
<path style="fill:none;stroke:#FFFFFF;stroke-width:4;stroke-linecap:round;stroke-linejoin:round;stroke-miterlimit:10;" d="
  M205,372.5c-1.8-21,13.7-39.4,34.7-41.2c21-1.8,39.4,13.7,41.2,34.7"/>
<path style="fill:none;stroke:#FFFFFF;stroke-width:4;stroke-linecap:round;stroke-linejoin:round;stroke-miterlimit:10;" d="
  M225.7,487.2c-6-6.8-25.1-31-29.4-39.1c-9.9-18.6-2.8-41.6,15.8-51.5c3.3-1.7,6.6-2.9,10.1-3.7"/>
<line style="fill:none;stroke:#FFFFFF;stroke-width:4;stroke-linecap:round;stroke-linejoin:round;stroke-miterlimit:10;" x1="280.9" y1="366" x2="283.2" y2="392.6"/>
<path style="fill:#3333FF;" d="M249.3,321.7c-4.9-2.1-6.4-7-4.5-10.6c-8.1-0.5-15.2,5.2-16.6,13c-3.9-1.3-6-5.5-4.6-9.4l0,0
  c-8.7,0.7-15.2,8.4-14.4,17.1c0.5,5.9,5.7,10.3,11.6,9.8l32.2-2.8c7.2-0.6,13.6,4.7,14.2,12l1.4,16.7c0.8,8.7,8.5,15.1,17.2,14.3
  l26.9,0c-8.7,0.8-14.7-8.1-15.5-16.8l-1.4-16.7c-0.6-7.2-7-12.6-14.2-12c-2-3.6-0.1-7.8,3.5-9.9l0,0c-5-3.7-11.6-4-16.8-1.3l0,0
  c-3.1-2.7-3.5-7.3-0.9-10.5l0,0C260.2,312.6,252.9,315.6,249.3,321.7z"/>
<circle style="fill:#FFFFFF;" cx="278.1" cy="339.9" r="2.4"/>
<circle style="fill:#FFFFFF;" cx="287.6" cy="339.9" r="2.4"/>
<circle style="fill:#FFFFFF;" cx="278.1" cy="359" r="2.4"/>
<circle style="fill:#FFFFFF;" cx="287.6" cy="359" r="2.4"/>
<circle style="fill:#FFFFFF;" cx="282.8" cy="349.5" r="2.4"/>
<circle style="fill:#FFFFFF;" cx="292.4" cy="349.5" r="2.4"/>
<circle style="fill:#FFFFFF;" cx="282.8" cy="368.6" r="2.4"/>
<circle style="fill:#FFFFFF;" cx="292.4" cy="368.6" r="2.4"/>
<circle style="fill:#FFFFFF;" cx="278.1" cy="378.1" r="2.4"/>
<circle style="fill:#FFFFFF;" cx="287.6" cy="378.1" r="2.4"/>
<circle style="fill:#FFFFFF;" cx="297.2" cy="473.7" r="2.4"/>
<circle style="fill:#FFFFFF;" cx="287.6" cy="473.7" r="2.4"/>
<circle style="fill:#FFFFFF;" cx="273.3" cy="464.3" r="2.4"/>
<circle style="fill:#FFFFFF;" cx="263.7" cy="464" r="2.4"/>
<circle style="fill:#FFFFFF;" cx="259" cy="454.6" r="2.4"/>
<circle style="fill:#FFFFFF;" cx="249.4" cy="454.6" r="2.4"/>
<circle style="fill:#FFFFFF;" cx="254.2" cy="464" r="2.4"/>
<circle style="fill:#FFFFFF;" cx="281.6" cy="481.2" r="2.4"/>
<circle style="fill:#FFFFFF;" cx="259.8" cy="473.2" r="2.4"/>
<circle style="fill:#FFFFFF;" cx="268.5" cy="473.7" r="2.4"/>
<circle style="fill:#FFFFFF;" cx="278.1" cy="473.2" r="2.4"/>
<circle style="fill:#FFFFFF;" cx="297.2" cy="378.1" r="2.4"/>
<circle style="fill:#FFFFFF;" cx="278.1" cy="397.2" r="2.4"/>
<circle style="fill:#FFFFFF;" cx="287.6" cy="397.2" r="2.4"/>
<circle style="fill:#FFFFFF;" cx="282.8" cy="406.8" r="2.4"/>
<circle style="fill:#FFFFFF;" cx="292.4" cy="406.8" r="2.4"/>
<circle style="fill:#FFFFFF;" cx="239.9" cy="320.8" r="2.4"/>
<circle style="fill:#FFFFFF;" cx="249.4" cy="320.8" r="2.4"/>
<circle style="fill:#FFFFFF;" cx="259" cy="320.8" r="2.4"/>
<circle style="fill:#FFFFFF;" cx="244.6" cy="330.4" r="2.4"/>
<circle style="fill:#FFFFFF;" cx="254.2" cy="330.4" r="2.4"/>
<circle style="fill:#FFFFFF;" cx="263.7" cy="330.4" r="2.4"/>
<circle style="fill:#FFFFFF;" cx="273.3" cy="330.4" r="2.4"/>
<circle style="fill:#FFFFFF;" cx="268.5" cy="339.9" r="2.4"/>
<circle style="fill:#FFFFFF;" cx="268.5" cy="359" r="2.4"/>
<circle style="fill:#FFFFFF;" cx="273.3" cy="349.5" r="2.4"/>
<circle style="fill:#FFFFFF;" cx="273.3" cy="368.6" r="2.4"/>
<circle style="fill:#FFFFFF;" cx="259" cy="397.2" r="2.4"/>
<circle style="fill:#FFFFFF;" cx="268.5" cy="397.2" r="2.4"/>
<circle style="fill:#FFFFFF;" cx="254.2" cy="406.8" r="2.4"/>
<circle style="fill:#FFFFFF;" cx="263.7" cy="406.8" r="2.4"/>
<circle style="fill:#FFFFFF;" cx="273.3" cy="406.8" r="2.4"/>
<circle style="fill:#FFFFFF;" cx="220.8" cy="320.8" r="2.4"/>
<circle style="fill:#FFFFFF;" cx="230.3" cy="320.8" r="2.4"/>
<circle style="fill:#FFFFFF;" cx="216" cy="330.4" r="2.4"/>
<circle style="fill:#FFFFFF;" cx="225.5" cy="330.4" r="2.4"/>
<circle style="fill:#FFFFFF;" cx="235.1" cy="330.4" r="2.4"/>
<circle style="fill:#FFFFFF;" cx="220.8" cy="339.9" r="2.4"/>
<circle style="fill:#FFFFFF;" cx="230.3" cy="339.9" r="2.4"/>
<circle style="fill:#FFFFFF;" cx="230.3" cy="359" r="2.4"/>
<path style="fill:none;stroke:#FFFFFF;stroke-width:4;stroke-linecap:round;stroke-linejoin:round;stroke-miterlimit:10;" d="
  M249.3,321.7c-4.9-2.1-6.4-7-4.5-10.6c-8.1-0.5-15.2,5.2-16.6,13c-3.9-1.3-6-5.5-4.6-9.4l0,0c-8.7,0.7-15.2,8.4-14.4,17.1
  c0.5,5.9,5.7,10.3,11.6,9.8l32.2-2.8c7.2-0.6,13.6,4.7,14.2,12l1.4,16.7c0.8,8.7,8.5,15.1,17.2,14.3l28.6,0
  c-8.7,0.8-16.4-8.1-17.2-16.8l-1.4-16.7c-0.6-7.2-7-12.6-14.2-12c-2-3.6-0.1-7.8,3.5-9.9l0,0c-5-3.7-11.6-4-16.8-1.3l0,0
  c-3.1-2.7-3.5-7.3-0.9-10.5l0,0C260.2,312.6,252.9,315.6,249.3,321.7z"/>
<path style="fill:none;stroke:#FFFFFF;stroke-width:4;stroke-linecap:round;stroke-linejoin:round;stroke-miterlimit:10;" d="
  M237.9,426.5c10.5,39.5,61.5,70.2,92.1,43.2l0,0l-27.4-55.4c-9.6-16.7-30.9-22.4-47.5-12.9c-2.9,1.7-5.5,3.7-7.7,6"/>
<path style="fill:#3333FF;stroke:#FFFFFF;stroke-width:4;stroke-linecap:round;stroke-linejoin:round;stroke-miterlimit:10;" d="
  M237.9,426.5c18.4,35.2,71.1,60.6,106.3,42.2l-43.8-62.9c-11.7-15.2-33.6-18.1-48.8-6.4c-2.7,2.1-5,4.4-6.9,7"/>
<g>
  <path style="fill:#3333FF;" d="M230.7,366.7c-3,0-5.5-2.1-6-5.1c-0.6-3.3,1.7-6.5,5-7c0.3-0.1,0.7-0.1,1-0.1c3,0,5.5,2.1,6,5.1
    c0.3,1.6-0.1,3.2-1.1,4.5c-0.9,1.3-2.4,2.2-4,2.5C231.3,366.7,231,366.7,230.7,366.7z"/>
  <path style="fill:#FFFFFF;" d="M230.7,356.5c2,0,3.7,1.4,4,3.4c0.4,2.2-1.1,4.3-3.4,4.7c-0.2,0-0.5,0.1-0.7,0.1c-2,0-3.7-1.4-4-3.4
    c-0.4-2.2,1.1-4.3,3.4-4.7C230.2,356.5,230.4,356.5,230.7,356.5 M230.7,352.5L230.7,352.5c-0.4,0-0.9,0-1.3,0.1
    c-4.4,0.7-7.4,4.9-6.7,9.3c0.7,3.9,4,6.8,8,6.8c0.4,0,0.9,0,1.3-0.1c4.4-0.7,7.4-4.9,6.7-9.3C238,355.3,234.6,352.5,230.7,352.5
    L230.7,352.5z"/>
</g> 
</g>


<g id="frame4">
<circle style="fill:#3333FF;" cx="250" cy="250" r="234.7"/>
<path style="fill:#3333FF;stroke:#FFFFFF;stroke-width:4;stroke-linecap:round;stroke-linejoin:round;stroke-miterlimit:10;" d="
  M238.5,365.4c-1.9,1.2-15.1,6.3-15.1,6.3c-3.6-0.3-5.1-4.9-5-9.2c0.1-3.6,2.5-6.4,5.3-6.2l14,1.4"/>
<g>
  <path style="fill:#3333FF;" d="M237,367.9c-0.3,0-0.7,0-1-0.1c-1.6-0.3-3-1.1-4-2.5c-1-1.3-1.3-3-1.1-4.6c0.5-3,3-5.1,6-5.1
    c0.3,0,0.7,0,1,0.1c3.3,0.6,5.6,3.7,5,7C242.6,365.8,240,367.9,237,367.9C237,367.9,237,367.9,237,367.9z"/>
  <path style="fill:#FFFFFF;" d="M237,357.7c0.2,0,0.5,0,0.7,0.1c2.2,0.4,3.8,2.5,3.4,4.7c-0.3,2-2.1,3.4-4.1,3.4
    c-0.2,0-0.5,0-0.7-0.1c-2.2-0.4-3.8-2.5-3.4-4.7C233.3,359.1,235.1,357.7,237,357.7 M237,353.7c-4,0-7.4,2.9-8,6.8
    c-0.4,2.1,0.1,4.3,1.4,6.1c1.3,1.8,3.1,2.9,5.3,3.3c0.4,0.1,0.9,0.1,1.3,0.1c4,0,7.4-2.9,8-6.8c0.7-4.4-2.3-8.6-6.7-9.3
    C237.9,353.7,237.5,353.7,237,353.7L237,353.7z"/>
</g>
<path style="fill:#3333FF;stroke:#FFFFFF;stroke-width:4;stroke-linecap:round;stroke-linejoin:round;stroke-miterlimit:10;" d="
  M262.5,365.4c1.9,1.2,15.1,6.3,15.1,6.3c3.6-0.3,5.1-4.9,5-9.2c-0.1-3.6-2.5-6.4-5.3-6.2l-14,1.4"/>
<g>
  <path style="fill:#3333FF;" d="M264,367.9c-3,0-5.5-2.2-6-5.1c-0.6-3.3,1.7-6.5,5-7c0.3-0.1,0.7-0.1,1-0.1c3,0,5.5,2.2,6,5.1
    c0.3,1.6-0.1,3.2-1.1,4.6c-1,1.3-2.4,2.2-4,2.5C264.6,367.9,264.3,367.9,264,367.9z"/>
  <path style="fill:#FFFFFF;" d="M264,357.7c2,0,3.7,1.4,4.1,3.4c0.4,2.2-1.1,4.4-3.4,4.7c-0.2,0-0.5,0.1-0.7,0.1
    c-2,0-3.7-1.4-4.1-3.4c-0.4-2.2,1.1-4.4,3.4-4.7C263.5,357.7,263.7,357.7,264,357.7 M264,353.7L264,353.7c-0.4,0-0.9,0-1.3,0.1
    c-4.4,0.7-7.4,4.9-6.7,9.3c0.7,3.9,4,6.8,8,6.8c0.4,0,0.9,0,1.3-0.1c2.1-0.4,4-1.5,5.3-3.3c1.3-1.8,1.8-3.9,1.4-6.1
    C271.3,356.5,268,353.7,264,353.7L264,353.7z"/>
</g>
<path style="fill:#3333FF;stroke:#FFFFFF;stroke-width:4;stroke-linecap:round;stroke-linejoin:round;stroke-miterlimit:10;" d="
  M272.5,396.3c0,0-2.3,9.4-22,9.4s-22-9.4-22-9.4"/>
<path style="fill:none;stroke:#FFFFFF;stroke-width:4;stroke-linecap:round;stroke-linejoin:round;stroke-miterlimit:10;" d="
  M211.3,387.4c0,0,0.1,7-6.4,7"/>
<path style="fill:none;stroke:#FFFFFF;stroke-width:4;stroke-linecap:round;stroke-linejoin:round;stroke-miterlimit:10;" d="
  M289.2,387.4c0,0-0.1,7,6.4,7"/>
<path style="fill:#FFFFFF;" d="M200.7,301.7"/>
<path style="fill:#FFFFFF;" d="M200.7,320.8"/>
<path style="fill:none;" d="M200.7,337.5"/>
<circle style="fill:#FFFFFF;" cx="198.4" cy="359" r="2.4"/>
<path style="fill:#FFFFFF;" d="M172.1,359"/>
<circle style="fill:#FFFFFF;" cx="193.6" cy="368.6" r="2.4"/>
<line style="fill:none;" x1="200.7" y1="375.7" x2="200.7" y2="337.5"/>
<circle style="fill:#FFFFFF;" cx="198.4" cy="378.1" r="2.4"/>
<path style="fill:#FFFFFF;" d="M172.1,378.1"/>
<circle style="fill:#FFFFFF;" cx="198.4" cy="397.2" r="2.4"/>
<path style="fill:#FFFFFF;" d="M196,387.7c0-1.3-1.1-2.4-2.4-2.4c-1.3,0-2.4,1.1-2.4,2.4"/>
<circle style="fill:#FFFFFF;" cx="193.6" cy="406.8" r="2.4"/>
<path style="fill:#FFFFFF;" d="M174.5,409.2"/>
<circle style="fill:#FFFFFF;" cx="236.6" cy="320.8" r="2.4"/>
<circle style="fill:#FFFFFF;" cx="227" cy="320.8" r="2.4"/>
<circle style="fill:#FFFFFF;" cx="217.5" cy="320.8" r="2.4"/>
<circle style="fill:#FFFFFF;" cx="207.9" cy="320.8" r="2.4"/>
<circle style="fill:#FFFFFF;" cx="231.8" cy="311.3" r="2.4"/>
<circle style="fill:#FFFFFF;" cx="222.2" cy="311.3" r="2.4"/>
<circle style="fill:#FFFFFF;" cx="231.8" cy="330.4" r="2.4"/>
<circle style="fill:#FFFFFF;" cx="222.2" cy="330.4" r="2.4"/>
<circle style="fill:#FFFFFF;" cx="212.7" cy="330.4" r="2.4"/>
<circle style="fill:#FFFFFF;" cx="236.6" cy="339.9" r="2.4"/>
<circle style="fill:#FFFFFF;" cx="227" cy="339.9" r="2.4"/>
<circle style="fill:#FFFFFF;" cx="217.5" cy="339.9" r="2.4"/>
<circle style="fill:#FFFFFF;" cx="207.9" cy="339.9" r="2.4"/>
<circle style="fill:#FFFFFF;" cx="207.9" cy="359" r="2.4"/>
<circle style="fill:#FFFFFF;" cx="203.1" cy="349.5" r="2.4"/>
<circle style="fill:#FFFFFF;" cx="207.9" cy="378.1" r="2.4"/>
<circle style="fill:#FFFFFF;" cx="207.9" cy="397.2" r="2.4"/>
<circle style="fill:#FFFFFF;" cx="203.1" cy="387.7" r="2.4"/>
<circle style="fill:#FFFFFF;" cx="212.7" cy="406.8" r="2.4"/>
<circle style="fill:#FFFFFF;" cx="203.1" cy="406.8" r="2.4"/>
<circle style="fill:#FFFFFF;" cx="274.8" cy="320.8" r="2.4"/>
<circle style="fill:#FFFFFF;" cx="265.2" cy="320.8" r="2.4"/>
<circle style="fill:#FFFFFF;" cx="255.7" cy="320.8" r="2.4"/>
<circle style="fill:#FFFFFF;" cx="246.1" cy="320.8" r="2.4"/>
<circle style="fill:#FFFFFF;" cx="270" cy="311.3" r="2.4"/>
<circle style="fill:#FFFFFF;" cx="260.5" cy="311.3" r="2.4"/>
<circle style="fill:#FFFFFF;" cx="241.3" cy="311.3" r="2.4"/>
<circle style="fill:#FFFFFF;" cx="270" cy="330.4" r="2.4"/>
<circle style="fill:#FFFFFF;" cx="260.5" cy="330.4" r="2.4"/>
<circle style="fill:#FFFFFF;" cx="250.9" cy="330.4" r="2.4"/>
<circle style="fill:#FFFFFF;" cx="241.3" cy="330.4" r="2.4"/>
<circle style="fill:#FFFFFF;" cx="274.8" cy="339.9" r="2.4"/>
<circle style="fill:#FFFFFF;" cx="265.2" cy="339.9" r="2.4"/>
<circle style="fill:#FFFFFF;" cx="255.7" cy="339.9" r="2.4"/>
<circle style="fill:#FFFFFF;" cx="246.1" cy="339.9" r="2.4"/>
<path style="fill:#FFFFFF;" d="M270,371c1.3,0,2.4-1.1,2.4-2.4c0-1.3-1.1-2.4-2.4-2.4c-1.3,0-2.4,1.1-2.4,2.4"/>
<circle style="fill:#FFFFFF;" cx="255.7" cy="378.1" r="2.4"/>
<circle style="fill:#FFFFFF;" cx="246.1" cy="378.1" r="2.4"/>
<circle style="fill:#FFFFFF;" cx="260.5" cy="387.7" r="2.4"/>
<circle style="fill:#FFFFFF;" cx="250.9" cy="387.7" r="2.4"/>
<circle style="fill:#FFFFFF;" cx="241.3" cy="387.7" r="2.4"/>
<circle style="fill:#FFFFFF;" cx="284.3" cy="320.8" r="2.4"/>
<path style="fill:#FFFFFF;" d="M279.6,308.9c-1.3,0-2.4,1.1-2.4,2.4s1.1,2.4,2.4,2.4"/>
<path style="fill:#FFFFFF;" d="M308.2,332.8"/>
<circle style="fill:#FFFFFF;" cx="289.1" cy="330.4" r="2.4"/>
<circle style="fill:#FFFFFF;" cx="279.6" cy="330.4" r="2.4"/>
<polyline style="fill:none;" points="277.2,299.3 277.2,337.5 315.4,337.5 "/>
<polyline style="fill:none;" points="277.2,299.3 277.2,337.5 315.4,337.5 "/>
<circle style="fill:#FFFFFF;" cx="293.9" cy="339.9" r="2.4"/>
<circle style="fill:#FFFFFF;" cx="284.3" cy="339.9" r="2.4"/>
<circle style="fill:#FFFFFF;" cx="303.4" cy="359" r="2.4"/>
<circle style="fill:#FFFFFF;" cx="293.9" cy="359" r="2.4"/>
<circle style="fill:#FFFFFF;" cx="298.7" cy="349.5" r="2.4"/>
<circle style="fill:#FFFFFF;" cx="289.1" cy="349.5" r="2.4"/>
<circle style="fill:#FFFFFF;" cx="308.2" cy="368.6" r="2.4"/>
<circle style="fill:#FFFFFF;" cx="298.7" cy="368.6" r="2.4"/>
<path style="fill:#FFFFFF;" d="M303.4,375.7c-1.3,0-2.4,1.1-2.4,2.4c0,1.3,1.1,2.4,2.4,2.4"/>
<circle style="fill:#FFFFFF;" cx="293.9" cy="378.1" r="2.4"/>
<circle style="fill:#FFFFFF;" cx="303.4" cy="397.2" r="2.4"/>
<circle style="fill:#FFFFFF;" cx="293.9" cy="397.2" r="2.4"/>
<circle style="fill:#FFFFFF;" cx="298.7" cy="387.7" r="2.4"/>
<circle style="fill:#FFFFFF;" cx="308.2" cy="406.8" r="2.4"/>
<circle style="fill:#FFFFFF;" cx="298.7" cy="406.8" r="2.4"/>
<circle style="fill:#FFFFFF;" cx="289.1" cy="406.8" r="2.4"/>
<path style="fill:none;stroke:#FFFFFF;stroke-width:4;stroke-linecap:round;stroke-linejoin:round;stroke-miterlimit:10;" d="
  M250.3,318.4c1.2-8.6,7.4-14.4,13.8-12.8l0,0c-1.7,3.4-1,8.1,1.5,10.4c2.5-7.2,8.7-10.8,14.4-8.2c-2.1,3-1.9,8.2,1.2,11.5
  c3.8-5,9.6-5.9,14.3-2l0,0c-2.4,2.2-3.1,6.6-1.6,10c0,0,4.1,3.7,4.1,10.4c0,12.2,7.1,29,16.9,29c-9.1,8.2-17.8,0-17.8,0l0.2,1.8
  c0.6,6.9,10.2,13.7,16.9,14.3c-13.4,10.1-24.9,4.5-24.9,4.5l0-34.2c0,0-0.2-11.8-13.1-11.8c0,0-9.3,4.5-25.9,4.5s-25.9-4.5-25.9-4.5
  c-12.8,0-13.1,11.8-13.1,11.8l0,34.2c0,0-11.5,5.6-24.9-4.5c6.7-0.6,16.3-7.4,16.9-14.3l0.2-1.8c0,0-8.7,8.2-17.8,0
  c9.8,0,16.9-16.8,16.9-29c0-6.7,4.1-10.4,4.1-10.4c1.5-3.4,0.8-7.8-1.6-10l0,0c4.7-4,10.5-3.1,14.3,2c3.1-3.3,3.2-8.5,1.2-11.5
  c5.7-2.7,11.9,1,14.4,8.2c2.5-2.3,3.2-7,1.5-10.4l0,0C242.8,304,249.1,309.7,250.3,318.4z"/>
<path style="fill:#3333FF;stroke:#FFFFFF;stroke-width:4;stroke-linecap:round;stroke-linejoin:round;stroke-miterlimit:10;" d="
  M175.3,472.6c-10.8-41.6,8.6-78.2,28-78.2c8.3,0,15.1,6.8,15.1,15.1"/>
<path style="fill:#3333FF;stroke:#FFFFFF;stroke-width:4;stroke-linecap:round;stroke-linejoin:round;stroke-miterlimit:10;" d="
  M325.7,472.6c10.8-41.6-8.6-78.2-28-78.2c-8.3,0-15.1,6.8-15.1,15.1"/>
<path style="fill:none;stroke:#FFFFFF;stroke-width:4;stroke-linecap:round;stroke-linejoin:round;stroke-miterlimit:10;" d="
  M202.4,480c14.6-7,15.9-29.1,15.9-29.1s1.3,26-3.4,33.8C214.8,484.7,207.6,482.4,202.4,480z"/>
<path style="fill:none;stroke:#FFFFFF;stroke-width:4;stroke-linecap:round;stroke-linejoin:round;stroke-miterlimit:10;" d="
  M298.6,479.8c-14.6-7-15.9-29-15.9-29s-1.3,26,3.4,33.8C286.2,484.6,292.3,482.7,298.6,479.8z"/>
<path style="fill:#3333FF;stroke:#FFFFFF;stroke-width:4;stroke-linecap:round;stroke-linejoin:round;stroke-miterlimit:10;" d="
  M265.1,382.7c0,0-1.5,11.6-14.6,11.6s-14.6-11.6-14.6-11.6"/>
<path style="fill:#3333FF;stroke:#FFFFFF;stroke-width:4;stroke-linecap:round;stroke-linejoin:round;stroke-miterlimit:10;" d="
  M250.5,373.6c0,0-13.5,4.5-18,9.5c0,0,12.8-0.9,18,3.1c5.1-4,18-3.1,18-3.1C264,378.1,250.5,373.6,250.5,373.6z"/>
<line style="fill:none;stroke:#FFFFFF;stroke-width:4;stroke-linecap:round;stroke-linejoin:round;stroke-miterlimit:10;" x1="343" y1="131.1" x2="409.7" y2="131.1"/>
<line style="fill:none;stroke:#FFFFFF;stroke-width:4;stroke-linecap:round;stroke-linejoin:round;stroke-miterlimit:10;" x1="369.8" y1="131.1" x2="369.8" y2="108.8"/>
<line style="fill:none;stroke:#FFFFFF;stroke-width:4;stroke-linecap:round;stroke-linejoin:round;stroke-miterlimit:10;" x1="391.7" y1="153.5" x2="391.7" y2="131.1"/>
<line style="fill:none;stroke:#FFFFFF;stroke-width:4;stroke-linecap:round;stroke-linejoin:round;stroke-miterlimit:10;" x1="83" y1="303" x2="156" y2="303"/>
<line style="fill:none;stroke:#FFFFFF;stroke-width:4;stroke-linecap:round;stroke-linejoin:round;stroke-miterlimit:10;" x1="107.3" y1="325.3" x2="145.7" y2="325.3"/>
<line style="fill:none;stroke:#FFFFFF;stroke-width:4;stroke-linecap:round;stroke-linejoin:round;stroke-miterlimit:10;" x1="109.8" y1="303" x2="109.8" y2="280.7"/>
<line style="fill:none;stroke:#FFFFFF;stroke-width:4;stroke-linecap:round;stroke-linejoin:round;stroke-miterlimit:10;" x1="131.7" y1="325.3" x2="131.7" y2="303"/>
<line style="fill:none;stroke:#FFFFFF;stroke-width:4;stroke-linecap:round;stroke-linejoin:round;stroke-miterlimit:10;" x1="355.2" y1="264.1" x2="428.2" y2="264.1"/>
<line style="fill:none;stroke:#FFFFFF;stroke-width:4;stroke-linecap:round;stroke-linejoin:round;stroke-miterlimit:10;" x1="369" y1="264.1" x2="369" y2="241.7"/>
<line style="fill:none;stroke:#FFFFFF;stroke-width:4;stroke-linecap:round;stroke-linejoin:round;stroke-miterlimit:10;" x1="415.2" y1="264.1" x2="415.2" y2="241.7"/>
<line style="fill:none;stroke:#FFFFFF;stroke-width:4;stroke-linecap:round;stroke-linejoin:round;stroke-miterlimit:10;" x1="390.8" y1="286.4" x2="390.8" y2="264.1"/>
<line style="fill:none;stroke:#FFFFFF;stroke-width:4;stroke-linecap:round;stroke-linejoin:round;stroke-miterlimit:10;" x1="131.7" y1="83.4" x2="131.7" y2="102.5"/>
<line style="fill:none;stroke:#FFFFFF;stroke-width:4;stroke-linecap:round;stroke-linejoin:round;stroke-miterlimit:10;" x1="140.9" y1="102.5" x2="121.8" y2="102.5"/>
<line style="fill:none;stroke:#FFFFFF;stroke-width:4;stroke-linecap:round;stroke-linejoin:round;stroke-miterlimit:10;" x1="250" y1="217.1" x2="250" y2="15.3"/>
<rect x="202.3" y="138" style="fill:none;stroke:#FFFFFF;stroke-width:4;stroke-linecap:round;stroke-linejoin:round;stroke-miterlimit:10;" width="95.5" height="43.2"/>
<path style="fill:none;stroke:#FFFFFF;stroke-width:4;stroke-linecap:round;stroke-linejoin:round;stroke-miterlimit:10;" d="
  M192.2,169.6h-6.9c-12,0-33.8-9.7-33.8-21.7h12.1h28.6V169.6z"/>
<rect x="192.2" y="141.5" style="fill:none;stroke:#FFFFFF;stroke-width:4;stroke-linecap:round;stroke-linejoin:round;stroke-miterlimit:10;" width="10.1" height="34.5"/>
<rect x="205.5" y="207" style="fill:none;stroke:#FFFFFF;stroke-width:4;stroke-linecap:round;stroke-linejoin:round;stroke-miterlimit:10;" width="89" height="10.1"/>
<path style="fill:none;stroke:#FFFFFF;stroke-width:4;stroke-linecap:round;stroke-linejoin:round;stroke-miterlimit:10;" d="
  M285.6,207c-7.1,0-12.9-5.8-12.9-12.9c0-7.1,5.8-12.9,12.9-12.9"/>
<path style="fill:none;stroke:#FFFFFF;stroke-width:4;stroke-linecap:round;stroke-linejoin:round;stroke-miterlimit:10;" d="
  M211.1,207c7.1,0,12.9-5.8,12.9-12.9c0-7.1-5.8-12.9-12.9-12.9"/>
<circle style="fill:#FFFFFF;" cx="290.8" cy="478.5" r="1.5"/>
<circle style="fill:#FFFFFF;" cx="285.1" cy="478.5" r="1.5"/>
<circle style="fill:#FFFFFF;" cx="216.1" cy="478.6" r="1.5"/>
<circle style="fill:#FFFFFF;" cx="210.2" cy="478.6" r="1.5"/>
<circle style="fill:#FFFFFF;" cx="213.1" cy="472.7" r="1.5"/>
<circle style="fill:#FFFFFF;" cx="287.8" cy="472.6" r="1.5"/>

 </g>

<style>
  #frame1, #frame2, #frame3, #frame4 {
    display: none;
  }
</style>


<script>
  var f1 = document.getElementById('frame1')
  var f2 = document.getElementById('frame2')
  var f3 = document.getElementById('frame3')
  var f4 = document.getElementById('frame4')

  var animate = function(now,time,end) {
    return function(){
      now();
      setTimeout(end,time);
    }
  }

  var ds = function(el,st){
    return function(){
      el.style.display = st;
    }
  }
  var playit = function() {

    animate(
      ds(f1,'block'),
      1000,
      animate(
        ds(f2,'block'),
        1000,
        animate(
          ds(f3,'block'),
          1000,
          animate(
            ds(f4,'block'),
            1000,
            function(){
              ds(f1,'none')();
              ds(f2,'none')();
              ds(f3,'none')();
              ds(f4,'none')();
              playit();
            }
          )
        )
      )
    )()
  }
  playit();
</script>


</svg>