<svg version="1.1" id="Kengu-frame1" xmlns="http://www.w3.org/2000/svg" xmlns:xlink="http://www.w3.org/1999/xlink" x="0px"
   y="0px" width="500px" height="500px" viewBox="0 0 500 500" style="enable-background:new 0 0 500 500;" xml:space="preserve">

<g id="f1" class="frame">
  <circle style="fill:#3333FF;" cx="250" cy="250" r="234.7"/>
  <path style="fill:none;stroke:#FFFFFF;stroke-width:4;stroke-linecap:round;stroke-linejoin:round;stroke-miterlimit:10;" d="
    M11.6,261.1c0,0.2,93.3,54.1,234.7,39.4c141.4-14.7,223.9,62.3,238.8,78.8"/>
  <g>
    <path style="fill:none;stroke:#FFFFFF;stroke-width:4;stroke-linecap:round;stroke-linejoin:round;stroke-miterlimit:10;" d="
      M4.7,223.1c9.3,0,9.3,5,18.7,5c9.3,0,9.3-5,18.7-5c9.3,0,9.3,5,18.7,5c9.3,0,9.3-5,18.7-5c9.3,0,9.3,5,18.7,5c9.3,0,9.3-5,18.7-5
      c9.3,0,9.3,5,18.7,5c9.3,0,9.3-5,18.7-5c9.3,0,9.3,5,18.7,5c9.3,0,9.3-5,18.7-5c9.3,0,9.3,5,18.7,5c9.3,0,9.3-5,18.7-5
      c9.3,0,9.3,5,18.7,5c9.3,0,9.3-5,18.7-5c9.3,0,9.3,5,18.7,5c9.3,0,9.3-5,18.7-5c9.3,0,9.3,5,18.7,5c9.3,0,9.3-5,18.7-5
      c9.3,0,9.3,5,18.7,5c9.3,0,9.3-5,18.7-5c9.3,0,9.3,5,18.7,5c9.3,0,9.3-5,18.7-5c9.3,0,9.3,5,18.7,5c9.3,0,9.3-5,18.7-5
      c9.3,0,9.3,5,18.7,5c9.3,0,9.3-5,18.7-5"/>
  </g>
  <circle style="fill:none;stroke:#FFFFFF;stroke-width:4;stroke-linecap:round;stroke-linejoin:round;stroke-miterlimit:10;" cx="381.6" cy="47.5" r="49.1"/>
  <line style="fill:none;stroke:#FFFFFF;stroke-width:4;stroke-linecap:round;stroke-linejoin:round;stroke-miterlimit:10;" x1="383.4" y1="111.7" x2="383.4" y2="137.5"/>
  <line style="fill:none;stroke:#FFFFFF;stroke-width:4;stroke-linecap:round;stroke-linejoin:round;stroke-miterlimit:10;" x1="415.3" y1="102.2" x2="428.2" y2="124.5"/>
  <line style="fill:none;stroke:#FFFFFF;stroke-width:4;stroke-linecap:round;stroke-linejoin:round;stroke-miterlimit:10;" x1="438.1" y1="78" x2="460.5" y2="90.9"/>
  <line style="fill:none;stroke:#FFFFFF;stroke-width:4;stroke-linecap:round;stroke-linejoin:round;stroke-miterlimit:10;" x1="445.8" y1="45.7" x2="471.6" y2="45.7"/>
  <path style="fill:none;stroke:#FFFFFF;stroke-width:4;stroke-linecap:round;stroke-linejoin:round;stroke-miterlimit:10;" d="
    M436.3,13.8"/>
  <line style="fill:none;stroke:#FFFFFF;stroke-width:4;stroke-linecap:round;stroke-linejoin:round;stroke-miterlimit:10;" x1="325.1" y1="16.9" x2="302.8" y2="4"/>

  <line style="fill:none;stroke:#FFFFFF;stroke-width:4;stroke-linecap:round;stroke-linejoin:round;stroke-miterlimit:10;" x1="317.4" y1="49.2" x2="291.6" y2="49.2"/>
  <line style="fill:none;stroke:#FFFFFF;stroke-width:4;stroke-linecap:round;stroke-linejoin:round;stroke-miterlimit:10;" x1="326.9" y1="81.1" x2="304.6" y2="94"/>
  <line style="fill:none;stroke:#FFFFFF;stroke-width:4;stroke-linecap:round;stroke-linejoin:round;stroke-miterlimit:10;" x1="351.1" y1="104" x2="338.2" y2="126.3"/>
  <path style="fill:#3333FF;stroke:#FFFFFF;stroke-width:4;stroke-linecap:round;stroke-linejoin:round;stroke-miterlimit:10;" d="
    M147.8,248.9l-8.6,12.4L104,236.8c-4-2.8-4.6-8-1.9-12c2.7-3.8,3.1-11.4-0.7-14l-4.4-3.1l20,13.9l3.3,8.2L147.8,248.9z"/>
  <ellipse transform="matrix(0.5712 -0.8208 0.8208 0.5712 -142.685 191.4077)" style="fill:#FFFFFF;" cx="111.9" cy="232.3" rx="2.8" ry="2.8"/>
  <ellipse transform="matrix(0.5712 -0.8208 0.8208 0.5712 -143.8256 200.3663)" style="fill:#FFFFFF;" cx="119.9" cy="237.8" rx="2.8" ry="2.8"/>
  <ellipse transform="matrix(0.5712 -0.8208 0.8208 0.5712 -144.9651 209.3179)" style="fill:#FFFFFF;" cx="127.9" cy="243.4" rx="2.8" ry="2.8"/>
  <ellipse transform="matrix(0.5712 -0.8208 0.8208 0.5712 -146.1054 218.2754)" style="fill:#FFFFFF;" cx="135.9" cy="249" rx="2.8" ry="2.8"/>
  <ellipse transform="matrix(0.5712 -0.8208 0.8208 0.5712 -147.2454 227.23)" style="fill:#FFFFFF;" cx="143.9" cy="254.6" rx="2.8" ry="2.8"/>
  <line style="fill:none;stroke:#FFFFFF;stroke-width:4;stroke-linecap:round;stroke-linejoin:round;stroke-miterlimit:10;" x1="163.6" y1="206.3" x2="138.5" y2="242.4"/>
  <path style="fill:#3333FF;stroke:#FFFFFF;stroke-width:4;stroke-linecap:round;stroke-linejoin:round;stroke-miterlimit:10;" d="
    M156.1,227.1c4.4-6.3,10.4-9.6,13.5-7.4L147,204c-3.1-2.2-9.2,1.1-13.5,7.4c-4.4,6.3-5.3,13.1-2.2,15.3l22.6,15.8
    C150.8,240.2,151.8,233.3,156.1,227.1z"/>
  <path style="fill:#3333FF;" d="M94,248.1c7.1,0,7.1,5,14.3,5c7.2,0,7.2-5,14.3-5c7.1,0,7.1,5,14.3,5c7.2,0,7.2-5,14.3-5
    c7.2,0,7.2,5,14.3,5v16.3H94V248.1z"/>
  <path style="fill:none;stroke:#FFFFFF;stroke-width:4;stroke-linecap:round;stroke-linejoin:round;stroke-miterlimit:10;" d="
    M94,248.1c7.1,0,7.1,5,14.3,5c7.2,0,7.2-5,14.3-5c7.1,0,7.1,5,14.3,5c7.2,0,7.2-5,14.3-5c7.2,0,7.2,5,14.3,5"/>
  <path style="fill:none;stroke:#FFFFFF;stroke-width:4;stroke-linecap:round;stroke-linejoin:round;stroke-miterlimit:10;" d="
    M282.7,235"/>
  <path style="fill:#3333FF;stroke:#FFFFFF;stroke-width:4;stroke-linecap:round;stroke-linejoin:round;stroke-miterlimit:10;" d="
    M225.1,367c-3.8,1.3-4.7,5.8-0.5,10.6c4,4.6,13.2,4.6,22.5,2.7c8-1.7,35.3-7.9,39.5-9.5c4.4-1.7,7.6-8.8-3.1-9.9
    C272.9,359.8,225.1,367,225.1,367z"/>
  <path style="fill:#3333FF;stroke:#FFFFFF;stroke-width:4;stroke-linecap:round;stroke-linejoin:round;stroke-miterlimit:10;" d="
    M242.1,365.3l-9.1,1.8c-1.7,0.3-2.8,1.8-2.5,3.5c0.3,1.7,0.9,4.5,6.1,3.3l44-8.4c2.7-0.4,4.6-2.8,4.5-5.5l-1.7-41.6
    c1.1,0.3,2.4,1.4,3.6,1.6c15,2.7,29.2-4.4,31.9-19.4c2.7-15-7.4-29.4-22.4-32c-15-2.7-29.4,7.4-32,22.4c-0.6,3.2-0.6,6.4,0,9.4
    l7.9,48.9c0.5,2.9-1.5,5.6-4.4,6.1l-37.4,6.1l0.1,0c-2.4,0.4-4.1,2.7-3.7,5.1c0.3,1.9,1.7,3.3,3.5,3.6"/>
  <path style="fill:#FFFFFF;" d="M252.5,372.6c-3.7-8.3-10-9.5-10-9.5c-0.5-1.5,0.6-3.3,0.6-3.3l-5.2,0.8c-2.4,4.1-1.1,5.2-1.1,5.2
    s7.3,2.6,10,8.9c0.4,0.9,1.4,1.5,2.4,1.3l1.7-0.3C252.4,375.4,253.1,373.9,252.5,372.6z"/>
  <path style="fill:#3333FF;stroke:#FFFFFF;stroke-width:4;stroke-linecap:round;stroke-linejoin:round;stroke-miterlimit:10;" d="
    M278.3,198.4"/>
  <path style="fill:#3333FF;stroke:#FFFFFF;stroke-width:4;stroke-linecap:round;stroke-linejoin:round;stroke-miterlimit:10;" d="
    M280.1,198.9l-15.5-23.8l-14.4,12c3.8,5.5,3.6,13.4,1.7,20.3"/>
  <path style="fill:#3333FF;stroke:#FFFFFF;stroke-width:4;stroke-linecap:round;stroke-linejoin:round;stroke-miterlimit:10;" d="
    M242.4,163.3c-8.9-5.3-11.9-16.9-6.6-25.8l0,0l12.9,9.8c3.1,2.7,4,7,2.4,10.6"/>
  <path style="fill:#3333FF;stroke:#FFFFFF;stroke-width:4;stroke-linecap:round;stroke-linejoin:round;stroke-miterlimit:10;" d="
    M240,192.9l21.6-12.3c5.9-4.2,7.3-12.4,3.1-18.3c-4.2-5.9-12.4-7.3-18.3-3.1l-21.1,21.4c-3.9,3.8-4,10.1-0.2,14
    c0.3,0.3,0.5,0.5,0.8,0.8c3.9,3.2,9.6,2.4,13.1-1.2l8.4-11.7"/>
  <ellipse transform="matrix(0.9785 -0.2061 0.2061 0.9785 -34.2615 50.5309)" style="fill:#FFFFFF;" cx="225.4" cy="189.7" rx="2.5" ry="2.5"/>
  <ellipse transform="matrix(0.9785 -0.2061 0.2061 0.9785 -29.7404 54.6525)" style="fill:#FFFFFF;" cx="247.4" cy="170" rx="2.5" ry="2.5"/>
  <path style="fill:#3333FF;stroke:#FFFFFF;stroke-width:4;stroke-linecap:round;stroke-linejoin:round;stroke-miterlimit:10;" d="
    M262.1,162.9c6.6-9.3,4.5-22.2-4.8-28.8l0,0l-8.6,15.5c-1.9,4.1-0.9,8.8,2.2,11.7"/>
  <path style="fill:#3333FF;stroke:#FFFFFF;stroke-width:4;stroke-linecap:round;stroke-linejoin:round;stroke-miterlimit:10;" d="
    M347.3,323c7.9,20.8,31.2,31.4,52,23.5c20.5-7.7,31-30.3,23.9-50.9c-0.5-2.2,0.9-4.3,3-4.8c2.2-0.5,4.3,0.9,4.8,3l0,0
    c10.4,27.5-3.5,58.1-31,68.5c-27.5,10.4-58.1-3.5-68.5-31"/>
  <path style="fill:#3333FF;stroke:#FFFFFF;stroke-width:4;stroke-linecap:round;stroke-linejoin:round;stroke-miterlimit:10;" d="
    M258.5,213.9c3.6,0.4,6.3,3.7,5.9,7.3"/>
  <path style="fill:#3333FF;stroke:#FFFFFF;stroke-width:4;stroke-linecap:round;stroke-linejoin:round;stroke-miterlimit:10;" d="
    M256.3,202.9c-8.6,6.4-12.4,17.4-9.8,27.5l0,0l25.5,74c7.1,17.9,27.4,26.7,45.3,19.6c17.9-7.1,26.7-27.4,19.6-45.3l-42-68.1
    c-3.8-6.4-9.8-10.6-16.5-12.3"/>
  <path style="fill:#3333FF;stroke:#FFFFFF;stroke-width:4;stroke-linecap:round;stroke-linejoin:round;stroke-miterlimit:10;" d="
    M294.9,210.7c-6.6-11.2-18.2-12.6-18.2-12.6c-10.3,0-18.6,8.3-18.6,18.6h0c0.5,7.7-3.7,14.6-10.1,17.9l18,52.4
    c24.8-5.7,47.8-18.8,54.4-35L294.9,210.7z M282,228.5c-7.2,0-13-5.8-13-13c0-7.2,5.8-13,13-13c7.2,0,13,5.8,13,13
    C295,222.6,289.2,228.5,282,228.5z"/>
  <polygon style="fill:#FFFFFF;" points="266.1,235 264,237.3 263.4,234.2 260.5,232.8 263.3,231.3 263.7,228.1 266,230.4 
    269.2,229.7 267.7,232.6 269.3,235.4 "/>
  <polygon style="fill:#FFFFFF;" points="278.2,268.9 276,271.3 275.4,268.1 272.5,266.8 275.4,265.3 275.7,262.1 278,264.3 
    281.2,263.7 279.8,266.6 281.3,269.4 "/>
  <polygon style="fill:#FFFFFF;" points="281.9,255.3 280.8,256.5 280.5,254.9 279.1,254.3 280.5,253.5 280.7,251.9 281.8,253 
    283.4,252.7 282.7,254.2 283.5,255.6 "/>
  <polygon style="fill:#FFFFFF;" points="280.5,244.9 278.3,247.3 277.8,244.1 274.9,242.8 277.7,241.3 278.1,238.1 280.4,240.3 
    283.5,239.7 282.1,242.6 283.7,245.4 "/>
  <polygon style="fill:#FFFFFF;" points="261.2,251.7 259,254.1 258.5,250.9 255.6,249.6 258.4,248.1 258.8,244.9 261.1,247.1 
    264.3,246.5 262.8,249.4 264.4,252.2 "/>
  <path style="fill:#3333FF;stroke:#FFFFFF;stroke-width:4;stroke-linecap:round;stroke-linejoin:round;stroke-miterlimit:10;" d="
    M258.5,390.1c-3.7,1.6-5.3,8-0.8,12.6c4.5,4.6,14.2,4.8,21.7,1.4c7.5-3.4,37.3-15.7,41.3-17.6c4.3-2.1,6.3-7.2-4.4-7.4
    C305.5,378.9,258.5,390.1,258.5,390.1z"/>
  <path style="fill:#3333FF;stroke:#FFFFFF;stroke-width:4;stroke-linecap:round;stroke-linejoin:round;stroke-miterlimit:10;" d="
    M264,396c-2.1-0.1-3.9-1.4-4.7-3.4c-0.9-2.7,0.5-5.6,3.1-6.5l-0.1,0l41.2-14.5c3.2-1.1,4.9-4.6,3.8-7.8L290,316.7l0-0.1
    c-1.2-3.3-1.9-6.9-1.9-10.7c0-17.6,14.2-31.9,31.8-31.9c17.6,0,31.9,14.2,31.9,31.8c0,17.6-14.2,31.9-31.8,31.9
    c-1.4,0-2.8-0.1-4.1-0.3l7.9,35.8c0.7,3-1,6.1-4,7.1l-51.3,18c-1.8,0.6-3.8-0.3-4.5-2.2c-0.6-1.8,0.3-3.8,2.2-4.5l6.8-2.2"/>
  <line style="fill:#3333FF;stroke:#FFFFFF;stroke-width:4;stroke-linecap:round;stroke-linejoin:round;stroke-miterlimit:10;" x1="317.2" y1="342.9" x2="313.8" y2="328.1"/>
  <path style="fill:#FFFFFF;" d="M285.6,395.9c-3.8-9.2-11.9-8.2-11.9-8.2c-1.5-2.6,1.1-5.7,1.1-5.7l-5.6,2c-2.4,4.1-0.3,7.2-0.3,7.2
    s8.9,0.2,11.7,6.7c0.3,0.6,1,1,1.7,0.7l2.5-0.9C285.5,397.4,285.8,396.6,285.6,395.9z"/>
  <ellipse style="fill:none;stroke:#FFFFFF;stroke-width:4;stroke-linecap:round;stroke-linejoin:round;stroke-miterlimit:10;" cx="124.8" cy="341.7" rx="31.6" ry="11.1"/>
  <path style="fill:none;stroke:#FFFFFF;stroke-width:4;stroke-linecap:round;stroke-linejoin:round;stroke-miterlimit:10;" d="
    M93.3,342.8v6.9c0,6.1,14.1,11.1,31.6,11.1s31.6-5,31.6-11.1v-7.9"/>
  <polyline style="fill:none;stroke:#FFFFFF;stroke-width:4;stroke-linecap:round;stroke-linejoin:round;stroke-miterlimit:10;" points="
    124.8,341.7 244,269.4 264,268.6 289.5,246.4 "/>
  <polygon style="fill:#3333FF;stroke:#FFFFFF;stroke-width:4;stroke-linecap:round;stroke-linejoin:round;stroke-miterlimit:10;" points="
    216.9,273.9 225.9,262.1 230.8,258.7 244,269.4 221.7,282.8 "/>
  <path style="fill:#3333FF;stroke:#FFFFFF;stroke-width:4;stroke-linecap:round;stroke-linejoin:round;stroke-miterlimit:10;" d="
    M286.2,210.9c3.5,1.2,5.3,5,4.1,8.5"/>
  <path style="fill:#3333FF;stroke:#FFFFFF;stroke-width:4;stroke-linecap:round;stroke-linejoin:round;stroke-miterlimit:10;" d="
    M277.2,221.1l-4.5,16.5c-0.2,0.8-0.6,1.6-1.2,2.2l-18.8,23.9c-0.6,0.7-0.9,1.5-1,2.4l-0.3,4c-0.2,2.6,2.1,4.7,4.7,4.3l2.8-0.4
    c2.2-0.3,3.7-2.3,3.5-4.5l0,0c-0.1-1.1,0.2-2.3,1-3.1l20.5-25.5c0.8-0.7,1.4-1.7,1.7-2.8l4.8-18.8"/>
  <polygon style="fill:#3333FF;stroke:#FFFFFF;stroke-width:4;stroke-linecap:round;stroke-linejoin:round;stroke-miterlimit:10;" points="
    289.4,246.3 281.3,240.6 273.4,249.1 280.8,254.1 "/>
  <polyline style="fill:none;stroke:#FFFFFF;stroke-width:4;stroke-linecap:round;stroke-linejoin:round;stroke-miterlimit:10;" points="
    93.3,341.7 124.8,341.7 146.6,349.7 "/>
</g>

<g id="f2" class="frame">
  <circle style="fill:#3333FF;" cx="250" cy="250" r="234.7"/>
  <path style="fill:none;stroke:#FFFFFF;stroke-width:4;stroke-linecap:round;stroke-linejoin:round;stroke-miterlimit:10;" d="
    M11.6,261.1c0,0.2,93.3,54.1,234.7,39.4c141.4-14.7,223.9,62.3,238.8,78.8"/>
  <g>
    <path style="fill:none;stroke:#FFFFFF;stroke-width:4;stroke-linecap:round;stroke-linejoin:round;stroke-miterlimit:10;" d="
      M4.7,223.1c9.3,0,9.3,5,18.7,5c9.3,0,9.3-5,18.7-5c9.3,0,9.3,5,18.7,5c9.3,0,9.3-5,18.7-5c9.3,0,9.3,5,18.7,5c9.3,0,9.3-5,18.7-5
      c9.3,0,9.3,5,18.7,5c9.3,0,9.3-5,18.7-5c9.3,0,9.3,5,18.7,5c9.3,0,9.3-5,18.7-5c9.3,0,9.3,5,18.7,5c9.3,0,9.3-5,18.7-5
      c9.3,0,9.3,5,18.7,5c9.3,0,9.3-5,18.7-5c9.3,0,9.3,5,18.7,5c9.3,0,9.3-5,18.7-5c9.3,0,9.3,5,18.7,5c9.3,0,9.3-5,18.7-5
      c9.3,0,9.3,5,18.7,5c9.3,0,9.3-5,18.7-5c9.3,0,9.3,5,18.7,5c9.3,0,9.3-5,18.7-5c9.3,0,9.3,5,18.7,5c9.3,0,9.3-5,18.7-5
      c9.3,0,9.3,5,18.7,5c9.3,0,9.3-5,18.7-5"/>
  </g>
  <circle style="fill:none;stroke:#FFFFFF;stroke-width:4;stroke-linecap:round;stroke-linejoin:round;stroke-miterlimit:10;" cx="381.6" cy="47.5" r="49.1"/>
  <line style="fill:none;stroke:#FFFFFF;stroke-width:4;stroke-linecap:round;stroke-linejoin:round;stroke-miterlimit:10;" x1="383.4" y1="111.7" x2="383.4" y2="137.5"/>
  <line style="fill:none;stroke:#FFFFFF;stroke-width:4;stroke-linecap:round;stroke-linejoin:round;stroke-miterlimit:10;" x1="415.3" y1="102.2" x2="428.2" y2="124.5"/>
  <line style="fill:none;stroke:#FFFFFF;stroke-width:4;stroke-linecap:round;stroke-linejoin:round;stroke-miterlimit:10;" x1="438.1" y1="78" x2="460.5" y2="90.9"/>
  <line style="fill:none;stroke:#FFFFFF;stroke-width:4;stroke-linecap:round;stroke-linejoin:round;stroke-miterlimit:10;" x1="325.1" y1="16.9" x2="302.8" y2="4"/>
  <line style="fill:none;stroke:#FFFFFF;stroke-width:4;stroke-linecap:round;stroke-linejoin:round;stroke-miterlimit:10;" x1="317.4" y1="49.2" x2="291.6" y2="49.2"/>
  <line style="fill:none;stroke:#FFFFFF;stroke-width:4;stroke-linecap:round;stroke-linejoin:round;stroke-miterlimit:10;" x1="326.9" y1="81.1" x2="304.6" y2="94"/>
  <line style="fill:none;stroke:#FFFFFF;stroke-width:4;stroke-linecap:round;stroke-linejoin:round;stroke-miterlimit:10;" x1="351.1" y1="104" x2="338.2" y2="126.3"/>
  <path style="fill:none;stroke:#FFFFFF;stroke-width:4;stroke-linecap:round;stroke-linejoin:round;stroke-miterlimit:10;" d="
    M282.7,235"/>
  <path style="fill:#3333FF;stroke:#FFFFFF;stroke-width:4;stroke-linecap:round;stroke-linejoin:round;stroke-miterlimit:10;" d="
    M147.8,256.9l-8.6,12.4L104,244.8c-4-2.8-4.6-8-1.9-12c2.7-3.8,3.1-11.4-0.7-14l-4.4-3.1l20,13.9l3.3,8.2L147.8,256.9z"/>
  <ellipse transform="matrix(0.5712 -0.8208 0.8208 0.5712 -149.2512 194.8378)" style="fill:#FFFFFF;" cx="111.9" cy="240.3" rx="2.8" ry="2.8"/>
  <ellipse transform="matrix(0.5712 -0.8208 0.8208 0.5712 -150.392 203.797)" style="fill:#FFFFFF;" cx="119.9" cy="245.8" rx="2.8" ry="2.8"/>
  <ellipse transform="matrix(0.5712 -0.8208 0.8208 0.5712 -151.5314 212.748)" style="fill:#FFFFFF;" cx="127.9" cy="251.4" rx="2.8" ry="2.8"/>
  <ellipse transform="matrix(0.5712 -0.8208 0.8208 0.5712 -152.6718 221.7055)" style="fill:#FFFFFF;" cx="135.9" cy="257" rx="2.8" ry="2.8"/>
  <ellipse transform="matrix(0.5712 -0.8208 0.8208 0.5712 -153.8118 230.6609)" style="fill:#FFFFFF;" cx="143.9" cy="262.6" rx="2.8" ry="2.8"/>
  <line style="fill:none;stroke:#FFFFFF;stroke-width:4;stroke-linecap:round;stroke-linejoin:round;stroke-miterlimit:10;" x1="163.6" y1="214.3" x2="138.5" y2="250.4"/>
  <path style="fill:#3333FF;stroke:#FFFFFF;stroke-width:4;stroke-linecap:round;stroke-linejoin:round;stroke-miterlimit:10;" d="
    M156.1,235.1c4.4-6.3,10.4-9.6,13.5-7.4L147,212c-3.1-2.2-9.2,1.1-13.5,7.4c-4.4,6.3-5.3,13.1-2.2,15.3l22.6,15.8
    C150.8,248.2,151.8,241.3,156.1,235.1z"/>
  <path style="fill:#3333FF;" d="M165.5,248.1c-7.1,0-7.1,5-14.3,5c-7.2,0-7.2-5-14.3-5c-7.1,0-7.1,5-14.3,5c-7.2,0-7.2-5-14.3-5
    c-7.2,0-7.2,5-14.3,5v23.7h71.5V248.1z"/>
  <path style="fill:none;stroke:#FFFFFF;stroke-width:4;stroke-linecap:round;stroke-linejoin:round;stroke-miterlimit:10;" d="
    M165.5,248.1c-7.1,0-7.1,5-14.3,5c-7.2,0-7.2-5-14.3-5c-7.1,0-7.1,5-14.3,5c-7.2,0-7.2-5-14.3-5c-7.2,0-7.2,5-14.3,5"/>
  <path style="fill:none;stroke:#FFFFFF;stroke-width:4;stroke-linecap:round;stroke-linejoin:round;stroke-miterlimit:10;" d="
    M282.7,235"/>
  <path style="fill:#3333FF;stroke:#FFFFFF;stroke-width:4;stroke-linecap:round;stroke-linejoin:round;stroke-miterlimit:10;" d="
    M225.1,367c-3.8,1.3-4.7,5.8-0.5,10.6c4,4.6,13.2,4.6,22.5,2.7c8-1.7,35.3-7.9,39.5-9.5c4.4-1.7,7.6-8.8-3.1-9.9
    C272.9,359.8,225.1,367,225.1,367z"/>
  <path style="fill:#3333FF;stroke:#FFFFFF;stroke-width:4;stroke-linecap:round;stroke-linejoin:round;stroke-miterlimit:10;" d="
    M242.1,365.3l-9.1,1.8c-1.7,0.3-2.8,1.8-2.5,3.5c0.3,1.7,0.9,4.5,6.1,3.3l44-8.4c2.7-0.4,4.6-2.8,4.5-5.5l-1.7-41.6
    c1.1,0.3,2.4,1.4,3.6,1.6c15,2.7,29.2-4.4,31.9-19.4c2.7-15-7.4-29.4-22.4-32c-15-2.7-29.4,7.4-32,22.4c-0.6,3.2-0.6,6.4,0,9.4
    l7.9,48.9c0.5,2.9-1.5,5.6-4.4,6.1l-37.4,6.1l0.1,0c-2.4,0.4-4.1,2.7-3.7,5.1c0.3,1.9,1.7,3.3,3.5,3.6"/>
  <path style="fill:#FFFFFF;" d="M252.5,372.6c-3.7-8.3-10-9.5-10-9.5c-0.5-1.5,0.6-3.3,0.6-3.3l-5.2,0.8c-2.4,4.1-1.1,5.2-1.1,5.2
    s7.3,2.6,10,8.9c0.4,0.9,1.4,1.5,2.4,1.3l1.7-0.3C252.4,375.4,253.1,373.9,252.5,372.6z"/>
  <path style="fill:#3333FF;stroke:#FFFFFF;stroke-width:4;stroke-linecap:round;stroke-linejoin:round;stroke-miterlimit:10;" d="
    M278.3,198.4"/>
  <path style="fill:#3333FF;stroke:#FFFFFF;stroke-width:4;stroke-linecap:round;stroke-linejoin:round;stroke-miterlimit:10;" d="
    M280.1,198.9l-15.5-23.8l-14.4,12c3.8,5.5,3.6,13.4,1.7,20.3"/>
  <path style="fill:#3333FF;stroke:#FFFFFF;stroke-width:4;stroke-linecap:round;stroke-linejoin:round;stroke-miterlimit:10;" d="
    M242.4,163.3c-8.9-5.3-11.9-16.9-6.6-25.8l0,0l12.9,9.8c3.1,2.7,4,7,2.4,10.6"/>
  <path style="fill:#3333FF;stroke:#FFFFFF;stroke-width:4;stroke-linecap:round;stroke-linejoin:round;stroke-miterlimit:10;" d="
    M240,192.9l21.6-12.3c5.9-4.2,7.3-12.4,3.1-18.3c-4.2-5.9-12.4-7.3-18.3-3.1l-21.1,21.4c-3.9,3.8-4,10.1-0.2,14
    c0.3,0.3,0.5,0.5,0.8,0.8c3.9,3.2,9.6,2.4,13.1-1.2l8.4-11.7"/>
  <ellipse transform="matrix(0.9785 -0.2061 0.2061 0.9785 -34.2621 50.5313)" style="fill:#FFFFFF;" cx="225.4" cy="189.7" rx="2.5" ry="2.5"/>
  <ellipse transform="matrix(0.9785 -0.2061 0.2061 0.9785 -29.7405 54.6517)" style="fill:#FFFFFF;" cx="247.4" cy="170" rx="2.5" ry="2.5"/>
  <path style="fill:#3333FF;stroke:#FFFFFF;stroke-width:4;stroke-linecap:round;stroke-linejoin:round;stroke-miterlimit:10;" d="
    M262.1,162.9c6.6-9.3,4.5-22.2-4.8-28.8l0,0l-8.6,15.5c-1.9,4.1-0.9,8.8,2.2,11.7"/>
  <path style="fill:#3333FF;stroke:#FFFFFF;stroke-width:4;stroke-linecap:round;stroke-linejoin:round;stroke-miterlimit:10;" d="
    M347.3,323c7.9,20.8,31.2,31.4,52,23.5c20.5-7.7,31-30.3,23.9-50.9c-0.5-2.2,0.9-4.3,3-4.8c2.2-0.5,4.3,0.9,4.8,3l0,0
    c10.4,27.5-3.5,58.1-31,68.5c-27.5,10.4-58.1-3.5-68.5-31"/>
  <path style="fill:#3333FF;stroke:#FFFFFF;stroke-width:4;stroke-linecap:round;stroke-linejoin:round;stroke-miterlimit:10;" d="
    M258.5,213.9c3.6,0.4,6.3,3.7,5.9,7.3"/>
  <path style="fill:#3333FF;stroke:#FFFFFF;stroke-width:4;stroke-linecap:round;stroke-linejoin:round;stroke-miterlimit:10;" d="
    M256.3,202.9c-8.6,6.4-12.4,17.4-9.8,27.5l0,0l25.5,74c7.1,17.9,27.4,26.7,45.3,19.6c17.9-7.1,26.7-27.4,19.6-45.3l-42-68.1
    c-3.8-6.4-9.8-10.6-16.5-12.3"/>
  <path style="fill:#3333FF;stroke:#FFFFFF;stroke-width:4;stroke-linecap:round;stroke-linejoin:round;stroke-miterlimit:10;" d="
    M294.9,210.7c-6.6-11.2-18.2-12.6-18.2-12.6c-10.3,0-18.6,8.3-18.6,18.6h0c0.5,7.7-3.7,14.6-10.1,17.9l18,52.4
    c24.8-5.7,47.8-18.8,54.4-35L294.9,210.7z M282,228.5c-7.2,0-13-5.8-13-13c0-7.2,5.8-13,13-13c7.2,0,13,5.8,13,13
    C295,222.6,289.2,228.5,282,228.5z"/>
  <polygon style="fill:#FFFFFF;" points="266.1,235 263.9,237.3 263.4,234.2 260.5,232.8 263.3,231.3 263.7,228.1 266,230.4 
    269.2,229.7 267.7,232.6 269.3,235.4 "/>
  <polygon style="fill:#FFFFFF;" points="278.2,268.9 276,271.3 275.4,268.1 272.5,266.8 275.4,265.3 275.7,262.1 278,264.3 
    281.2,263.7 279.8,266.6 281.3,269.4 "/>
  <polygon style="fill:#FFFFFF;" points="281.9,255.3 280.8,256.5 280.5,254.9 279.1,254.3 280.5,253.5 280.7,251.9 281.8,253 
    283.4,252.7 282.7,254.2 283.5,255.6 "/>
  <polygon style="fill:#FFFFFF;" points="280.5,244.9 278.3,247.3 277.8,244.1 274.9,242.8 277.7,241.3 278.1,238.1 280.4,240.3 
    283.5,239.7 282.1,242.6 283.7,245.4 "/>
  <polygon style="fill:#FFFFFF;" points="261.2,251.7 259,254.1 258.5,250.9 255.6,249.6 258.4,248.1 258.8,244.9 261.1,247.1 
    264.3,246.5 262.8,249.4 264.4,252.2 "/>
  <path style="fill:#3333FF;stroke:#FFFFFF;stroke-width:4;stroke-linecap:round;stroke-linejoin:round;stroke-miterlimit:10;" d="
    M258.5,390.1c-3.7,1.6-5.3,8-0.8,12.6c4.5,4.6,14.2,4.8,21.7,1.4c7.5-3.4,37.3-15.7,41.3-17.6c4.3-2.1,6.3-7.2-4.4-7.4
    C305.5,378.9,258.5,390.1,258.5,390.1z"/>
  <path style="fill:#3333FF;stroke:#FFFFFF;stroke-width:4;stroke-linecap:round;stroke-linejoin:round;stroke-miterlimit:10;" d="
    M264,396c-2.1-0.1-3.9-1.4-4.7-3.4c-0.9-2.7,0.5-5.6,3.1-6.5l-0.1,0l41.2-14.5c3.2-1.1,4.9-4.6,3.8-7.8L290,316.7l0-0.1
    c-1.2-3.3-1.9-6.9-1.9-10.7c0-17.6,14.2-31.9,31.8-31.9c17.6,0,31.9,14.2,31.9,31.8c0,17.6-14.2,31.9-31.8,31.9
    c-1.4,0-2.8-0.1-4.1-0.3l7.9,35.8c0.7,3-1,6.1-4,7.1l-51.3,18c-1.8,0.6-3.8-0.3-4.5-2.2c-0.6-1.8,0.3-3.8,2.2-4.5l6.8-2.2"/>
  <line style="fill:#3333FF;stroke:#FFFFFF;stroke-width:4;stroke-linecap:round;stroke-linejoin:round;stroke-miterlimit:10;" x1="317.2" y1="342.9" x2="313.8" y2="328.1"/>
  <path style="fill:#FFFFFF;" d="M285.6,395.9c-3.8-9.2-11.9-8.2-11.9-8.2c-1.5-2.6,1.1-5.7,1.1-5.7l-5.6,2c-2.4,4.1-0.3,7.2-0.3,7.2
    s8.9,0.2,11.7,6.7c0.3,0.6,1,1,1.7,0.7l2.5-0.9C285.5,397.4,285.8,396.6,285.6,395.9z"/>
  <polyline style="fill:none;stroke:#FFFFFF;stroke-width:4;stroke-linecap:round;stroke-linejoin:round;stroke-miterlimit:10;" points="
    165,375.4 258.9,277.6 278.1,271.7 297,243.8 "/>
  <polygon style="fill:#3333FF;stroke:#FFFFFF;stroke-width:4;stroke-linecap:round;stroke-linejoin:round;stroke-miterlimit:10;" points="
    233.9,289 239.5,275.2 243.4,270.7 258.9,277.6 240.8,296.4 "/>
  <path style="fill:#3333FF;stroke:#FFFFFF;stroke-width:4;stroke-linecap:round;stroke-linejoin:round;stroke-miterlimit:10;" d="
    M284.4,210.5c3.7,0.3,6.4,3.5,6.1,7.1"/>
  <path style="fill:#3333FF;stroke:#FFFFFF;stroke-width:4;stroke-linecap:round;stroke-linejoin:round;stroke-miterlimit:10;" d="
    M278.5,222.4l-0.1,17.1c0,0.8-0.2,1.7-0.6,2.4l-12.1,28c-0.4,0.8-0.5,1.7-0.3,2.5l0.7,3.9c0.5,2.6,3.2,4,5.6,3l2.6-1.1
    c2-0.9,3-3.2,2.2-5.2v0c-0.4-1.1-0.4-2.2,0.1-3.3l13.2-29.9c0.6-0.9,0.9-2,0.9-3.1l-0.4-19.2"/>
  <polygon style="fill:#3333FF;stroke:#FFFFFF;stroke-width:4;stroke-linecap:round;stroke-linejoin:round;stroke-miterlimit:10;" points="
    296.8,243.6 287.6,240.2 282.1,250.5 290.6,253.3 "/>
  <ellipse style="fill:none;stroke:#FFFFFF;stroke-width:4;stroke-linecap:round;stroke-linejoin:round;stroke-miterlimit:10;" cx="165" cy="375.4" rx="31.6" ry="11.1"/>
  <path style="fill:none;stroke:#FFFFFF;stroke-width:4;stroke-linecap:round;stroke-linejoin:round;stroke-miterlimit:10;" d="
    M133.4,376.5v6.9c0,6.1,14.1,11.1,31.6,11.1c17.4,0,31.6-5,31.6-11.1v-7.9"/>
  <polyline style="fill:none;stroke:#FFFFFF;stroke-width:4;stroke-linecap:round;stroke-linejoin:round;stroke-miterlimit:10;" points="
    133.4,375.4 165,375.4 186.8,383.4 "/>
</g>

<g id="f3" class="frame">
  <circle style="fill:#3333FF;" cx="250" cy="250" r="234.7"/>
  <circle style="fill:#3333FF;" cx="250" cy="250" r="234.7"/>
  <circle style="fill:#3333FF;" cx="250" cy="250" r="234.7"/>
  <path style="fill:none;stroke:#FFFFFF;stroke-width:4;stroke-linecap:round;stroke-linejoin:round;stroke-miterlimit:10;" d="
    M11.6,261.1c0,0.2,93.3,54.1,234.7,39.4c141.4-14.7,223.9,62.3,238.8,78.8"/>
  <g>
    <path style="fill:none;stroke:#FFFFFF;stroke-width:4;stroke-linecap:round;stroke-linejoin:round;stroke-miterlimit:10;" d="
      M4.7,223.1c9.3,0,9.3,5,18.7,5c9.3,0,9.3-5,18.7-5c9.3,0,9.3,5,18.7,5c9.3,0,9.3-5,18.7-5c9.3,0,9.3,5,18.7,5c9.3,0,9.3-5,18.7-5
      c9.3,0,9.3,5,18.7,5c9.3,0,9.3-5,18.7-5c9.3,0,9.3,5,18.7,5c9.3,0,9.3-5,18.7-5c9.3,0,9.3,5,18.7,5c9.3,0,9.3-5,18.7-5
      c9.3,0,9.3,5,18.7,5c9.3,0,9.3-5,18.7-5c9.3,0,9.3,5,18.7,5c9.3,0,9.3-5,18.7-5c9.3,0,9.3,5,18.7,5c9.3,0,9.3-5,18.7-5
      c9.3,0,9.3,5,18.7,5c9.3,0,9.3-5,18.7-5c9.3,0,9.3,5,18.7,5c9.3,0,9.3-5,18.7-5c9.3,0,9.3,5,18.7,5c9.3,0,9.3-5,18.7-5
      c9.3,0,9.3,5,18.7,5c9.3,0,9.3-5,18.7-5"/>
  </g>
  <circle style="fill:none;stroke:#FFFFFF;stroke-width:4;stroke-linecap:round;stroke-linejoin:round;stroke-miterlimit:10;" cx="381.6" cy="47.5" r="49.1"/>
  <line style="fill:none;stroke:#FFFFFF;stroke-width:4;stroke-linecap:round;stroke-linejoin:round;stroke-miterlimit:10;" x1="383.4" y1="111.7" x2="383.4" y2="137.5"/>
  <line style="fill:none;stroke:#FFFFFF;stroke-width:4;stroke-linecap:round;stroke-linejoin:round;stroke-miterlimit:10;" x1="415.3" y1="102.2" x2="428.2" y2="124.5"/>
  <line style="fill:none;stroke:#FFFFFF;stroke-width:4;stroke-linecap:round;stroke-linejoin:round;stroke-miterlimit:10;" x1="438.1" y1="78" x2="460.5" y2="90.9"/>
  <line style="fill:none;stroke:#FFFFFF;stroke-width:4;stroke-linecap:round;stroke-linejoin:round;stroke-miterlimit:10;" x1="445.8" y1="45.7" x2="471.6" y2="45.7"/>
  <line style="fill:none;stroke:#FFFFFF;stroke-width:4;stroke-linecap:round;stroke-linejoin:round;stroke-miterlimit:10;" x1="325.1" y1="16.9" x2="302.8" y2="4"/>
  <line style="fill:none;stroke:#FFFFFF;stroke-width:4;stroke-linecap:round;stroke-linejoin:round;stroke-miterlimit:10;" x1="317.4" y1="49.2" x2="291.6" y2="49.2"/>
  <line style="fill:none;stroke:#FFFFFF;stroke-width:4;stroke-linecap:round;stroke-linejoin:round;stroke-miterlimit:10;" x1="326.9" y1="81.1" x2="304.6" y2="94"/>
  <line style="fill:none;stroke:#FFFFFF;stroke-width:4;stroke-linecap:round;stroke-linejoin:round;stroke-miterlimit:10;" x1="351.1" y1="104" x2="338.2" y2="126.3"/>
  <path style="fill:#3333FF;stroke:#FFFFFF;stroke-width:4;stroke-linecap:round;stroke-linejoin:round;stroke-miterlimit:10;" d="
    M147.8,249.2l-8.6,12.4L104,237.1c-4-2.8-4.6-8-1.9-12c2.7-3.8,3.1-11.4-0.7-14L97,208l20,13.9l3.3,8.2L147.8,249.2z"/>
  <ellipse transform="matrix(0.5712 -0.8208 0.8208 0.5712 -142.9154 191.5282)" style="fill:#FFFFFF;" cx="111.9" cy="232.6" rx="2.8" ry="2.8"/>
  <ellipse transform="matrix(0.5712 -0.8208 0.8208 0.5712 -144.0555 200.4826)" style="fill:#FFFFFF;" cx="119.9" cy="238.1" rx="2.8" ry="2.8"/>
  <ellipse transform="matrix(0.5712 -0.8208 0.8208 0.5712 -145.1956 209.4383)" style="fill:#FFFFFF;" cx="127.9" cy="243.7" rx="2.8" ry="2.8"/>
  <ellipse transform="matrix(0.5712 -0.8208 0.8208 0.5712 -146.3359 218.3958)" style="fill:#FFFFFF;" cx="135.9" cy="249.3" rx="2.8" ry="2.8"/>
  <ellipse transform="matrix(0.5712 -0.8208 0.8208 0.5712 -147.4759 227.3504)" style="fill:#FFFFFF;" cx="143.9" cy="254.8" rx="2.8" ry="2.8"/>
  <line style="fill:none;stroke:#FFFFFF;stroke-width:4;stroke-linecap:round;stroke-linejoin:round;stroke-miterlimit:10;" x1="163.6" y1="206.6" x2="138.5" y2="242.7"/>
  <path style="fill:#3333FF;stroke:#FFFFFF;stroke-width:4;stroke-linecap:round;stroke-linejoin:round;stroke-miterlimit:10;" d="
    M156.1,227.4c4.4-6.3,10.4-9.6,13.5-7.4L147,204.2c-3.1-2.2-9.2,1.1-13.5,7.4c-4.4,6.3-5.3,13.1-2.2,15.3l22.6,15.8
    C150.8,240.5,151.8,233.6,156.1,227.4z"/>
  <path style="fill:#3333FF;" d="M94,248.1c7.1,0,7.1,5,14.3,5c7.2,0,7.2-5,14.3-5c7.1,0,7.1,5,14.3,5c7.2,0,7.2-5,14.3-5
    s7.2,5,14.3,5v23.7H94V248.1z"/>
  <path style="fill:none;stroke:#FFFFFF;stroke-width:4;stroke-linecap:round;stroke-linejoin:round;stroke-miterlimit:10;" d="
    M94,248.1c7.1,0,7.1,5,14.3,5c7.2,0,7.2-5,14.3-5c7.1,0,7.1,5,14.3,5c7.2,0,7.2-5,14.3-5s7.2,5,14.3,5"/>
  <path style="fill:none;stroke:#FFFFFF;stroke-width:4;stroke-linecap:round;stroke-linejoin:round;stroke-miterlimit:10;" d="
    M282.7,235"/>
  <path style="fill:#3333FF;stroke:#FFFFFF;stroke-width:4;stroke-linecap:round;stroke-linejoin:round;stroke-miterlimit:10;" d="
    M225.2,367c-3.8,1.3-4.7,5.8-0.5,10.6c4,4.6,13.2,4.6,22.5,2.7c8-1.7,35.3-7.9,39.5-9.5c4.4-1.7,7.6-8.8-3.1-9.9
    C273,359.8,225.2,367,225.2,367z"/>
  <path style="fill:#3333FF;stroke:#FFFFFF;stroke-width:4;stroke-linecap:round;stroke-linejoin:round;stroke-miterlimit:10;" d="
    M242.2,365.3l-9.1,1.8c-1.7,0.3-2.8,1.8-2.5,3.5c0.3,1.7,0.9,4.5,6.1,3.3l44-8.4c2.7-0.4,4.6-2.8,4.5-5.5l-1.7-41.6
    c1.1,0.3,2.4,1.4,3.6,1.6c15,2.7,29.2-4.4,31.9-19.4c2.7-15-7.4-29.4-22.4-32c-15-2.7-29.4,7.4-32,22.4c-0.6,3.2-0.6,6.4,0,9.4
    l7.9,48.9c0.5,2.9-1.5,5.6-4.4,6.1l-37.4,6.1l0.1,0c-2.4,0.4-4.1,2.7-3.7,5.1c0.3,1.9,1.7,3.3,3.5,3.6"/>
  <path style="fill:#FFFFFF;" d="M252.7,372.6c-3.7-8.3-10-9.5-10-9.5c-0.5-1.5,0.6-3.3,0.6-3.3l-5.2,0.8c-2.4,4.1-1.1,5.2-1.1,5.2
    s7.3,2.6,10,8.9c0.4,0.9,1.4,1.5,2.4,1.3l1.7-0.3C252.5,375.4,253.2,373.9,252.7,372.6z"/>
  <path style="fill:#3333FF;stroke:#FFFFFF;stroke-width:4;stroke-linecap:round;stroke-linejoin:round;stroke-miterlimit:10;" d="
    M278.4,198.4"/>
  <path style="fill:#3333FF;stroke:#FFFFFF;stroke-width:4;stroke-linecap:round;stroke-linejoin:round;stroke-miterlimit:10;" d="
    M280.2,198.9l-15.5-23.8l-14.4,12c3.8,5.5,3.6,13.4,1.7,20.3"/>
  <path style="fill:#3333FF;stroke:#FFFFFF;stroke-width:4;stroke-linecap:round;stroke-linejoin:round;stroke-miterlimit:10;" d="
    M242.5,163.3c-8.9-5.3-11.9-16.9-6.6-25.8l0,0l12.9,9.8c3.1,2.7,4,7,2.4,10.6"/>
  <path style="fill:#3333FF;stroke:#FFFFFF;stroke-width:4;stroke-linecap:round;stroke-linejoin:round;stroke-miterlimit:10;" d="
    M240.1,192.9l21.6-12.3c5.9-4.2,7.3-12.4,3.1-18.3c-4.2-5.9-12.4-7.3-18.3-3.1l-21.1,21.4c-3.9,3.8-4,10.1-0.2,14
    c0.3,0.3,0.5,0.5,0.8,0.8c3.9,3.2,9.6,2.4,13.1-1.2l8.4-11.7"/>
  <ellipse transform="matrix(0.9785 -0.2061 0.2061 0.9785 -34.2593 50.5522)" style="fill:#FFFFFF;" cx="225.5" cy="189.7" rx="2.5" ry="2.5"/>
  <ellipse transform="matrix(0.9785 -0.2061 0.2061 0.9785 -29.7382 54.6738)" style="fill:#FFFFFF;" cx="247.5" cy="170" rx="2.5" ry="2.5"/>
  <path style="fill:#3333FF;stroke:#FFFFFF;stroke-width:4;stroke-linecap:round;stroke-linejoin:round;stroke-miterlimit:10;" d="
    M262.2,162.9c6.6-9.3,4.5-22.2-4.8-28.8l0,0l-8.6,15.5c-1.9,4.1-0.9,8.8,2.2,11.7"/>
  <path style="fill:#3333FF;stroke:#FFFFFF;stroke-width:4;stroke-linecap:round;stroke-linejoin:round;stroke-miterlimit:10;" d="
    M347.5,323c7.9,20.8,31.2,31.4,52,23.5c20.5-7.7,31-30.3,23.9-50.9c-0.5-2.2,0.9-4.3,3-4.8c2.2-0.5,4.3,0.9,4.8,3l0,0
    c10.4,27.5-3.5,58.1-31,68.5c-27.5,10.4-58.1-3.5-68.5-31"/>
  <path style="fill:#3333FF;stroke:#FFFFFF;stroke-width:4;stroke-linecap:round;stroke-linejoin:round;stroke-miterlimit:10;" d="
    M258.6,213.9c3.6,0.4,6.3,3.7,5.9,7.3"/>
  <path style="fill:#3333FF;stroke:#FFFFFF;stroke-width:4;stroke-linecap:round;stroke-linejoin:round;stroke-miterlimit:10;" d="
    M256.4,202.9c-8.6,6.4-12.4,17.4-9.8,27.5l0,0l25.5,74c7.1,17.9,27.4,26.7,45.3,19.6c17.9-7.1,26.7-27.4,19.6-45.3l-42-68.1
    c-3.8-6.4-9.8-10.6-16.5-12.3"/>
  <path style="fill:#3333FF;stroke:#FFFFFF;stroke-width:4;stroke-linecap:round;stroke-linejoin:round;stroke-miterlimit:10;" d="
    M295,210.7c-6.6-11.2-18.2-12.6-18.2-12.6c-10.3,0-18.6,8.3-18.6,18.6h0c0.5,7.7-3.7,14.6-10.1,17.9l18,52.4
    c24.8-5.7,47.8-18.8,54.4-35L295,210.7z M282.1,228.5c-7.2,0-13-5.8-13-13c0-7.2,5.8-13,13-13s13,5.8,13,13
    C295.1,222.6,289.3,228.5,282.1,228.5z"/>
  <polygon style="fill:#FFFFFF;" points="266.2,235 264.1,237.3 263.5,234.2 260.6,232.8 263.4,231.3 263.8,228.1 266.1,230.4 
    269.3,229.7 267.8,232.6 269.4,235.4 "/>
  <polygon style="fill:#FFFFFF;" points="278.3,268.9 276.1,271.3 275.5,268.1 272.6,266.8 275.5,265.3 275.8,262.1 278.1,264.3 
    281.3,263.7 279.9,266.6 281.4,269.4 "/>
  <polygon style="fill:#FFFFFF;" points="282,255.3 280.9,256.5 280.6,254.9 279.2,254.3 280.6,253.5 280.8,251.9 281.9,253 
    283.5,252.7 282.8,254.2 283.6,255.6 "/>
  <polygon style="fill:#FFFFFF;" points="280.6,244.9 278.4,247.3 277.9,244.1 275,242.8 277.8,241.3 278.2,238.1 280.5,240.3 
    283.6,239.7 282.2,242.6 283.8,245.4 "/>
  <polygon style="fill:#FFFFFF;" points="261.3,251.7 259.2,254.1 258.6,250.9 255.7,249.6 258.5,248.1 258.9,244.9 261.2,247.1 
    264.4,246.5 262.9,249.4 264.5,252.2 "/>
  <path style="fill:#3333FF;stroke:#FFFFFF;stroke-width:4;stroke-linecap:round;stroke-linejoin:round;stroke-miterlimit:10;" d="
    M258.6,390.1c-3.7,1.6-5.3,8-0.8,12.6c4.5,4.6,14.2,4.8,21.7,1.4c7.5-3.4,37.3-15.7,41.3-17.6c4.3-2.1,6.3-7.2-4.4-7.4
    C305.6,378.9,258.6,390.1,258.6,390.1z"/>
  <path style="fill:#3333FF;stroke:#FFFFFF;stroke-width:4;stroke-linecap:round;stroke-linejoin:round;stroke-miterlimit:10;" d="
    M264.1,396c-2.1-0.1-3.9-1.4-4.7-3.4c-0.9-2.7,0.5-5.6,3.1-6.5l-0.1,0l41.2-14.5c3.2-1.1,4.9-4.6,3.8-7.8l-17.3-47.1l0-0.1
    c-1.2-3.3-1.9-6.9-1.9-10.7c0-17.6,14.2-31.9,31.8-31.9c17.6,0,31.9,14.2,31.9,31.8c0,17.6-14.2,31.9-31.8,31.9
    c-1.4,0-2.8-0.1-4.1-0.3l7.9,35.8c0.7,3-1,6.1-4,7.1l-51.3,18c-1.8,0.6-3.8-0.3-4.5-2.2c-0.6-1.8,0.3-3.8,2.2-4.5l6.8-2.2"/>
  <line style="fill:#3333FF;stroke:#FFFFFF;stroke-width:4;stroke-linecap:round;stroke-linejoin:round;stroke-miterlimit:10;" x1="317.3" y1="342.9" x2="313.9" y2="328.1"/>
  <path style="fill:#FFFFFF;" d="M285.7,395.9c-3.8-9.2-11.9-8.2-11.9-8.2c-1.5-2.6,1.1-5.7,1.1-5.7l-5.6,2c-2.4,4.1-0.3,7.2-0.3,7.2
    s8.9,0.2,11.7,6.7c0.3,0.6,1,1,1.7,0.7l2.5-0.9C285.6,397.4,286,396.6,285.7,395.9z"/>
  <polyline style="fill:none;stroke:#FFFFFF;stroke-width:4;stroke-linecap:round;stroke-linejoin:round;stroke-miterlimit:10;" points="
    200.4,421.6 276.2,281.7 293.1,271 304,239.1 "/>
  <polygon style="fill:#3333FF;stroke:#FFFFFF;stroke-width:4;stroke-linecap:round;stroke-linejoin:round;stroke-miterlimit:10;" points="
    255,299.2 256.8,284.5 259.4,279.1 276.2,281.7 263.7,304.6 "/>
  <path style="fill:#3333FF;stroke:#FFFFFF;stroke-width:4;stroke-linecap:round;stroke-linejoin:round;stroke-miterlimit:10;" d="
    M282.6,210c3.6-0.7,7.1,1.7,7.8,5.3"/>
  <path style="fill:#3333FF;stroke:#FFFFFF;stroke-width:4;stroke-linecap:round;stroke-linejoin:round;stroke-miterlimit:10;" d="
    M280.7,223.3l4.4,16.6c0.2,0.8,0.2,1.7,0.1,2.5l-4.3,30.1c-0.2,0.9,0,1.7,0.3,2.5l1.7,3.6c1.1,2.3,4.2,3,6.2,1.4l2.2-1.7
    c1.7-1.4,2.1-3.9,0.8-5.6l0,0c-0.7-0.9-0.9-2.1-0.7-3.2l4.9-32.3c0.3-1.1,0.3-2.2,0-3.2l-6.1-18.7"/>
  <polygon style="fill:#3333FF;stroke:#FFFFFF;stroke-width:4;stroke-linecap:round;stroke-linejoin:round;stroke-miterlimit:10;" points="
    303.9,239 294.1,238.1 291.4,249.5 300.4,250 "/>
  <ellipse style="fill:none;stroke:#FFFFFF;stroke-width:4;stroke-linecap:round;stroke-linejoin:round;stroke-miterlimit:10;" cx="200.4" cy="421.6" rx="31.6" ry="11.1"/>
  <path style="fill:none;stroke:#FFFFFF;stroke-width:4;stroke-linecap:round;stroke-linejoin:round;stroke-miterlimit:10;" d="
    M168.8,422.6v6.9c0,6.1,14.1,11.1,31.6,11.1s31.6-5,31.6-11.1v-7.9"/>
  <polyline style="fill:none;stroke:#FFFFFF;stroke-width:4;stroke-linecap:round;stroke-linejoin:round;stroke-miterlimit:10;" points="
    168.8,421.6 200.4,421.6 222.2,429.6 "/>
</g>

<g id="f4" class="frame">
  <circle style="fill:#3333FF;" cx="250" cy="250" r="234.7"/>
  <circle style="fill:#3333FF;" cx="250" cy="250" r="234.7"/>
  <path style="fill:none;stroke:#FFFFFF;stroke-width:4;stroke-linecap:round;stroke-linejoin:round;stroke-miterlimit:10;" d="
    M11.6,261.1c0,0.2,93.3,54.1,234.7,39.4c141.4-14.7,223.9,62.3,238.8,78.8"/>
  <g>
    <path style="fill:none;stroke:#FFFFFF;stroke-width:4;stroke-linecap:round;stroke-linejoin:round;stroke-miterlimit:10;" d="
      M4.7,223.1c9.3,0,9.3,5,18.7,5c9.3,0,9.3-5,18.7-5c9.3,0,9.3,5,18.7,5c9.3,0,9.3-5,18.7-5c9.3,0,9.3,5,18.7,5c9.3,0,9.3-5,18.7-5
      c9.3,0,9.3,5,18.7,5c9.3,0,9.3-5,18.7-5c9.3,0,9.3,5,18.7,5c9.3,0,9.3-5,18.7-5c9.3,0,9.3,5,18.7,5c9.3,0,9.3-5,18.7-5
      c9.3,0,9.3,5,18.7,5c9.3,0,9.3-5,18.7-5c9.3,0,9.3,5,18.7,5c9.3,0,9.3-5,18.7-5c9.3,0,9.3,5,18.7,5c9.3,0,9.3-5,18.7-5
      c9.3,0,9.3,5,18.7,5c9.3,0,9.3-5,18.7-5c9.3,0,9.3,5,18.7,5c9.3,0,9.3-5,18.7-5c9.3,0,9.3,5,18.7,5c9.3,0,9.3-5,18.7-5
      c9.3,0,9.3,5,18.7,5c9.3,0,9.3-5,18.7-5"/>
  </g>
  <circle style="fill:none;stroke:#FFFFFF;stroke-width:4;stroke-linecap:round;stroke-linejoin:round;stroke-miterlimit:10;" cx="381.6" cy="47.5" r="49.1"/>
  <line style="fill:none;stroke:#FFFFFF;stroke-width:4;stroke-linecap:round;stroke-linejoin:round;stroke-miterlimit:10;" x1="383.4" y1="111.7" x2="383.4" y2="137.5"/>
  <line style="fill:none;stroke:#FFFFFF;stroke-width:4;stroke-linecap:round;stroke-linejoin:round;stroke-miterlimit:10;" x1="415.3" y1="102.2" x2="428.2" y2="124.5"/>
  <line style="fill:none;stroke:#FFFFFF;stroke-width:4;stroke-linecap:round;stroke-linejoin:round;stroke-miterlimit:10;" x1="438.1" y1="78" x2="460.5" y2="90.9"/>
  <line style="fill:none;stroke:#FFFFFF;stroke-width:4;stroke-linecap:round;stroke-linejoin:round;stroke-miterlimit:10;" x1="445.8" y1="45.7" x2="471.6" y2="45.7"/>
  <line style="fill:none;stroke:#FFFFFF;stroke-width:4;stroke-linecap:round;stroke-linejoin:round;stroke-miterlimit:10;" x1="325.1" y1="16.9" x2="302.8" y2="4"/>
  <line style="fill:none;stroke:#FFFFFF;stroke-width:4;stroke-linecap:round;stroke-linejoin:round;stroke-miterlimit:10;" x1="317.4" y1="49.2" x2="291.6" y2="49.2"/>
  <line style="fill:none;stroke:#FFFFFF;stroke-width:4;stroke-linecap:round;stroke-linejoin:round;stroke-miterlimit:10;" x1="326.9" y1="81.1" x2="304.6" y2="94"/>
  <line style="fill:none;stroke:#FFFFFF;stroke-width:4;stroke-linecap:round;stroke-linejoin:round;stroke-miterlimit:10;" x1="351.1" y1="104" x2="338.2" y2="126.3"/>
  <path style="fill:#3333FF;stroke:#FFFFFF;stroke-width:4;stroke-linecap:round;stroke-linejoin:round;stroke-miterlimit:10;" d="
    M147.8,256.9l-8.6,12.4L104,244.8c-4-2.8-4.6-8-1.9-12c2.7-3.8,3.1-11.4-0.7-14l-4.4-3.1l20,13.9l3.3,8.2L147.8,256.9z"/>
  <ellipse transform="matrix(0.5712 -0.8208 0.8208 0.5712 -149.2512 194.8378)" style="fill:#FFFFFF;" cx="111.9" cy="240.3" rx="2.8" ry="2.8"/>
  <ellipse transform="matrix(0.5712 -0.8208 0.8208 0.5712 -150.3918 203.7963)" style="fill:#FFFFFF;" cx="119.9" cy="245.8" rx="2.8" ry="2.8"/>
  <ellipse transform="matrix(0.5712 -0.8208 0.8208 0.5712 -151.5314 212.748)" style="fill:#FFFFFF;" cx="127.9" cy="251.4" rx="2.8" ry="2.8"/>
  <ellipse transform="matrix(0.5712 -0.8208 0.8208 0.5712 -152.6717 221.7055)" style="fill:#FFFFFF;" cx="135.9" cy="257" rx="2.8" ry="2.8"/>
  <ellipse transform="matrix(0.5712 -0.8208 0.8208 0.5712 -153.8117 230.6601)" style="fill:#FFFFFF;" cx="143.9" cy="262.6" rx="2.8" ry="2.8"/>
  <line style="fill:none;stroke:#FFFFFF;stroke-width:4;stroke-linecap:round;stroke-linejoin:round;stroke-miterlimit:10;" x1="163.6" y1="214.3" x2="138.5" y2="250.4"/>
  <path style="fill:#3333FF;stroke:#FFFFFF;stroke-width:4;stroke-linecap:round;stroke-linejoin:round;stroke-miterlimit:10;" d="
    M156.1,235.1c4.4-6.3,10.4-9.6,13.5-7.4L147,212c-3.1-2.2-9.2,1.1-13.5,7.4c-4.4,6.3-5.3,13.1-2.2,15.3l22.6,15.8
    C150.8,248.2,151.8,241.3,156.1,235.1z"/>
  <path style="fill:#3333FF;" d="M165.5,248.1c-7.1,0-7.1,5-14.3,5c-7.2,0-7.2-5-14.3-5c-7.1,0-7.1,5-14.3,5c-7.2,0-7.2-5-14.3-5
    c-7.2,0-7.2,5-14.3,5v23.7h71.5V248.1z"/>
  <path style="fill:none;stroke:#FFFFFF;stroke-width:4;stroke-linecap:round;stroke-linejoin:round;stroke-miterlimit:10;" d="
    M165.5,248.1c-7.1,0-7.1,5-14.3,5c-7.2,0-7.2-5-14.3-5c-7.1,0-7.1,5-14.3,5c-7.2,0-7.2-5-14.3-5c-7.2,0-7.2,5-14.3,5"/>
  <path style="fill:none;stroke:#FFFFFF;stroke-width:4;stroke-linecap:round;stroke-linejoin:round;stroke-miterlimit:10;" d="
    M282.7,235"/>
  <line style="fill:none;stroke:#FFFFFF;stroke-width:4;stroke-linecap:round;stroke-linejoin:round;stroke-miterlimit:10;" x1="107.4" y1="349.4" x2="101.9" y2="342.4"/>
  <line style="fill:none;stroke:#FFFFFF;stroke-width:4;stroke-linecap:round;stroke-linejoin:round;stroke-miterlimit:10;" x1="87.9" y1="381" x2="79.1" y2="380"/>
  <line style="fill:none;stroke:#FFFFFF;stroke-width:4;stroke-linecap:round;stroke-linejoin:round;stroke-miterlimit:10;" x1="164.2" y1="428.1" x2="169.7" y2="435.1"/>
  <line style="fill:none;stroke:#FFFFFF;stroke-width:4;stroke-linecap:round;stroke-linejoin:round;stroke-miterlimit:10;" x1="183.7" y1="396.5" x2="192.5" y2="397.6"/>
  <line style="fill:none;stroke:#FFFFFF;stroke-width:4;stroke-linecap:round;stroke-linejoin:round;stroke-miterlimit:10;" x1="175.1" y1="360.4" x2="182.1" y2="354.9"/>
  <line style="fill:none;stroke:#FFFFFF;stroke-width:4;stroke-linecap:round;stroke-linejoin:round;stroke-miterlimit:10;" x1="143.5" y1="340.9" x2="144.6" y2="332"/>
  <path style="fill:#3333FF;stroke:#FFFFFF;stroke-width:4;stroke-linecap:round;stroke-linejoin:round;stroke-miterlimit:10;" d="
    M280.1,198.9l-15.5-23.8l-14.4,12c3.8,5.5,3.6,13.4,1.7,20.3"/>
  <path style="fill:#3333FF;stroke:#FFFFFF;stroke-width:4;stroke-linecap:round;stroke-linejoin:round;stroke-miterlimit:10;" d="
    M242.4,163.3c-8.9-5.3-11.9-16.9-6.6-25.8l0,0l12.9,9.8c3.1,2.7,4,7,2.4,10.6"/>
  <path style="fill:#3333FF;stroke:#FFFFFF;stroke-width:4;stroke-linecap:round;stroke-linejoin:round;stroke-miterlimit:10;" d="
    M240,192.9l21.6-12.3c5.9-4.2,7.3-12.4,3.1-18.3c-4.2-5.9-12.4-7.3-18.3-3.1l-21.1,21.4c-3.9,3.8-4,10.1-0.2,14
    c0.3,0.3,0.5,0.5,0.8,0.8c3.9,3.2,9.6,2.4,13.1-1.2l8.4-11.7"/>
  <ellipse transform="matrix(0.9785 -0.2061 0.2061 0.9785 -34.2621 50.5313)" style="fill:#FFFFFF;" cx="225.4" cy="189.7" rx="2.5" ry="2.5"/>
  <ellipse transform="matrix(0.9785 -0.2061 0.2061 0.9785 -29.7405 54.6517)" style="fill:#FFFFFF;" cx="247.4" cy="170" rx="2.5" ry="2.5"/>
  <path style="fill:#3333FF;stroke:#FFFFFF;stroke-width:4;stroke-linecap:round;stroke-linejoin:round;stroke-miterlimit:10;" d="
    M262.1,162.9c6.6-9.3,4.5-22.2-4.8-28.8l0,0l-8.6,15.5c-1.9,4.1-0.9,8.8,2.2,11.7"/>
  <path style="fill:#3333FF;stroke:#FFFFFF;stroke-width:4;stroke-linecap:round;stroke-linejoin:round;stroke-miterlimit:10;" d="
    M225.1,367c-3.8,1.3-4.7,5.8-0.5,10.6c4,4.6,13.2,4.6,22.5,2.7c8-1.7,35.3-7.9,39.5-9.5c4.4-1.7,7.6-8.8-3.1-9.9
    C272.9,359.8,225.1,367,225.1,367z"/>
  <path style="fill:#3333FF;stroke:#FFFFFF;stroke-width:4;stroke-linecap:round;stroke-linejoin:round;stroke-miterlimit:10;" d="
    M242.1,365.3l-9.1,1.8c-1.7,0.3-2.8,1.8-2.5,3.5c0.3,1.7,0.9,4.5,6.1,3.3l44-8.4c2.7-0.4,4.6-2.8,4.5-5.5l-1.7-41.6
    c1.1,0.3,2.4,1.4,3.6,1.6c15,2.7,29.2-4.4,31.9-19.4c2.7-15-7.4-29.4-22.4-32c-15-2.7-29.4,7.4-32,22.4c-0.6,3.2-0.6,6.4,0,9.4
    l7.9,48.9c0.5,2.9-1.5,5.6-4.4,6.1l-37.4,6.1l0.1,0c-2.4,0.4-4.1,2.7-3.7,5.1c0.3,1.9,1.7,3.3,3.5,3.6"/>
  <path style="fill:#FFFFFF;" d="M252.5,372.6c-3.7-8.3-10-9.5-10-9.5c-0.5-1.5,0.6-3.3,0.6-3.3l-5.2,0.8c-2.4,4.1-1.1,5.2-1.1,5.2
    s7.3,2.6,10,8.9c0.4,0.9,1.4,1.5,2.4,1.3l1.7-0.3C252.4,375.4,253.1,373.9,252.5,372.6z"/>
  <path style="fill:#3333FF;stroke:#FFFFFF;stroke-width:4;stroke-linecap:round;stroke-linejoin:round;stroke-miterlimit:10;" d="
    M278.3,198.4"/>
  <path style="fill:#3333FF;stroke:#FFFFFF;stroke-width:4;stroke-linecap:round;stroke-linejoin:round;stroke-miterlimit:10;" d="
    M347.3,323c7.9,20.8,31.2,31.4,52,23.5c20.5-7.7,31-30.3,23.9-50.9c-0.5-2.2,0.9-4.3,3-4.8c2.2-0.5,4.3,0.9,4.8,3l0,0
    c10.4,27.5-3.5,58.1-31,68.5c-27.5,10.4-58.1-3.5-68.5-31"/>
  <path style="fill:#3333FF;stroke:#FFFFFF;stroke-width:4;stroke-linecap:round;stroke-linejoin:round;stroke-miterlimit:10;" d="
    M258.5,213.9c3.6,0.4,6.3,3.7,5.9,7.3"/>
  <path style="fill:#3333FF;stroke:#FFFFFF;stroke-width:4;stroke-linecap:round;stroke-linejoin:round;stroke-miterlimit:10;" d="
    M256.3,202.9c-8.6,6.4-12.4,17.4-9.8,27.5l0,0l25.5,74c7.1,17.9,27.4,26.7,45.3,19.6c17.9-7.1,26.7-27.4,19.6-45.3l-42-68.1
    c-3.8-6.4-9.8-10.6-16.5-12.3"/>
  <path style="fill:#3333FF;stroke:#FFFFFF;stroke-width:4;stroke-linecap:round;stroke-linejoin:round;stroke-miterlimit:10;" d="
    M294.9,210.7c-6.6-11.2-18.2-12.6-18.2-12.6c-10.3,0-18.6,8.3-18.6,18.6h0c0.5,7.7-3.7,14.6-10.1,17.9l18,52.4
    c24.8-5.7,47.8-18.8,54.4-35L294.9,210.7z M282,228.5c-7.2,0-13-5.8-13-13c0-7.2,5.8-13,13-13c7.2,0,13,5.8,13,13
    C295,222.6,289.2,228.5,282,228.5z"/>
  <polygon style="fill:#FFFFFF;" points="266.1,235 263.9,237.3 263.4,234.2 260.5,232.8 263.3,231.3 263.7,228.1 266,230.4 
    269.2,229.7 267.7,232.6 269.3,235.4 "/>
  <polygon style="fill:#FFFFFF;" points="278.2,268.9 276,271.3 275.4,268.1 272.5,266.8 275.4,265.3 275.7,262.1 278,264.3 
    281.2,263.7 279.8,266.6 281.3,269.4 "/>
  <polygon style="fill:#FFFFFF;" points="281.9,255.3 280.8,256.5 280.5,254.9 279.1,254.3 280.5,253.5 280.7,251.9 281.8,253 
    283.4,252.7 282.7,254.2 283.5,255.6 "/>
  <polygon style="fill:#FFFFFF;" points="280.5,244.9 278.3,247.3 277.8,244.1 274.9,242.8 277.7,241.3 278.1,238.1 280.4,240.3 
    283.5,239.7 282.1,242.6 283.7,245.4 "/>
  <polygon style="fill:#FFFFFF;" points="261.2,251.7 259,254.1 258.5,250.9 255.6,249.6 258.4,248.1 258.8,244.9 261.1,247.1 
    264.3,246.5 262.8,249.4 264.4,252.2 "/>
  <path style="fill:#3333FF;stroke:#FFFFFF;stroke-width:4;stroke-linecap:round;stroke-linejoin:round;stroke-miterlimit:10;" d="
    M258.5,390.1c-3.7,1.6-5.3,8-0.8,12.6c4.5,4.6,14.2,4.8,21.7,1.4c7.5-3.4,37.3-15.7,41.3-17.6c4.3-2.1,6.3-7.2-4.4-7.4
    C305.5,378.9,258.5,390.1,258.5,390.1z"/>
  <path style="fill:#3333FF;stroke:#FFFFFF;stroke-width:4;stroke-linecap:round;stroke-linejoin:round;stroke-miterlimit:10;" d="
    M264,396c-2.1-0.1-3.9-1.4-4.7-3.4c-0.9-2.7,0.5-5.6,3.1-6.5l-0.1,0l41.2-14.5c3.2-1.1,4.9-4.6,3.8-7.8L290,316.7l0-0.1
    c-1.2-3.3-1.9-6.9-1.9-10.7c0-17.6,14.2-31.9,31.8-31.9c17.6,0,31.9,14.2,31.9,31.8c0,17.6-14.2,31.9-31.8,31.9
    c-1.4,0-2.8-0.1-4.1-0.3l7.9,35.8c0.7,3-1,6.1-4,7.1l-51.3,18c-1.8,0.6-3.8-0.3-4.5-2.2c-0.6-1.8,0.3-3.8,2.2-4.5l6.8-2.2"/>
  <line style="fill:#3333FF;stroke:#FFFFFF;stroke-width:4;stroke-linecap:round;stroke-linejoin:round;stroke-miterlimit:10;" x1="317.2" y1="342.9" x2="313.8" y2="328.1"/>
  <path style="fill:#FFFFFF;" d="M285.6,395.9c-3.8-9.2-11.9-8.2-11.9-8.2c-1.5-2.6,1.1-5.7,1.1-5.7l-5.6,2c-2.4,4.1-0.3,7.2-0.3,7.2
    s8.9,0.2,11.7,6.7c0.3,0.6,1,1,1.7,0.7l2.5-0.9C285.5,397.4,285.8,396.6,285.6,395.9z"/>
  <polyline style="fill:none;stroke:#FFFFFF;stroke-width:4;stroke-linecap:round;stroke-linejoin:round;stroke-miterlimit:10;" points="
    133.9,382.6 254.1,275.2 273.7,270.8 294.7,244.5 "/>
  <polygon style="fill:#3333FF;stroke:#FFFFFF;stroke-width:4;stroke-linecap:round;stroke-linejoin:round;stroke-miterlimit:10;" points="
    228.2,284.6 234.9,271.3 239.2,267.1 254.1,275.2 234.6,292.5 "/>
  <path style="fill:#3333FF;stroke:#FFFFFF;stroke-width:4;stroke-linecap:round;stroke-linejoin:round;stroke-miterlimit:10;" d="
    M285,210.5c3.6,0.6,6.1,4,5.5,7.6"/>
  <path style="fill:#3333FF;stroke:#FFFFFF;stroke-width:4;stroke-linecap:round;stroke-linejoin:round;stroke-miterlimit:10;" d="
    M278,221.7l-1.5,17.1c-0.1,0.8-0.3,1.6-0.8,2.4l-14.2,26.9c-0.4,0.8-0.6,1.6-0.5,2.5l0.4,3.9c0.3,2.6,2.9,4.3,5.4,3.4l2.6-0.9
    c2.1-0.7,3.2-2.9,2.6-5v0c-0.3-1.1-0.2-2.3,0.4-3.2L288,240c0.7-0.9,1.1-1.9,1.1-3l1.3-19.1"/>
  <polygon style="fill:#3333FF;stroke:#FFFFFF;stroke-width:4;stroke-linecap:round;stroke-linejoin:round;stroke-miterlimit:10;" points="
    294.6,244.3 285.6,240.2 279.3,250 287.6,253.5 "/>
  <ellipse style="fill:none;stroke:#FFFFFF;stroke-width:4;stroke-linecap:round;stroke-linejoin:round;stroke-miterlimit:10;" cx="133.9" cy="382.6" rx="31.6" ry="11.1"/>
  <path style="fill:none;stroke:#FFFFFF;stroke-width:4;stroke-linecap:round;stroke-linejoin:round;stroke-miterlimit:10;" d="
    M102.4,383.7v6.9c0,6.1,14.1,11.1,31.6,11.1c17.4,0,31.6-5,31.6-11.1v-7.9"/>
  <polyline style="fill:none;stroke:#FFFFFF;stroke-width:4;stroke-linecap:round;stroke-linejoin:round;stroke-miterlimit:10;" points="
    102.4,382.6 133.9,382.6 155.8,390.7 "/>
</g>

<g id="f5" class="frame">
  <circle style="fill:#3333FF;" cx="250" cy="250" r="234.7"/>
  <circle style="fill:#3333FF;" cx="250" cy="250" r="234.7"/>
  <path style="fill:none;stroke:#FFFFFF;stroke-width:4;stroke-linecap:round;stroke-linejoin:round;stroke-miterlimit:10;" d="
    M11.6,261.1c0,0.2,93.3,54.1,234.7,39.4c141.4-14.7,223.9,62.3,238.8,78.8"/>
  <g>
    <path style="fill:none;stroke:#FFFFFF;stroke-width:4;stroke-linecap:round;stroke-linejoin:round;stroke-miterlimit:10;" d="
      M4.7,223.1c9.3,0,9.3,5,18.7,5c9.3,0,9.3-5,18.7-5c9.3,0,9.3,5,18.7,5c9.3,0,9.3-5,18.7-5c9.3,0,9.3,5,18.7,5c9.3,0,9.3-5,18.7-5
      c9.3,0,9.3,5,18.7,5c9.3,0,9.3-5,18.7-5c9.3,0,9.3,5,18.7,5c9.3,0,9.3-5,18.7-5c9.3,0,9.3,5,18.7,5c9.3,0,9.3-5,18.7-5
      c9.3,0,9.3,5,18.7,5c9.3,0,9.3-5,18.7-5c9.3,0,9.3,5,18.7,5c9.3,0,9.3-5,18.7-5c9.3,0,9.3,5,18.7,5c9.3,0,9.3-5,18.7-5
      c9.3,0,9.3,5,18.7,5c9.3,0,9.3-5,18.7-5c9.3,0,9.3,5,18.7,5c9.3,0,9.3-5,18.7-5c9.3,0,9.3,5,18.7,5c9.3,0,9.3-5,18.7-5
      c9.3,0,9.3,5,18.7,5c9.3,0,9.3-5,18.7-5"/>
  </g>
  <circle style="fill:none;stroke:#FFFFFF;stroke-width:4;stroke-linecap:round;stroke-linejoin:round;stroke-miterlimit:10;" cx="381.6" cy="47.5" r="49.1"/>
  <line style="fill:none;stroke:#FFFFFF;stroke-width:4;stroke-linecap:round;stroke-linejoin:round;stroke-miterlimit:10;" x1="383.4" y1="111.7" x2="383.4" y2="137.5"/>
  <line style="fill:none;stroke:#FFFFFF;stroke-width:4;stroke-linecap:round;stroke-linejoin:round;stroke-miterlimit:10;" x1="415.3" y1="102.2" x2="428.2" y2="124.5"/>
  <line style="fill:none;stroke:#FFFFFF;stroke-width:4;stroke-linecap:round;stroke-linejoin:round;stroke-miterlimit:10;" x1="438.1" y1="78" x2="460.5" y2="90.9"/>
  <line style="fill:none;stroke:#FFFFFF;stroke-width:4;stroke-linecap:round;stroke-linejoin:round;stroke-miterlimit:10;" x1="325.1" y1="16.9" x2="302.8" y2="4"/>
  <line style="fill:none;stroke:#FFFFFF;stroke-width:4;stroke-linecap:round;stroke-linejoin:round;stroke-miterlimit:10;" x1="317.4" y1="49.2" x2="291.6" y2="49.2"/>
  <line style="fill:none;stroke:#FFFFFF;stroke-width:4;stroke-linecap:round;stroke-linejoin:round;stroke-miterlimit:10;" x1="326.9" y1="81.1" x2="304.6" y2="94"/>
  <line style="fill:none;stroke:#FFFFFF;stroke-width:4;stroke-linecap:round;stroke-linejoin:round;stroke-miterlimit:10;" x1="351.1" y1="104" x2="338.2" y2="126.3"/>
  <path style="fill:#3333FF;stroke:#FFFFFF;stroke-width:4;stroke-linecap:round;stroke-linejoin:round;stroke-miterlimit:10;" d="
    M147.8,249.2l-8.6,12.4L104,237.1c-4-2.8-4.6-8-1.9-12c2.7-3.8,3.1-11.4-0.7-14L97,208l20,13.9l3.3,8.2L147.8,249.2z"/>
  <ellipse transform="matrix(0.5712 -0.8208 0.8208 0.5712 -142.9154 191.5282)" style="fill:#FFFFFF;" cx="111.9" cy="232.6" rx="2.8" ry="2.8"/>
  <ellipse transform="matrix(0.5712 -0.8208 0.8208 0.5712 -144.0555 200.4826)" style="fill:#FFFFFF;" cx="119.9" cy="238.1" rx="2.8" ry="2.8"/>
  <ellipse transform="matrix(0.5712 -0.8208 0.8208 0.5712 -145.1956 209.4383)" style="fill:#FFFFFF;" cx="127.9" cy="243.7" rx="2.8" ry="2.8"/>
  <ellipse transform="matrix(0.5712 -0.8208 0.8208 0.5712 -146.3359 218.3958)" style="fill:#FFFFFF;" cx="135.9" cy="249.3" rx="2.8" ry="2.8"/>
  <ellipse transform="matrix(0.5712 -0.8208 0.8208 0.5712 -147.4759 227.3504)" style="fill:#FFFFFF;" cx="143.9" cy="254.8" rx="2.8" ry="2.8"/>
  <line style="fill:none;stroke:#FFFFFF;stroke-width:4;stroke-linecap:round;stroke-linejoin:round;stroke-miterlimit:10;" x1="163.6" y1="206.6" x2="138.5" y2="242.7"/>
  <path style="fill:#3333FF;stroke:#FFFFFF;stroke-width:4;stroke-linecap:round;stroke-linejoin:round;stroke-miterlimit:10;" d="
    M156.1,227.4c4.4-6.3,10.4-9.6,13.5-7.4L147,204.2c-3.1-2.2-9.2,1.1-13.5,7.4c-4.4,6.3-5.3,13.1-2.2,15.3l22.6,15.8
    C150.8,240.5,151.8,233.6,156.1,227.4z"/>
  <path style="fill:#3333FF;" d="M94,248.1c7.1,0,7.1,5,14.3,5c7.2,0,7.2-5,14.3-5c7.1,0,7.1,5,14.3,5c7.2,0,7.2-5,14.3-5
    s7.2,5,14.3,5v23.7H94V248.1z"/>
  <path style="fill:none;stroke:#FFFFFF;stroke-width:4;stroke-linecap:round;stroke-linejoin:round;stroke-miterlimit:10;" d="
    M94,248.1c7.1,0,7.1,5,14.3,5c7.2,0,7.2-5,14.3-5c7.1,0,7.1,5,14.3,5c7.2,0,7.2-5,14.3-5s7.2,5,14.3,5"/>
  <path style="fill:none;stroke:#FFFFFF;stroke-width:4;stroke-linecap:round;stroke-linejoin:round;stroke-miterlimit:10;" d="
    M282.7,235"/>
  <line style="fill:none;stroke:#FFFFFF;stroke-width:4;stroke-linecap:round;stroke-linejoin:round;stroke-miterlimit:10;" x1="124.6" y1="341.6" x2="119.8" y2="324.4"/>
  <line style="fill:none;stroke:#FFFFFF;stroke-width:4;stroke-linecap:round;stroke-linejoin:round;stroke-miterlimit:10;" x1="94.5" y1="363.3" x2="79" y2="354.6"/>
  <line style="fill:none;stroke:#FFFFFF;stroke-width:4;stroke-linecap:round;stroke-linejoin:round;stroke-miterlimit:10;" x1="177.1" y1="414.2" x2="192.6" y2="423"/>
  <line style="fill:none;stroke:#FFFFFF;stroke-width:4;stroke-linecap:round;stroke-linejoin:round;stroke-miterlimit:10;" x1="183" y1="377.6" x2="200.2" y2="372.8"/>
  <line style="fill:none;stroke:#FFFFFF;stroke-width:4;stroke-linecap:round;stroke-linejoin:round;stroke-miterlimit:10;" x1="161.3" y1="347.5" x2="170" y2="332"/>
  <path style="fill:#3333FF;stroke:#FFFFFF;stroke-width:4;stroke-linecap:round;stroke-linejoin:round;stroke-miterlimit:10;" d="
    M225.1,367c-3.8,1.3-4.7,5.8-0.5,10.6c4,4.6,13.2,4.6,22.5,2.7c8-1.7,35.3-7.9,39.5-9.5c4.4-1.7,7.6-8.8-3.1-9.9
    C272.9,359.8,225.1,367,225.1,367z"/>
  <path style="fill:#3333FF;stroke:#FFFFFF;stroke-width:4;stroke-linecap:round;stroke-linejoin:round;stroke-miterlimit:10;" d="
    M242.1,365.3l-9.1,1.8c-1.7,0.3-2.8,1.8-2.5,3.5c0.3,1.7,0.9,4.5,6.1,3.3l44-8.4c2.7-0.4,4.6-2.8,4.5-5.5l-1.7-41.6
    c1.1,0.3,2.4,1.4,3.6,1.6c15,2.7,29.2-4.4,31.9-19.4c2.7-15-7.4-29.4-22.4-32c-15-2.7-29.4,7.4-32,22.4c-0.6,3.2-0.6,6.4,0,9.4
    l7.9,48.9c0.5,2.9-1.5,5.6-4.4,6.1l-37.4,6.1l0.1,0c-2.4,0.4-4.1,2.7-3.7,5.1c0.3,1.9,1.7,3.3,3.5,3.6"/>
  <path style="fill:#FFFFFF;" d="M252.5,372.6c-3.7-8.3-10-9.5-10-9.5c-0.5-1.5,0.6-3.3,0.6-3.3l-5.2,0.8c-2.4,4.1-1.1,5.2-1.1,5.2
    s7.3,2.6,10,8.9c0.4,0.9,1.4,1.5,2.4,1.3l1.7-0.3C252.4,375.4,253.1,373.9,252.5,372.6z"/>
  <path style="fill:#3333FF;stroke:#FFFFFF;stroke-width:4;stroke-linecap:round;stroke-linejoin:round;stroke-miterlimit:10;" d="
    M278.3,198.4"/>
  <path style="fill:#3333FF;stroke:#FFFFFF;stroke-width:4;stroke-linecap:round;stroke-linejoin:round;stroke-miterlimit:10;" d="
    M280.1,198.9l-15.5-23.8l-14.4,12c3.8,5.5,3.6,13.4,1.7,20.3"/>
  <path style="fill:#3333FF;stroke:#FFFFFF;stroke-width:4;stroke-linecap:round;stroke-linejoin:round;stroke-miterlimit:10;" d="
    M347.3,323c7.9,20.8,31.2,31.4,52,23.5c20.5-7.7,31-30.3,23.9-50.9c-0.5-2.2,0.9-4.3,3-4.8c2.2-0.5,4.3,0.9,4.8,3l0,0
    c10.4,27.5-3.5,58.1-31,68.5c-27.5,10.4-58.1-3.5-68.5-31"/>
  <path style="fill:#3333FF;stroke:#FFFFFF;stroke-width:4;stroke-linecap:round;stroke-linejoin:round;stroke-miterlimit:10;" d="
    M258.5,213.9c3.6,0.4,6.3,3.7,5.9,7.3"/>
  <path style="fill:#3333FF;stroke:#FFFFFF;stroke-width:4;stroke-linecap:round;stroke-linejoin:round;stroke-miterlimit:10;" d="
    M256.3,202.9c-8.6,6.4-12.4,17.4-9.8,27.5l0,0l25.5,74c7.1,17.9,27.4,26.7,45.3,19.6c17.9-7.1,26.7-27.4,19.6-45.3l-42-68.1
    c-3.8-6.4-9.8-10.6-16.5-12.3"/>
  <path style="fill:#3333FF;stroke:#FFFFFF;stroke-width:4;stroke-linecap:round;stroke-linejoin:round;stroke-miterlimit:10;" d="
    M294.9,210.7c-6.6-11.2-18.2-12.6-18.2-12.6c-10.3,0-18.6,8.3-18.6,18.6h0c0.5,7.7-3.7,14.6-10.1,17.9l18,52.4
    c24.8-5.7,47.8-18.8,54.4-35L294.9,210.7z M282,228.5c-7.2,0-13-5.8-13-13c0-7.2,5.8-13,13-13c7.2,0,13,5.8,13,13
    C295,222.6,289.2,228.5,282,228.5z"/>
  <polygon style="fill:#FFFFFF;" points="266.1,235 263.9,237.3 263.4,234.2 260.5,232.8 263.3,231.3 263.7,228.1 266,230.4 
    269.2,229.7 267.7,232.6 269.3,235.4 "/>
  <polygon style="fill:#FFFFFF;" points="278.2,268.9 276,271.3 275.4,268.1 272.5,266.8 275.4,265.3 275.7,262.1 278,264.3 
    281.2,263.7 279.8,266.6 281.3,269.4 "/>
  <polygon style="fill:#FFFFFF;" points="281.9,255.3 280.8,256.5 280.5,254.9 279.1,254.3 280.5,253.5 280.7,251.9 281.8,253 
    283.4,252.7 282.7,254.2 283.5,255.6 "/>
  <polygon style="fill:#FFFFFF;" points="280.5,244.9 278.3,247.3 277.8,244.1 274.9,242.8 277.7,241.3 278.1,238.1 280.4,240.3 
    283.5,239.7 282.1,242.6 283.7,245.4 "/>
  <polygon style="fill:#FFFFFF;" points="261.2,251.7 259,254.1 258.5,250.9 255.6,249.6 258.4,248.1 258.8,244.9 261.1,247.1 
    264.3,246.5 262.8,249.4 264.4,252.2 "/>
  <path style="fill:#3333FF;stroke:#FFFFFF;stroke-width:4;stroke-linecap:round;stroke-linejoin:round;stroke-miterlimit:10;" d="
    M258.5,390.1c-3.7,1.6-5.3,8-0.8,12.6c4.5,4.6,14.2,4.8,21.7,1.4c7.5-3.4,37.3-15.7,41.3-17.6c4.3-2.1,6.3-7.2-4.4-7.4
    C305.5,378.9,258.5,390.1,258.5,390.1z"/>
  <path style="fill:#3333FF;stroke:#FFFFFF;stroke-width:4;stroke-linecap:round;stroke-linejoin:round;stroke-miterlimit:10;" d="
    M264,396c-2.1-0.1-3.9-1.4-4.7-3.4c-0.9-2.7,0.5-5.6,3.1-6.5l-0.1,0l41.2-14.5c3.2-1.1,4.9-4.6,3.8-7.8L290,316.7l0-0.1
    c-1.2-3.3-1.9-6.9-1.9-10.7c0-17.6,14.2-31.9,31.8-31.9c17.6,0,31.9,14.2,31.9,31.8c0,17.6-14.2,31.9-31.8,31.9
    c-1.4,0-2.8-0.1-4.1-0.3l7.9,35.8c0.7,3-1,6.1-4,7.1l-51.3,18c-1.8,0.6-3.8-0.3-4.5-2.2c-0.6-1.8,0.3-3.8,2.2-4.5l6.8-2.2"/>
  <line style="fill:#3333FF;stroke:#FFFFFF;stroke-width:4;stroke-linecap:round;stroke-linejoin:round;stroke-miterlimit:10;" x1="317.2" y1="342.9" x2="313.8" y2="328.1"/>
  <path style="fill:#FFFFFF;" d="M285.6,395.9c-3.8-9.2-11.9-8.2-11.9-8.2c-1.5-2.6,1.1-5.7,1.1-5.7l-5.6,2c-2.4,4.1-0.3,7.2-0.3,7.2
    s8.9,0.2,11.7,6.7c0.3,0.6,1,1,1.7,0.7l2.5-0.9C285.5,397.4,285.8,396.6,285.6,395.9z"/>
  <polyline style="fill:none;stroke:#FFFFFF;stroke-width:4;stroke-linecap:round;stroke-linejoin:round;stroke-miterlimit:10;" points="
    133.9,382.6 254.1,275.2 273.7,270.8 294.7,244.5 "/>
  <polygon style="fill:#3333FF;stroke:#FFFFFF;stroke-width:4;stroke-linecap:round;stroke-linejoin:round;stroke-miterlimit:10;" points="
    228.2,284.6 234.9,271.3 239.2,267.1 254.1,275.2 234.6,292.5 "/>
  <path style="fill:#3333FF;stroke:#FFFFFF;stroke-width:4;stroke-linecap:round;stroke-linejoin:round;stroke-miterlimit:10;" d="
    M285,210.5c3.6,0.6,6.1,4,5.5,7.6"/>
  <path style="fill:#3333FF;stroke:#FFFFFF;stroke-width:4;stroke-linecap:round;stroke-linejoin:round;stroke-miterlimit:10;" d="
    M278,221.7l-1.5,17.1c-0.1,0.8-0.3,1.6-0.8,2.4l-14.2,26.9c-0.4,0.8-0.6,1.6-0.5,2.5l0.4,3.9c0.3,2.6,2.9,4.3,5.4,3.4l2.6-0.9
    c2.1-0.7,3.2-2.9,2.6-5v0c-0.3-1.1-0.2-2.3,0.4-3.2L288,240c0.7-0.9,1.1-1.9,1.1-3l1.3-19"/>
  <polygon style="fill:#3333FF;stroke:#FFFFFF;stroke-width:4;stroke-linecap:round;stroke-linejoin:round;stroke-miterlimit:10;" points="
    294.6,244.3 285.6,240.2 279.3,250 287.6,253.5 "/>
  <ellipse style="fill:none;stroke:#FFFFFF;stroke-width:4;stroke-linecap:round;stroke-linejoin:round;stroke-miterlimit:10;" cx="133.9" cy="382.6" rx="31.6" ry="11.1"/>
  <path style="fill:none;stroke:#FFFFFF;stroke-width:4;stroke-linecap:round;stroke-linejoin:round;stroke-miterlimit:10;" d="
    M102.4,383.7v6.9c0,6.1,14.1,11.1,31.6,11.1c17.4,0,31.6-5,31.6-11.1v-7.9"/>
  <polyline style="fill:none;stroke:#FFFFFF;stroke-width:4;stroke-linecap:round;stroke-linejoin:round;stroke-miterlimit:10;" points="
    102.4,382.6 133.9,382.6 155.8,390.7 "/>
  <path style="fill:#3333FF;stroke:#FFFFFF;stroke-width:4;stroke-linecap:round;stroke-linejoin:round;stroke-miterlimit:10;" d="
    M240.8,159.2c-10-5.4-13.8-18-8.4-28l0,0l14.6,10.1c3.5,2.8,4.7,7.5,3.1,11.5"/>
  <path style="fill:#3333FF;stroke:#FFFFFF;stroke-width:4;stroke-linecap:round;stroke-linejoin:round;stroke-miterlimit:10;" d="
    M265.9,159.2c10-5.4,13.8-18,8.4-28l0,0l-14.6,10.1c-3.5,2.8-4.7,7.5-3.1,11.5"/>
  <path style="fill:#3333FF;stroke:#FFFFFF;stroke-width:4;stroke-linecap:round;stroke-linejoin:round;stroke-miterlimit:10;" d="
    M253.4,149.7c-7.2,0-13,5.8-13,13c0,0.7,0.1,1.3,0.1,2l3.9,21.9c0.6,4.4,4.4,7.7,8.9,7.7c4.5,0,8.3-3.4,8.9-7.7l3.9-21.9
    c0.1-0.6,0.1-1.3,0.1-2C266.4,155.6,260.5,149.7,253.4,149.7z"/>
  <ellipse transform="matrix(0.9785 -0.2061 0.2061 0.9785 -28.387 56.8011)" style="fill:#FFFFFF;" cx="258.4" cy="164.6" rx="2.5" ry="2.5"/>
  <ellipse transform="matrix(0.9785 -0.2062 0.2062 0.9785 -28.6058 54.7344)" style="fill:#FFFFFF;" cx="248.3" cy="164.6" rx="2.5" ry="2.5"/>
  <path style="fill:#FFFFFF;" d="M257.3,182.9c0.5,1.3-0.9,2.7-3.1,2.9c-2.2,0.3-4.3-0.6-4.8-1.9c-0.5-1.3,0.9-2.7,3.1-2.9
    C254.7,180.7,256.8,181.6,257.3,182.9z"/>
</g>

<g id="f6" class="frame">
  <circle style="fill:#3333FF;" cx="250" cy="250" r="234.7"/>
  <circle style="fill:#3333FF;" cx="250" cy="250" r="234.7"/>
  <path style="fill:none;stroke:#FFFFFF;stroke-width:4;stroke-linecap:round;stroke-linejoin:round;stroke-miterlimit:10;" d="
    M11.6,261.1c0,0.2,93.3,54.1,234.7,39.4c141.4-14.7,223.9,62.3,238.8,78.8"/>
  <g>
    <path style="fill:none;stroke:#FFFFFF;stroke-width:4;stroke-linecap:round;stroke-linejoin:round;stroke-miterlimit:10;" d="
      M4.7,223.1c9.3,0,9.3,5,18.7,5c9.3,0,9.3-5,18.7-5c9.3,0,9.3,5,18.7,5c9.3,0,9.3-5,18.7-5c9.3,0,9.3,5,18.7,5c9.3,0,9.3-5,18.7-5
      c9.3,0,9.3,5,18.7,5c9.3,0,9.3-5,18.7-5c9.3,0,9.3,5,18.7,5c9.3,0,9.3-5,18.7-5c9.3,0,9.3,5,18.7,5c9.3,0,9.3-5,18.7-5
      c9.3,0,9.3,5,18.7,5c9.3,0,9.3-5,18.7-5c9.3,0,9.3,5,18.7,5c9.3,0,9.3-5,18.7-5c9.3,0,9.3,5,18.7,5c9.3,0,9.3-5,18.7-5
      c9.3,0,9.3,5,18.7,5c9.3,0,9.3-5,18.7-5c9.3,0,9.3,5,18.7,5c9.3,0,9.3-5,18.7-5c9.3,0,9.3,5,18.7,5c9.3,0,9.3-5,18.7-5
      c9.3,0,9.3,5,18.7,5c9.3,0,9.3-5,18.7-5"/>
  </g>
  <circle style="fill:none;stroke:#FFFFFF;stroke-width:4;stroke-linecap:round;stroke-linejoin:round;stroke-miterlimit:10;" cx="381.6" cy="47.5" r="49.1"/>
  <line style="fill:none;stroke:#FFFFFF;stroke-width:4;stroke-linecap:round;stroke-linejoin:round;stroke-miterlimit:10;" x1="383.4" y1="111.7" x2="383.4" y2="137.5"/>
  <line style="fill:none;stroke:#FFFFFF;stroke-width:4;stroke-linecap:round;stroke-linejoin:round;stroke-miterlimit:10;" x1="415.3" y1="102.2" x2="428.2" y2="124.5"/>
  <line style="fill:none;stroke:#FFFFFF;stroke-width:4;stroke-linecap:round;stroke-linejoin:round;stroke-miterlimit:10;" x1="438.1" y1="78" x2="460.5" y2="90.9"/>
  <line style="fill:none;stroke:#FFFFFF;stroke-width:4;stroke-linecap:round;stroke-linejoin:round;stroke-miterlimit:10;" x1="445.8" y1="45.7" x2="471.6" y2="45.7"/>
  <line style="fill:none;stroke:#FFFFFF;stroke-width:4;stroke-linecap:round;stroke-linejoin:round;stroke-miterlimit:10;" x1="325.1" y1="16.9" x2="302.8" y2="4"/>
  <line style="fill:none;stroke:#FFFFFF;stroke-width:4;stroke-linecap:round;stroke-linejoin:round;stroke-miterlimit:10;" x1="317.4" y1="49.2" x2="291.6" y2="49.2"/>
  <line style="fill:none;stroke:#FFFFFF;stroke-width:4;stroke-linecap:round;stroke-linejoin:round;stroke-miterlimit:10;" x1="326.9" y1="81.1" x2="304.6" y2="94"/>
  <line style="fill:none;stroke:#FFFFFF;stroke-width:4;stroke-linecap:round;stroke-linejoin:round;stroke-miterlimit:10;" x1="351.1" y1="104" x2="338.2" y2="126.3"/>
  <path style="fill:#3333FF;stroke:#FFFFFF;stroke-width:4;stroke-linecap:round;stroke-linejoin:round;stroke-miterlimit:10;" d="
    M147.8,256.9l-8.6,12.4L104,244.8c-4-2.8-4.6-8-1.9-12c2.7-3.8,3.1-11.4-0.7-14l-4.4-3.1l20,13.9l3.3,8.2L147.8,256.9z"/>
  <ellipse transform="matrix(0.5712 -0.8208 0.8208 0.5712 -149.2512 194.8378)" style="fill:#FFFFFF;" cx="111.9" cy="240.3" rx="2.8" ry="2.8"/>
  <ellipse transform="matrix(0.5712 -0.8208 0.8208 0.5712 -150.3918 203.7963)" style="fill:#FFFFFF;" cx="119.9" cy="245.8" rx="2.8" ry="2.8"/>
  <ellipse transform="matrix(0.5712 -0.8208 0.8208 0.5712 -151.5314 212.748)" style="fill:#FFFFFF;" cx="127.9" cy="251.4" rx="2.8" ry="2.8"/>
  <ellipse transform="matrix(0.5712 -0.8208 0.8208 0.5712 -152.6717 221.7055)" style="fill:#FFFFFF;" cx="135.9" cy="257" rx="2.8" ry="2.8"/>
  <ellipse transform="matrix(0.5712 -0.8208 0.8208 0.5712 -153.8117 230.6601)" style="fill:#FFFFFF;" cx="143.9" cy="262.6" rx="2.8" ry="2.8"/>
  <line style="fill:none;stroke:#FFFFFF;stroke-width:4;stroke-linecap:round;stroke-linejoin:round;stroke-miterlimit:10;" x1="163.6" y1="214.3" x2="138.5" y2="250.4"/>
  <path style="fill:#3333FF;stroke:#FFFFFF;stroke-width:4;stroke-linecap:round;stroke-linejoin:round;stroke-miterlimit:10;" d="
    M156.1,235.1c4.4-6.3,10.4-9.6,13.5-7.4L147,212c-3.1-2.2-9.2,1.1-13.5,7.4c-4.4,6.3-5.3,13.1-2.2,15.3l22.6,15.8
    C150.8,248.2,151.8,241.3,156.1,235.1z"/>
  <path style="fill:#3333FF;" d="M165.5,248.1c-7.1,0-7.1,5-14.3,5c-7.2,0-7.2-5-14.3-5c-7.1,0-7.1,5-14.3,5c-7.2,0-7.2-5-14.3-5
    c-7.2,0-7.2,5-14.3,5v23.7h71.5V248.1z"/>
  <path style="fill:none;stroke:#FFFFFF;stroke-width:4;stroke-linecap:round;stroke-linejoin:round;stroke-miterlimit:10;" d="
    M165.5,248.1c-7.1,0-7.1,5-14.3,5c-7.2,0-7.2-5-14.3-5c-7.1,0-7.1,5-14.3,5c-7.2,0-7.2-5-14.3-5c-7.2,0-7.2,5-14.3,5"/>
  <path style="fill:none;stroke:#FFFFFF;stroke-width:4;stroke-linecap:round;stroke-linejoin:round;stroke-miterlimit:10;" d="
    M282.7,235"/>
  <line style="fill:none;stroke:#FFFFFF;stroke-width:4;stroke-linecap:round;stroke-linejoin:round;stroke-miterlimit:10;" x1="107.4" y1="349.4" x2="101.9" y2="342.4"/>
  <line style="fill:none;stroke:#FFFFFF;stroke-width:4;stroke-linecap:round;stroke-linejoin:round;stroke-miterlimit:10;" x1="87.9" y1="381" x2="79.1" y2="380"/>
  <line style="fill:none;stroke:#FFFFFF;stroke-width:4;stroke-linecap:round;stroke-linejoin:round;stroke-miterlimit:10;" x1="164.2" y1="428.1" x2="169.7" y2="435.1"/>
  <line style="fill:none;stroke:#FFFFFF;stroke-width:4;stroke-linecap:round;stroke-linejoin:round;stroke-miterlimit:10;" x1="183.7" y1="396.5" x2="192.5" y2="397.6"/>
  <line style="fill:none;stroke:#FFFFFF;stroke-width:4;stroke-linecap:round;stroke-linejoin:round;stroke-miterlimit:10;" x1="175.1" y1="360.4" x2="182.1" y2="354.9"/>
  <line style="fill:none;stroke:#FFFFFF;stroke-width:4;stroke-linecap:round;stroke-linejoin:round;stroke-miterlimit:10;" x1="143.5" y1="340.9" x2="144.6" y2="332"/>
  <path style="fill:#3333FF;stroke:#FFFFFF;stroke-width:4;stroke-linecap:round;stroke-linejoin:round;stroke-miterlimit:10;" d="
    M225.1,367c-3.8,1.3-4.7,5.8-0.5,10.6c4,4.6,13.2,4.6,22.5,2.7c8-1.7,35.3-7.9,39.5-9.5c4.4-1.7,7.6-8.8-3.1-9.9
    C272.9,359.8,225.1,367,225.1,367z"/>
  <path style="fill:#3333FF;stroke:#FFFFFF;stroke-width:4;stroke-linecap:round;stroke-linejoin:round;stroke-miterlimit:10;" d="
    M242.1,365.3l-9.1,1.8c-1.7,0.3-2.8,1.8-2.5,3.5c0.3,1.7,0.9,4.5,6.1,3.3l44-8.4c2.7-0.4,4.6-2.8,4.5-5.5l-1.7-41.6
    c1.1,0.3,2.4,1.4,3.6,1.6c15,2.7,29.2-4.4,31.9-19.4c2.7-15-7.4-29.4-22.4-32c-15-2.7-29.4,7.4-32,22.4c-0.6,3.2-0.6,6.4,0,9.4
    l7.9,48.9c0.5,2.9-1.5,5.6-4.4,6.1l-37.4,6.1l0.1,0c-2.4,0.4-4.1,2.7-3.7,5.1c0.3,1.9,1.7,3.3,3.5,3.6"/>
  <path style="fill:#FFFFFF;" d="M252.5,372.6c-3.7-8.3-10-9.5-10-9.5c-0.5-1.5,0.6-3.3,0.6-3.3l-5.2,0.8c-2.4,4.1-1.1,5.2-1.1,5.2
    s7.3,2.6,10,8.9c0.4,0.9,1.4,1.5,2.4,1.3l1.7-0.3C252.4,375.4,253.1,373.9,252.5,372.6z"/>
  <path style="fill:#3333FF;stroke:#FFFFFF;stroke-width:4;stroke-linecap:round;stroke-linejoin:round;stroke-miterlimit:10;" d="
    M278.3,198.4"/>
  <path style="fill:#3333FF;stroke:#FFFFFF;stroke-width:4;stroke-linecap:round;stroke-linejoin:round;stroke-miterlimit:10;" d="
    M280.1,198.9l-15.5-23.8l-14.4,12c3.8,5.5,3.6,13.4,1.7,20.3"/>
  <path style="fill:#3333FF;stroke:#FFFFFF;stroke-width:4;stroke-linecap:round;stroke-linejoin:round;stroke-miterlimit:10;" d="
    M347.3,323c7.9,20.8,31.2,31.4,52,23.5c20.5-7.7,31-30.3,23.9-50.9c-0.5-2.2,0.9-4.3,3-4.8c2.2-0.5,4.3,0.9,4.8,3l0,0
    c10.4,27.5-3.5,58.1-31,68.5c-27.5,10.4-58.1-3.5-68.5-31"/>
  <path style="fill:#3333FF;stroke:#FFFFFF;stroke-width:4;stroke-linecap:round;stroke-linejoin:round;stroke-miterlimit:10;" d="
    M258.5,213.9c3.6,0.4,6.3,3.7,5.9,7.3"/>
  <path style="fill:#3333FF;stroke:#FFFFFF;stroke-width:4;stroke-linecap:round;stroke-linejoin:round;stroke-miterlimit:10;" d="
    M256.3,202.9c-8.6,6.4-12.4,17.4-9.8,27.5l0,0l25.5,74c7.1,17.9,27.4,26.7,45.3,19.6c17.9-7.1,26.7-27.4,19.6-45.3l-42-68.1
    c-3.8-6.4-9.8-10.6-16.5-12.3"/>
  <path style="fill:#3333FF;stroke:#FFFFFF;stroke-width:4;stroke-linecap:round;stroke-linejoin:round;stroke-miterlimit:10;" d="
    M294.9,210.7c-6.6-11.2-18.2-12.6-18.2-12.6c-10.3,0-18.6,8.3-18.6,18.6h0c0.5,7.7-3.7,14.6-10.1,17.9l18,52.4
    c24.8-5.7,47.8-18.8,54.4-35L294.9,210.7z M282,228.5c-7.2,0-13-5.8-13-13c0-7.2,5.8-13,13-13c7.2,0,13,5.8,13,13
    C295,222.6,289.2,228.5,282,228.5z"/>
  <polygon style="fill:#FFFFFF;" points="266.1,235 263.9,237.3 263.4,234.2 260.5,232.8 263.3,231.3 263.7,228.1 266,230.4 
    269.2,229.7 267.7,232.6 269.3,235.4 "/>
  <polygon style="fill:#FFFFFF;" points="278.2,268.9 276,271.3 275.4,268.1 272.5,266.8 275.4,265.3 275.7,262.1 278,264.3 
    281.2,263.7 279.8,266.6 281.3,269.4 "/>
  <polygon style="fill:#FFFFFF;" points="281.9,255.3 280.8,256.5 280.5,254.9 279.1,254.3 280.5,253.5 280.7,251.9 281.8,253 
    283.4,252.7 282.7,254.2 283.5,255.6 "/>
  <polygon style="fill:#FFFFFF;" points="280.5,244.9 278.3,247.3 277.8,244.1 274.9,242.8 277.7,241.3 278.1,238.1 280.4,240.3 
    283.5,239.7 282.1,242.6 283.7,245.4 "/>
  <polygon style="fill:#FFFFFF;" points="261.2,251.7 259,254.1 258.5,250.9 255.6,249.6 258.4,248.1 258.8,244.9 261.1,247.1 
    264.3,246.5 262.8,249.4 264.4,252.2 "/>
  <path style="fill:#3333FF;stroke:#FFFFFF;stroke-width:4;stroke-linecap:round;stroke-linejoin:round;stroke-miterlimit:10;" d="
    M258.5,390.1c-3.7,1.6-5.3,8-0.8,12.6c4.5,4.6,14.2,4.8,21.7,1.4c7.5-3.4,37.3-15.7,41.3-17.6c4.3-2.1,6.3-7.2-4.4-7.4
    C305.5,378.9,258.5,390.1,258.5,390.1z"/>
  <path style="fill:#3333FF;stroke:#FFFFFF;stroke-width:4;stroke-linecap:round;stroke-linejoin:round;stroke-miterlimit:10;" d="
    M264,396c-2.1-0.1-3.9-1.4-4.7-3.4c-0.9-2.7,0.5-5.6,3.1-6.5l-0.1,0l41.2-14.5c3.2-1.1,4.9-4.6,3.8-7.8L290,316.7l0-0.1
    c-1.2-3.3-1.9-6.9-1.9-10.7c0-17.6,14.2-31.9,31.8-31.9c17.6,0,31.9,14.2,31.9,31.8c0,17.6-14.2,31.9-31.8,31.9
    c-1.4,0-2.8-0.1-4.1-0.3l7.9,35.8c0.7,3-1,6.1-4,7.1l-51.3,18c-1.8,0.6-3.8-0.3-4.5-2.2c-0.6-1.8,0.3-3.8,2.2-4.5l6.8-2.2"/>
  <line style="fill:#3333FF;stroke:#FFFFFF;stroke-width:4;stroke-linecap:round;stroke-linejoin:round;stroke-miterlimit:10;" x1="317.2" y1="342.9" x2="313.8" y2="328.1"/>
  <path style="fill:#FFFFFF;" d="M285.6,395.9c-3.8-9.2-11.9-8.2-11.9-8.2c-1.5-2.6,1.1-5.7,1.1-5.7l-5.6,2c-2.4,4.1-0.3,7.2-0.3,7.2
    s8.9,0.2,11.7,6.7c0.3,0.6,1,1,1.7,0.7l2.5-0.9C285.5,397.4,285.8,396.6,285.6,395.9z"/>
  <polyline style="fill:none;stroke:#FFFFFF;stroke-width:4;stroke-linecap:round;stroke-linejoin:round;stroke-miterlimit:10;" points="
    133.9,382.6 254.1,275.2 273.7,270.8 294.7,244.5 "/>
  <polygon style="fill:#3333FF;stroke:#FFFFFF;stroke-width:4;stroke-linecap:round;stroke-linejoin:round;stroke-miterlimit:10;" points="
    228.2,284.6 234.9,271.3 239.2,267.1 254.1,275.2 234.6,292.5 "/>
  <path style="fill:#3333FF;stroke:#FFFFFF;stroke-width:4;stroke-linecap:round;stroke-linejoin:round;stroke-miterlimit:10;" d="
    M285,210.6c3.6,0.6,6.1,4,5.5,7.6"/>
  <path style="fill:#3333FF;stroke:#FFFFFF;stroke-width:4;stroke-linecap:round;stroke-linejoin:round;stroke-miterlimit:10;" d="
    M278,221.7l-1.5,17.1c-0.1,0.8-0.3,1.6-0.8,2.4l-14.2,26.9c-0.4,0.8-0.6,1.6-0.5,2.5l0.4,3.9c0.3,2.6,2.9,4.3,5.4,3.4l2.6-0.9
    c2.1-0.7,3.2-2.9,2.6-5v0c-0.3-1.1-0.2-2.3,0.4-3.2L288,240c0.7-0.9,1.1-1.9,1.1-3l1.3-19"/>
  <polygon style="fill:#3333FF;stroke:#FFFFFF;stroke-width:4;stroke-linecap:round;stroke-linejoin:round;stroke-miterlimit:10;" points="
    294.6,244.3 285.6,240.2 279.3,250 287.6,253.5 "/>
  <ellipse style="fill:none;stroke:#FFFFFF;stroke-width:4;stroke-linecap:round;stroke-linejoin:round;stroke-miterlimit:10;" cx="133.9" cy="382.6" rx="31.6" ry="11.1"/>
  <path style="fill:none;stroke:#FFFFFF;stroke-width:4;stroke-linecap:round;stroke-linejoin:round;stroke-miterlimit:10;" d="
    M102.4,383.7v6.9c0,6.1,14.1,11.1,31.6,11.1c17.4,0,31.6-5,31.6-11.1v-7.9"/>
  <polyline style="fill:none;stroke:#FFFFFF;stroke-width:4;stroke-linecap:round;stroke-linejoin:round;stroke-miterlimit:10;" points="
    102.4,382.6 133.9,382.6 155.8,390.7 "/>
  <path style="fill:#3333FF;stroke:#FFFFFF;stroke-width:4;stroke-linecap:round;stroke-linejoin:round;stroke-miterlimit:10;" d="
    M240.8,159.2c-10-5.4-13.8-18-8.4-28l0,0l14.6,10.1c3.5,2.8,4.7,7.5,3.1,11.5"/>
  <path style="fill:#3333FF;stroke:#FFFFFF;stroke-width:4;stroke-linecap:round;stroke-linejoin:round;stroke-miterlimit:10;" d="
    M265.9,159.2c10-5.4,13.8-18,8.4-28l0,0l-14.6,10.1c-3.5,2.8-4.7,7.5-3.1,11.5"/>
  <path style="fill:#3333FF;stroke:#FFFFFF;stroke-width:4;stroke-linecap:round;stroke-linejoin:round;stroke-miterlimit:10;" d="
    M253.4,149.7c-7.2,0-13,5.8-13,13c0,0.7,0.1,1.3,0.1,2l3.9,21.9c0.6,4.4,4.4,7.7,8.9,7.7c4.5,0,8.3-3.4,8.9-7.7l3.9-21.9
    c0.1-0.6,0.1-1.3,0.1-2C266.4,155.6,260.5,149.7,253.4,149.7z"/>
  <ellipse transform="matrix(0.9785 -0.2061 0.2061 0.9785 -28.387 56.8011)" style="fill:#FFFFFF;" cx="258.4" cy="164.6" rx="2.5" ry="2.5"/>
  <ellipse transform="matrix(0.9785 -0.2062 0.2062 0.9785 -28.6058 54.7344)" style="fill:#FFFFFF;" cx="248.3" cy="164.6" rx="2.5" ry="2.5"/>
  <path style="fill:#FFFFFF;" d="M257.3,182.9c0.5,1.3-0.9,2.7-3.1,2.9c-2.2,0.3-4.3-0.6-4.8-1.9c-0.5-1.3,0.9-2.7,3.1-2.9
    C254.7,180.7,256.8,181.6,257.3,182.9z"/>
</g>


<style>
  .frame {
    display: none;
  }
</style>


<script>
  var f1 = document.getElementById('f1')
  var f2 = document.getElementById('f2')
  var f3 = document.getElementById('f3')
  var f4 = document.getElementById('f4')
  var f5 = document.getElementById('f5')
  var f6 = document.getElementById('f6')

  var animate = function(now,time,end) {
    return function(){
      now();
      setTimeout(end,time);
    }
  }

  var ds = function(el,st){
    return function(){
      el.style.display = st;
    }
  }
  var playit = function() {

    animate(
      ds(f1,'block'),
      500,
      animate(
        ds(f2,'block'),
        500,
        animate(
          ds(f3,'block'),
          500,
          animate(
            ds(f4,'block'),
            500,
            animate(
              ds(f5,'block'),
              500,
              animate(
                ds(f6,'block'),
                500,
                function(){
                  ds(f1,'none')();
                  ds(f2,'none')();
                  ds(f3,'none')();
                  ds(f4,'none')();
                  ds(f5,'none')();
                  ds(f6,'none')();
                  playit();
                }
              )
            )
          )
        )
      )
    )()
  }
  playit();
</script>



</svg>