<svg xmlns="http://www.w3.org/2000/svg" viewBox="0 0 840.14 248.27"><defs><style>.cls-1{fill:#fff;}</style></defs><title>Asset 1</title><g id="Layer_2" data-name="Layer 2"><g id="Layer_1-2" data-name="Layer 1"><path class="cls-1" d="M776.86,33.59h-.05c-37.26,0-63.28,25.91-63.28,63v62.32c0,28.61,16.6,45,45.55,45h24.69V107c0-11.43,4.44-12.34,10.25-12.34,1.36,0,46.13,1.91,46.13,1.91,0-37.1-26-63-63.28-63"/><path class="cls-1" d="M603.2,107.55c2.34-21,43.7-21.53,43.2,0Zm25.51-73.08c-46.46-3.24-86.87,33.35-90.24,81.72s31.56,90.24,78,93.46,72.15-25.71,81.23-51.4a4.14,4.14,0,0,0-4.2-5.49c-12.68.87-42.14,2-63.82,2-31.51,0-28.53-16.43-28.53-16.43s104.23-.12,104.33-.66a90.14,90.14,0,0,0,1.23-9.76c3.38-48.37-31.56-90.21-78-93.46"/><path class="cls-1" d="M442.78,147.41c-13.44,0-15-11.93-15-26.65s3-26.65,15-26.65,15,11.93,15,26.65-1.55,26.65-15,26.65m4.93-113.3c-56.61,0-90.4,34.57-90.4,92.48v75.88c0,39.86,25.93,45.81,41.38,45.81h29.12V202.63c6.78,3.33,15.2,5.49,25.63,5.49,46.47,0,78.93-37.07,78.93-90.14,0-49.39-34.81-83.88-84.66-83.88"/><path class="cls-1" d="M279.9,79.23v51.11c0,16.51-6.55,16.51-12.34,16.51-3.73,0-10,0-10-18.34V38.9H227.15c-27,0-41.9,14.32-41.9,40.33v51.11c0,49.1,31.55,78.4,84.4,78.4,53.42,0,82.84-28.31,82.84-79.71V38.9H322.06c-18.1,0-42.16,4.18-42.16,40.33"/><path class="cls-1" d="M145.36,143.13H106l21.4-23.75,25.33-27.21c16.46-18.38,32.6-32.8,32.6-54.93S185.47,0,185.47,0H.45V29c0,19.5,17.43,34.77,39.67,34.77H79.84l-48,51a222.74,222.74,0,0,0-19.71,22.34l-.35.37A43.23,43.23,0,0,0,0,166.9l0,39.28H185V177.9c0-19.5-17.43-34.77-39.67-34.77"/><path class="cls-1" d="M811.39,190.69h-4.72v-2.51H819v2.51h-4.7v13.26h-2.87Z"/><path class="cls-1" d="M821.2,188.18h3.2l4.5,10.31.68,1.74h.14l.66-1.74,4.43-10.31H838v15.77h-2.85V193.73H835l-.43,1.4-3.82,8.81h-2.14l-4-9-.43-1.42H824v10.39H821.2Z"/></g></g></svg>
