<svg id="Layer_1" data-name="Layer 1" xmlns="http://www.w3.org/2000/svg" xmlns:xlink="http://www.w3.org/1999/xlink" viewBox="0 0 1255.91 1384.06"><defs><style>.cls-1,.cls-16,.cls-4,.cls-7{fill:none;}.cls-13,.cls-2{fill:#fff;}.cls-15,.cls-16,.cls-18,.cls-2,.cls-4,.cls-5,.cls-6,.cls-7,.cls-8{stroke:#33f;}.cls-15,.cls-18,.cls-2,.cls-4,.cls-5,.cls-7,.cls-8{stroke-linecap:round;stroke-linejoin:round;}.cls-15,.cls-18,.cls-2,.cls-4,.cls-5,.cls-8{stroke-width:2px;}.cls-3{fill:#e1f4ff;}.cls-17,.cls-5,.cls-6{fill:#33f;}.cls-16,.cls-6{stroke-miterlimit:10;}.cls-6,.cls-7{stroke-width:4px;}.cls-8{fill:#5de9ff;}.cls-9{clip-path:url(#clip-path);}.cls-10{clip-path:url(#clip-path-2);}.cls-11{fill:#2fa5b2;opacity:0.35;}.cls-12,.cls-18{fill:#ebebeb;}.cls-14{clip-path:url(#clip-path-3);}.cls-15{fill:#ffc51b;}.cls-16{stroke-width:5px;}</style><clipPath id="clip-path" transform="translate(-341.35 -114)"><circle class="cls-1" cx="960.71" cy="726.47" r="612.47"/></clipPath><clipPath id="clip-path-2" transform="translate(-341.35 -114)"><rect class="cls-1" x="1329.97" y="901.63" width="29.91" height="44.68"/></clipPath><clipPath id="clip-path-3" transform="translate(-341.35 -114)"><polygon class="cls-2" points="579.17 1076.3 438.46 1076.3 438.46 512.57 579.17 416.04 579.17 1076.3"/></clipPath></defs><title>Illustration_2</title><circle class="cls-3" cx="619.36" cy="612.47" r="612.47"/><path class="cls-4" d="M1198,928.69a21.31,21.31,0,0,1,36.55,6.09" transform="translate(-341.35 -114)"/><path class="cls-4" d="M1232.59,930.88a13.06,13.06,0,0,1,19.69,11.25" transform="translate(-341.35 -114)"/><line class="cls-4" x1="780.65" y1="828.13" x2="836" y2="828.13"/><line class="cls-4" x1="761.01" y1="828.13" x2="771.86" y2="828.13"/><path class="cls-4" d="M1177.35,942.13A13.06,13.06,0,0,1,1201,932" transform="translate(-341.35 -114)"/><path class="cls-4" d="M783.35,548.13a27.09,27.09,0,0,1,46.46,7.74" transform="translate(-341.35 -114)"/><path class="cls-4" d="M827.35,550.91a16.6,16.6,0,0,1,25,14.3" transform="translate(-341.35 -114)"/><line class="cls-4" x1="345.42" y1="451.21" x2="415.78" y2="451.21"/><line class="cls-4" x1="320.47" y1="451.21" x2="334.26" y2="451.21"/><path class="cls-4" d="M757.13,565.21a16.6,16.6,0,0,1,30.08-12.89" transform="translate(-341.35 -114)"/><path class="cls-4" d="M1102.55,683.31A27.09,27.09,0,0,1,1149,691" transform="translate(-341.35 -114)"/><path class="cls-4" d="M1146.55,686.08a16.6,16.6,0,0,1,25,14.3" transform="translate(-341.35 -114)"/><line class="cls-4" x1="664.63" y1="586.39" x2="734.98" y2="586.39"/><line class="cls-4" x1="639.67" y1="586.39" x2="653.46" y2="586.39"/><path class="cls-4" d="M1076.34,700.39a16.6,16.6,0,0,1,30.08-12.89" transform="translate(-341.35 -114)"/><path class="cls-5" d="M1281.22,556.79a117.63,117.63,0,0,0-117.63-117.63h79.64a114.62,114.62,0,0,0-114.62-114.62h-37.14A159.16,159.16,0,0,0,975.1,274.12h0a159.16,159.16,0,0,0-116.38,50.42H821.58A114.62,114.62,0,0,0,707,439.16h79.64A117.63,117.63,0,0,0,669,556.79v67.82h42.39a103.49,103.49,0,0,0,0,146.35l13.7,13.7,9.39-9.39A121.1,121.1,0,0,1,820.1,739.8h75.55A158.85,158.85,0,0,0,975.1,761h0a158.85,158.85,0,0,0,79.45-21.19h75.55a121.1,121.1,0,0,1,85.63,35.47l9.39,9.39,13.7-13.7a103.49,103.49,0,0,0,0-146.35h42.39Z" transform="translate(-341.35 -114)"/><rect class="cls-2" x="474.1" y="231.57" width="319.29" height="486.88" rx="159.65" ry="159.65"/><path class="cls-6" d="M1052.47,639.47a33.77,33.77,0,0,0-23.88-9.89h-107a33.77,33.77,0,0,0-23.88,9.89L846.1,711.27h35.34A46,46,0,0,0,914,697.79l30.92-24.54a8.47,8.47,0,0,1,5.27-1.84H1000a8.47,8.47,0,0,1,5.27,1.84l30.92,24.54a46,46,0,0,0,32.55,13.48h35.34Z" transform="translate(-341.35 -114)"/><circle class="cls-5" cx="572" cy="422.08" r="18.52"/><circle class="cls-5" cx="695.49" cy="422.08" r="18.52"/><rect class="cls-2" x="426.47" y="403.56" width="47.63" height="112.02" rx="17.78" ry="17.78"/><path class="cls-2" d="M1158.56,629.58h0a23.81,23.81,0,0,0,23.81-23.81V541.37a23.81,23.81,0,0,0-23.81-23.81h0a23.81,23.81,0,0,0-23.81,23.81v64.39A23.81,23.81,0,0,0,1158.56,629.58Z" transform="translate(-341.35 -114)"/><path class="cls-7" d="M948.64,464.63h-52a18.52,18.52,0,0,0-18.52,18.52h0" transform="translate(-341.35 -114)"/><path class="cls-7" d="M1001.56,464.63h52a18.52,18.52,0,0,1,18.52,18.52h0" transform="translate(-341.35 -114)"/><path class="cls-2" d="M975.1,634h0a28.62,28.62,0,0,1-28.29-33l13.74-89.07a13.94,13.94,0,0,1,13.78-11.82h0a13.94,13.94,0,0,1,13.74,11.59l15.23,88.83A28.62,28.62,0,0,1,975.1,634Z" transform="translate(-341.35 -114)"/><rect class="cls-2" x="1049.34" y="268.78" width="136.3" height="563.74"/><rect class="cls-2" x="1067.79" y="219.22" width="99.41" height="49.44"/><rect class="cls-2" x="1094.22" y="207.74" width="46.54" height="11.48"/><polyline class="cls-4" points="1067.79 244.63 1067.79 232.17 1167.19 232.17 1167.19 244.63"/><polyline class="cls-4" points="1167.19 248.9 1167.19 258.2 1067.79 258.2 1067.79 248.9"/><polyline class="cls-4" points="1185.64 268.38 1185.64 280.84 1049.34 280.84 1049.34 268.38"/><rect class="cls-4" x="1049.34" y="308.14" width="136.3" height="12.46"/><rect class="cls-4" x="1049.34" y="347.9" width="136.3" height="12.46"/><rect class="cls-4" x="1049.34" y="387.66" width="136.3" height="12.46"/><rect class="cls-4" x="1049.34" y="427.42" width="136.3" height="12.46"/><rect class="cls-4" x="1049.34" y="467.18" width="136.3" height="12.46"/><rect class="cls-4" x="1049.34" y="506.94" width="136.3" height="12.46"/><rect class="cls-4" x="1049.34" y="546.7" width="136.3" height="12.46"/><rect class="cls-4" x="1049.34" y="586.46" width="136.3" height="12.46"/><rect class="cls-4" x="1049.34" y="626.22" width="136.3" height="12.46"/><rect class="cls-4" x="1049.34" y="665.97" width="136.3" height="12.46"/><rect class="cls-8" x="1049.34" y="705.73" width="136.3" height="12.46"/><rect class="cls-8" x="1049.34" y="725.61" width="136.3" height="12.46"/><line class="cls-4" x1="1117.49" y1="207.74" x2="1117.49" y2="159.64"/><g class="cls-9"><polygon class="cls-2" points="962.73 1003.87 900.75 1003.87 900.75 988.45 831.52 988.45 831.52 498.59 1031.95 498.59 1031.95 988.45 962.73 988.45 962.73 1003.87"/><rect class="cls-2" x="823.1" y="487.37" width="217.26" height="11.21"/><rect class="cls-2" x="831.85" y="988.45" width="68.89" height="15.42"/><rect class="cls-2" x="962.73" y="988.45" width="69.22" height="15.42"/><rect class="cls-2" x="900.74" y="923.4" width="61.98" height="80.47"/><rect class="cls-8" x="1224.81" y="1066.6" width="68.55" height="22.05" transform="translate(1995.36 -295.45) rotate(90)"/><rect class="cls-8" x="1252.82" y="1066.6" width="68.55" height="22.05" transform="translate(2023.37 -323.46) rotate(90)"/><rect class="cls-2" x="893.54" y="917.71" width="76.39" height="5.69"/><rect class="cls-8" x="843.85" y="516.11" width="31.01" height="44.68"/><rect class="cls-2" x="840.24" y="560.78" width="38.22" height="5.69"/><rect class="cls-2" x="840.24" y="510.42" width="38.22" height="5.69"/><rect class="cls-8" x="843.85" y="516.11" width="31.01" height="44.68"/><rect class="cls-2" x="840.24" y="560.78" width="38.22" height="5.69"/><rect class="cls-2" x="840.24" y="510.42" width="38.22" height="5.69"/><rect class="cls-8" x="892.1" y="516.11" width="31.01" height="44.68"/><rect class="cls-2" x="888.5" y="560.78" width="38.22" height="5.69"/><rect class="cls-2" x="888.5" y="510.42" width="38.22" height="5.69"/><rect class="cls-8" x="892.1" y="516.11" width="31.01" height="44.68"/><rect class="cls-2" x="888.5" y="560.78" width="38.22" height="5.69"/><rect class="cls-2" x="888.5" y="510.42" width="38.22" height="5.69"/><rect class="cls-8" x="940.36" y="516.11" width="31.01" height="44.68"/><rect class="cls-2" x="936.76" y="560.78" width="38.22" height="5.69"/><rect class="cls-2" x="936.76" y="510.42" width="38.22" height="5.69"/><rect class="cls-8" x="940.36" y="516.11" width="31.01" height="44.68"/><rect class="cls-2" x="936.76" y="560.78" width="38.22" height="5.69"/><rect class="cls-2" x="936.76" y="510.42" width="38.22" height="5.69"/><rect class="cls-8" x="988.61" y="516.11" width="31.01" height="44.68"/><rect class="cls-2" x="985.01" y="560.78" width="38.22" height="5.69"/><rect class="cls-2" x="985.01" y="510.42" width="38.22" height="5.69"/><rect class="cls-8" x="988.61" y="516.11" width="31.01" height="44.68"/><rect class="cls-2" x="985.01" y="560.78" width="38.22" height="5.69"/><rect class="cls-2" x="985.01" y="510.42" width="38.22" height="5.69"/><rect class="cls-8" x="843.85" y="583.99" width="31.01" height="44.68"/><rect class="cls-2" x="840.24" y="628.66" width="38.22" height="5.69"/><rect class="cls-2" x="840.24" y="578.3" width="38.22" height="5.69"/><rect class="cls-8" x="843.85" y="583.99" width="31.01" height="44.68"/><rect class="cls-2" x="840.24" y="628.66" width="38.22" height="5.69"/><rect class="cls-2" x="840.24" y="578.3" width="38.22" height="5.69"/><rect class="cls-8" x="892.1" y="583.99" width="31.01" height="44.68"/><rect class="cls-2" x="888.5" y="628.66" width="38.22" height="5.69"/><rect class="cls-2" x="888.5" y="578.3" width="38.22" height="5.69"/><rect class="cls-8" x="892.1" y="583.99" width="31.01" height="44.68"/><rect class="cls-2" x="888.5" y="628.66" width="38.22" height="5.69"/><rect class="cls-2" x="888.5" y="578.3" width="38.22" height="5.69"/><rect class="cls-8" x="940.36" y="583.99" width="31.01" height="44.68"/><rect class="cls-2" x="936.76" y="628.66" width="38.22" height="5.69"/><rect class="cls-2" x="936.76" y="578.3" width="38.22" height="5.69"/><rect class="cls-8" x="940.36" y="583.99" width="31.01" height="44.68"/><rect class="cls-2" x="936.76" y="628.66" width="38.22" height="5.69"/><rect class="cls-2" x="936.76" y="578.3" width="38.22" height="5.69"/><rect class="cls-8" x="988.61" y="583.99" width="31.01" height="44.68"/><rect class="cls-2" x="985.01" y="628.66" width="38.22" height="5.69"/><rect class="cls-2" x="985.01" y="578.3" width="38.22" height="5.69"/><rect class="cls-8" x="988.61" y="583.99" width="31.01" height="44.68"/><rect class="cls-2" x="985.01" y="628.66" width="38.22" height="5.69"/><rect class="cls-2" x="985.01" y="578.3" width="38.22" height="5.69"/><rect class="cls-8" x="843.85" y="787.63" width="31.01" height="44.68"/><rect class="cls-2" x="840.24" y="832.31" width="38.22" height="5.69"/><rect class="cls-2" x="840.24" y="781.95" width="38.22" height="5.69"/><rect class="cls-8" x="843.85" y="787.63" width="31.01" height="44.68"/><rect class="cls-2" x="840.24" y="832.31" width="38.22" height="5.69"/><rect class="cls-2" x="840.24" y="781.95" width="38.22" height="5.69"/><rect class="cls-8" x="892.1" y="787.63" width="31.01" height="44.68"/><rect class="cls-2" x="888.5" y="832.31" width="38.22" height="5.69"/><rect class="cls-2" x="888.5" y="781.95" width="38.22" height="5.69"/><rect class="cls-8" x="892.1" y="787.63" width="31.01" height="44.68"/><rect class="cls-2" x="888.5" y="832.31" width="38.22" height="5.69"/><rect class="cls-2" x="888.5" y="781.95" width="38.22" height="5.69"/><rect class="cls-8" x="940.36" y="787.63" width="31.01" height="44.68"/><rect class="cls-2" x="936.76" y="832.31" width="38.22" height="5.69"/><rect class="cls-2" x="936.76" y="781.95" width="38.22" height="5.69"/><rect class="cls-8" x="940.36" y="787.63" width="31.01" height="44.68"/><rect class="cls-2" x="936.76" y="832.31" width="38.22" height="5.69"/><rect class="cls-2" x="936.76" y="781.95" width="38.22" height="5.69"/><rect class="cls-8" x="988.61" y="787.63" width="31.01" height="44.68"/><rect class="cls-2" x="985.01" y="832.31" width="38.22" height="5.69"/><rect class="cls-2" x="985.01" y="781.95" width="38.22" height="5.69"/><rect class="cls-8" x="988.61" y="787.63" width="31.01" height="44.68"/><rect class="cls-2" x="985.01" y="832.31" width="38.22" height="5.69"/><rect class="cls-2" x="985.01" y="781.95" width="38.22" height="5.69"/><rect class="cls-8" x="843.85" y="855.52" width="31.01" height="44.68"/><rect class="cls-2" x="840.24" y="900.19" width="38.22" height="5.69"/><rect class="cls-2" x="840.24" y="849.83" width="38.22" height="5.69"/><rect class="cls-8" x="843.85" y="855.52" width="31.01" height="44.68"/><rect class="cls-2" x="840.24" y="900.19" width="38.22" height="5.69"/><rect class="cls-2" x="840.24" y="849.83" width="38.22" height="5.69"/><rect class="cls-8" x="892.1" y="855.52" width="31.01" height="44.68"/><rect class="cls-2" x="888.5" y="900.19" width="38.22" height="5.69"/><rect class="cls-2" x="888.5" y="849.83" width="38.22" height="5.69"/><rect class="cls-8" x="892.1" y="855.52" width="31.01" height="44.68"/><rect class="cls-2" x="888.5" y="900.19" width="38.22" height="5.69"/><rect class="cls-2" x="888.5" y="849.83" width="38.22" height="5.69"/><rect class="cls-8" x="940.36" y="855.52" width="31.01" height="44.68"/><rect class="cls-2" x="936.76" y="900.19" width="38.22" height="5.69"/><rect class="cls-2" x="936.76" y="849.83" width="38.22" height="5.69"/><rect class="cls-8" x="940.36" y="855.52" width="31.01" height="44.68"/><rect class="cls-2" x="936.76" y="900.19" width="38.22" height="5.69"/><rect class="cls-2" x="936.76" y="849.83" width="38.22" height="5.69"/><rect class="cls-8" x="988.61" y="855.52" width="31.01" height="44.68"/><rect class="cls-2" x="985.01" y="900.19" width="38.22" height="5.69"/><rect class="cls-2" x="985.01" y="849.83" width="38.22" height="5.69"/><rect class="cls-8" x="988.61" y="855.52" width="31.01" height="44.68"/><rect class="cls-2" x="985.01" y="900.19" width="38.22" height="5.69"/><rect class="cls-2" x="985.01" y="849.83" width="38.22" height="5.69"/><rect class="cls-8" x="843.85" y="923.4" width="31.01" height="44.68"/><rect class="cls-2" x="840.24" y="968.07" width="38.22" height="5.69"/><rect class="cls-2" x="840.24" y="917.71" width="38.22" height="5.69"/><rect class="cls-8" x="843.85" y="923.4" width="31.01" height="44.68"/><rect class="cls-2" x="840.24" y="968.07" width="38.22" height="5.69"/><rect class="cls-2" x="840.24" y="917.71" width="38.22" height="5.69"/><rect class="cls-8" x="988.61" y="923.4" width="31.01" height="44.68"/><rect class="cls-2" x="985.01" y="968.07" width="38.22" height="5.69"/><rect class="cls-2" x="985.01" y="917.71" width="38.22" height="5.69"/><rect class="cls-8" x="988.61" y="923.4" width="31.01" height="44.68"/><rect class="cls-2" x="985.01" y="968.07" width="38.22" height="5.69"/><rect class="cls-2" x="985.01" y="917.71" width="38.22" height="5.69"/><rect class="cls-8" x="843.85" y="719.75" width="31.01" height="44.68"/><rect class="cls-2" x="840.24" y="764.43" width="38.22" height="5.69"/><rect class="cls-2" x="840.24" y="714.07" width="38.22" height="5.69"/><rect class="cls-8" x="843.85" y="719.75" width="31.01" height="44.68"/><rect class="cls-2" x="840.24" y="764.43" width="38.22" height="5.69"/><rect class="cls-2" x="840.24" y="714.07" width="38.22" height="5.69"/><rect class="cls-8" x="892.1" y="719.75" width="31.01" height="44.68"/><rect class="cls-2" x="888.5" y="764.43" width="38.22" height="5.69"/><rect class="cls-2" x="888.5" y="714.07" width="38.22" height="5.69"/><rect class="cls-8" x="892.1" y="719.75" width="31.01" height="44.68"/><rect class="cls-2" x="888.5" y="764.43" width="38.22" height="5.69"/><rect class="cls-2" x="888.5" y="714.07" width="38.22" height="5.69"/><rect class="cls-8" x="940.36" y="719.75" width="31.01" height="44.68"/><rect class="cls-2" x="936.76" y="764.43" width="38.22" height="5.69"/><rect class="cls-2" x="936.76" y="714.07" width="38.22" height="5.69"/><rect class="cls-8" x="940.36" y="719.75" width="31.01" height="44.68"/><rect class="cls-2" x="936.76" y="764.43" width="38.22" height="5.69"/><rect class="cls-2" x="936.76" y="714.07" width="38.22" height="5.69"/><rect class="cls-8" x="988.61" y="719.75" width="31.01" height="44.68"/><rect class="cls-2" x="985.01" y="764.43" width="38.22" height="5.69"/><rect class="cls-2" x="985.01" y="714.07" width="38.22" height="5.69"/><rect class="cls-8" x="988.61" y="719.75" width="31.01" height="44.68"/><rect class="cls-2" x="985.01" y="764.43" width="38.22" height="5.69"/><rect class="cls-2" x="985.01" y="714.07" width="38.22" height="5.69"/><rect class="cls-8" x="843.85" y="651.87" width="31.01" height="44.68"/><rect class="cls-2" x="840.24" y="696.55" width="38.22" height="5.69"/><rect class="cls-2" x="840.24" y="646.19" width="38.22" height="5.69"/><rect class="cls-8" x="843.85" y="651.87" width="31.01" height="44.68"/><rect class="cls-2" x="840.24" y="696.55" width="38.22" height="5.69"/><rect class="cls-2" x="840.24" y="646.19" width="38.22" height="5.69"/><rect class="cls-8" x="892.1" y="651.87" width="31.01" height="44.68"/><rect class="cls-2" x="888.5" y="696.55" width="38.22" height="5.69"/><rect class="cls-2" x="888.5" y="646.19" width="38.22" height="5.69"/><rect class="cls-8" x="892.1" y="651.87" width="31.01" height="44.68"/><rect class="cls-2" x="888.5" y="696.55" width="38.22" height="5.69"/><rect class="cls-2" x="888.5" y="646.19" width="38.22" height="5.69"/><rect class="cls-8" x="940.36" y="651.87" width="31.01" height="44.68"/><rect class="cls-2" x="936.76" y="696.55" width="38.22" height="5.69"/><rect class="cls-2" x="936.76" y="646.19" width="38.22" height="5.69"/><rect class="cls-8" x="940.36" y="651.87" width="31.01" height="44.68"/><rect class="cls-2" x="936.76" y="696.55" width="38.22" height="5.69"/><rect class="cls-2" x="936.76" y="646.19" width="38.22" height="5.69"/><rect class="cls-8" x="988.61" y="651.87" width="31.01" height="44.68"/><rect class="cls-2" x="985.01" y="696.55" width="38.22" height="5.69"/><rect class="cls-2" x="985.01" y="646.19" width="38.22" height="5.69"/><rect class="cls-8" x="988.61" y="651.87" width="31.01" height="44.68"/><rect class="cls-2" x="985.01" y="696.55" width="38.22" height="5.69"/><rect class="cls-2" x="985.01" y="646.19" width="38.22" height="5.69"/><g class="cls-10"><path class="cls-11" d="M994.09,802.52h2a4.44,4.44,0,0,1,4.44,4.44V831.3a0,0,0,0,1,0,0H989.65a0,0,0,0,1,0,0V807a4.44,4.44,0,0,1,4.44-4.44Z"/><path class="cls-11" d="M1348.44,945.3h-6.57V930.37l6.33-6.33a4.44,4.44,0,0,1,6.28,0l1.41,1.41a4.44,4.44,0,0,1,0,6.28l-6,6a4.92,4.92,0,0,0-1.44,3.46Z" transform="translate(-341.35 -114)"/><circle class="cls-11" cx="995.08" cy="798.88" r="3.65"/><circle class="cls-11" cx="1016.31" cy="808.12" r="3.65"/></g><rect class="cls-12" x="106.08" y="1005.32" width="1015.56" height="378.74"/><rect class="cls-2" x="167.38" y="293.69" width="70.44" height="56.68"/><polygon class="cls-13" points="237.81 962.31 97.11 962.31 97.11 398.57 237.81 302.05 237.81 962.31"/><g class="cls-14"><line class="cls-4" x1="107.16" y1="281.39" x2="107.16" y2="963.56"/><line class="cls-4" x1="117.21" y1="281.39" x2="117.21" y2="963.56"/><line class="cls-4" x1="127.26" y1="281.39" x2="127.26" y2="963.56"/><line class="cls-4" x1="137.31" y1="281.39" x2="137.31" y2="963.56"/><line class="cls-4" x1="147.36" y1="281.39" x2="147.36" y2="963.56"/><line class="cls-4" x1="157.41" y1="281.39" x2="157.41" y2="963.56"/><line class="cls-4" x1="167.46" y1="281.39" x2="167.46" y2="963.56"/><line class="cls-4" x1="177.51" y1="281.39" x2="177.51" y2="963.56"/><line class="cls-4" x1="187.56" y1="281.39" x2="187.56" y2="963.56"/><line class="cls-4" x1="197.61" y1="281.39" x2="197.61" y2="963.56"/><line class="cls-4" x1="207.66" y1="281.39" x2="207.66" y2="963.56"/><line class="cls-4" x1="217.71" y1="281.39" x2="217.71" y2="963.56"/><line class="cls-4" x1="227.76" y1="281.39" x2="227.76" y2="963.56"/></g><polygon class="cls-4" points="237.81 962.31 97.11 962.31 97.11 398.57 237.81 302.05 237.81 962.31"/><rect class="cls-15" x="247.11" y="398.72" width="150.67" height="24.97"/><line class="cls-4" x1="269.93" y1="399.72" x2="269.93" y2="422.67"/><line class="cls-4" x1="278.61" y1="399.72" x2="278.61" y2="422.67"/><line class="cls-4" x1="287.28" y1="399.72" x2="287.28" y2="422.67"/><line class="cls-4" x1="374.95" y1="399.72" x2="374.95" y2="422.67"/><line class="cls-4" x1="366.28" y1="399.72" x2="366.28" y2="422.67"/><line class="cls-4" x1="357.61" y1="399.72" x2="357.61" y2="422.67"/><rect class="cls-15" x="259.84" y="423.68" width="150.67" height="24.97"/><line class="cls-4" x1="322.16" y1="447.64" x2="322.16" y2="424.69"/><line class="cls-4" x1="330.84" y1="447.64" x2="330.84" y2="424.69"/><line class="cls-4" x1="339.51" y1="447.64" x2="339.51" y2="424.69"/><rect class="cls-15" x="246.83" y="448.65" width="150.95" height="24.97"/><line class="cls-4" x1="269.93" y1="449.65" x2="269.93" y2="472.6"/><line class="cls-4" x1="278.61" y1="449.65" x2="278.61" y2="472.6"/><line class="cls-4" x1="287.28" y1="449.65" x2="287.28" y2="472.6"/><line class="cls-4" x1="374.95" y1="449.65" x2="374.95" y2="472.6"/><line class="cls-4" x1="366.28" y1="449.65" x2="366.28" y2="472.6"/><line class="cls-4" x1="357.61" y1="449.65" x2="357.61" y2="472.6"/><rect class="cls-15" x="232.82" y="498.58" width="150.67" height="24.97"/><line class="cls-4" x1="255.64" y1="499.58" x2="255.64" y2="522.53"/><line class="cls-4" x1="264.32" y1="499.58" x2="264.32" y2="522.53"/><line class="cls-4" x1="272.99" y1="499.58" x2="272.99" y2="522.53"/><line class="cls-4" x1="360.66" y1="499.58" x2="360.66" y2="522.53"/><line class="cls-4" x1="351.99" y1="499.58" x2="351.99" y2="522.53"/><line class="cls-4" x1="343.32" y1="499.58" x2="343.32" y2="522.53"/><rect class="cls-15" x="246.83" y="473.61" width="150.67" height="24.97"/><line class="cls-4" x1="309.16" y1="497.57" x2="309.16" y2="474.62"/><line class="cls-4" x1="317.83" y1="497.57" x2="317.83" y2="474.62"/><line class="cls-4" x1="326.5" y1="497.57" x2="326.5" y2="474.62"/><rect class="cls-15" x="247.11" y="523.54" width="150.67" height="24.97"/><line class="cls-4" x1="309.44" y1="547.5" x2="309.44" y2="524.55"/><line class="cls-4" x1="318.11" y1="547.5" x2="318.11" y2="524.55"/><line class="cls-4" x1="326.78" y1="547.5" x2="326.78" y2="524.55"/><rect class="cls-15" x="247.11" y="548.51" width="150.67" height="24.97"/><line class="cls-4" x1="269.93" y1="549.51" x2="269.93" y2="572.47"/><line class="cls-4" x1="278.61" y1="549.51" x2="278.61" y2="572.47"/><line class="cls-4" x1="287.28" y1="549.51" x2="287.28" y2="572.47"/><line class="cls-4" x1="383.63" y1="549.51" x2="383.63" y2="572.47"/><line class="cls-4" x1="374.95" y1="549.51" x2="374.95" y2="572.47"/><line class="cls-4" x1="366.28" y1="549.51" x2="366.28" y2="572.47"/><rect class="cls-15" x="247.11" y="598.44" width="150.67" height="24.97"/><line class="cls-4" x1="269.93" y1="599.45" x2="269.93" y2="622.4"/><line class="cls-4" x1="278.61" y1="599.45" x2="278.61" y2="622.4"/><line class="cls-4" x1="287.28" y1="599.45" x2="287.28" y2="622.4"/><line class="cls-4" x1="383.63" y1="599.45" x2="383.63" y2="622.4"/><line class="cls-4" x1="374.95" y1="599.45" x2="374.95" y2="622.4"/><line class="cls-4" x1="366.28" y1="599.45" x2="366.28" y2="622.4"/><rect class="cls-15" x="232.82" y="648.37" width="150.67" height="24.97"/><line class="cls-4" x1="246.97" y1="649.38" x2="246.97" y2="672.33"/><line class="cls-4" x1="255.64" y1="649.38" x2="255.64" y2="672.33"/><line class="cls-4" x1="264.32" y1="649.38" x2="264.32" y2="672.33"/><line class="cls-4" x1="272.99" y1="649.38" x2="272.99" y2="672.33"/><line class="cls-4" x1="369.34" y1="649.38" x2="369.34" y2="672.33"/><line class="cls-4" x1="360.66" y1="649.38" x2="360.66" y2="672.33"/><line class="cls-4" x1="351.99" y1="649.38" x2="351.99" y2="672.33"/><line class="cls-4" x1="343.32" y1="649.38" x2="343.32" y2="672.33"/><rect class="cls-15" x="259.84" y="573.47" width="150.67" height="24.97"/><line class="cls-4" x1="322.16" y1="597.43" x2="322.16" y2="574.48"/><line class="cls-4" x1="330.84" y1="597.43" x2="330.84" y2="574.48"/><line class="cls-4" x1="339.51" y1="597.43" x2="339.51" y2="574.48"/><line class="cls-4" x1="348.18" y1="597.43" x2="348.18" y2="574.48"/><rect class="cls-15" x="247.11" y="623.4" width="150.67" height="24.97"/><line class="cls-4" x1="309.44" y1="647.36" x2="309.44" y2="624.41"/><line class="cls-4" x1="318.11" y1="647.36" x2="318.11" y2="624.41"/><line class="cls-4" x1="326.78" y1="647.36" x2="326.78" y2="624.41"/><polygon class="cls-2" points="275.1 681.65 275.1 594.4 51.19 594.4 51.19 1003.87 275.1 1003.87 407.77 1003.87 407.77 681.65 275.1 681.65"/><rect class="cls-4" x="58.23" y="601.25" width="36.77" height="36.77"/><rect class="cls-4" x="101.49" y="601.25" width="36.77" height="36.77"/><rect class="cls-4" x="144.75" y="601.25" width="36.77" height="36.77"/><rect class="cls-4" x="188.02" y="601.25" width="36.77" height="36.77"/><rect class="cls-4" x="231.28" y="601.25" width="36.77" height="36.77"/><rect class="cls-4" x="58.23" y="644.88" width="36.77" height="36.77"/><rect class="cls-4" x="101.49" y="644.88" width="36.77" height="36.77"/><rect class="cls-4" x="144.75" y="644.88" width="36.77" height="36.77"/><rect class="cls-4" x="188.02" y="644.88" width="36.77" height="36.77"/><rect class="cls-4" x="231.28" y="644.88" width="36.77" height="36.77"/><rect class="cls-4" x="58.23" y="688.51" width="36.77" height="36.77"/><rect class="cls-4" x="101.49" y="688.51" width="36.77" height="36.77"/><rect class="cls-4" x="144.75" y="688.51" width="36.77" height="36.77"/><rect class="cls-4" x="188.02" y="688.51" width="36.77" height="36.77"/><rect class="cls-4" x="231.28" y="688.51" width="36.77" height="36.77"/><rect class="cls-4" x="58.23" y="732.13" width="36.77" height="36.77"/><rect class="cls-4" x="101.49" y="732.13" width="36.77" height="36.77"/><rect class="cls-4" x="144.75" y="732.13" width="36.77" height="36.77"/><rect class="cls-4" x="188.02" y="732.13" width="36.77" height="36.77"/><rect class="cls-4" x="231.28" y="732.13" width="36.77" height="36.77"/><rect class="cls-4" x="58.23" y="775.76" width="36.77" height="36.77"/><rect class="cls-4" x="101.49" y="775.76" width="36.77" height="36.77"/><rect class="cls-4" x="144.75" y="775.76" width="36.77" height="36.77"/><rect class="cls-4" x="188.02" y="775.76" width="36.77" height="36.77"/><rect class="cls-4" x="231.28" y="775.76" width="36.77" height="36.77"/><rect class="cls-4" x="58.23" y="819.38" width="36.77" height="36.77"/><rect class="cls-4" x="101.49" y="819.38" width="36.77" height="36.77"/><rect class="cls-4" x="144.75" y="819.38" width="36.77" height="36.77"/><rect class="cls-4" x="188.02" y="819.38" width="36.77" height="36.77"/><rect class="cls-4" x="231.28" y="819.38" width="36.77" height="36.77"/><rect class="cls-2" x="58.23" y="863.01" width="36.77" height="36.77"/><rect class="cls-2" x="101.49" y="863.01" width="36.77" height="36.77"/><rect class="cls-2" x="144.75" y="863.01" width="36.77" height="36.77"/><rect class="cls-2" x="188.02" y="863.01" width="36.77" height="36.77"/><rect class="cls-2" x="231.28" y="863.01" width="36.77" height="36.77"/><rect class="cls-2" x="58.23" y="906.63" width="36.77" height="36.77"/><rect class="cls-2" x="101.49" y="906.63" width="36.77" height="36.77"/><rect class="cls-2" x="144.75" y="906.63" width="36.77" height="97.24"/><rect class="cls-2" x="188.02" y="906.63" width="36.77" height="36.77"/><rect class="cls-2" x="231.28" y="906.63" width="36.77" height="36.77"/><rect class="cls-2" x="58.23" y="950.26" width="36.77" height="36.77"/><rect class="cls-2" x="101.49" y="950.26" width="36.77" height="36.77"/><rect class="cls-2" x="188.02" y="950.26" width="36.77" height="36.77"/><rect class="cls-2" x="231.28" y="950.26" width="36.77" height="36.77"/><rect class="cls-4" x="275.1" y="688.51" width="36.77" height="36.77"/><rect class="cls-4" x="318.36" y="688.51" width="36.77" height="36.77"/><rect class="cls-4" x="361.62" y="688.51" width="36.77" height="36.77"/><rect class="cls-4" x="275.1" y="732.13" width="36.77" height="36.77"/><rect class="cls-4" x="318.36" y="732.13" width="36.77" height="36.77"/><rect class="cls-4" x="361.62" y="732.13" width="36.77" height="36.77"/><rect class="cls-4" x="275.1" y="775.76" width="36.77" height="36.77"/><rect class="cls-4" x="318.36" y="775.76" width="36.77" height="36.77"/><rect class="cls-4" x="361.62" y="775.76" width="36.77" height="36.77"/><rect class="cls-4" x="275.1" y="819.38" width="36.77" height="36.77"/><rect class="cls-4" x="318.36" y="819.38" width="36.77" height="36.77"/><rect class="cls-4" x="361.62" y="819.38" width="36.77" height="36.77"/><rect class="cls-4" x="275.1" y="863.01" width="36.77" height="36.77"/><rect class="cls-4" x="318.36" y="863.01" width="36.77" height="36.77"/><rect class="cls-4" x="361.62" y="863.01" width="36.77" height="36.77"/><rect class="cls-4" x="275.1" y="906.63" width="36.77" height="36.77"/><rect class="cls-4" x="318.36" y="906.63" width="36.77" height="36.77"/><rect class="cls-4" x="361.62" y="906.63" width="36.77" height="36.77"/><rect class="cls-4" x="275.1" y="950.26" width="36.77" height="36.77"/><rect class="cls-4" x="318.36" y="950.26" width="36.77" height="36.77"/><rect class="cls-4" x="361.62" y="950.26" width="36.77" height="36.77"/><rect class="cls-2" x="51.19" y="584.96" width="223.91" height="9.44"/><rect class="cls-2" x="275.1" y="672.21" width="132.67" height="9.44"/><polygon class="cls-2" points="1066.86 660.53 878.8 660.53 878.8 1003.87 1066.86 1003.87 1254.91 1003.87 1254.91 660.53 1066.86 660.53"/><line class="cls-4" x1="1009.02" y1="985.02" x2="1009.02" y2="974.26"/><circle class="cls-15" cx="1009.02" cy="974.26" r="2.1"/><line class="cls-4" x1="995.53" y1="985.02" x2="995.53" y2="974.26"/><circle class="cls-15" cx="995.53" cy="974.26" r="2.1"/><line class="cls-4" x1="1002.27" y1="985.02" x2="1002.27" y2="977.53"/><circle class="cls-15" cx="1002.27" cy="977.53" r="2.1"/><line class="cls-4" x1="988.78" y1="985.02" x2="988.78" y2="977.53"/><circle class="cls-15" cx="988.78" cy="977.53" r="2.1"/><rect class="cls-2" x="981.94" y="984.49" width="33.93" height="6.28"/><rect class="cls-2" x="981.94" y="990.77" width="33.93" height="13.1"/><line class="cls-4" x1="918.41" y1="985.02" x2="918.41" y2="974.26"/><circle class="cls-15" cx="918.41" cy="974.26" r="2.1"/><line class="cls-4" x1="904.92" y1="985.02" x2="904.92" y2="974.26"/><circle class="cls-15" cx="904.92" cy="974.26" r="2.1"/><line class="cls-4" x1="911.67" y1="985.02" x2="911.67" y2="977.53"/><circle class="cls-15" cx="911.67" cy="977.53" r="2.1"/><line class="cls-4" x1="898.18" y1="985.02" x2="898.18" y2="977.53"/><circle class="cls-15" cx="898.18" cy="977.53" r="2.1"/><rect class="cls-2" x="891.33" y="984.49" width="33.93" height="6.28"/><rect class="cls-2" x="891.33" y="990.77" width="33.93" height="13.1"/><line class="cls-4" x1="943.48" y1="985.02" x2="943.48" y2="974.26"/><circle class="cls-15" cx="943.48" cy="974.26" r="2.1"/><line class="cls-4" x1="956.97" y1="985.02" x2="956.97" y2="974.26"/><circle class="cls-15" cx="956.97" cy="974.26" r="2.1"/><line class="cls-4" x1="950.22" y1="985.02" x2="950.22" y2="977.53"/><circle class="cls-15" cx="950.22" cy="977.53" r="2.1"/><line class="cls-4" x1="963.71" y1="985.02" x2="963.71" y2="977.53"/><circle class="cls-15" cx="963.71" cy="977.53" r="2.1"/><rect class="cls-2" x="1277.99" y="1098.48" width="33.93" height="6.28" transform="translate(2248.55 2089.25) rotate(-180)"/><rect class="cls-2" x="1277.99" y="1104.76" width="33.93" height="13.1" transform="translate(2248.55 2108.63) rotate(-180)"/><line class="cls-4" x1="1235.53" y1="985.02" x2="1235.53" y2="974.26"/><circle class="cls-15" cx="1235.53" cy="974.26" r="2.1"/><line class="cls-4" x1="1222.04" y1="985.02" x2="1222.04" y2="974.26"/><circle class="cls-15" cx="1222.04" cy="974.26" r="2.1"/><line class="cls-4" x1="1228.79" y1="985.02" x2="1228.79" y2="977.53"/><circle class="cls-15" cx="1228.79" cy="977.53" r="2.1"/><line class="cls-4" x1="1215.3" y1="985.02" x2="1215.3" y2="977.53"/><circle class="cls-15" cx="1215.3" cy="977.53" r="2.1"/><rect class="cls-2" x="1208.45" y="984.49" width="33.93" height="6.28"/><rect class="cls-2" x="1208.45" y="990.77" width="33.93" height="13.1"/><line class="cls-4" x1="1144.93" y1="985.02" x2="1144.93" y2="974.26"/><circle class="cls-15" cx="1144.93" cy="974.26" r="2.1"/><line class="cls-4" x1="1131.44" y1="985.02" x2="1131.44" y2="974.26"/><circle class="cls-15" cx="1131.44" cy="974.26" r="2.1"/><line class="cls-4" x1="1138.18" y1="985.02" x2="1138.18" y2="977.53"/><circle class="cls-15" cx="1138.18" cy="977.53" r="2.1"/><line class="cls-4" x1="1124.69" y1="985.02" x2="1124.69" y2="977.53"/><circle class="cls-15" cx="1124.69" cy="977.53" r="2.1"/><rect class="cls-2" x="1117.85" y="984.49" width="33.93" height="6.28"/><rect class="cls-2" x="1117.85" y="990.77" width="33.93" height="13.1"/><line class="cls-4" x1="1170" y1="985.02" x2="1170" y2="974.26"/><circle class="cls-15" cx="1170" cy="974.26" r="2.1"/><line class="cls-4" x1="1183.49" y1="985.02" x2="1183.49" y2="974.26"/><circle class="cls-15" cx="1183.49" cy="974.26" r="2.1"/><line class="cls-4" x1="1176.74" y1="985.02" x2="1176.74" y2="977.53"/><circle class="cls-15" cx="1176.74" cy="977.53" r="2.1"/><line class="cls-4" x1="1190.23" y1="985.02" x2="1190.23" y2="977.53"/><circle class="cls-15" cx="1190.23" cy="977.53" r="2.1"/><rect class="cls-2" x="1504.5" y="1098.48" width="33.93" height="6.28" transform="translate(2701.58 2089.25) rotate(-180)"/><rect class="cls-2" x="1504.5" y="1104.76" width="33.93" height="13.1" transform="translate(2701.58 2108.63) rotate(-180)"/><rect class="cls-4" x="1031.34" y="941.46" width="35.51" height="62.41"/><rect class="cls-4" x="1023.65" y="941.46" width="7.69" height="62.41"/><rect class="cls-4" x="1102.37" y="941.46" width="7.69" height="62.41"/><rect class="cls-4" x="1066.86" y="941.46" width="35.51" height="62.41"/><path class="cls-2" d="M1451.41,1055.45H1365a43.21,43.21,0,1,1,86.41,0Z" transform="translate(-341.35 -114)"/><rect class="cls-4" x="891.33" y="832.2" width="33.93" height="43.2"/><rect class="cls-4" x="936.63" y="832.2" width="33.93" height="43.2"/><rect class="cls-4" x="981.94" y="832.2" width="33.93" height="43.2"/><rect class="cls-4" x="1027.24" y="832.2" width="33.93" height="43.2"/><rect class="cls-4" x="1072.54" y="832.2" width="33.93" height="43.2"/><rect class="cls-4" x="1117.85" y="832.2" width="33.93" height="43.2"/><rect class="cls-4" x="1163.15" y="832.2" width="33.93" height="43.2"/><rect class="cls-4" x="1208.45" y="832.2" width="33.93" height="43.2"/><rect class="cls-4" x="891.33" y="886.24" width="33.93" height="43.2"/><rect class="cls-4" x="936.63" y="886.24" width="33.93" height="43.2"/><rect class="cls-4" x="981.94" y="886.24" width="33.93" height="43.2"/><rect class="cls-4" x="891.33" y="941.29" width="33.93" height="43.2"/><rect class="cls-4" x="936.63" y="941.29" width="33.93" height="43.2"/><rect class="cls-4" x="981.94" y="941.29" width="33.93" height="43.2"/><rect class="cls-4" x="1117.85" y="886.24" width="33.93" height="43.2"/><rect class="cls-4" x="1163.15" y="886.24" width="33.93" height="43.2"/><rect class="cls-4" x="1208.45" y="886.24" width="33.93" height="43.2"/><rect class="cls-4" x="1117.85" y="941.29" width="33.93" height="43.2"/><rect class="cls-4" x="1163.15" y="941.29" width="33.93" height="43.2"/><rect class="cls-4" x="1208.45" y="941.29" width="33.93" height="43.2"/><rect class="cls-4" x="891.33" y="778.16" width="33.93" height="43.2"/><rect class="cls-4" x="936.63" y="778.16" width="33.93" height="43.2"/><rect class="cls-4" x="981.94" y="778.16" width="33.93" height="43.2"/><rect class="cls-4" x="1027.24" y="778.16" width="33.93" height="43.2"/><rect class="cls-4" x="1072.54" y="778.16" width="33.93" height="43.2"/><rect class="cls-4" x="1117.85" y="778.16" width="33.93" height="43.2"/><rect class="cls-4" x="1163.15" y="778.16" width="33.93" height="43.2"/><rect class="cls-4" x="1208.45" y="778.16" width="33.93" height="43.2"/><rect class="cls-4" x="891.33" y="724.12" width="33.93" height="43.2"/><rect class="cls-4" x="936.63" y="724.12" width="33.93" height="43.2"/><rect class="cls-4" x="981.94" y="724.12" width="33.93" height="43.2"/><rect class="cls-4" x="1027.24" y="724.12" width="33.93" height="43.2"/><rect class="cls-4" x="1072.54" y="724.12" width="33.93" height="43.2"/><rect class="cls-4" x="1117.85" y="724.12" width="33.93" height="43.2"/><rect class="cls-4" x="1163.15" y="724.12" width="33.93" height="43.2"/><rect class="cls-4" x="1208.45" y="724.12" width="33.93" height="43.2"/><rect class="cls-4" x="891.33" y="670.08" width="33.93" height="43.2"/><rect class="cls-4" x="936.63" y="670.08" width="33.93" height="43.2"/><rect class="cls-4" x="981.94" y="670.08" width="33.93" height="43.2"/><rect class="cls-4" x="1027.24" y="670.08" width="33.93" height="43.2"/><rect class="cls-4" x="1072.54" y="670.08" width="33.93" height="43.2"/><rect class="cls-4" x="1117.85" y="670.08" width="33.93" height="43.2"/><rect class="cls-4" x="1163.15" y="670.08" width="33.93" height="43.2"/><rect class="cls-4" x="1208.45" y="670.08" width="33.93" height="43.2"/><polygon class="cls-2" points="1066.86 653.32 878.8 653.32 878.8 660.53 1066.86 660.53 1254.91 660.53 1254.91 653.32 1066.86 653.32"/></g><path class="cls-16" d="M1049.4,1025.12h22.45a14.19,14.19,0,0,1,14.14,14.14v8.13" transform="translate(-341.35 -114)"/><path class="cls-15" d="M638.43,855.21h8a7,7,0,0,1,7,7v34.91a0,0,0,0,1,0,0h-22a0,0,0,0,1,0,0V862.17A7,7,0,0,1,638.43,855.21Z"/><path class="cls-15" d="M626.65,896.56h31.57a14.05,14.05,0,0,1,14.05,14.05v8.09a0,0,0,0,1,0,0H612.6a0,0,0,0,1,0,0v-8.09A14.05,14.05,0,0,1,626.65,896.56Z"/><polygon class="cls-15" points="661.39 990.27 655.89 990.27 655.89 977.69 628.99 977.69 628.99 990.27 623.48 990.27 611.49 1006.04 673.39 1006.04 661.39 990.27"/><path class="cls-15" d="M1011.11,1085.29l49.31-61.13H854.95l108.21,68.74A38.65,38.65,0,0,0,1011.11,1085.29Z" transform="translate(-341.35 -114)"/><circle class="cls-17" cx="658.39" cy="878.79" r="4.98"/><circle class="cls-17" cx="708.04" cy="905.18" r="4.98"/><path class="cls-16" d="M997.46,992.55h38.19a14.19,14.19,0,0,1,14.14,14.14v11.85" transform="translate(-341.35 -114)"/><path class="cls-16" d="M1086,1047.39a16.85,16.85,0,1,1-33.7,0" transform="translate(-341.35 -114)"/><path class="cls-2" d="M915.27,897.87a41.49,41.49,0,0,0-9.87,15.68,41.65,41.65,0,0,0-58.71,59c-.64.54-1.27,1.11-1.88,1.72a30.27,30.27,0,1,0,48.5,34.91,39.16,39.16,0,0,0,59.32-41,41.66,41.66,0,1,0-37.37-70.36Z" transform="translate(-341.35 -114)"/><circle class="cls-2" cx="676.23" cy="783.48" r="15.25"/><circle class="cls-2" cx="561.51" cy="744.62" r="33.89"/><line class="cls-4" x1="125.93" y1="355.33" x2="115.57" y2="355.33"/><path class="cls-4" d="M426.05,469.29a15.17,15.17,0,1,1,30.33,0" transform="translate(-341.35 -114)"/><line class="cls-4" x1="84.7" y1="355.29" x2="31.52" y2="355.29"/><line class="cls-4" x1="19.31" y1="355.29" x2="1" y2="355.29"/><rect class="cls-4" x="193.03" y="141.32" width="19.05" height="19.05"/><line class="cls-4" x1="193.03" y1="141.32" x2="212.08" y2="160.37"/><rect class="cls-4" x="193.03" y="160.37" width="19.05" height="19.05"/><line class="cls-4" x1="193.03" y1="179.42" x2="212.08" y2="160.37"/><rect class="cls-4" x="193.03" y="179.42" width="19.05" height="19.05"/><line class="cls-4" x1="193.03" y1="179.42" x2="212.08" y2="198.48"/><rect class="cls-4" x="193.03" y="198.48" width="19.05" height="19.05"/><line class="cls-4" x1="193.03" y1="217.53" x2="212.08" y2="198.48"/><rect class="cls-4" x="193.03" y="217.53" width="19.05" height="19.05"/><line class="cls-4" x1="193.03" y1="217.53" x2="212.08" y2="236.59"/><rect class="cls-4" x="193.03" y="236.59" width="19.05" height="19.05"/><line class="cls-4" x1="193.03" y1="255.64" x2="212.08" y2="236.59"/><rect class="cls-4" x="193.03" y="255.64" width="19.05" height="19.05"/><line class="cls-4" x1="193.03" y1="255.64" x2="212.08" y2="274.69"/><rect class="cls-4" x="193.03" y="274.69" width="19.05" height="19.05"/><line class="cls-4" x1="193.03" y1="293.75" x2="212.08" y2="274.69"/><rect class="cls-4" x="667.76" y="236.26" width="19.05" height="19.05" transform="translate(581.72 -545.5) rotate(90)"/><line class="cls-4" x1="326.41" y1="122.26" x2="345.46" y2="141.32"/><rect class="cls-4" x="648.71" y="236.26" width="19.05" height="19.05" transform="translate(562.67 -526.44) rotate(90)"/><line class="cls-4" x1="326.41" y1="122.26" x2="307.35" y2="141.32"/><rect class="cls-4" x="629.65" y="236.26" width="19.05" height="19.05" transform="translate(543.61 -507.39) rotate(90)"/><line class="cls-4" x1="288.3" y1="122.26" x2="307.35" y2="141.32"/><rect class="cls-4" x="610.6" y="236.26" width="19.05" height="19.05" transform="translate(524.56 -488.34) rotate(90)"/><line class="cls-4" x1="288.3" y1="122.26" x2="269.25" y2="141.32"/><rect class="cls-4" x="591.55" y="236.26" width="19.05" height="19.05" transform="translate(505.5 -469.28) rotate(90)"/><line class="cls-4" x1="250.19" y1="122.26" x2="269.25" y2="141.32"/><rect class="cls-4" x="572.49" y="236.26" width="19.05" height="19.05" transform="translate(486.45 -450.23) rotate(90)"/><line class="cls-4" x1="250.19" y1="122.26" x2="231.14" y2="141.32"/><rect class="cls-4" x="553.44" y="236.26" width="19.05" height="19.05" transform="translate(467.4 -431.18) rotate(90)"/><line class="cls-4" x1="212.08" y1="122.26" x2="231.14" y2="141.32"/><rect class="cls-4" x="534.38" y="236.26" width="19.05" height="19.05" transform="translate(448.34 -412.12) rotate(90)"/><line class="cls-4" x1="212.08" y1="122.26" x2="193.03" y2="141.32"/><rect class="cls-4" x="534.38" y="217.2" width="19.05" height="19.05" transform="translate(429.29 -431.18) rotate(90)"/><line class="cls-4" x1="193.03" y1="103.21" x2="212.08" y2="122.26"/><rect class="cls-4" x="515.33" y="236.26" width="19.05" height="19.05" transform="translate(429.29 -393.07) rotate(90)"/><line class="cls-4" x1="173.98" y1="122.26" x2="193.03" y2="141.32"/><polygon class="cls-15" points="154.92 154.16 173.98 154.16 173.98 122.26 154.92 131.79 154.92 154.16"/><polygon class="cls-15" points="212.08 169.9 212.08 141.32 240.66 141.32 226.38 169.9 212.08 169.9"/><polygon class="cls-8" points="232.96 156.73 219.46 156.73 219.46 147.53 237.56 147.53 232.96 156.73"/><polygon class="cls-18" points="327.04 163.26 319.28 163.26 318.07 153.09 328.25 153.09 327.04 163.26"/><rect class="cls-18" x="309.19" y="158.96" width="26.93" height="4.3"/><line class="cls-4" x1="312.86" y1="163.26" x2="312.86" y2="301.92"/><line class="cls-4" x1="333.45" y1="163.26" x2="333.45" y2="301.92"/><line class="cls-4" x1="323.16" y1="153.09" x2="323.16" y2="141.32"/><rect class="cls-15" x="247.32" y="281.26" width="150.67" height="24.97"/><line class="cls-4" x1="270.14" y1="282.27" x2="270.14" y2="305.22"/><line class="cls-4" x1="278.82" y1="282.27" x2="278.82" y2="305.22"/><line class="cls-4" x1="287.49" y1="282.27" x2="287.49" y2="305.22"/><line class="cls-4" x1="375.16" y1="282.27" x2="375.16" y2="305.22"/><line class="cls-4" x1="366.49" y1="282.27" x2="366.49" y2="305.22"/><line class="cls-4" x1="357.82" y1="282.27" x2="357.82" y2="305.22"/><line class="cls-4" x1="1015.86" y1="140.13" x2="1055.7" y2="140.13"/><line class="cls-4" x1="984.07" y1="140.13" x2="998.71" y2="140.13"/></svg>