<?xml version="1.0" encoding="utf-8"?>
<!-- Generator: Adobe Illustrator 16.0.0, SVG Export Plug-In . SVG Version: 6.00 Build 0)  -->
<!DOCTYPE svg PUBLIC "-//W3C//DTD SVG 1.1//EN" "http://www.w3.org/Graphics/SVG/1.1/DTD/svg11.dtd">
<svg version="1.1" id="Layer_1" xmlns="http://www.w3.org/2000/svg" xmlns:xlink="http://www.w3.org/1999/xlink" x="0px" y="0px"
	 width="510px" height="435px" viewBox="0 0 510 435" enable-background="new 0 0 510 435" xml:space="preserve">
<g>
	<defs>
		<path id="SVGID_1_" d="M55,216.43c0,110.457,89.544,199.999,200.001,199.999S455,326.887,455,216.43
			c0-110.457-89.542-200.001-199.999-200.001S55,105.973,55,216.43"/>
	</defs>
	<clipPath id="SVGID_2_">
		<use xlink:href="#SVGID_1_"  overflow="visible"/>
	</clipPath>
	<path clip-path="url(#SVGID_2_)" fill="#C7E8F9" d="M360.59,16.429L183.345,1.759c-1.359,0.669-2.815,1.065-4.331,1.089
		c-2.258,0.036-4.336-0.714-6.12-1.955l-47.898-3.964l-98.463,171l8.845,126.833l1.901,7.917h404.853l44.401-133.75L360.59,16.429z"
		/>
	
		<path clip-path="url(#SVGID_2_)" fill="none" stroke="#3333FF" stroke-width="2" stroke-linecap="round" stroke-linejoin="round" stroke-miterlimit="10" d="
		M360.59,16.429L183.345,1.759c-1.359,0.669-2.815,1.065-4.331,1.089c-2.258,0.036-4.336-0.714-6.12-1.955l-47.898-3.964
		l-98.463,171l8.845,126.833l1.901,7.917h404.853l44.401-133.75L360.59,16.429z"/>
	<path clip-path="url(#SVGID_2_)" fill="#C9C9C9" d="M344.356,334.465l-49.378-84.867c-0.929-1.596-3.233-1.596-4.162,0
		l-49.378,84.867H344.356z"/>
	<path clip-path="url(#SVGID_2_)" fill="#C9C9C9" d="M276.897,321.465L216.635,217.89c-1.132-1.947-3.945-1.947-5.079,0
		l-60.262,103.575H276.897z"/>
	<path clip-path="url(#SVGID_2_)" fill="#C9C9C9" d="M302.688,315.05l-49.378-84.867c-0.929-1.595-3.233-1.595-4.162,0
		l-49.377,84.867H302.688z"/>
	
		<line clip-path="url(#SVGID_2_)" fill="none" stroke="#3333FF" stroke-width="2" stroke-linecap="round" stroke-linejoin="round" stroke-miterlimit="10" x1="239.178" y1="296.832" x2="239.178" y2="316.979"/>
	
		<line clip-path="url(#SVGID_2_)" fill="none" stroke="#3333FF" stroke-width="2" stroke-linecap="round" stroke-linejoin="round" stroke-miterlimit="10" x1="229.812" y1="310.691" x2="229.812" y2="316.979"/>
	
		<line clip-path="url(#SVGID_2_)" fill="none" stroke="#3333FF" stroke-width="2" stroke-linecap="round" stroke-linejoin="round" stroke-miterlimit="10" x1="255.146" y1="299.036" x2="255.146" y2="316.979"/>
	<path clip-path="url(#SVGID_2_)" fill="#C9C9C9" d="M211.877,288.965L151.614,185.39c-1.133-1.947-3.945-1.947-5.079,0
		L86.273,288.965H211.877z"/>
	<path clip-path="url(#SVGID_2_)" fill="#C9C9C9" d="M378.203,329.777l-49.378-84.866c-0.928-1.597-3.231-1.597-4.161,0
		l-49.378,84.866H378.203z"/>
	<path clip-path="url(#SVGID_2_)" fill="#C9C9C9" d="M414.703,357.777l-49.378-84.866c-0.928-1.597-3.231-1.597-4.161,0
		l-49.378,84.866H414.703z"/>
	<polygon clip-path="url(#SVGID_2_)" fill="#48DCAD" points="30.5,354.534 212.25,454.784 388.125,434.534 449.845,335.784 
		444.5,310.701 442.6,302.784 75.005,302.784 	"/>
	
		<polygon clip-path="url(#SVGID_2_)" fill="none" stroke="#3333FF" stroke-width="2" stroke-linecap="round" stroke-linejoin="round" stroke-miterlimit="10" points="
		30.5,354.534 212.25,454.784 388.125,434.534 449.845,335.784 444.5,310.701 442.6,302.784 75.005,302.784 	"/>
	
		<line clip-path="url(#SVGID_2_)" fill="none" stroke="#3333FF" stroke-width="2" stroke-linecap="round" stroke-linejoin="round" stroke-miterlimit="10" x1="37.246" y1="302.68" x2="442.1" y2="302.68"/>
	<path clip-path="url(#SVGID_2_)" fill="#FFC51B" d="M460.887,67.827c0,33.689-27.311,61-61,61c-33.688,0-61-27.311-61-61
		s27.312-61,61-61C433.576,6.827,460.887,34.138,460.887,67.827"/>
	<path clip-path="url(#SVGID_2_)" fill="#5DE9FF" d="M276.126,302.68c0,0,18.595,2.057,19.536,19.75c1.118,21.022-73,48-31.5,103
		c0,0,27.229,5.972,63.5-6c18.975-6.264,59-33.984,59-34.5c0-1.5-55.528-17.712-68-33c-15.5-19,24-26-16.5-49.25H276.126z"/>
	
		<path clip-path="url(#SVGID_2_)" fill="none" stroke="#3333FF" stroke-width="2" stroke-linecap="round" stroke-linejoin="round" stroke-miterlimit="10" d="
		M276.126,302.68c0,0,18.595,2.057,19.536,19.75c1.118,21.022-73,48-31.5,103c0,0,27.229,5.972,63.5-6
		c18.975-6.264,59-33.984,59-34.5c0-1.5-55.528-17.712-68-33c-15.5-19,24-26-16.5-49.25H276.126z"/>
	
		<line clip-path="url(#SVGID_2_)" fill="none" stroke="#3333FF" stroke-width="2" stroke-linecap="round" stroke-linejoin="round" stroke-miterlimit="10" x1="263.329" y1="302.784" x2="263.329" y2="309.249"/>
	
		<line clip-path="url(#SVGID_2_)" fill="none" stroke="#3333FF" stroke-width="2" stroke-linecap="round" stroke-linejoin="round" stroke-miterlimit="10" x1="214.605" y1="307.779" x2="214.605" y2="325.744"/>
	
		<line clip-path="url(#SVGID_2_)" fill="none" stroke="#3333FF" stroke-width="2" stroke-linecap="round" stroke-linejoin="round" stroke-miterlimit="10" x1="252.661" y1="310.375" x2="252.661" y2="325.747"/>
	
		<line clip-path="url(#SVGID_2_)" fill="none" stroke="#3333FF" stroke-width="2" stroke-linecap="round" stroke-linejoin="round" stroke-miterlimit="10" x1="206.254" y1="320.137" x2="206.254" y2="325.743"/>
	
		<line clip-path="url(#SVGID_2_)" fill="none" stroke="#3333FF" stroke-width="2" stroke-linecap="round" stroke-linejoin="round" stroke-miterlimit="10" x1="242.298" y1="317.472" x2="242.298" y2="325.743"/>
	
		<line clip-path="url(#SVGID_2_)" fill="none" stroke="#3333FF" stroke-width="2" stroke-linecap="round" stroke-linejoin="round" stroke-miterlimit="10" x1="166.679" y1="317.441" x2="166.679" y2="325.744"/>
	
		<line clip-path="url(#SVGID_2_)" fill="none" stroke="#3333FF" stroke-width="2" stroke-linecap="round" stroke-linejoin="round" stroke-miterlimit="10" x1="228.845" y1="309.744" x2="228.845" y2="325.744"/>
	
		<line clip-path="url(#SVGID_2_)" fill="none" stroke="#3333FF" stroke-width="2" stroke-linecap="round" stroke-linejoin="round" stroke-miterlimit="10" x1="191.979" y1="313.854" x2="191.979" y2="325.744"/>
	
		<line clip-path="url(#SVGID_2_)" fill="none" stroke="#3333FF" stroke-width="2" stroke-linecap="round" stroke-linejoin="round" stroke-miterlimit="10" x1="152.487" y1="310.028" x2="152.487" y2="325.744"/>
	
		<line clip-path="url(#SVGID_2_)" fill="none" stroke="#3333FF" stroke-width="2" stroke-linecap="round" stroke-linejoin="round" stroke-miterlimit="10" x1="176.968" y1="317.83" x2="176.968" y2="325.744"/>
	
		<line clip-path="url(#SVGID_2_)" fill="none" stroke="#3333FF" stroke-width="2" stroke-linecap="round" stroke-linejoin="round" stroke-miterlimit="10" x1="143.472" y1="316.768" x2="143.472" y2="325.744"/>
	
		<line clip-path="url(#SVGID_2_)" fill="none" stroke="#3333FF" stroke-width="2" stroke-linecap="round" stroke-linejoin="round" stroke-miterlimit="10" x1="140.634" y1="333.798" x2="140.634" y2="356.003"/>
	
		<line clip-path="url(#SVGID_2_)" fill="none" stroke="#3333FF" stroke-width="2" stroke-linecap="round" stroke-linejoin="round" stroke-miterlimit="10" x1="93.596" y1="337.006" x2="93.596" y2="356.008"/>
	
		<line clip-path="url(#SVGID_2_)" fill="none" stroke="#3333FF" stroke-width="2" stroke-linecap="round" stroke-linejoin="round" stroke-miterlimit="10" x1="150.956" y1="349.073" x2="150.956" y2="356.004"/>
	
		<line clip-path="url(#SVGID_2_)" fill="none" stroke="#3333FF" stroke-width="2" stroke-linecap="round" stroke-linejoin="round" stroke-miterlimit="10" x1="106.405" y1="345.778" x2="106.405" y2="356.004"/>
	
		<line clip-path="url(#SVGID_2_)" fill="none" stroke="#3333FF" stroke-width="2" stroke-linecap="round" stroke-linejoin="round" stroke-miterlimit="10" x1="199.872" y1="345.741" x2="199.872" y2="356.004"/>
	
		<line clip-path="url(#SVGID_2_)" fill="none" stroke="#3333FF" stroke-width="2" stroke-linecap="round" stroke-linejoin="round" stroke-miterlimit="10" x1="123.034" y1="336.227" x2="123.034" y2="356.003"/>
	
		<line clip-path="url(#SVGID_2_)" fill="none" stroke="#3333FF" stroke-width="2" stroke-linecap="round" stroke-linejoin="round" stroke-miterlimit="10" x1="168.602" y1="341.306" x2="168.602" y2="356.003"/>
	
		<line clip-path="url(#SVGID_2_)" fill="none" stroke="#3333FF" stroke-width="2" stroke-linecap="round" stroke-linejoin="round" stroke-miterlimit="10" x1="217.413" y1="336.578" x2="217.413" y2="356.004"/>
	
		<line clip-path="url(#SVGID_2_)" fill="none" stroke="#3333FF" stroke-width="2" stroke-linecap="round" stroke-linejoin="round" stroke-miterlimit="10" x1="187.154" y1="346.221" x2="187.154" y2="356.003"/>
	
		<line clip-path="url(#SVGID_2_)" fill="none" stroke="#3333FF" stroke-width="2" stroke-linecap="round" stroke-linejoin="round" stroke-miterlimit="10" x1="228.557" y1="344.908" x2="228.557" y2="356.004"/>
</g>
<g>
	<defs>
		<rect id="SVGID_3_" width="510" height="435"/>
	</defs>
	<clipPath id="SVGID_4_">
		<use xlink:href="#SVGID_3_"  overflow="visible"/>
	</clipPath>
	
		<path clip-path="url(#SVGID_4_)" fill="none" stroke="#3333FF" stroke-width="2" stroke-linecap="round" stroke-linejoin="round" stroke-miterlimit="10" d="
		M178.139,152.904c0-7.66-6.21-13.87-13.87-13.87c-4.787,0-9.009,2.426-11.501,6.115"/>
	
		<line clip-path="url(#SVGID_4_)" fill="none" stroke="#3333FF" stroke-width="2" stroke-linecap="round" stroke-linejoin="round" stroke-miterlimit="10" x1="178.139" y1="152.904" x2="193.202" y2="152.904"/>
	
		<line clip-path="url(#SVGID_4_)" fill="none" stroke="#3333FF" stroke-width="2" stroke-linecap="round" stroke-linejoin="round" stroke-miterlimit="10" x1="197.412" y1="152.904" x2="201.754" y2="152.904"/>
	
		<path clip-path="url(#SVGID_4_)" fill="none" stroke="#3333FF" stroke-width="2" stroke-linecap="round" stroke-linejoin="round" stroke-miterlimit="10" d="
		M155.46,146.6c-1.553-1.088-3.443-1.727-5.483-1.727c-4.701,0-8.608,3.389-9.413,7.856"/>
	
		<path clip-path="url(#SVGID_4_)" fill="none" stroke="#3333FF" stroke-width="2" stroke-linecap="round" stroke-linejoin="round" stroke-miterlimit="10" d="
		M354.281,225.422c0-4.277-3.467-7.744-7.743-7.744s-7.743,3.466-7.743,7.744"/>
	
		<line clip-path="url(#SVGID_4_)" fill="none" stroke="#3333FF" stroke-width="2" stroke-linecap="round" stroke-linejoin="round" stroke-miterlimit="10" x1="354.281" y1="225.422" x2="373.026" y2="225.422"/>
	
		<line clip-path="url(#SVGID_4_)" fill="none" stroke="#3333FF" stroke-width="2" stroke-linecap="round" stroke-linejoin="round" stroke-miterlimit="10" x1="354.584" y1="69.207" x2="376.951" y2="69.207"/>
	
		<line clip-path="url(#SVGID_4_)" fill="none" stroke="#3333FF" stroke-width="2" stroke-linecap="round" stroke-linejoin="round" stroke-miterlimit="10" x1="336.734" y1="69.207" x2="344.954" y2="69.207"/>
	
		<path clip-path="url(#SVGID_4_)" fill="none" stroke="#3333FF" stroke-width="2" stroke-linecap="round" stroke-linejoin="round" stroke-miterlimit="10" d="
		M263.979,45.101c2.788-3.429,7.041-5.62,11.806-5.62c6.556,0,12.144,4.15,14.278,9.967"/>
	
		<path clip-path="url(#SVGID_4_)" fill="none" stroke="#3333FF" stroke-width="2" stroke-linecap="round" stroke-linejoin="round" stroke-miterlimit="10" d="
		M288.688,46.659c1.389-0.82,3.007-1.291,4.735-1.291c5.146,0,9.32,4.173,9.32,9.32"/>
	
		<line clip-path="url(#SVGID_4_)" fill="none" stroke="#3333FF" stroke-width="2" stroke-linecap="round" stroke-linejoin="round" stroke-miterlimit="10" x1="209.76" y1="54.688" x2="249.263" y2="54.688"/>
	
		<line clip-path="url(#SVGID_4_)" fill="none" stroke="#3333FF" stroke-width="2" stroke-linecap="round" stroke-linejoin="round" stroke-miterlimit="10" x1="195.746" y1="54.688" x2="203.49" y2="54.688"/>
	
		<path clip-path="url(#SVGID_4_)" fill="none" stroke="#3333FF" stroke-width="2" stroke-linecap="round" stroke-linejoin="round" stroke-miterlimit="10" d="
		M249.263,54.69c-0.168-0.7-0.257-1.43-0.257-2.181c0-5.147,4.173-9.319,9.319-9.319c3.282,0,6.168,1.696,7.829,4.26"/>
	
		<path clip-path="url(#SVGID_4_)" fill="none" stroke="#3333FF" stroke-width="2" stroke-linecap="round" stroke-linejoin="round" stroke-miterlimit="10" d="
		M278.297,189.148c-0.048-4.725,3.743-8.594,8.468-8.643c4.726-0.048,8.595,3.743,8.643,8.468"/>
	
		<line clip-path="url(#SVGID_4_)" fill="none" stroke="#3333FF" stroke-width="2" stroke-linecap="round" stroke-linejoin="round" stroke-miterlimit="10" x1="278.297" y1="189.148" x2="248.296" y2="189.455"/>
	
		<line clip-path="url(#SVGID_4_)" fill="none" stroke="#3333FF" stroke-width="2" stroke-linecap="round" stroke-linejoin="round" stroke-miterlimit="10" x1="301.226" y1="188.914" x2="295.408" y2="188.974"/>
	
		<line clip-path="url(#SVGID_4_)" fill="none" stroke="#3333FF" stroke-width="2" stroke-linecap="round" stroke-linejoin="round" stroke-miterlimit="10" x1="241.41" y1="189.525" x2="231.083" y2="189.63"/>
	
		<line clip-path="url(#SVGID_4_)" fill="none" stroke="#3333FF" stroke-width="2" stroke-linecap="round" stroke-linejoin="round" stroke-miterlimit="10" x1="333.323" y1="126.176" x2="282.961" y2="126.176"/>
	
		<line clip-path="url(#SVGID_4_)" fill="none" stroke="#3333FF" stroke-width="2" stroke-linecap="round" stroke-linejoin="round" stroke-miterlimit="10" x1="347.391" y1="126.176" x2="342.954" y2="126.176"/>
	
		<path clip-path="url(#SVGID_4_)" fill="none" stroke="#3333FF" stroke-width="2" stroke-linecap="round" stroke-linejoin="round" stroke-miterlimit="10" d="
		M332.2,94.172c0.667-1.997,2.152-3.71,4.24-4.603c3.877-1.657,8.364,0.142,10.022,4.019"/>
	
		<path clip-path="url(#SVGID_4_)" fill="none" stroke="#3333FF" stroke-width="2" stroke-linecap="round" stroke-linejoin="round" stroke-miterlimit="10" d="
		M357.156,83.501c-1.904-0.897-4.169-1.007-6.257-0.114c-3.877,1.658-5.677,6.145-4.018,10.022"/>
	
		<path clip-path="url(#SVGID_4_)" fill="none" stroke="#3333FF" stroke-width="2" stroke-linecap="round" stroke-linejoin="round" stroke-miterlimit="10" d="
		M322.329,111.975c0.477-1.423,1.534-2.644,3.022-3.28c2.763-1.182,5.961,0.1,7.143,2.863"/>
	
		<path clip-path="url(#SVGID_4_)" fill="none" stroke="#3333FF" stroke-width="2" stroke-linecap="round" stroke-linejoin="round" stroke-miterlimit="10" d="
		M340.116,104.37c-1.356-0.64-2.972-0.718-4.46-0.082c-2.764,1.182-4.046,4.38-2.864,7.144"/>
	
		<path clip-path="url(#SVGID_4_)" fill="none" stroke="#3333FF" stroke-width="2" stroke-linecap="round" stroke-linejoin="round" stroke-miterlimit="10" d="
		M360.634,103.849c0.238-0.711,0.769-1.322,1.511-1.64c1.383-0.591,2.981,0.05,3.572,1.432"/>
	
		<path clip-path="url(#SVGID_4_)" fill="none" stroke="#3333FF" stroke-width="2" stroke-linecap="round" stroke-linejoin="round" stroke-miterlimit="10" d="
		M369.527,100.046c-0.679-0.32-1.484-0.359-2.229-0.041c-1.383,0.591-2.024,2.19-1.434,3.572"/>
</g>
<g>
	<defs>
		<rect id="SVGID_5_" width="510" height="435"/>
	</defs>
	<clipPath id="SVGID_6_">
		<use xlink:href="#SVGID_5_"  overflow="visible"/>
	</clipPath>
	<path clip-path="url(#SVGID_6_)" fill="#48DCAD" d="M277.483,302.784l-43.027-73.952c-0.809-1.391-2.818-1.391-3.626,0
		l-31.522,54.176l-5.07,19.776H277.483z"/>
	
		<path clip-path="url(#SVGID_6_)" fill="none" stroke="#3333FF" stroke-width="2" stroke-linecap="round" stroke-linejoin="round" stroke-miterlimit="10" d="
		M277.483,302.784l-43.027-73.952c-0.809-1.391-2.818-1.391-3.626,0l-31.522,54.176l-5.07,19.776H277.483z"/>
	<path clip-path="url(#SVGID_6_)" fill="#FFFFFF" d="M215.589,255.199l5.633,3.695c0.883,0.579,2.044,0.5,2.84-0.194l4.223-3.687
		c0.458-0.399,1.054-0.606,1.661-0.578l4.695,0.227c0.951,0.046,1.837-0.486,2.243-1.349l0.71-1.508
		c0.457-0.968,1.509-1.506,2.561-1.311l7.789,1.452l-13.441-23.103c-0.799-1.373-2.781-1.373-3.58,0L215.589,255.199z"/>
	
		<path clip-path="url(#SVGID_6_)" fill="none" stroke="#3333FF" stroke-width="2" stroke-linecap="round" stroke-linejoin="round" stroke-miterlimit="10" d="
		M215.589,255.199l5.633,3.695c0.883,0.579,2.044,0.5,2.84-0.194l4.223-3.687c0.458-0.399,1.054-0.606,1.661-0.578l4.695,0.227
		c0.951,0.046,1.837-0.486,2.243-1.349l0.71-1.508c0.457-0.968,1.509-1.506,2.561-1.311l7.789,1.452l-13.441-23.103
		c-0.799-1.373-2.781-1.373-3.58,0L215.589,255.199z"/>
	<path clip-path="url(#SVGID_6_)" fill="#1EB3AE" d="M223.458,310.995l5.892-24.353c0.447-1.848,3.076-1.848,3.523,0l1.184,4.892
		c1.228-2.792,4.017-4.742,7.263-4.742c4.382,0,7.935,3.552,7.935,7.934c0,0.794-0.118,1.561-0.336,2.284
		c0.11-0.01,0.222-0.017,0.335-0.017h8.041c0-1.575,1.276-2.853,2.852-2.853c0.591,0,1.14,0.179,1.595,0.487
		c1.082-1.16,2.619-1.891,4.33-1.891c3.271,0,5.924,2.653,5.924,5.925c0,3.155-2.47,5.729-5.582,5.906l-11.564,0.019
		c-0.188,1.898-1.79,3.384-3.74,3.384c-2.075,0-3.757-1.683-3.757-3.758c0-0.046,0.005-0.091,0.006-0.137
		c-0.951-0.551-1.636-1.502-1.836-2.621c-1.218,0.763-2.658,1.205-4.202,1.205c-1.896,0-3.636-0.666-5.002-1.776l2.447,10.111
		c0.178,0.739-1.77-1.349-2.404-0.926l-3.778-7.886c-0.608,0.406-0.581-13.271-3.058,1.402l-2.12-2.606
		C226.771,300.557,223.279,311.734,223.458,310.995"/>
	
		<path clip-path="url(#SVGID_6_)" fill="none" stroke="#3333FF" stroke-width="2" stroke-linecap="round" stroke-linejoin="round" stroke-miterlimit="10" d="
		M223.458,310.995l5.892-24.353c0.447-1.848,3.076-1.848,3.523,0l1.184,4.892c1.228-2.792,4.017-4.742,7.263-4.742
		c4.382,0,7.935,3.552,7.935,7.934c0,0.794-0.118,1.561-0.336,2.284c0.11-0.01,0.222-0.017,0.335-0.017h8.041
		c0-1.575,1.276-2.853,2.852-2.853c0.591,0,1.14,0.179,1.595,0.487c1.082-1.16,2.619-1.891,4.33-1.891
		c3.271,0,5.924,2.653,5.924,5.925c0,3.155-2.47,5.729-5.582,5.906l-11.564,0.019c-0.188,1.898-1.79,3.384-3.74,3.384
		c-2.075,0-3.757-1.683-3.757-3.758c0-0.046,0.005-0.091,0.006-0.137c-0.951-0.551-1.636-1.502-1.836-2.621
		c-1.218,0.763-2.658,1.205-4.202,1.205c-1.896,0-3.636-0.666-5.002-1.776l2.447,10.111c0.178,0.739-1.77-1.349-2.404-0.926
		l-3.778-7.886c-0.608,0.406-0.581-13.271-3.058,1.402l-2.12-2.606C226.771,300.557,223.279,311.734,223.458,310.995z"/>
	<path clip-path="url(#SVGID_6_)" fill="#48DCAD" d="M18.242,262.526l59.534-101.76c1.264-2.172,4.401-2.172,5.664,0l81.394,140.413
		L19.48,316.93L18.242,262.526z"/>
	
		<path clip-path="url(#SVGID_6_)" fill="none" stroke="#3333FF" stroke-width="2" stroke-linecap="round" stroke-linejoin="round" stroke-miterlimit="10" d="
		M18.242,262.526l59.534-101.76c1.264-2.172,4.401-2.172,5.664,0l81.394,140.413L19.48,316.93L18.242,262.526z"/>
	<path clip-path="url(#SVGID_6_)" fill="#FFFFFF" d="M53.944,201.867l8.797,5.772c1.38,0.906,3.192,0.781,4.435-0.303l6.598-5.758
		c0.716-0.625,1.646-0.948,2.595-0.902l7.332,0.352c1.486,0.072,2.869-0.759,3.503-2.105l1.11-2.355
		c0.713-1.513,2.356-2.353,4-2.047l12.014,2.276l-20.842-36.093c-1.248-2.144-4.345-2.144-5.592,0L53.944,201.867z"/>
	
		<path clip-path="url(#SVGID_6_)" fill="none" stroke="#3333FF" stroke-width="2" stroke-linecap="round" stroke-linejoin="round" stroke-miterlimit="10" d="
		M53.944,201.867l8.797,5.772c1.38,0.906,3.192,0.781,4.435-0.303l6.598-5.758c0.716-0.625,1.646-0.948,2.595-0.902l7.332,0.352
		c1.486,0.072,2.869-0.759,3.503-2.105l1.11-2.355c0.713-1.513,2.356-2.353,4-2.047l12.014,2.276l-20.842-36.093
		c-1.248-2.144-4.345-2.144-5.592,0L53.944,201.867z"/>
	<path clip-path="url(#SVGID_6_)" fill="#48DCAD" d="M246.422,309.961l-72.477-124.566c-1.362-2.342-4.745-2.342-6.108,0
		l-53.095,91.255l-8.541,33.312H246.422z"/>
	
		<path clip-path="url(#SVGID_6_)" fill="none" stroke="#3333FF" stroke-width="2" stroke-linecap="round" stroke-linejoin="round" stroke-miterlimit="10" d="
		M246.422,309.961l-72.477-124.566c-1.362-2.342-4.745-2.342-6.108,0l-53.095,91.255l-8.541,33.312H246.422z"/>
	<path clip-path="url(#SVGID_6_)" fill="#FFFFFF" d="M199.758,229.719l-9.487,6.225c-1.488,0.977-3.444,0.843-4.784-0.327
		l-7.115-6.209c-0.771-0.675-1.774-1.022-2.798-0.974l-7.907,0.38c-1.602,0.077-3.094-0.818-3.778-2.27l-1.197-2.54
		c-0.769-1.631-2.541-2.538-4.314-2.208l-13.12,2.445l22.641-38.915c1.345-2.312,4.685-2.312,6.03,0L199.758,229.719z"/>
	
		<path clip-path="url(#SVGID_6_)" fill="none" stroke="#3333FF" stroke-width="2" stroke-linecap="round" stroke-linejoin="round" stroke-miterlimit="10" d="
		M199.758,229.719l-9.487,6.225c-1.488,0.977-3.444,0.843-4.784-0.327l-7.115-6.209c-0.771-0.675-1.774-1.022-2.798-0.974
		l-7.907,0.38c-1.602,0.077-3.094-0.818-3.778-2.27l-1.197-2.54c-0.769-1.631-2.541-2.538-4.314-2.208l-13.12,2.445l22.641-38.915
		c1.345-2.312,4.685-2.312,6.03,0L199.758,229.719z"/>
	<path clip-path="url(#SVGID_6_)" fill="#1EB3AE" d="M137.211,313.805l4.819-19.922c0.367-1.512,2.517-1.512,2.883,0l2.933,12.12
		h3.469c0-1.288,1.045-2.333,2.334-2.333c0.483,0,0.932,0.147,1.304,0.399c0.885-0.95,2.143-1.546,3.542-1.546
		c2.677,0,4.847,2.17,4.847,4.845c0,0.21-0.018,0.415-0.044,0.618c0.984-0.602,2.142-0.95,3.381-0.95
		c2.17,0,4.091,1.067,5.268,2.703l3.579-14.793c0.367-1.513,2.518-1.513,2.883,0l3.352,13.851c0.834-1.462,2.405-2.448,4.209-2.448
		c1.399,0,2.657,0.597,3.542,1.546c0.372-0.252,0.821-0.399,1.304-0.399c1.289,0,2.333,1.044,2.333,2.333h6.579
		c0.711,0,1.363,0.242,1.886,0.645l3.199-13.22c0.366-1.512,2.517-1.512,2.882,0l0.968,4c1.006-2.283,3.287-3.879,5.943-3.879
		c3.584,0,6.491,2.906,6.491,6.491c0,0.649-0.097,1.276-0.275,1.868c0.09-0.008,0.181-0.014,0.274-0.014h6.577
		c0-1.289,1.045-2.333,2.334-2.333c0.483,0,0.932,0.146,1.305,0.397c0.884-0.949,2.141-1.545,3.541-1.545
		c1.5,0,2.84,0.681,3.729,1.752l2.275-9.403c0.366-1.513,2.517-1.513,2.882,0l2.561,10.581c0.599-2.966,3.219-5.198,6.361-5.198
		c3.585,0,6.491,2.904,6.491,6.489s-2.906,6.49-6.491,6.49c-2.052,0-3.88-0.952-5.069-2.438l0.967,3.995
		c0.146,0.606-0.101,1.237-0.619,1.583l-4.819,3.213c-0.498,0.332-1.147,0.332-1.645,0l-4.82-3.213
		c-0.517-0.346-0.765-0.977-0.619-1.583l0.721-2.977c-0.504,0.215-1.05,0.354-1.625,0.385v0.016h-9.461
		c-0.153,1.554-1.464,2.769-3.059,2.769c-1.697,0-3.073-1.377-3.073-3.075c0-0.038,0.004-0.073,0.005-0.111
		c-0.778-0.449-1.339-1.229-1.502-2.145c-0.997,0.624-2.175,0.986-3.437,0.986c-1.551,0-2.975-0.545-4.092-1.453l2.001,8.271
		c0.146,0.606-0.101,1.237-0.618,1.583l-4.82,3.213c-0.498,0.332-1.147,0.332-1.645,0l-4.82-3.213
		c-0.228-0.151-0.401-0.362-0.513-0.6c-0.522,0.408-1.177,0.653-1.89,0.653c-1.595,0-2.905-1.215-3.059-2.77h-9.46v-0.014
		c-0.896-0.051-1.723-0.349-2.424-0.821c0.003,0.492-0.235,0.963-0.657,1.244l-4.818,3.211c-0.499,0.332-1.147,0.332-1.645,0
		l-3.988-2.657c-1.151,1.813-3.174,3.016-5.479,3.016c-3.585,0-6.49-2.906-6.49-6.491c0-0.596,0.081-1.172,0.231-1.72
		c-0.51,0.221-1.063,0.359-1.645,0.394v0.014h-9.427l0.384,1.59c0.147,0.604-0.1,1.236-0.619,1.583l-4.819,3.212
		c-0.498,0.332-1.146,0.332-1.645,0l-4.819-3.212C137.312,315.041,137.065,314.409,137.211,313.805"/>
	
		<path clip-path="url(#SVGID_6_)" fill="none" stroke="#3333FF" stroke-width="2" stroke-linecap="round" stroke-linejoin="round" stroke-miterlimit="10" d="
		M137.211,313.805l4.819-19.922c0.367-1.512,2.517-1.512,2.883,0l2.933,12.12h3.469c0-1.288,1.045-2.333,2.334-2.333
		c0.483,0,0.932,0.147,1.304,0.399c0.885-0.95,2.143-1.546,3.542-1.546c2.677,0,4.847,2.17,4.847,4.845
		c0,0.21-0.018,0.415-0.044,0.618c0.984-0.602,2.142-0.95,3.381-0.95c2.17,0,4.091,1.067,5.268,2.703l3.579-14.793
		c0.367-1.513,2.518-1.513,2.883,0l3.352,13.851c0.834-1.462,2.405-2.448,4.209-2.448c1.399,0,2.657,0.597,3.542,1.546
		c0.372-0.252,0.821-0.399,1.304-0.399c1.289,0,2.333,1.044,2.333,2.333h6.579c0.711,0,1.363,0.242,1.886,0.645l3.199-13.22
		c0.366-1.512,2.517-1.512,2.882,0l0.968,4c1.006-2.283,3.287-3.879,5.943-3.879c3.584,0,6.491,2.906,6.491,6.491
		c0,0.649-0.097,1.276-0.275,1.868c0.09-0.008,0.181-0.014,0.274-0.014h6.577c0-1.289,1.045-2.333,2.334-2.333
		c0.483,0,0.932,0.146,1.305,0.397c0.884-0.949,2.141-1.545,3.541-1.545c1.5,0,2.84,0.681,3.729,1.752l2.275-9.403
		c0.366-1.513,2.517-1.513,2.882,0l2.561,10.581c0.599-2.966,3.219-5.198,6.361-5.198c3.585,0,6.491,2.904,6.491,6.489
		s-2.906,6.49-6.491,6.49c-2.052,0-3.88-0.952-5.069-2.438l0.967,3.995c0.146,0.606-0.101,1.237-0.619,1.583l-4.819,3.213
		c-0.498,0.332-1.147,0.332-1.645,0l-4.82-3.213c-0.517-0.346-0.765-0.977-0.619-1.583l0.721-2.977
		c-0.504,0.215-1.05,0.354-1.625,0.385v0.016h-9.461c-0.153,1.554-1.464,2.769-3.059,2.769c-1.697,0-3.073-1.377-3.073-3.075
		c0-0.038,0.004-0.073,0.005-0.111c-0.778-0.449-1.339-1.229-1.502-2.145c-0.997,0.624-2.175,0.986-3.437,0.986
		c-1.551,0-2.975-0.545-4.092-1.453l2.001,8.271c0.146,0.606-0.101,1.237-0.618,1.583l-4.82,3.213c-0.498,0.332-1.147,0.332-1.645,0
		l-4.82-3.213c-0.228-0.151-0.401-0.362-0.513-0.6c-0.522,0.408-1.177,0.653-1.89,0.653c-1.595,0-2.905-1.215-3.059-2.77h-9.46
		v-0.014c-0.896-0.051-1.723-0.349-2.424-0.821c0.003,0.492-0.235,0.963-0.657,1.244l-4.818,3.211c-0.499,0.332-1.147,0.332-1.645,0
		l-3.988-2.657c-1.151,1.813-3.174,3.016-5.479,3.016c-3.585,0-6.49-2.906-6.49-6.491c0-0.596,0.081-1.172,0.231-1.72
		c-0.51,0.221-1.063,0.359-1.645,0.394v0.014h-9.427l0.384,1.59c0.147,0.604-0.1,1.236-0.619,1.583l-4.819,3.212
		c-0.498,0.332-1.146,0.332-1.645,0l-4.819-3.212C137.312,315.041,137.065,314.409,137.211,313.805z"/>
	<path clip-path="url(#SVGID_6_)" fill="#48DCAD" d="M35.662,335.614l85.509-146.548c1.643-2.824,5.723-2.824,7.366,0
		l85.875,147.863L35.662,335.614z"/>
	
		<path clip-path="url(#SVGID_6_)" fill="none" stroke="#3333FF" stroke-width="2" stroke-linecap="round" stroke-linejoin="round" stroke-miterlimit="10" d="
		M35.662,335.614l85.509-146.548c1.643-2.824,5.723-2.824,7.366,0l85.875,147.863L35.662,335.614z"/>
	<path clip-path="url(#SVGID_6_)" fill="#FFFFFF" d="M90.03,242.513l11.587,7.516c1.794,1.176,4.151,1.015,5.768-0.396l8.581-7.487
		c0.93-0.813,2.14-1.233,3.375-1.174l9.535,0.459c1.932,0.093,3.731-0.987,4.556-2.738l1.444-3.063
		c0.926-1.967,3.064-3.061,5.202-2.661l15.612,2.897l-27.199-46.879c-1.622-2.788-5.649-2.788-7.273,0L90.03,242.513z"/>
	
		<path clip-path="url(#SVGID_6_)" fill="none" stroke="#3333FF" stroke-width="2" stroke-linecap="round" stroke-linejoin="round" stroke-miterlimit="10" d="
		M90.03,242.513l11.587,7.516c1.794,1.176,4.151,1.015,5.768-0.396l8.581-7.487c0.93-0.813,2.14-1.233,3.375-1.174l9.535,0.459
		c1.932,0.093,3.731-0.987,4.556-2.738l1.444-3.063c0.926-1.967,3.064-3.061,5.202-2.661l15.612,2.897l-27.199-46.879
		c-1.622-2.788-5.649-2.788-7.273,0L90.03,242.513z"/>
	<path clip-path="url(#SVGID_6_)" fill="#1EB3AE" d="M236.295,341.246l-5.957-24.622c-0.452-1.87-3.11-1.87-3.564,0l-3.624,14.979
		h-4.289c0-1.592-1.291-2.884-2.884-2.884c-0.597,0-1.152,0.181-1.613,0.493c-1.092-1.174-2.647-1.911-4.377-1.911
		c-3.308,0-5.99,2.681-5.99,5.99c0,0.259,0.022,0.512,0.054,0.763c-1.217-0.745-2.648-1.174-4.179-1.174
		c-2.682,0-5.056,1.317-6.513,3.341l-4.422-18.286c-0.453-1.87-3.112-1.87-3.564,0l-4.142,17.122
		c-1.032-1.808-2.973-3.029-5.203-3.029c-1.73,0-3.284,0.738-4.378,1.911c-0.459-0.311-1.014-0.492-1.612-0.492
		c-1.593,0-2.884,1.291-2.884,2.885h-8.13c-0.879,0-1.686,0.299-2.333,0.795l-3.954-16.339c-0.452-1.869-3.11-1.869-3.563,0
		l-1.195,4.943c-1.244-2.821-4.063-4.795-7.345-4.795c-4.431,0-8.023,3.592-8.023,8.024c0,0.803,0.12,1.577,0.339,2.308
		c-0.111-0.009-0.224-0.016-0.338-0.016h-8.13c0-1.593-1.291-2.885-2.884-2.885c-0.598,0-1.153,0.182-1.613,0.492
		c-1.093-1.174-2.647-1.911-4.378-1.911c-1.853,0-3.51,0.844-4.609,2.165l-2.811-11.62c-0.453-1.869-3.112-1.869-3.564,0
		l-3.164,13.077c-0.74-3.666-3.978-6.426-7.863-6.426c-4.431,0-8.023,3.592-8.023,8.023c0,4.431,3.592,8.021,8.023,8.021
		c2.536,0,4.796-1.177,6.265-3.014l-1.195,4.938c-0.181,0.748,0.125,1.529,0.766,1.956l5.957,3.972c0.615,0.41,1.417,0.41,2.033,0
		l5.956-3.972c0.641-0.427,0.946-1.208,0.766-1.956l-0.891-3.681c0.623,0.268,1.298,0.438,2.009,0.479v0.018h11.693
		c0.19,1.92,1.81,3.421,3.78,3.421c2.099,0,3.8-1.701,3.8-3.799c0-0.047-0.006-0.092-0.007-0.138c0.962-0.558,1.655-1.52,1.857-2.65
		c1.232,0.771,2.687,1.218,4.249,1.218c1.917,0,3.677-0.674,5.057-1.797l-2.473,10.225c-0.182,0.747,0.124,1.528,0.764,1.957
		l5.958,3.97c0.615,0.41,1.417,0.41,2.033,0l5.957-3.97c0.282-0.189,0.495-0.449,0.635-0.742c0.644,0.504,1.454,0.807,2.335,0.807
		c1.971,0,3.591-1.501,3.781-3.422h11.693v-0.018c1.108-0.063,2.13-0.432,2.996-1.015c-0.004,0.608,0.29,1.19,0.811,1.537
		l5.957,3.969c0.616,0.411,1.418,0.411,2.033,0l4.928-3.284c1.424,2.239,3.924,3.727,6.773,3.727c4.431,0,8.023-3.592,8.023-8.023
		c0-0.735-0.101-1.447-0.287-2.126c0.629,0.273,1.313,0.447,2.033,0.488v0.017h11.652l-0.475,1.965
		c-0.181,0.748,0.124,1.528,0.765,1.956l5.957,3.97c0.615,0.41,1.418,0.41,2.033,0l5.957-3.97
		C236.171,342.774,236.476,341.994,236.295,341.246"/>
	
		<path clip-path="url(#SVGID_6_)" fill="none" stroke="#3333FF" stroke-width="2" stroke-linecap="round" stroke-linejoin="round" stroke-miterlimit="10" d="
		M236.295,341.246l-5.957-24.622c-0.452-1.87-3.11-1.87-3.564,0l-3.624,14.979h-4.289c0-1.592-1.291-2.884-2.884-2.884
		c-0.597,0-1.152,0.181-1.613,0.493c-1.092-1.174-2.647-1.911-4.377-1.911c-3.308,0-5.99,2.681-5.99,5.99
		c0,0.259,0.022,0.512,0.054,0.763c-1.217-0.745-2.648-1.174-4.179-1.174c-2.682,0-5.056,1.317-6.513,3.341l-4.422-18.286
		c-0.453-1.87-3.112-1.87-3.564,0l-4.142,17.122c-1.032-1.808-2.973-3.029-5.203-3.029c-1.73,0-3.284,0.738-4.378,1.911
		c-0.459-0.311-1.014-0.492-1.612-0.492c-1.593,0-2.884,1.291-2.884,2.885h-8.13c-0.879,0-1.686,0.299-2.333,0.795l-3.954-16.339
		c-0.452-1.869-3.11-1.869-3.563,0l-1.195,4.943c-1.244-2.821-4.063-4.795-7.345-4.795c-4.431,0-8.023,3.592-8.023,8.024
		c0,0.803,0.12,1.577,0.339,2.308c-0.111-0.009-0.224-0.016-0.338-0.016h-8.13c0-1.593-1.291-2.885-2.884-2.885
		c-0.598,0-1.153,0.182-1.613,0.492c-1.093-1.174-2.647-1.911-4.378-1.911c-1.853,0-3.51,0.844-4.609,2.165l-2.811-11.62
		c-0.453-1.869-3.112-1.869-3.564,0l-3.164,13.077c-0.74-3.666-3.978-6.426-7.863-6.426c-4.431,0-8.023,3.592-8.023,8.023
		c0,4.431,3.592,8.021,8.023,8.021c2.536,0,4.796-1.177,6.265-3.014l-1.195,4.938c-0.181,0.748,0.125,1.529,0.766,1.956l5.957,3.972
		c0.615,0.41,1.417,0.41,2.033,0l5.956-3.972c0.641-0.427,0.946-1.208,0.766-1.956l-0.891-3.681
		c0.623,0.268,1.298,0.438,2.009,0.479v0.018h11.693c0.19,1.92,1.81,3.421,3.78,3.421c2.099,0,3.8-1.701,3.8-3.799
		c0-0.047-0.006-0.092-0.007-0.138c0.962-0.558,1.655-1.52,1.857-2.65c1.232,0.771,2.687,1.218,4.249,1.218
		c1.917,0,3.677-0.674,5.057-1.797l-2.473,10.225c-0.182,0.747,0.124,1.528,0.764,1.957l5.958,3.97c0.615,0.41,1.417,0.41,2.033,0
		l5.957-3.97c0.282-0.189,0.495-0.449,0.635-0.742c0.644,0.504,1.454,0.807,2.335,0.807c1.971,0,3.591-1.501,3.781-3.422h11.693
		v-0.018c1.108-0.063,2.13-0.432,2.996-1.015c-0.004,0.608,0.29,1.19,0.811,1.537l5.957,3.969c0.616,0.411,1.418,0.411,2.033,0
		l4.928-3.284c1.424,2.239,3.924,3.727,6.773,3.727c4.431,0,8.023-3.592,8.023-8.023c0-0.735-0.101-1.447-0.287-2.126
		c0.629,0.273,1.313,0.447,2.033,0.488v0.017h11.652l-0.475,1.965c-0.181,0.748,0.124,1.528,0.765,1.956l5.957,3.97
		c0.615,0.41,1.418,0.41,2.033,0l5.957-3.97C236.171,342.774,236.476,341.994,236.295,341.246z"/>
	
		<rect x="62.658" y="360.538" transform="matrix(0.8974 -0.4413 0.4413 0.8974 -153.3664 89.6295)" clip-path="url(#SVGID_6_)" fill="#E1E1E1" width="106.708" height="28"/>
	
		<rect x="62.658" y="360.538" transform="matrix(0.8974 -0.4413 0.4413 0.8974 -153.3664 89.6295)" clip-path="url(#SVGID_6_)" fill="none" stroke="#3333FF" stroke-width="2" stroke-linecap="round" stroke-linejoin="round" stroke-miterlimit="10" width="106.708" height="28"/>
	
		<line clip-path="url(#SVGID_6_)" fill="none" stroke="#3333FF" stroke-width="2" stroke-linecap="round" stroke-linejoin="round" stroke-miterlimit="10" x1="140.416" y1="346.936" x2="152.771" y2="372.063"/>
	
		<line clip-path="url(#SVGID_6_)" fill="none" stroke="#3333FF" stroke-width="2" stroke-linecap="round" stroke-linejoin="round" stroke-miterlimit="10" x1="123.121" y1="355.44" x2="135.476" y2="380.567"/>
	
		<line clip-path="url(#SVGID_6_)" fill="none" stroke="#3333FF" stroke-width="2" stroke-linecap="round" stroke-linejoin="round" stroke-miterlimit="10" x1="105.826" y1="363.945" x2="118.182" y2="389.071"/>
	
		<line clip-path="url(#SVGID_6_)" fill="none" stroke="#3333FF" stroke-width="2" stroke-linecap="round" stroke-linejoin="round" stroke-miterlimit="10" x1="88.53" y1="372.45" x2="100.886" y2="397.576"/>
	
		<line clip-path="url(#SVGID_6_)" fill="none" stroke="#3333FF" stroke-width="2" stroke-linecap="round" stroke-linejoin="round" stroke-miterlimit="10" x1="71.235" y1="380.954" x2="83.59" y2="406.081"/>
	
		<line clip-path="url(#SVGID_6_)" fill="none" stroke="#3333FF" stroke-width="2" stroke-linecap="round" stroke-linejoin="round" stroke-miterlimit="10" x1="148.93" y1="342.749" x2="161.285" y2="367.876"/>
	
		<line clip-path="url(#SVGID_6_)" fill="none" stroke="#3333FF" stroke-width="2" stroke-linecap="round" stroke-linejoin="round" stroke-miterlimit="10" x1="131.635" y1="351.254" x2="143.99" y2="376.381"/>
	
		<line clip-path="url(#SVGID_6_)" fill="none" stroke="#3333FF" stroke-width="2" stroke-linecap="round" stroke-linejoin="round" stroke-miterlimit="10" x1="114.34" y1="359.759" x2="126.695" y2="384.885"/>
	
		<line clip-path="url(#SVGID_6_)" fill="none" stroke="#3333FF" stroke-width="2" stroke-linecap="round" stroke-linejoin="round" stroke-miterlimit="10" x1="97.044" y1="368.264" x2="109.399" y2="393.39"/>
	
		<line clip-path="url(#SVGID_6_)" fill="none" stroke="#3333FF" stroke-width="2" stroke-linecap="round" stroke-linejoin="round" stroke-miterlimit="10" x1="79.749" y1="376.768" x2="92.104" y2="401.895"/>
	<line clip-path="url(#SVGID_6_)" fill="#E1E1E1" x1="68.133" y1="398.081" x2="163.89" y2="350.993"/>
	
		<line clip-path="url(#SVGID_6_)" fill="none" stroke="#3333FF" stroke-width="2" stroke-linecap="round" stroke-linejoin="round" stroke-miterlimit="10" x1="68.133" y1="398.081" x2="163.89" y2="350.993"/>
	
		<rect x="103.847" y="371.506" transform="matrix(0.8974 -0.4413 0.4413 0.8974 -153.9792 108.9307)" clip-path="url(#SVGID_6_)" fill="#E1E1E1" width="106.708" height="27.999"/>
	
		<rect x="103.847" y="371.506" transform="matrix(0.8974 -0.4413 0.4413 0.8974 -153.9792 108.9307)" clip-path="url(#SVGID_6_)" fill="none" stroke="#3333FF" stroke-width="2" stroke-linecap="round" stroke-linejoin="round" stroke-miterlimit="10" width="106.708" height="27.999"/>
	
		<line clip-path="url(#SVGID_6_)" fill="none" stroke="#3333FF" stroke-width="2" stroke-linecap="round" stroke-linejoin="round" stroke-miterlimit="10" x1="181.605" y1="357.904" x2="193.961" y2="383.03"/>
	
		<line clip-path="url(#SVGID_6_)" fill="none" stroke="#3333FF" stroke-width="2" stroke-linecap="round" stroke-linejoin="round" stroke-miterlimit="10" x1="164.311" y1="366.408" x2="176.666" y2="391.535"/>
	
		<line clip-path="url(#SVGID_6_)" fill="none" stroke="#3333FF" stroke-width="2" stroke-linecap="round" stroke-linejoin="round" stroke-miterlimit="10" x1="147.015" y1="374.913" x2="159.371" y2="400.04"/>
	
		<line clip-path="url(#SVGID_6_)" fill="none" stroke="#3333FF" stroke-width="2" stroke-linecap="round" stroke-linejoin="round" stroke-miterlimit="10" x1="129.72" y1="383.418" x2="142.075" y2="408.544"/>
	
		<line clip-path="url(#SVGID_6_)" fill="none" stroke="#3333FF" stroke-width="2" stroke-linecap="round" stroke-linejoin="round" stroke-miterlimit="10" x1="112.425" y1="391.923" x2="124.78" y2="417.049"/>
	
		<line clip-path="url(#SVGID_6_)" fill="none" stroke="#3333FF" stroke-width="2" stroke-linecap="round" stroke-linejoin="round" stroke-miterlimit="10" x1="190.119" y1="353.718" x2="202.474" y2="378.844"/>
	
		<line clip-path="url(#SVGID_6_)" fill="none" stroke="#3333FF" stroke-width="2" stroke-linecap="round" stroke-linejoin="round" stroke-miterlimit="10" x1="172.824" y1="362.222" x2="185.179" y2="387.349"/>
	
		<line clip-path="url(#SVGID_6_)" fill="none" stroke="#3333FF" stroke-width="2" stroke-linecap="round" stroke-linejoin="round" stroke-miterlimit="10" x1="155.529" y1="370.727" x2="167.884" y2="395.854"/>
	
		<line clip-path="url(#SVGID_6_)" fill="none" stroke="#3333FF" stroke-width="2" stroke-linecap="round" stroke-linejoin="round" stroke-miterlimit="10" x1="138.233" y1="379.231" x2="150.588" y2="404.357"/>
	
		<line clip-path="url(#SVGID_6_)" fill="none" stroke="#3333FF" stroke-width="2" stroke-linecap="round" stroke-linejoin="round" stroke-miterlimit="10" x1="120.938" y1="387.736" x2="133.293" y2="412.862"/>
	<line clip-path="url(#SVGID_6_)" fill="#E1E1E1" x1="109.322" y1="409.049" x2="205.08" y2="361.963"/>
	
		<line clip-path="url(#SVGID_6_)" fill="none" stroke="#3333FF" stroke-width="2" stroke-linecap="round" stroke-linejoin="round" stroke-miterlimit="10" x1="109.322" y1="409.049" x2="205.08" y2="361.963"/>
	
		<rect x="135.732" y="382.801" transform="matrix(0.8974 -0.4413 0.4413 0.8974 -155.6912 124.1597)" clip-path="url(#SVGID_6_)" fill="#E1E1E1" width="106.708" height="27.999"/>
	
		<rect x="135.732" y="382.801" transform="matrix(0.8974 -0.4413 0.4413 0.8974 -155.6912 124.1597)" clip-path="url(#SVGID_6_)" fill="none" stroke="#3333FF" stroke-width="2" stroke-linecap="round" stroke-linejoin="round" stroke-miterlimit="10" width="106.708" height="27.999"/>
	
		<line clip-path="url(#SVGID_6_)" fill="none" stroke="#3333FF" stroke-width="2" stroke-linecap="round" stroke-linejoin="round" stroke-miterlimit="10" x1="213.491" y1="369.199" x2="225.846" y2="394.325"/>
	
		<line clip-path="url(#SVGID_6_)" fill="none" stroke="#3333FF" stroke-width="2" stroke-linecap="round" stroke-linejoin="round" stroke-miterlimit="10" x1="196.195" y1="377.703" x2="208.55" y2="402.83"/>
	
		<line clip-path="url(#SVGID_6_)" fill="none" stroke="#3333FF" stroke-width="2" stroke-linecap="round" stroke-linejoin="round" stroke-miterlimit="10" x1="178.9" y1="386.208" x2="191.255" y2="411.335"/>
	
		<line clip-path="url(#SVGID_6_)" fill="none" stroke="#3333FF" stroke-width="2" stroke-linecap="round" stroke-linejoin="round" stroke-miterlimit="10" x1="161.605" y1="394.713" x2="173.961" y2="419.84"/>
	
		<line clip-path="url(#SVGID_6_)" fill="none" stroke="#3333FF" stroke-width="2" stroke-linecap="round" stroke-linejoin="round" stroke-miterlimit="10" x1="144.31" y1="403.218" x2="156.665" y2="428.344"/>
	
		<line clip-path="url(#SVGID_6_)" fill="none" stroke="#3333FF" stroke-width="2" stroke-linecap="round" stroke-linejoin="round" stroke-miterlimit="10" x1="222.005" y1="365.013" x2="234.36" y2="390.139"/>
	
		<line clip-path="url(#SVGID_6_)" fill="none" stroke="#3333FF" stroke-width="2" stroke-linecap="round" stroke-linejoin="round" stroke-miterlimit="10" x1="204.709" y1="373.518" x2="217.065" y2="398.644"/>
	
		<line clip-path="url(#SVGID_6_)" fill="none" stroke="#3333FF" stroke-width="2" stroke-linecap="round" stroke-linejoin="round" stroke-miterlimit="10" x1="187.414" y1="382.021" x2="199.77" y2="407.148"/>
	
		<line clip-path="url(#SVGID_6_)" fill="none" stroke="#3333FF" stroke-width="2" stroke-linecap="round" stroke-linejoin="round" stroke-miterlimit="10" x1="170.119" y1="390.526" x2="182.474" y2="415.653"/>
	
		<line clip-path="url(#SVGID_6_)" fill="none" stroke="#3333FF" stroke-width="2" stroke-linecap="round" stroke-linejoin="round" stroke-miterlimit="10" x1="152.823" y1="399.031" x2="165.178" y2="424.157"/>
	<line clip-path="url(#SVGID_6_)" fill="#E1E1E1" x1="141.207" y1="420.345" x2="236.964" y2="373.257"/>
	
		<line clip-path="url(#SVGID_6_)" fill="none" stroke="#3333FF" stroke-width="2" stroke-linecap="round" stroke-linejoin="round" stroke-miterlimit="10" x1="141.207" y1="420.345" x2="236.964" y2="373.257"/>
	<path clip-path="url(#SVGID_6_)" fill="#3333FF" d="M448.575,285.506c0-0.967-0.783-1.75-1.749-1.75c-0.967,0-1.75,0.783-1.75,1.75
		c0,0.966,0.783,1.75,1.75,1.75C447.792,287.256,448.575,286.472,448.575,285.506"/>
	
		<circle clip-path="url(#SVGID_6_)" fill="none" stroke="#3333FF" stroke-width="2" stroke-linecap="round" stroke-linejoin="round" stroke-miterlimit="10" cx="446.826" cy="285.506" r="1.75"/>
	
		<line clip-path="url(#SVGID_6_)" fill="none" stroke="#3333FF" stroke-width="2" stroke-linecap="round" stroke-linejoin="round" stroke-miterlimit="10" x1="434.807" y1="287.256" x2="434.807" y2="309.156"/>
	<path clip-path="url(#SVGID_6_)" fill="#3333FF" d="M436.557,285.506c0-0.967-0.784-1.75-1.75-1.75c-0.967,0-1.75,0.783-1.75,1.75
		c0,0.966,0.783,1.75,1.75,1.75C435.772,287.256,436.557,286.472,436.557,285.506"/>
	
		<circle clip-path="url(#SVGID_6_)" fill="none" stroke="#3333FF" stroke-width="2" stroke-linecap="round" stroke-linejoin="round" stroke-miterlimit="10" cx="434.807" cy="285.506" r="1.75"/>
	
		<line clip-path="url(#SVGID_6_)" fill="none" stroke="#3333FF" stroke-width="2" stroke-linecap="round" stroke-linejoin="round" stroke-miterlimit="10" x1="422.938" y1="287.256" x2="422.938" y2="309.156"/>
	<path clip-path="url(#SVGID_6_)" fill="#3333FF" d="M424.688,285.506c0-0.967-0.783-1.75-1.75-1.75
		c-0.966,0-1.749,0.783-1.749,1.75c0,0.966,0.783,1.75,1.749,1.75C423.904,287.256,424.688,286.472,424.688,285.506"/>
	
		<circle clip-path="url(#SVGID_6_)" fill="none" stroke="#3333FF" stroke-width="2" stroke-linecap="round" stroke-linejoin="round" stroke-miterlimit="10" cx="422.938" cy="285.506" r="1.75"/>
	
		<line clip-path="url(#SVGID_6_)" fill="none" stroke="#3333FF" stroke-width="2" stroke-linecap="round" stroke-linejoin="round" stroke-miterlimit="10" x1="417.004" y1="296.32" x2="417.004" y2="309.249"/>
	<path clip-path="url(#SVGID_6_)" fill="#3333FF" d="M418.753,294.57c0-0.967-0.783-1.749-1.749-1.749
		c-0.967,0-1.75,0.782-1.75,1.749s0.783,1.75,1.75,1.75C417.97,296.32,418.753,295.537,418.753,294.57"/>
	
		<circle clip-path="url(#SVGID_6_)" fill="none" stroke="#3333FF" stroke-width="2" stroke-linecap="round" stroke-linejoin="round" stroke-miterlimit="10" cx="417.003" cy="294.57" r="1.75"/>
	
		<line clip-path="url(#SVGID_6_)" fill="none" stroke="#3333FF" stroke-width="2" stroke-linecap="round" stroke-linejoin="round" stroke-miterlimit="10" x1="411.069" y1="287.256" x2="411.069" y2="309.156"/>
	<path clip-path="url(#SVGID_6_)" fill="#3333FF" d="M412.819,285.506c0-0.967-0.784-1.75-1.75-1.75c-0.967,0-1.75,0.783-1.75,1.75
		c0,0.966,0.783,1.75,1.75,1.75C412.035,287.256,412.819,286.472,412.819,285.506"/>
	
		<circle clip-path="url(#SVGID_6_)" fill="none" stroke="#3333FF" stroke-width="2" stroke-linecap="round" stroke-linejoin="round" stroke-miterlimit="10" cx="411.069" cy="285.506" r="1.75"/>
	
		<line clip-path="url(#SVGID_6_)" fill="none" stroke="#3333FF" stroke-width="2" stroke-linecap="round" stroke-linejoin="round" stroke-miterlimit="10" x1="428.872" y1="296.32" x2="428.872" y2="309.249"/>
	<path clip-path="url(#SVGID_6_)" fill="#3333FF" d="M430.622,294.57c0-0.967-0.783-1.749-1.75-1.749
		c-0.966,0-1.75,0.782-1.75,1.749s0.784,1.75,1.75,1.75C429.839,296.32,430.622,295.537,430.622,294.57"/>
	
		<circle clip-path="url(#SVGID_6_)" fill="none" stroke="#3333FF" stroke-width="2" stroke-linecap="round" stroke-linejoin="round" stroke-miterlimit="10" cx="428.872" cy="294.57" r="1.75"/>
	
		<line clip-path="url(#SVGID_6_)" fill="none" stroke="#3333FF" stroke-width="2" stroke-linecap="round" stroke-linejoin="round" stroke-miterlimit="10" x1="405.135" y1="296.32" x2="405.135" y2="309.249"/>
	<path clip-path="url(#SVGID_6_)" fill="#3333FF" d="M406.885,294.57c0-0.967-0.783-1.749-1.75-1.749
		c-0.966,0-1.75,0.782-1.75,1.749s0.784,1.75,1.75,1.75C406.102,296.32,406.885,295.537,406.885,294.57"/>
	
		<circle clip-path="url(#SVGID_6_)" fill="none" stroke="#3333FF" stroke-width="2" stroke-linecap="round" stroke-linejoin="round" stroke-miterlimit="10" cx="405.135" cy="294.57" r="1.75"/>
	
		<line clip-path="url(#SVGID_6_)" fill="none" stroke="#3333FF" stroke-width="2" stroke-linecap="round" stroke-linejoin="round" stroke-miterlimit="10" x1="399.2" y1="287.256" x2="399.2" y2="309.156"/>
	<path clip-path="url(#SVGID_6_)" fill="#3333FF" d="M400.95,285.506c0-0.967-0.783-1.75-1.75-1.75c-0.966,0-1.749,0.783-1.749,1.75
		c0,0.966,0.783,1.75,1.749,1.75C400.167,287.256,400.95,286.472,400.95,285.506"/>
	
		<circle clip-path="url(#SVGID_6_)" fill="none" stroke="#3333FF" stroke-width="2" stroke-linecap="round" stroke-linejoin="round" stroke-miterlimit="10" cx="399.201" cy="285.506" r="1.75"/>
	
		<line clip-path="url(#SVGID_6_)" fill="none" stroke="#3333FF" stroke-width="2" stroke-linecap="round" stroke-linejoin="round" stroke-miterlimit="10" x1="393.267" y1="296.32" x2="393.267" y2="309.249"/>
	<path clip-path="url(#SVGID_6_)" fill="#3333FF" d="M395.016,294.57c0-0.967-0.783-1.749-1.749-1.749
		c-0.967,0-1.75,0.782-1.75,1.749s0.783,1.75,1.75,1.75C394.232,296.32,395.016,295.537,395.016,294.57"/>
	
		<circle clip-path="url(#SVGID_6_)" fill="none" stroke="#3333FF" stroke-width="2" stroke-linecap="round" stroke-linejoin="round" stroke-miterlimit="10" cx="393.266" cy="294.57" r="1.75"/>
	
		<line clip-path="url(#SVGID_6_)" fill="none" stroke="#3333FF" stroke-width="2" stroke-linecap="round" stroke-linejoin="round" stroke-miterlimit="10" x1="387.332" y1="287.256" x2="387.332" y2="309.156"/>
	<path clip-path="url(#SVGID_6_)" fill="#3333FF" d="M389.081,285.506c0-0.967-0.783-1.75-1.749-1.75c-0.967,0-1.75,0.783-1.75,1.75
		c0,0.966,0.783,1.75,1.75,1.75C388.298,287.256,389.081,286.472,389.081,285.506"/>
	
		<circle clip-path="url(#SVGID_6_)" fill="none" stroke="#3333FF" stroke-width="2" stroke-linecap="round" stroke-linejoin="round" stroke-miterlimit="10" cx="387.332" cy="285.506" r="1.75"/>
	
		<line clip-path="url(#SVGID_6_)" fill="none" stroke="#3333FF" stroke-width="2" stroke-linecap="round" stroke-linejoin="round" stroke-miterlimit="10" x1="369.378" y1="296.32" x2="369.378" y2="309.249"/>
	<path clip-path="url(#SVGID_6_)" fill="#3333FF" d="M371.128,294.57c0-0.967-0.783-1.749-1.75-1.749
		c-0.966,0-1.749,0.782-1.749,1.749s0.783,1.75,1.749,1.75C370.345,296.32,371.128,295.537,371.128,294.57"/>
	
		<circle clip-path="url(#SVGID_6_)" fill="none" stroke="#3333FF" stroke-width="2" stroke-linecap="round" stroke-linejoin="round" stroke-miterlimit="10" cx="369.378" cy="294.57" r="1.75"/>
	
		<line clip-path="url(#SVGID_6_)" fill="none" stroke="#3333FF" stroke-width="2" stroke-linecap="round" stroke-linejoin="round" stroke-miterlimit="10" x1="363.443" y1="287.256" x2="363.443" y2="309.156"/>
	<path clip-path="url(#SVGID_6_)" fill="#3333FF" d="M365.193,285.506c0-0.967-0.783-1.75-1.75-1.75
		c-0.966,0-1.749,0.783-1.749,1.75c0,0.966,0.783,1.75,1.749,1.75C364.41,287.256,365.193,286.472,365.193,285.506"/>
	
		<circle clip-path="url(#SVGID_6_)" fill="none" stroke="#3333FF" stroke-width="2" stroke-linecap="round" stroke-linejoin="round" stroke-miterlimit="10" cx="363.444" cy="285.506" r="1.75"/>
	
		<line clip-path="url(#SVGID_6_)" fill="none" stroke="#3333FF" stroke-width="2" stroke-linecap="round" stroke-linejoin="round" stroke-miterlimit="10" x1="357.51" y1="296.32" x2="357.51" y2="309.249"/>
	<path clip-path="url(#SVGID_6_)" fill="#3333FF" d="M359.259,294.57c0-0.967-0.783-1.749-1.749-1.749
		c-0.967,0-1.75,0.782-1.75,1.749s0.783,1.75,1.75,1.75C358.476,296.32,359.259,295.537,359.259,294.57"/>
	
		<circle clip-path="url(#SVGID_6_)" fill="none" stroke="#3333FF" stroke-width="2" stroke-linecap="round" stroke-linejoin="round" stroke-miterlimit="10" cx="357.509" cy="294.57" r="1.75"/>
	
		<line clip-path="url(#SVGID_6_)" fill="none" stroke="#3333FF" stroke-width="2" stroke-linecap="round" stroke-linejoin="round" stroke-miterlimit="10" x1="351.575" y1="287.256" x2="351.575" y2="309.156"/>
	<path clip-path="url(#SVGID_6_)" fill="#3333FF" d="M353.324,285.506c0-0.967-0.783-1.75-1.749-1.75c-0.967,0-1.75,0.783-1.75,1.75
		c0,0.966,0.783,1.75,1.75,1.75C352.541,287.256,353.324,286.472,353.324,285.506"/>
	
		<circle clip-path="url(#SVGID_6_)" fill="none" stroke="#3333FF" stroke-width="2" stroke-linecap="round" stroke-linejoin="round" stroke-miterlimit="10" cx="351.575" cy="285.506" r="1.75"/>
	
		<line clip-path="url(#SVGID_6_)" fill="none" stroke="#3333FF" stroke-width="2" stroke-linecap="round" stroke-linejoin="round" stroke-miterlimit="10" x1="345.641" y1="296.32" x2="345.641" y2="309.249"/>
	<path clip-path="url(#SVGID_6_)" fill="#3333FF" d="M347.391,294.57c0-0.967-0.783-1.749-1.75-1.749
		c-0.966,0-1.749,0.782-1.749,1.749s0.783,1.75,1.749,1.75C346.607,296.32,347.391,295.537,347.391,294.57"/>
	
		<circle clip-path="url(#SVGID_6_)" fill="none" stroke="#3333FF" stroke-width="2" stroke-linecap="round" stroke-linejoin="round" stroke-miterlimit="10" cx="345.641" cy="294.57" r="1.75"/>
	
		<line clip-path="url(#SVGID_6_)" fill="none" stroke="#3333FF" stroke-width="2" stroke-linecap="round" stroke-linejoin="round" stroke-miterlimit="10" x1="339.706" y1="287.256" x2="339.706" y2="309.156"/>
	<path clip-path="url(#SVGID_6_)" fill="#3333FF" d="M341.456,285.506c0-0.967-0.783-1.75-1.75-1.75
		c-0.966,0-1.749,0.783-1.749,1.75c0,0.966,0.783,1.75,1.749,1.75C340.673,287.256,341.456,286.472,341.456,285.506"/>
	
		<circle clip-path="url(#SVGID_6_)" fill="none" stroke="#3333FF" stroke-width="2" stroke-linecap="round" stroke-linejoin="round" stroke-miterlimit="10" cx="339.707" cy="285.506" r="1.75"/>
	
		<line clip-path="url(#SVGID_6_)" fill="none" stroke="#3333FF" stroke-width="2" stroke-linecap="round" stroke-linejoin="round" stroke-miterlimit="10" x1="333.772" y1="296.32" x2="333.772" y2="309.249"/>
	<path clip-path="url(#SVGID_6_)" fill="#3333FF" d="M335.521,294.57c0-0.967-0.783-1.749-1.749-1.749
		c-0.967,0-1.75,0.782-1.75,1.749s0.783,1.75,1.75,1.75C334.738,296.32,335.521,295.537,335.521,294.57"/>
	
		<circle clip-path="url(#SVGID_6_)" fill="none" stroke="#3333FF" stroke-width="2" stroke-linecap="round" stroke-linejoin="round" stroke-miterlimit="10" cx="333.772" cy="294.57" r="1.75"/>
	
		<line clip-path="url(#SVGID_6_)" fill="none" stroke="#3333FF" stroke-width="2" stroke-linecap="round" stroke-linejoin="round" stroke-miterlimit="10" x1="327.838" y1="287.256" x2="327.838" y2="309.156"/>
	<path clip-path="url(#SVGID_6_)" fill="#3333FF" d="M329.587,285.506c0-0.967-0.783-1.75-1.749-1.75c-0.967,0-1.75,0.783-1.75,1.75
		c0,0.966,0.783,1.75,1.75,1.75C328.804,287.256,329.587,286.472,329.587,285.506"/>
	
		<circle clip-path="url(#SVGID_6_)" fill="none" stroke="#3333FF" stroke-width="2" stroke-linecap="round" stroke-linejoin="round" stroke-miterlimit="10" cx="327.837" cy="285.506" r="1.75"/>
	<polygon clip-path="url(#SVGID_6_)" fill="#FFFFFF" points="383.732,314.18 374.808,314.18 376.973,232.492 381.568,232.492 	"/>
	
		<polygon clip-path="url(#SVGID_6_)" fill="none" stroke="#3333FF" stroke-width="2" stroke-linecap="round" stroke-linejoin="round" stroke-miterlimit="10" points="
		383.732,314.18 374.808,314.18 376.973,232.492 381.568,232.492 	"/>
	<path clip-path="url(#SVGID_6_)" fill="#FFFFFF" d="M384.015,237.11c-2.55,2.624-6.744,2.684-9.367,0.134
		c-2.624-2.551-2.684-6.744-0.134-9.368s6.744-2.685,9.367-0.134C386.505,230.292,386.564,234.486,384.015,237.11"/>
	
		<circle clip-path="url(#SVGID_6_)" fill="none" stroke="#3333FF" stroke-width="2" stroke-linecap="round" stroke-linejoin="round" stroke-miterlimit="10" cx="379.264" cy="232.493" r="6.625"/>
	<path clip-path="url(#SVGID_6_)" fill="#FFFFFF" d="M379.264,232.493l-2.752-1.004l-45.492,8.528
		c-0.766,0.145-1.27,0.879-1.129,1.646c0.131,0.71,0.777,1.207,1.498,1.151l34.43-2.653l11.582-5.751L379.264,232.493z"/>
	
		<path clip-path="url(#SVGID_6_)" fill="none" stroke="#3333FF" stroke-width="2" stroke-linecap="round" stroke-linejoin="round" stroke-miterlimit="10" d="
		M379.264,232.493l-2.752-1.004l-45.492,8.528c-0.766,0.145-1.27,0.879-1.129,1.646c0.131,0.71,0.777,1.207,1.498,1.151l34.43-2.653
		l11.582-5.751L379.264,232.493z"/>
	<path clip-path="url(#SVGID_6_)" fill="#FFFFFF" d="M379.264,232.493l0.507,2.886l30.134,35.133c0.506,0.59,1.396,0.66,1.988,0.155
		c0.549-0.469,0.656-1.277,0.248-1.873l-19.513-28.489l-10.771-7.157L379.264,232.493z"/>
	
		<path clip-path="url(#SVGID_6_)" fill="none" stroke="#3333FF" stroke-width="2" stroke-linecap="round" stroke-linejoin="round" stroke-miterlimit="10" d="
		M379.264,232.493l0.507,2.886l30.134,35.133c0.506,0.59,1.396,0.66,1.988,0.155c0.549-0.469,0.656-1.277,0.248-1.873
		l-19.513-28.489l-10.771-7.157L379.264,232.493z"/>
	<path clip-path="url(#SVGID_6_)" fill="#FFFFFF" d="M379.264,232.493l2.247-1.882l15.358-43.662c0.259-0.735-0.126-1.54-0.859-1.8
		c-0.682-0.242-1.434,0.069-1.747,0.72l-14.915,31.144l-0.813,12.906L379.264,232.493z"/>
	
		<path clip-path="url(#SVGID_6_)" fill="none" stroke="#3333FF" stroke-width="2" stroke-linecap="round" stroke-linejoin="round" stroke-miterlimit="10" d="
		M379.264,232.493l2.247-1.882l15.358-43.662c0.259-0.735-0.126-1.54-0.859-1.8c-0.682-0.242-1.434,0.069-1.747,0.72l-14.915,31.144
		l-0.813,12.906L379.264,232.493z"/>
	<path clip-path="url(#SVGID_6_)" fill="#FFFFFF" d="M381.182,234.356c-1.029,1.059-2.722,1.083-3.781,0.054
		c-1.059-1.028-1.083-2.722-0.054-3.78c1.029-1.06,2.722-1.084,3.781-0.055C382.187,231.604,382.211,233.298,381.182,234.356"/>
	
		<circle clip-path="url(#SVGID_6_)" fill="none" stroke="#3333FF" stroke-width="2" stroke-linecap="round" stroke-linejoin="round" stroke-miterlimit="10" cx="379.264" cy="232.493" r="2.674"/>
	<polygon clip-path="url(#SVGID_6_)" fill="#FFFFFF" points="428.406,329.055 414.138,329.055 416.395,188.242 424.56,188.242 	"/>
	
		<polygon clip-path="url(#SVGID_6_)" fill="none" stroke="#3333FF" stroke-width="2" stroke-linecap="round" stroke-linejoin="round" stroke-miterlimit="10" points="
		428.406,329.055 414.138,329.055 416.395,188.242 424.56,188.242 	"/>
	<path clip-path="url(#SVGID_6_)" fill="#FFFFFF" d="M0,434.999h510V0H0V434.999z M255,416.43c-110.457,0-200-89.543-200-200
		c0-110.457,89.543-200,200-200s200,89.543,200,200C455,326.887,365.457,416.43,255,416.43"/>
	
		<circle clip-path="url(#SVGID_6_)" fill="none" stroke="#3333FF" stroke-width="2" stroke-miterlimit="10" cx="255" cy="216.429" r="200"/>
	
		<line clip-path="url(#SVGID_6_)" fill="none" stroke="#3333FF" stroke-width="2" stroke-linecap="round" stroke-linejoin="round" stroke-miterlimit="10" x1="428.947" y1="311.733" x2="428.947" y2="315.366"/>
	<path clip-path="url(#SVGID_6_)" fill="#3333FF" d="M430.696,309.984c0-0.968-0.783-1.75-1.749-1.75c-0.967,0-1.75,0.782-1.75,1.75
		c0,0.966,0.783,1.749,1.75,1.749C429.913,311.733,430.696,310.95,430.696,309.984"/>
	
		<circle clip-path="url(#SVGID_6_)" fill="none" stroke="#3333FF" stroke-width="2" stroke-linecap="round" stroke-linejoin="round" stroke-miterlimit="10" cx="428.947" cy="309.984" r="1.75"/>
	
		<line clip-path="url(#SVGID_6_)" fill="none" stroke="#3333FF" stroke-width="2" stroke-linecap="round" stroke-linejoin="round" stroke-miterlimit="10" x1="423.013" y1="320.799" x2="423.013" y2="324.969"/>
	<path clip-path="url(#SVGID_6_)" fill="#3333FF" d="M424.763,319.049c0-0.967-0.783-1.75-1.75-1.75
		c-0.966,0-1.749,0.783-1.749,1.75s0.783,1.75,1.749,1.75C423.979,320.799,424.763,320.016,424.763,319.049"/>
	
		<circle clip-path="url(#SVGID_6_)" fill="none" stroke="#3333FF" stroke-width="2" stroke-linecap="round" stroke-linejoin="round" stroke-miterlimit="10" cx="423.013" cy="319.049" r="1.75"/>
	
		<line clip-path="url(#SVGID_6_)" fill="none" stroke="#3333FF" stroke-width="2" stroke-linecap="round" stroke-linejoin="round" stroke-miterlimit="10" x1="417.078" y1="311.733" x2="417.078" y2="333.635"/>
	<path clip-path="url(#SVGID_6_)" fill="#3333FF" d="M418.828,309.984c0-0.968-0.783-1.75-1.75-1.75
		c-0.966,0-1.749,0.782-1.749,1.75c0,0.966,0.783,1.749,1.749,1.749C418.045,311.733,418.828,310.95,418.828,309.984"/>
	
		<circle clip-path="url(#SVGID_6_)" fill="none" stroke="#3333FF" stroke-width="2" stroke-linecap="round" stroke-linejoin="round" stroke-miterlimit="10" cx="417.079" cy="309.984" r="1.75"/>
	
		<line clip-path="url(#SVGID_6_)" fill="none" stroke="#3333FF" stroke-width="2" stroke-linecap="round" stroke-linejoin="round" stroke-miterlimit="10" x1="411.145" y1="320.799" x2="411.145" y2="333.727"/>
	<path clip-path="url(#SVGID_6_)" fill="#3333FF" d="M412.894,319.049c0-0.967-0.783-1.75-1.749-1.75c-0.967,0-1.75,0.783-1.75,1.75
		s0.783,1.75,1.75,1.75C412.11,320.799,412.894,320.016,412.894,319.049"/>
	
		<circle clip-path="url(#SVGID_6_)" fill="none" stroke="#3333FF" stroke-width="2" stroke-linecap="round" stroke-linejoin="round" stroke-miterlimit="10" cx="411.144" cy="319.049" r="1.75"/>
	
		<line clip-path="url(#SVGID_6_)" fill="none" stroke="#3333FF" stroke-width="2" stroke-linecap="round" stroke-linejoin="round" stroke-miterlimit="10" x1="405.21" y1="311.733" x2="405.21" y2="333.635"/>
	<path clip-path="url(#SVGID_6_)" fill="#3333FF" d="M406.959,309.984c0-0.968-0.783-1.75-1.749-1.75c-0.967,0-1.75,0.782-1.75,1.75
		c0,0.966,0.783,1.749,1.75,1.749C406.176,311.733,406.959,310.95,406.959,309.984"/>
	
		<circle clip-path="url(#SVGID_6_)" fill="none" stroke="#3333FF" stroke-width="2" stroke-linecap="round" stroke-linejoin="round" stroke-miterlimit="10" cx="405.209" cy="309.984" r="1.75"/>
	
		<line clip-path="url(#SVGID_6_)" fill="none" stroke="#3333FF" stroke-width="2" stroke-linecap="round" stroke-linejoin="round" stroke-miterlimit="10" x1="399.275" y1="320.799" x2="399.275" y2="333.727"/>
	<path clip-path="url(#SVGID_6_)" fill="#3333FF" d="M401.025,319.049c0-0.967-0.783-1.75-1.75-1.75
		c-0.966,0-1.749,0.783-1.749,1.75s0.783,1.75,1.749,1.75C400.242,320.799,401.025,320.016,401.025,319.049"/>
	
		<circle clip-path="url(#SVGID_6_)" fill="none" stroke="#3333FF" stroke-width="2" stroke-linecap="round" stroke-linejoin="round" stroke-miterlimit="10" cx="399.276" cy="319.049" r="1.75"/>
	
		<line clip-path="url(#SVGID_6_)" fill="none" stroke="#3333FF" stroke-width="2" stroke-linecap="round" stroke-linejoin="round" stroke-miterlimit="10" x1="393.341" y1="311.733" x2="393.341" y2="333.635"/>
	<path clip-path="url(#SVGID_6_)" fill="#3333FF" d="M395.091,309.984c0-0.968-0.783-1.75-1.75-1.75
		c-0.966,0-1.749,0.782-1.749,1.75c0,0.966,0.783,1.749,1.749,1.749C394.308,311.733,395.091,310.95,395.091,309.984"/>
	
		<circle clip-path="url(#SVGID_6_)" fill="none" stroke="#3333FF" stroke-width="2" stroke-linecap="round" stroke-linejoin="round" stroke-miterlimit="10" cx="393.341" cy="309.984" r="1.75"/>
	
		<line clip-path="url(#SVGID_6_)" fill="none" stroke="#3333FF" stroke-width="2" stroke-linecap="round" stroke-linejoin="round" stroke-miterlimit="10" x1="387.256" y1="320.799" x2="387.256" y2="333.727"/>
	<path clip-path="url(#SVGID_6_)" fill="#3333FF" d="M389.006,319.049c0-0.967-0.783-1.75-1.75-1.75
		c-0.966,0-1.749,0.783-1.749,1.75s0.783,1.75,1.749,1.75C388.223,320.799,389.006,320.016,389.006,319.049"/>
	
		<circle clip-path="url(#SVGID_6_)" fill="none" stroke="#3333FF" stroke-width="2" stroke-linecap="round" stroke-linejoin="round" stroke-miterlimit="10" cx="387.256" cy="319.049" r="1.75"/>
	
		<line clip-path="url(#SVGID_6_)" fill="none" stroke="#3333FF" stroke-width="2" stroke-linecap="round" stroke-linejoin="round" stroke-miterlimit="10" x1="381.321" y1="311.733" x2="381.321" y2="333.635"/>
	<path clip-path="url(#SVGID_6_)" fill="#3333FF" d="M383.071,309.984c0-0.968-0.783-1.75-1.75-1.75
		c-0.966,0-1.749,0.782-1.749,1.75c0,0.966,0.783,1.749,1.749,1.749C382.288,311.733,383.071,310.95,383.071,309.984"/>
	
		<circle clip-path="url(#SVGID_6_)" fill="none" stroke="#3333FF" stroke-width="2" stroke-linecap="round" stroke-linejoin="round" stroke-miterlimit="10" cx="381.322" cy="309.984" r="1.75"/>
	
		<line clip-path="url(#SVGID_6_)" fill="none" stroke="#3333FF" stroke-width="2" stroke-linecap="round" stroke-linejoin="round" stroke-miterlimit="10" x1="375.388" y1="320.799" x2="375.388" y2="333.727"/>
	<path clip-path="url(#SVGID_6_)" fill="#3333FF" d="M377.137,319.049c0-0.967-0.783-1.75-1.749-1.75c-0.967,0-1.75,0.783-1.75,1.75
		s0.783,1.75,1.75,1.75C376.354,320.799,377.137,320.016,377.137,319.049"/>
	
		<circle clip-path="url(#SVGID_6_)" fill="none" stroke="#3333FF" stroke-width="2" stroke-linecap="round" stroke-linejoin="round" stroke-miterlimit="10" cx="375.387" cy="319.049" r="1.75"/>
	
		<line clip-path="url(#SVGID_6_)" fill="none" stroke="#3333FF" stroke-width="2" stroke-linecap="round" stroke-linejoin="round" stroke-miterlimit="10" x1="369.453" y1="311.733" x2="369.453" y2="333.635"/>
	<path clip-path="url(#SVGID_6_)" fill="#3333FF" d="M371.202,309.984c0-0.968-0.783-1.75-1.749-1.75c-0.967,0-1.75,0.782-1.75,1.75
		c0,0.966,0.783,1.749,1.75,1.749C370.419,311.733,371.202,310.95,371.202,309.984"/>
	
		<circle clip-path="url(#SVGID_6_)" fill="none" stroke="#3333FF" stroke-width="2" stroke-linecap="round" stroke-linejoin="round" stroke-miterlimit="10" cx="369.453" cy="309.984" r="1.75"/>
	
		<line clip-path="url(#SVGID_6_)" fill="none" stroke="#3333FF" stroke-width="2" stroke-linecap="round" stroke-linejoin="round" stroke-miterlimit="10" x1="363.519" y1="320.799" x2="363.519" y2="333.727"/>
	<path clip-path="url(#SVGID_6_)" fill="#3333FF" d="M365.269,319.049c0-0.967-0.783-1.75-1.75-1.75
		c-0.966,0-1.749,0.783-1.749,1.75s0.783,1.75,1.749,1.75C364.485,320.799,365.269,320.016,365.269,319.049"/>
	
		<circle clip-path="url(#SVGID_6_)" fill="none" stroke="#3333FF" stroke-width="2" stroke-linecap="round" stroke-linejoin="round" stroke-miterlimit="10" cx="363.519" cy="319.049" r="1.75"/>
	
		<line clip-path="url(#SVGID_6_)" fill="none" stroke="#3333FF" stroke-width="2" stroke-linecap="round" stroke-linejoin="round" stroke-miterlimit="10" x1="357.584" y1="311.733" x2="357.584" y2="333.635"/>
	<path clip-path="url(#SVGID_6_)" fill="#3333FF" d="M359.334,309.984c0-0.968-0.783-1.75-1.75-1.75
		c-0.966,0-1.749,0.782-1.749,1.75c0,0.966,0.783,1.749,1.749,1.749C358.551,311.733,359.334,310.95,359.334,309.984"/>
	
		<circle clip-path="url(#SVGID_6_)" fill="none" stroke="#3333FF" stroke-width="2" stroke-linecap="round" stroke-linejoin="round" stroke-miterlimit="10" cx="357.584" cy="309.984" r="1.75"/>
	
		<line clip-path="url(#SVGID_6_)" fill="none" stroke="#3333FF" stroke-width="2" stroke-linecap="round" stroke-linejoin="round" stroke-miterlimit="10" x1="351.65" y1="320.799" x2="351.65" y2="333.727"/>
	<path clip-path="url(#SVGID_6_)" fill="#3333FF" d="M353.399,319.049c0-0.967-0.783-1.75-1.749-1.75c-0.967,0-1.75,0.783-1.75,1.75
		s0.783,1.75,1.75,1.75C352.616,320.799,353.399,320.016,353.399,319.049"/>
	
		<circle clip-path="url(#SVGID_6_)" fill="none" stroke="#3333FF" stroke-width="2" stroke-linecap="round" stroke-linejoin="round" stroke-miterlimit="10" cx="351.65" cy="319.049" r="1.75"/>
	
		<line clip-path="url(#SVGID_6_)" fill="none" stroke="#3333FF" stroke-width="2" stroke-linecap="round" stroke-linejoin="round" stroke-miterlimit="10" x1="345.716" y1="311.733" x2="345.716" y2="333.635"/>
	<path clip-path="url(#SVGID_6_)" fill="#3333FF" d="M347.465,309.984c0-0.968-0.783-1.75-1.749-1.75c-0.967,0-1.75,0.782-1.75,1.75
		c0,0.966,0.783,1.749,1.75,1.749C346.682,311.733,347.465,310.95,347.465,309.984"/>
	
		<circle clip-path="url(#SVGID_6_)" fill="none" stroke="#3333FF" stroke-width="2" stroke-linecap="round" stroke-linejoin="round" stroke-miterlimit="10" cx="345.715" cy="309.984" r="1.75"/>
	
		<line clip-path="url(#SVGID_6_)" fill="none" stroke="#3333FF" stroke-width="2" stroke-linecap="round" stroke-linejoin="round" stroke-miterlimit="10" x1="339.781" y1="320.799" x2="339.781" y2="333.727"/>
	<path clip-path="url(#SVGID_6_)" fill="#3333FF" d="M341.531,319.049c0-0.967-0.783-1.75-1.75-1.75
		c-0.966,0-1.749,0.783-1.749,1.75s0.783,1.75,1.749,1.75C340.748,320.799,341.531,320.016,341.531,319.049"/>
	
		<circle clip-path="url(#SVGID_6_)" fill="none" stroke="#3333FF" stroke-width="2" stroke-linecap="round" stroke-linejoin="round" stroke-miterlimit="10" cx="339.782" cy="319.049" r="1.75"/>
	
		<line clip-path="url(#SVGID_6_)" fill="none" stroke="#3333FF" stroke-width="2" stroke-linecap="round" stroke-linejoin="round" stroke-miterlimit="10" x1="333.847" y1="311.733" x2="333.847" y2="333.635"/>
	<path clip-path="url(#SVGID_6_)" fill="#3333FF" d="M335.597,309.984c0-0.968-0.783-1.75-1.75-1.75
		c-0.966,0-1.749,0.782-1.749,1.75c0,0.966,0.783,1.749,1.749,1.749C334.813,311.733,335.597,310.95,335.597,309.984"/>
	
		<circle clip-path="url(#SVGID_6_)" fill="none" stroke="#3333FF" stroke-width="2" stroke-linecap="round" stroke-linejoin="round" stroke-miterlimit="10" cx="333.847" cy="309.984" r="1.75"/>
	
		<line clip-path="url(#SVGID_6_)" fill="none" stroke="#3333FF" stroke-width="2" stroke-linecap="round" stroke-linejoin="round" stroke-miterlimit="10" x1="411.22" y1="335.614" x2="411.22" y2="341.318"/>
	<path clip-path="url(#SVGID_6_)" fill="#3333FF" d="M412.969,333.865c0-0.968-0.783-1.75-1.749-1.75c-0.967,0-1.75,0.782-1.75,1.75
		c0,0.966,0.783,1.749,1.75,1.749C412.186,335.614,412.969,334.831,412.969,333.865"/>
	
		<circle clip-path="url(#SVGID_6_)" fill="none" stroke="#3333FF" stroke-width="2" stroke-linecap="round" stroke-linejoin="round" stroke-miterlimit="10" cx="411.219" cy="333.865" r="1.75"/>
	
		<line clip-path="url(#SVGID_6_)" fill="none" stroke="#3333FF" stroke-width="2" stroke-linecap="round" stroke-linejoin="round" stroke-miterlimit="10" x1="405.135" y1="344.68" x2="405.135" y2="348.563"/>
	<path clip-path="url(#SVGID_6_)" fill="#3333FF" d="M406.884,342.93c0-0.967-0.783-1.75-1.749-1.75c-0.967,0-1.75,0.783-1.75,1.75
		c0,0.966,0.783,1.75,1.75,1.75C406.101,344.68,406.884,343.896,406.884,342.93"/>
	
		<circle clip-path="url(#SVGID_6_)" fill="none" stroke="#3333FF" stroke-width="2" stroke-linecap="round" stroke-linejoin="round" stroke-miterlimit="10" cx="405.134" cy="342.93" r="1.75"/>
	
		<line clip-path="url(#SVGID_6_)" fill="none" stroke="#3333FF" stroke-width="2" stroke-linecap="round" stroke-linejoin="round" stroke-miterlimit="10" x1="399.2" y1="335.614" x2="399.2" y2="355.014"/>
	<path clip-path="url(#SVGID_6_)" fill="#3333FF" d="M400.95,333.865c0-0.968-0.784-1.75-1.75-1.75c-0.967,0-1.75,0.782-1.75,1.75
		c0,0.966,0.783,1.749,1.75,1.749C400.166,335.614,400.95,334.831,400.95,333.865"/>
	
		<circle clip-path="url(#SVGID_6_)" fill="none" stroke="#3333FF" stroke-width="2" stroke-linecap="round" stroke-linejoin="round" stroke-miterlimit="10" cx="399.2" cy="333.865" r="1.75"/>
	
		<line clip-path="url(#SVGID_6_)" fill="none" stroke="#3333FF" stroke-width="2" stroke-linecap="round" stroke-linejoin="round" stroke-miterlimit="10" x1="393.266" y1="344.68" x2="393.266" y2="357.607"/>
	<path clip-path="url(#SVGID_6_)" fill="#3333FF" d="M395.016,342.93c0-0.967-0.783-1.75-1.75-1.75c-0.966,0-1.749,0.783-1.749,1.75
		c0,0.966,0.783,1.75,1.749,1.75C394.232,344.68,395.016,343.896,395.016,342.93"/>
	
		<circle clip-path="url(#SVGID_6_)" fill="none" stroke="#3333FF" stroke-width="2" stroke-linecap="round" stroke-linejoin="round" stroke-miterlimit="10" cx="393.266" cy="342.93" r="1.75"/>
	
		<line clip-path="url(#SVGID_6_)" fill="none" stroke="#3333FF" stroke-width="2" stroke-linecap="round" stroke-linejoin="round" stroke-miterlimit="10" x1="387.331" y1="335.614" x2="387.331" y2="357.515"/>
	<path clip-path="url(#SVGID_6_)" fill="#3333FF" d="M389.081,333.865c0-0.968-0.783-1.75-1.75-1.75
		c-0.966,0-1.749,0.782-1.749,1.75c0,0.966,0.783,1.749,1.749,1.749C388.298,335.614,389.081,334.831,389.081,333.865"/>
	
		<circle clip-path="url(#SVGID_6_)" fill="none" stroke="#3333FF" stroke-width="2" stroke-linecap="round" stroke-linejoin="round" stroke-miterlimit="10" cx="387.332" cy="333.865" r="1.75"/>
	
		<line clip-path="url(#SVGID_6_)" fill="none" stroke="#3333FF" stroke-width="2" stroke-linecap="round" stroke-linejoin="round" stroke-miterlimit="10" x1="381.397" y1="344.68" x2="381.397" y2="357.607"/>
	<path clip-path="url(#SVGID_6_)" fill="#3333FF" d="M383.146,342.93c0-0.967-0.783-1.75-1.749-1.75c-0.967,0-1.75,0.783-1.75,1.75
		c0,0.966,0.783,1.75,1.75,1.75C382.363,344.68,383.146,343.896,383.146,342.93"/>
	
		<circle clip-path="url(#SVGID_6_)" fill="none" stroke="#3333FF" stroke-width="2" stroke-linecap="round" stroke-linejoin="round" stroke-miterlimit="10" cx="381.397" cy="342.93" r="1.75"/>
	
		<line clip-path="url(#SVGID_6_)" fill="none" stroke="#3333FF" stroke-width="2" stroke-linecap="round" stroke-linejoin="round" stroke-miterlimit="10" x1="375.463" y1="335.614" x2="375.463" y2="357.515"/>
	<path clip-path="url(#SVGID_6_)" fill="#3333FF" d="M377.212,333.865c0-0.968-0.783-1.75-1.749-1.75c-0.967,0-1.75,0.782-1.75,1.75
		c0,0.966,0.783,1.749,1.75,1.749C376.429,335.614,377.212,334.831,377.212,333.865"/>
	
		<circle clip-path="url(#SVGID_6_)" fill="none" stroke="#3333FF" stroke-width="2" stroke-linecap="round" stroke-linejoin="round" stroke-miterlimit="10" cx="375.462" cy="333.865" r="1.75"/>
	
		<line clip-path="url(#SVGID_6_)" fill="none" stroke="#3333FF" stroke-width="2" stroke-linecap="round" stroke-linejoin="round" stroke-miterlimit="10" x1="369.528" y1="344.68" x2="369.528" y2="357.607"/>
	<path clip-path="url(#SVGID_6_)" fill="#3333FF" d="M371.278,342.93c0-0.967-0.783-1.75-1.75-1.75c-0.966,0-1.749,0.783-1.749,1.75
		c0,0.966,0.783,1.75,1.749,1.75C370.495,344.68,371.278,343.896,371.278,342.93"/>
	
		<circle clip-path="url(#SVGID_6_)" fill="none" stroke="#3333FF" stroke-width="2" stroke-linecap="round" stroke-linejoin="round" stroke-miterlimit="10" cx="369.529" cy="342.93" r="1.75"/>
	
		<line clip-path="url(#SVGID_6_)" fill="none" stroke="#3333FF" stroke-width="2" stroke-linecap="round" stroke-linejoin="round" stroke-miterlimit="10" x1="363.594" y1="335.614" x2="363.594" y2="357.515"/>
	<path clip-path="url(#SVGID_6_)" fill="#3333FF" d="M365.344,333.865c0-0.968-0.783-1.75-1.75-1.75
		c-0.966,0-1.749,0.782-1.749,1.75c0,0.966,0.783,1.749,1.749,1.749C364.561,335.614,365.344,334.831,365.344,333.865"/>
	
		<circle clip-path="url(#SVGID_6_)" fill="none" stroke="#3333FF" stroke-width="2" stroke-linecap="round" stroke-linejoin="round" stroke-miterlimit="10" cx="363.594" cy="333.865" r="1.75"/>
	
		<line clip-path="url(#SVGID_6_)" fill="none" stroke="#3333FF" stroke-width="2" stroke-linecap="round" stroke-linejoin="round" stroke-miterlimit="10" x1="357.66" y1="344.68" x2="357.66" y2="357.607"/>
	<path clip-path="url(#SVGID_6_)" fill="#3333FF" d="M359.409,342.93c0-0.967-0.783-1.75-1.749-1.75c-0.967,0-1.75,0.783-1.75,1.75
		c0,0.966,0.783,1.75,1.75,1.75C358.626,344.68,359.409,343.896,359.409,342.93"/>
	
		<circle clip-path="url(#SVGID_6_)" fill="none" stroke="#3333FF" stroke-width="2" stroke-linecap="round" stroke-linejoin="round" stroke-miterlimit="10" cx="357.66" cy="342.93" r="1.75"/>
	
		<line clip-path="url(#SVGID_6_)" fill="none" stroke="#3333FF" stroke-width="2" stroke-linecap="round" stroke-linejoin="round" stroke-miterlimit="10" x1="351.726" y1="335.614" x2="351.726" y2="357.515"/>
	<path clip-path="url(#SVGID_6_)" fill="#3333FF" d="M353.475,333.865c0-0.968-0.783-1.75-1.749-1.75c-0.967,0-1.75,0.782-1.75,1.75
		c0,0.966,0.783,1.749,1.75,1.749C352.691,335.614,353.475,334.831,353.475,333.865"/>
	
		<circle clip-path="url(#SVGID_6_)" fill="none" stroke="#3333FF" stroke-width="2" stroke-linecap="round" stroke-linejoin="round" stroke-miterlimit="10" cx="351.725" cy="333.865" r="1.75"/>
</g>
<g>
	<defs>
		<rect id="SVGID_7_" width="510" height="435"/>
	</defs>
	<clipPath id="SVGID_8_">
		<use xlink:href="#SVGID_7_"  overflow="visible"/>
	</clipPath>
	<path clip-path="url(#SVGID_8_)" fill="#FFFFFF" d="M428.497,196.035c-4.304,4.429-11.384,4.53-15.813,0.226
		c-4.429-4.305-4.529-11.384-0.226-15.813c4.306-4.429,11.385-4.53,15.813-0.226C432.701,184.527,432.803,191.606,428.497,196.035"
		/>
	
		<circle clip-path="url(#SVGID_8_)" fill="none" stroke="#3333FF" stroke-width="2" stroke-linecap="round" stroke-linejoin="round" stroke-miterlimit="10" cx="420.478" cy="188.242" r="11.182"/>
	<path clip-path="url(#SVGID_8_)" fill="#FFFFFF" d="M420.479,188.242l-4.646-1.695l-76.79,14.398
		c-1.291,0.242-2.144,1.484-1.904,2.776c0.221,1.199,1.313,2.038,2.527,1.944l58.114-4.48l19.553-9.706L420.479,188.242z"/>
	
		<path clip-path="url(#SVGID_8_)" fill="none" stroke="#3333FF" stroke-width="2" stroke-linecap="round" stroke-linejoin="round" stroke-miterlimit="10" d="
		M420.479,188.242l-4.646-1.695l-76.79,14.398c-1.291,0.242-2.144,1.484-1.904,2.776c0.221,1.199,1.313,2.038,2.527,1.944
		l58.114-4.48l19.553-9.706L420.479,188.242z"/>
	<path clip-path="url(#SVGID_8_)" fill="#FFFFFF" d="M420.479,188.242l0.854,4.872l50.863,59.302
		c0.855,0.997,2.356,1.114,3.356,0.262c0.929-0.792,1.11-2.156,0.42-3.162l-32.936-48.088l-18.183-12.08L420.479,188.242z"/>
	
		<path clip-path="url(#SVGID_8_)" fill="none" stroke="#3333FF" stroke-width="2" stroke-linecap="round" stroke-linejoin="round" stroke-miterlimit="10" d="
		M420.479,188.242l0.854,4.872l50.863,59.302c0.855,0.997,2.356,1.114,3.356,0.262c0.929-0.792,1.11-2.156,0.42-3.162
		l-32.936-48.088l-18.183-12.08L420.479,188.242z"/>
	<path clip-path="url(#SVGID_8_)" fill="#FFFFFF" d="M420.479,188.242l3.791-3.176l25.926-73.7c0.436-1.239-0.213-2.598-1.45-3.038
		c-1.15-0.408-2.423,0.117-2.949,1.217l-25.176,52.569l-1.371,21.785L420.479,188.242z"/>
	
		<path clip-path="url(#SVGID_8_)" fill="none" stroke="#3333FF" stroke-width="2" stroke-linecap="round" stroke-linejoin="round" stroke-miterlimit="10" d="
		M420.479,188.242l3.791-3.176l25.926-73.7c0.436-1.239-0.213-2.598-1.45-3.038c-1.15-0.408-2.423,0.117-2.949,1.217l-25.176,52.569
		l-1.371,21.785L420.479,188.242z"/>
	<path clip-path="url(#SVGID_8_)" fill="#FFFFFF" d="M423.715,191.388c-1.737,1.788-4.595,1.828-6.382,0.091
		c-1.788-1.737-1.829-4.595-0.092-6.383c1.737-1.787,4.596-1.828,6.383-0.091C425.412,186.743,425.452,189.6,423.715,191.388"/>
	
		<circle clip-path="url(#SVGID_8_)" fill="none" stroke="#3333FF" stroke-width="2" stroke-linecap="round" stroke-linejoin="round" stroke-miterlimit="10" cx="420.478" cy="188.242" r="4.514"/>
	<path clip-path="url(#SVGID_8_)" fill="#FFFFFF" d="M124.977,13.429H112.24c-20.84,0-37.734,16.894-37.734,37.734
		c0,20.84,22.215,45.661,34.384,57.829h19.436c12.17-12.168,34.384-36.989,34.384-57.829
		C162.71,30.323,145.817,13.429,124.977,13.429"/>
	
		<path clip-path="url(#SVGID_8_)" fill="none" stroke="#3333FF" stroke-width="2" stroke-linecap="round" stroke-linejoin="round" stroke-miterlimit="10" d="
		M124.977,13.429H112.24c-20.84,0-37.734,16.894-37.734,37.734c0,20.84,22.215,45.661,34.384,57.829h19.436
		c12.17-12.168,34.384-36.989,34.384-57.829C162.71,30.323,145.817,13.429,124.977,13.429z"/>
	<path clip-path="url(#SVGID_8_)" fill="#007AFF" d="M108.896,108.993c-7.345-12.169-20.753-36.99-20.753-57.83
		c0-20.839,10.196-37.733,22.774-37.733h8.038c-7.769,0-17.415,16.894-17.415,37.733c0,20.84,11.63,45.661,16.167,57.83H108.896z"/>
	
		<path clip-path="url(#SVGID_8_)" fill="none" stroke="#3333FF" stroke-width="2" stroke-linecap="round" stroke-linejoin="round" stroke-miterlimit="10" d="
		M108.896,108.993c-7.345-12.169-20.753-36.99-20.753-57.83c0-20.839,10.196-37.733,22.774-37.733h8.038
		c-7.769,0-17.415,16.894-17.415,37.733c0,20.84,11.63,45.661,16.167,57.83H108.896z"/>
	<path clip-path="url(#SVGID_8_)" fill="#007AFF" d="M128.322,108.993c7.345-12.169,20.753-36.99,20.753-57.83
		c0-20.839-10.196-37.733-22.774-37.733h-8.038c7.769,0,17.415,16.894,17.415,37.733c0,20.84-11.63,45.661-16.167,57.83H128.322z"/>
	
		<path clip-path="url(#SVGID_8_)" fill="none" stroke="#3333FF" stroke-width="2" stroke-linecap="round" stroke-linejoin="round" stroke-miterlimit="10" d="
		M128.322,108.993c7.345-12.169,20.753-36.99,20.753-57.83c0-20.839-10.196-37.733-22.774-37.733h-8.038
		c7.769,0,17.415,16.894,17.415,37.733c0,20.84-11.63,45.661-16.167,57.83H128.322z"/>
	
		<polygon clip-path="url(#SVGID_8_)" fill="none" stroke="#3333FF" stroke-width="2" stroke-linecap="round" stroke-linejoin="round" stroke-miterlimit="10" points="
		127.32,110.645 109.895,110.645 108.89,108.972 128.326,108.972 	"/>
	<polygon clip-path="url(#SVGID_8_)" fill="#3333FF" points="124.493,122.868 112.682,122.868 112.361,120.995 124.854,120.995 	"/>
	
		<polygon clip-path="url(#SVGID_8_)" fill="none" stroke="#3333FF" stroke-width="2" stroke-linecap="round" stroke-linejoin="round" stroke-miterlimit="10" points="
		124.493,122.868 112.682,122.868 112.361,120.995 124.854,120.995 	"/>
	<polygon clip-path="url(#SVGID_8_)" fill="#3333FF" points="123.233,130.557 113.896,130.557 113.702,129.484 123.515,129.484 	"/>
	
		<polygon clip-path="url(#SVGID_8_)" fill="none" stroke="#3333FF" stroke-width="2" stroke-linecap="round" stroke-linejoin="round" stroke-miterlimit="10" points="
		123.233,130.557 113.896,130.557 113.702,129.484 123.515,129.484 	"/>
	<polygon clip-path="url(#SVGID_8_)" fill="#FFC51B" points="123.515,129.484 113.702,129.484 112.682,122.868 124.494,122.868 	"/>
	
		<polygon clip-path="url(#SVGID_8_)" fill="none" stroke="#3333FF" stroke-width="2" stroke-linecap="round" stroke-linejoin="round" stroke-miterlimit="10" points="
		123.515,129.484 113.702,129.484 112.682,122.868 124.494,122.868 	"/>
	
		<line clip-path="url(#SVGID_8_)" fill="none" stroke="#3333FF" stroke-width="2" stroke-linecap="round" stroke-linejoin="round" stroke-miterlimit="10" x1="112.361" y1="120.996" x2="109.895" y2="110.645"/>
	
		<line clip-path="url(#SVGID_8_)" fill="none" stroke="#3333FF" stroke-width="2" stroke-linecap="round" stroke-linejoin="round" stroke-miterlimit="10" x1="124.854" y1="120.996" x2="127.321" y2="110.645"/>
	
		<path clip-path="url(#SVGID_8_)" fill="none" stroke="#3333FF" stroke-width="2" stroke-linecap="round" stroke-linejoin="round" stroke-miterlimit="10" d="
		M124.814,57.25h-4.902l2.665-2.957l3.153-3.388c2.049-2.288,4.058-4.084,4.058-6.839c0-2.755,0.02-4.636,0.02-4.636h-23.034v3.611
		c0,2.428,2.169,4.329,4.938,4.329h4.945l-5.971,6.344c-1.054,1.075-1.851,1.973-2.453,2.782l-0.043,0.046
		c-0.947,1.017-1.469,2.319-1.47,3.667l-0.003,4.891l23.036,0.063v-3.584C129.754,59.15,127.584,57.25,124.814,57.25"/>
</g>
</svg>
