<svg id="Layer_1" data-name="Layer 1" xmlns="http://www.w3.org/2000/svg" xmlns:xlink="http://www.w3.org/1999/xlink" viewBox="0 0 1503.52 1384.06"><defs><style>.cls-1,.cls-4{fill:none;}.cls-14,.cls-2,.cls-8{fill:#ffc51b;}.cls-12,.cls-13,.cls-14,.cls-15,.cls-17,.cls-18,.cls-2,.cls-4,.cls-6,.cls-7{stroke:#33f;stroke-width:2px;}.cls-12,.cls-17,.cls-18,.cls-2,.cls-4,.cls-6,.cls-7{stroke-linecap:round;stroke-linejoin:round;}.cls-3{fill:#e1f4ff;}.cls-5{clip-path:url(#clip-path);}.cls-6{fill:#48dcad;}.cls-13,.cls-16,.cls-7{fill:#fff;}.cls-9{clip-path:url(#clip-path-2);}.cls-10,.cls-18{fill:#33f;}.cls-11,.cls-15{fill:#1eb3ae;}.cls-12{fill:#5de9ff;}.cls-13,.cls-14,.cls-15{stroke-miterlimit:10;}.cls-17{fill:#ebebeb;}</style><clipPath id="clip-path" transform="translate(-152.22 -33)"><circle class="cls-1" cx="1043.27" cy="645.47" r="612.47"/></clipPath><clipPath id="clip-path-2" transform="translate(-152.22 -33)"><path class="cls-2" d="M1278.67,589.21c9.85-1.64,16.91-.94,26.81-.94-29.68,7.69-49.79,36.86-49.79,69A69,69,0,0,0,1307.27,724c-1.94.5-.74,1.87-2.76,2.21l-18.2-.08a69,69,0,0,1-7.65-136.88Z"/></clipPath></defs><title>Illustration_3</title><circle class="cls-3" cx="891.05" cy="612.47" r="612.47"/><path class="cls-4" d="M858.07,632.31a27.09,27.09,0,0,1,46.46,7.74" transform="translate(-152.22 -33)"/><path class="cls-4" d="M902.07,635.09a16.6,16.6,0,0,1,25,14.3" transform="translate(-152.22 -33)"/><line class="cls-4" x1="609.28" y1="616.39" x2="679.64" y2="616.39"/><line class="cls-4" x1="584.32" y1="616.39" x2="598.12" y2="616.39"/><path class="cls-4" d="M831.86,649.39a16.6,16.6,0,0,1,30.08-12.89" transform="translate(-152.22 -33)"/><g class="cls-5"><path class="cls-6" d="M835.34,1038.22,508.07,475.74a16,16,0,0,0-27.58,0L153.22,1038.22Z" transform="translate(-152.22 -33)"/><path class="cls-7" d="M624.12,675.88,581.28,704a17.91,17.91,0,0,1-21.6-1.48l-32.13-28a17.91,17.91,0,0,0-12.64-4.39l-35.7,1.72a17.91,17.91,0,0,1-17.06-10.25l-5.4-11.47a17.91,17.91,0,0,0-19.48-10l-59.25,11L480.27,475.43a15.75,15.75,0,0,1,27.23,0Z" transform="translate(-152.22 -33)"/><path class="cls-4" d="M433.92,776.4l-34.81-61.53a5.74,5.74,0,0,0-10,0l-31.05,55.8" transform="translate(-152.22 -33)"/><rect class="cls-2" x="1218.4" y="724.34" width="171.48" height="28.41" transform="translate(2456.07 1444.11) rotate(-180)"/><line class="cls-4" x1="1211.68" y1="692.5" x2="1211.68" y2="718.61"/><line class="cls-4" x1="1201.81" y1="692.5" x2="1201.81" y2="718.61"/><line class="cls-4" x1="1191.94" y1="692.5" x2="1191.94" y2="718.61"/><line class="cls-4" x1="1092.16" y1="692.5" x2="1092.16" y2="718.61"/><line class="cls-4" x1="1102.03" y1="692.5" x2="1102.03" y2="718.61"/><line class="cls-4" x1="1111.9" y1="692.5" x2="1111.9" y2="718.61"/><rect class="cls-2" x="1203.92" y="752.76" width="171.48" height="28.41" transform="translate(2427.09 1500.93) rotate(-180)"/><line class="cls-4" x1="1142.37" y1="747.03" x2="1142.37" y2="720.91"/><line class="cls-4" x1="1132.5" y1="747.03" x2="1132.5" y2="720.91"/><line class="cls-4" x1="1122.63" y1="747.03" x2="1122.63" y2="720.91"/><rect class="cls-2" x="1218.72" y="781.17" width="171.32" height="28.41" transform="translate(2456.53 1557.75) rotate(-180)"/><line class="cls-4" x1="1211.68" y1="749.32" x2="1211.68" y2="775.44"/><line class="cls-4" x1="1201.81" y1="749.32" x2="1201.81" y2="775.44"/><line class="cls-4" x1="1191.94" y1="749.32" x2="1191.94" y2="775.44"/><line class="cls-4" x1="1092.16" y1="749.32" x2="1092.16" y2="775.44"/><line class="cls-4" x1="1102.03" y1="749.32" x2="1102.03" y2="775.44"/><line class="cls-4" x1="1111.9" y1="749.32" x2="1111.9" y2="775.44"/><rect class="cls-2" x="1234.67" y="837.99" width="171.48" height="28.41" transform="translate(2488.59 1671.4) rotate(-180)"/><line class="cls-4" x1="1227.95" y1="806.14" x2="1227.95" y2="832.26"/><line class="cls-4" x1="1218.08" y1="806.14" x2="1218.08" y2="832.26"/><line class="cls-4" x1="1208.21" y1="806.14" x2="1208.21" y2="832.26"/><line class="cls-4" x1="1098.56" y1="806.14" x2="1098.56" y2="832.26"/><line class="cls-4" x1="1108.43" y1="806.14" x2="1108.43" y2="832.26"/><line class="cls-4" x1="1118.3" y1="806.14" x2="1118.3" y2="832.26"/><line class="cls-4" x1="1128.17" y1="806.14" x2="1128.17" y2="832.26"/><rect class="cls-2" x="1218.72" y="809.58" width="171.48" height="28.41" transform="translate(2456.7 1614.58) rotate(-180)"/><line class="cls-4" x1="1157.18" y1="803.85" x2="1157.18" y2="777.73"/><line class="cls-4" x1="1147.31" y1="803.85" x2="1147.31" y2="777.73"/><line class="cls-4" x1="1137.44" y1="803.85" x2="1137.44" y2="777.73"/><rect class="cls-2" x="1218.4" y="866.41" width="171.48" height="28.41" transform="translate(2456.07 1728.23) rotate(-180)"/><line class="cls-4" x1="1156.86" y1="860.67" x2="1156.86" y2="834.56"/><line class="cls-4" x1="1146.99" y1="860.67" x2="1146.99" y2="834.56"/><line class="cls-4" x1="1137.12" y1="860.67" x2="1137.12" y2="834.56"/><rect class="cls-2" x="1218.4" y="894.82" width="171.48" height="28.41" transform="translate(2456.07 1785.05) rotate(-180)"/><line class="cls-4" x1="1211.68" y1="862.97" x2="1211.68" y2="889.09"/><line class="cls-4" x1="1201.81" y1="862.97" x2="1201.81" y2="889.09"/><line class="cls-4" x1="1191.94" y1="862.97" x2="1191.94" y2="889.09"/><line class="cls-4" x1="1082.29" y1="862.97" x2="1082.29" y2="889.09"/><line class="cls-4" x1="1092.16" y1="862.97" x2="1092.16" y2="889.09"/><line class="cls-4" x1="1102.03" y1="862.97" x2="1102.03" y2="889.09"/><line class="cls-4" x1="1111.9" y1="862.97" x2="1111.9" y2="889.09"/><rect class="cls-2" x="1218.4" y="951.64" width="171.48" height="28.41" transform="translate(2456.07 1898.7) rotate(-180)"/><line class="cls-4" x1="1211.68" y1="919.79" x2="1211.68" y2="945.91"/><line class="cls-4" x1="1201.81" y1="919.79" x2="1201.81" y2="945.91"/><line class="cls-4" x1="1191.94" y1="919.79" x2="1191.94" y2="945.91"/><line class="cls-4" x1="1082.29" y1="919.79" x2="1082.29" y2="945.91"/><line class="cls-4" x1="1092.16" y1="919.79" x2="1092.16" y2="945.91"/><line class="cls-4" x1="1102.03" y1="919.79" x2="1102.03" y2="945.91"/><line class="cls-4" x1="1111.9" y1="919.79" x2="1111.9" y2="945.91"/><rect class="cls-2" x="1234.67" y="1008.47" width="171.48" height="28.41" transform="translate(2488.59 2012.35) rotate(-180)"/><line class="cls-4" x1="1237.82" y1="976.62" x2="1237.82" y2="1002.74"/><line class="cls-4" x1="1227.95" y1="976.62" x2="1227.95" y2="1002.74"/><line class="cls-4" x1="1218.08" y1="976.62" x2="1218.08" y2="1002.74"/><line class="cls-4" x1="1208.21" y1="976.62" x2="1208.21" y2="1002.74"/><line class="cls-4" x1="1098.56" y1="976.62" x2="1098.56" y2="1002.74"/><line class="cls-4" x1="1108.43" y1="976.62" x2="1108.43" y2="1002.74"/><line class="cls-4" x1="1118.3" y1="976.62" x2="1118.3" y2="1002.74"/><line class="cls-4" x1="1128.17" y1="976.62" x2="1128.17" y2="1002.74"/><rect class="cls-2" x="1203.92" y="923.23" width="171.48" height="28.41" transform="translate(2427.09 1841.88) rotate(-180)"/><line class="cls-4" x1="1152.24" y1="917.5" x2="1152.24" y2="891.38"/><line class="cls-4" x1="1142.37" y1="917.5" x2="1142.37" y2="891.38"/><line class="cls-4" x1="1132.5" y1="917.5" x2="1132.5" y2="891.38"/><line class="cls-4" x1="1122.63" y1="917.5" x2="1122.63" y2="891.38"/><rect class="cls-2" x="1218.4" y="980.05" width="171.48" height="28.41" transform="translate(2456.07 1955.52) rotate(-180)"/><line class="cls-4" x1="1166.73" y1="974.32" x2="1166.73" y2="948.2"/><line class="cls-4" x1="1156.86" y1="974.32" x2="1156.86" y2="948.2"/><line class="cls-4" x1="1146.99" y1="974.32" x2="1146.99" y2="948.2"/><line class="cls-4" x1="1137.12" y1="974.32" x2="1137.12" y2="948.2"/><path class="cls-8" d="M1278.67,589.21c9.85-1.64,16.91-.94,26.81-.94-29.68,7.69-49.79,36.86-49.79,69A69,69,0,0,0,1307.27,724c-1.94.5-.74,1.87-2.76,2.21l-18.2-.08a69,69,0,0,1-7.65-136.88Z" transform="translate(-152.22 -33)"/><g class="cls-9"><line class="cls-4" x1="1122.38" y1="672.29" x2="1057.21" y2="672.29"/><line class="cls-4" x1="1122.38" y1="664.35" x2="1057.21" y2="664.35"/><line class="cls-4" x1="1122.38" y1="656.41" x2="1057.21" y2="656.41"/><line class="cls-4" x1="1122.38" y1="576.17" x2="1057.21" y2="576.17"/><line class="cls-4" x1="1122.38" y1="584.11" x2="1057.21" y2="584.11"/><line class="cls-4" x1="1122.38" y1="592.05" x2="1057.21" y2="592.05"/></g><path class="cls-4" d="M1278.67,589.21c9.85-1.64,16.91-.94,26.81-.94-29.68,7.69-49.79,36.86-49.79,69A69,69,0,0,0,1307.27,724c-1.94.5-.74,1.87-2.76,2.21l-18.2-.08a69,69,0,0,1-7.65-136.88Z" transform="translate(-152.22 -33)"/><path class="cls-2" d="M1288.12,590.48a69,69,0,1,1-51.6,66.75A69.07,69.07,0,0,1,1288.12,590.48Z" transform="translate(-152.22 -33)"/><path class="cls-10" d="M1327.76,670.76a17.1,17.1,0,0,1-5.25,12.59,17.29,17.29,0,0,1-12.63,5.2v8.9H1301v-8.9a17.94,17.94,0,0,1-17.79-17.81h8.9a8.91,8.91,0,0,0,8.9,8.9h8.9a8.9,8.9,0,1,0,0-17.8H1301a17.06,17.06,0,0,1-12.58-5.26,17.82,17.82,0,0,1,12.6-30.42v-8.9h8.9v8.9a17.29,17.29,0,0,1,12.63,5.22,17.11,17.11,0,0,1,5.24,12.59h-9a8.89,8.89,0,0,0-8.9-8.9H1301a8.91,8.91,0,0,0-8.9,8.9,8.68,8.68,0,0,0,2.61,6.33A8.49,8.49,0,0,0,1301,653h8.9a17.3,17.3,0,0,1,12.63,5.22A17.09,17.09,0,0,1,1327.76,670.76Z" transform="translate(-152.22 -33)"/><line class="cls-4" x1="897.61" y1="977.09" x2="897.61" y2="1005.97"/><circle class="cls-2" cx="897.61" cy="975.13" r="1.96"/><line class="cls-4" x1="890.96" y1="966.93" x2="890.96" y2="1005.87"/><circle class="cls-2" cx="890.96" cy="964.97" r="1.96"/><line class="cls-4" x1="884.3" y1="977.09" x2="884.3" y2="1005.97"/><circle class="cls-2" cx="884.3" cy="975.13" r="1.96"/><line class="cls-4" x1="877.65" y1="966.93" x2="877.65" y2="1005.87"/><circle class="cls-2" cx="877.65" cy="964.97" r="1.96"/><line class="cls-4" x1="871" y1="977.09" x2="871" y2="1005.97"/><circle class="cls-2" cx="871" cy="975.13" r="1.96"/><line class="cls-4" x1="864.35" y1="966.93" x2="864.35" y2="1005.87"/><circle class="cls-2" cx="864.35" cy="964.97" r="1.96"/><line class="cls-4" x1="857.7" y1="977.09" x2="857.7" y2="1005.97"/><circle class="cls-2" cx="857.7" cy="975.13" r="1.96"/><line class="cls-4" x1="851.04" y1="966.93" x2="851.04" y2="1005.87"/><circle class="cls-2" cx="851.04" cy="964.97" r="1.96"/><line class="cls-4" x1="844.39" y1="977.09" x2="844.39" y2="1005.97"/><circle class="cls-2" cx="844.39" cy="975.13" r="1.96"/><line class="cls-4" x1="837.74" y1="966.93" x2="837.74" y2="1005.87"/><circle class="cls-2" cx="837.74" cy="964.97" r="1.96"/><line class="cls-4" x1="965.54" y1="977.09" x2="965.54" y2="1005.97"/><circle class="cls-2" cx="965.54" cy="975.13" r="1.96"/><line class="cls-4" x1="958.89" y1="966.93" x2="958.89" y2="1005.87"/><circle class="cls-2" cx="958.89" cy="964.97" r="1.96"/><line class="cls-4" x1="952.24" y1="977.09" x2="952.24" y2="1005.97"/><circle class="cls-2" cx="952.24" cy="975.13" r="1.96"/><line class="cls-4" x1="945.59" y1="966.93" x2="945.59" y2="1005.87"/><circle class="cls-2" cx="945.59" cy="964.97" r="1.96"/><line class="cls-4" x1="938.93" y1="977.09" x2="938.93" y2="1005.97"/><circle class="cls-2" cx="938.93" cy="975.13" r="1.96"/><line class="cls-4" x1="932.28" y1="966.93" x2="932.28" y2="1005.87"/><circle class="cls-2" cx="932.28" cy="964.97" r="1.96"/><line class="cls-4" x1="925.63" y1="977.09" x2="925.63" y2="1005.97"/><circle class="cls-2" cx="925.63" cy="975.13" r="1.96"/><line class="cls-4" x1="918.98" y1="966.93" x2="918.98" y2="1005.87"/><circle class="cls-2" cx="918.98" cy="964.97" r="1.96"/><line class="cls-4" x1="912.32" y1="977.09" x2="912.32" y2="1005.97"/><circle class="cls-2" cx="912.32" cy="975.13" r="1.96"/><line class="cls-4" x1="905.67" y1="966.93" x2="905.67" y2="1005.87"/><circle class="cls-2" cx="905.67" cy="964.97" r="1.96"/><rect class="cls-11" x="377.76" y="1005.32" width="1015.56" height="378.74"/><rect class="cls-7" x="1361.7" y="487.56" width="113.91" height="471.14"/><rect class="cls-7" x="1377.11" y="446.14" width="83.08" height="41.32"/><rect class="cls-7" x="1399.2" y="436.55" width="38.9" height="9.59"/><polyline class="cls-4" points="1377.11 467.38 1377.11 456.96 1460.19 456.96 1460.19 467.38"/><polyline class="cls-4" points="1460.19 470.94 1460.19 478.72 1377.11 478.72 1377.11 470.94"/><polyline class="cls-4" points="1475.61 487.23 1475.61 497.64 1361.7 497.64 1361.7 487.23"/><rect class="cls-4" x="1361.7" y="520.46" width="113.91" height="10.41"/><rect class="cls-4" x="1361.7" y="553.68" width="113.91" height="10.41"/><rect class="cls-4" x="1361.7" y="586.91" width="113.91" height="10.41"/><rect class="cls-4" x="1361.7" y="620.14" width="113.91" height="10.41"/><rect class="cls-4" x="1361.7" y="653.37" width="113.91" height="10.41"/><rect class="cls-4" x="1361.7" y="686.6" width="113.91" height="10.41"/><rect class="cls-4" x="1361.7" y="719.83" width="113.91" height="10.41"/><rect class="cls-4" x="1361.7" y="753.06" width="113.91" height="10.41"/><rect class="cls-4" x="1361.7" y="786.29" width="113.91" height="10.41"/><rect class="cls-4" x="1361.7" y="819.52" width="113.91" height="10.41"/><rect class="cls-12" x="1361.7" y="852.74" width="113.91" height="10.41"/><rect class="cls-12" x="1361.7" y="869.36" width="113.91" height="10.41"/><line class="cls-4" x1="1418.65" y1="436.55" x2="1418.65" y2="396.35"/><path class="cls-2" d="M1493.85,570.64,1486.21,471c-2.88.3-5.83.52-8.82.67a6.09,6.09,0,0,0-12.16.1,117.28,117.28,0,0,1-19.23-2.18c-6.76-1.37-12.92-2.37-18.6-3.08a3,3,0,0,0,0-.44,3.05,3.05,0,0,0-6.09-.22c-4.15-.38-8-.59-11.66-.64l-8.09,105.42a40.14,40.14,0,0,0,13,32.64l18.05,16.31q1.32,1.19,2.57,2.45a17.78,17.78,0,0,0,25,0q1.25-1.25,2.57-2.45l18.05-16.31A40.13,40.13,0,0,0,1493.85,570.64Z" transform="translate(-152.22 -33)"/><path class="cls-4" d="M1447.73,339.63h43.86l17.63,229.83a55.29,55.29,0,0,1-18.06,45.25L1473.11,631a55.29,55.29,0,0,0-18.22,41V844.9a36.7,36.7,0,0,0,32,36.4l27.63,3.55c7.86,1,8.3,12.22.54,13.84a311.58,311.58,0,0,1-134.72,0c-7.76-1.63-7.32-12.83.54-13.84l27.63-3.55a36.7,36.7,0,0,0,32-36.4V672a55.29,55.29,0,0,0-18.22-41l-18.05-16.31a55.29,55.29,0,0,1-18.06-45.25l17.63-229.83Z" transform="translate(-152.22 -33)"/><circle class="cls-13" cx="1318.29" cy="463.96" r="3.06"/><circle class="cls-13" cx="1284.33" cy="495.62" r="3.06"/><circle class="cls-13" cx="1279.34" cy="484.37" r="3.06"/><circle class="cls-14" cx="1297.59" cy="397.69" r="3.06"/><circle class="cls-14" cx="1284.21" cy="364.22" r="3.06"/><circle class="cls-14" cx="1279.34" cy="415.95" r="3.06"/><circle class="cls-13" cx="1276.28" cy="513.19" r="6.12"/><circle class="cls-13" cx="1476.63" cy="564.44" r="3.06" transform="translate(-87.99 1241.49) rotate(-47.61)"/><circle class="cls-13" cx="1469.59" cy="579.18" r="6.12" transform="translate(-101.16 1241.09) rotate(-47.61)"/><polygon class="cls-7" points="1308.52 718.28 1151.36 718.28 1151.36 1005.22 1308.52 1005.22 1465.69 1005.22 1465.69 718.28 1308.52 718.28"/><line class="cls-4" x1="1260.19" y1="989.47" x2="1260.19" y2="980.48"/><circle class="cls-2" cx="1260.19" cy="980.48" r="1.76"/><line class="cls-4" x1="1248.91" y1="989.47" x2="1248.91" y2="980.48"/><circle class="cls-2" cx="1248.91" cy="980.48" r="1.76"/><line class="cls-4" x1="1254.55" y1="989.47" x2="1254.55" y2="983.21"/><circle class="cls-2" cx="1254.55" cy="983.21" r="1.76"/><line class="cls-4" x1="1243.27" y1="989.47" x2="1243.27" y2="983.21"/><circle class="cls-2" cx="1243.27" cy="983.21" r="1.76"/><rect class="cls-7" x="1237.55" y="989.03" width="28.36" height="5.25"/><rect class="cls-7" x="1237.55" y="994.27" width="28.36" height="10.95"/><line class="cls-4" x1="1184.46" y1="989.47" x2="1184.46" y2="980.48"/><circle class="cls-2" cx="1184.46" cy="980.48" r="1.76"/><line class="cls-4" x1="1173.19" y1="989.47" x2="1173.19" y2="980.48"/><circle class="cls-2" cx="1173.19" cy="980.48" r="1.76"/><line class="cls-4" x1="1178.82" y1="989.47" x2="1178.82" y2="983.21"/><circle class="cls-2" cx="1178.82" cy="983.21" r="1.76"/><line class="cls-4" x1="1167.55" y1="989.47" x2="1167.55" y2="983.21"/><circle class="cls-2" cx="1167.55" cy="983.21" r="1.76"/><rect class="cls-7" x="1161.83" y="989.03" width="28.36" height="5.25"/><rect class="cls-7" x="1161.83" y="994.27" width="28.36" height="10.95"/><line class="cls-4" x1="1205.41" y1="989.47" x2="1205.41" y2="980.48"/><circle class="cls-2" cx="1205.41" cy="980.48" r="1.76"/><line class="cls-4" x1="1216.69" y1="989.47" x2="1216.69" y2="980.48"/><circle class="cls-2" cx="1216.69" cy="980.48" r="1.76"/><line class="cls-4" x1="1211.05" y1="989.47" x2="1211.05" y2="983.21"/><circle class="cls-2" cx="1211.05" cy="983.21" r="1.76"/><line class="cls-4" x1="1222.32" y1="989.47" x2="1222.32" y2="983.21"/><circle class="cls-2" cx="1222.32" cy="983.21" r="1.76"/><rect class="cls-7" x="1351.91" y="1022.02" width="28.36" height="5.25" transform="translate(2579.95 2016.29) rotate(-180)"/><rect class="cls-7" x="1351.91" y="1027.27" width="28.36" height="10.95" transform="translate(2579.95 2032.49) rotate(-180)"/><line class="cls-4" x1="1449.5" y1="989.47" x2="1449.5" y2="980.48"/><circle class="cls-2" cx="1449.5" cy="980.48" r="1.76"/><line class="cls-4" x1="1438.22" y1="989.47" x2="1438.22" y2="980.48"/><circle class="cls-2" cx="1438.22" cy="980.48" r="1.76"/><line class="cls-4" x1="1443.86" y1="989.47" x2="1443.86" y2="983.21"/><circle class="cls-2" cx="1443.86" cy="983.21" r="1.76"/><line class="cls-4" x1="1432.58" y1="989.47" x2="1432.58" y2="983.21"/><circle class="cls-2" cx="1432.58" cy="983.21" r="1.76"/><rect class="cls-7" x="1426.86" y="989.03" width="28.36" height="5.25"/><rect class="cls-7" x="1426.86" y="994.27" width="28.36" height="10.95"/><line class="cls-4" x1="1373.77" y1="989.47" x2="1373.77" y2="980.48"/><circle class="cls-2" cx="1373.77" cy="980.48" r="1.76"/><line class="cls-4" x1="1362.5" y1="989.47" x2="1362.5" y2="980.48"/><circle class="cls-2" cx="1362.5" cy="980.48" r="1.76"/><line class="cls-4" x1="1368.13" y1="989.47" x2="1368.13" y2="983.21"/><circle class="cls-2" cx="1368.13" cy="983.21" r="1.76"/><line class="cls-4" x1="1356.86" y1="989.47" x2="1356.86" y2="983.21"/><circle class="cls-2" cx="1356.86" cy="983.21" r="1.76"/><rect class="cls-7" x="1351.14" y="989.03" width="28.36" height="5.25"/><rect class="cls-7" x="1351.14" y="994.27" width="28.36" height="10.95"/><line class="cls-4" x1="1394.72" y1="989.47" x2="1394.72" y2="980.48"/><circle class="cls-2" cx="1394.72" cy="980.48" r="1.76"/><line class="cls-4" x1="1406" y1="989.47" x2="1406" y2="980.48"/><circle class="cls-2" cx="1406" cy="980.48" r="1.76"/><line class="cls-4" x1="1400.36" y1="989.47" x2="1400.36" y2="983.21"/><circle class="cls-2" cx="1400.36" cy="983.21" r="1.76"/><line class="cls-4" x1="1411.63" y1="989.47" x2="1411.63" y2="983.21"/><circle class="cls-2" cx="1411.63" cy="983.21" r="1.76"/><rect class="cls-7" x="1541.22" y="1022.02" width="28.36" height="5.25" transform="translate(2958.57 2016.29) rotate(-180)"/><rect class="cls-7" x="1541.22" y="1027.27" width="28.36" height="10.95" transform="translate(2958.57 2032.49) rotate(-180)"/><rect class="cls-4" x="1278.84" y="953.06" width="29.68" height="52.16"/><rect class="cls-4" x="1272.41" y="953.06" width="6.43" height="52.16"/><rect class="cls-4" x="1338.2" y="953.06" width="6.43" height="52.16"/><rect class="cls-4" x="1308.52" y="953.06" width="29.68" height="52.16"/><path class="cls-7" d="M1496.85,986.06h-72.22a36.11,36.11,0,1,1,72.22,0Z" transform="translate(-152.22 -33)"/><rect class="cls-4" x="1161.83" y="861.75" width="28.36" height="36.11"/><rect class="cls-4" x="1199.69" y="861.75" width="28.36" height="36.11"/><rect class="cls-4" x="1237.55" y="861.75" width="28.36" height="36.11"/><rect class="cls-4" x="1275.41" y="861.75" width="28.36" height="36.11"/><rect class="cls-4" x="1313.28" y="861.75" width="28.36" height="36.11"/><rect class="cls-4" x="1351.14" y="861.75" width="28.36" height="36.11"/><rect class="cls-4" x="1389" y="861.75" width="28.36" height="36.11"/><rect class="cls-4" x="1426.86" y="861.75" width="28.36" height="36.11"/><rect class="cls-4" x="1161.83" y="906.91" width="28.36" height="36.11"/><rect class="cls-4" x="1199.69" y="906.91" width="28.36" height="36.11"/><rect class="cls-4" x="1237.55" y="906.91" width="28.36" height="36.11"/><rect class="cls-4" x="1161.83" y="952.92" width="28.36" height="36.11"/><rect class="cls-4" x="1199.69" y="952.92" width="28.36" height="36.11"/><rect class="cls-4" x="1237.55" y="952.92" width="28.36" height="36.11"/><rect class="cls-4" x="1351.14" y="906.91" width="28.36" height="36.11"/><rect class="cls-4" x="1389" y="906.91" width="28.36" height="36.11"/><rect class="cls-4" x="1426.86" y="906.91" width="28.36" height="36.11"/><rect class="cls-4" x="1351.14" y="952.92" width="28.36" height="36.11"/><rect class="cls-4" x="1389" y="952.92" width="28.36" height="36.11"/><rect class="cls-4" x="1426.86" y="952.92" width="28.36" height="36.11"/><rect class="cls-4" x="1161.83" y="816.59" width="28.36" height="36.11"/><rect class="cls-4" x="1199.69" y="816.59" width="28.36" height="36.11"/><rect class="cls-4" x="1237.55" y="816.59" width="28.36" height="36.11"/><rect class="cls-4" x="1275.41" y="816.59" width="28.36" height="36.11"/><rect class="cls-4" x="1313.28" y="816.59" width="28.36" height="36.11"/><rect class="cls-4" x="1351.14" y="816.59" width="28.36" height="36.11"/><rect class="cls-4" x="1389" y="816.59" width="28.36" height="36.11"/><rect class="cls-4" x="1426.86" y="816.59" width="28.36" height="36.11"/><rect class="cls-4" x="1161.83" y="771.42" width="28.36" height="36.11"/><rect class="cls-4" x="1199.69" y="771.42" width="28.36" height="36.11"/><rect class="cls-4" x="1237.55" y="771.42" width="28.36" height="36.11"/><rect class="cls-4" x="1275.41" y="771.42" width="28.36" height="36.11"/><rect class="cls-4" x="1313.28" y="771.42" width="28.36" height="36.11"/><rect class="cls-4" x="1351.14" y="771.42" width="28.36" height="36.11"/><rect class="cls-4" x="1389" y="771.42" width="28.36" height="36.11"/><rect class="cls-4" x="1426.86" y="771.42" width="28.36" height="36.11"/><rect class="cls-4" x="1161.83" y="726.26" width="28.36" height="36.11"/><rect class="cls-4" x="1199.69" y="726.26" width="28.36" height="36.11"/><rect class="cls-4" x="1237.55" y="726.26" width="28.36" height="36.11"/><rect class="cls-4" x="1275.41" y="726.26" width="28.36" height="36.11"/><rect class="cls-4" x="1313.28" y="726.26" width="28.36" height="36.11"/><rect class="cls-4" x="1351.14" y="726.26" width="28.36" height="36.11"/><rect class="cls-4" x="1389" y="726.26" width="28.36" height="36.11"/><rect class="cls-4" x="1426.86" y="726.26" width="28.36" height="36.11"/><polygon class="cls-7" points="1308.52 712.25 1151.36 712.25 1151.36 718.28 1308.52 718.28 1465.69 718.28 1465.69 712.25 1308.52 712.25"/><polygon class="cls-7" points="508.71 722.72 495.06 722.72 498.37 506.83 505.4 506.83 508.71 722.72"/><circle class="cls-7" cx="653.78" cy="539.93" r="10.13" transform="translate(-161.4 -21.68) rotate(-0.98)"/><path class="cls-7" d="M653.78,539.93l-4.06,1.9-39.79,58.53a2.16,2.16,0,0,0,.57,3h0a2.16,2.16,0,0,0,2.86-.38l34.24-40.2L653.85,544Z" transform="translate(-152.22 -33)"/><path class="cls-7" d="M653.78,539.93l3.68,2.56L728,547.7a2.16,2.16,0,0,0,2.31-2h0a2.16,2.16,0,0,0-1.76-2.29l-51.93-9.55-19.37,4Z" transform="translate(-152.22 -33)"/><path class="cls-7" d="M653.78,539.93l.38-4.46-30.79-63.73a2.16,2.16,0,0,0-2.88-1h0a2.16,2.16,0,0,0-1.1,2.67l17.69,49.75L650.2,538Z" transform="translate(-152.22 -33)"/><circle class="cls-7" cx="653.78" cy="539.93" r="4.09" transform="matrix(1, -0.02, 0.02, 1, -161.4, -21.68)"/><path class="cls-6" d="M1015.34,1038.22,753.18,587.64a12.78,12.78,0,0,0-22.1,0L468.92,1038.22Z" transform="translate(-152.22 -33)"/><path class="cls-7" d="M846.14,748l-34.32,22.52a14.35,14.35,0,0,1-17.3-1.19l-25.74-22.46a14.35,14.35,0,0,0-10.12-3.52l-28.6,1.38a14.35,14.35,0,0,1-13.67-8.21l-4.33-9.19a14.35,14.35,0,0,0-15.6-8L649,728.15l81.9-140.76a12.62,12.62,0,0,1,21.81,0Z" transform="translate(-152.22 -33)"/><path class="cls-4" d="M743.83,687.94l11.08-19.59a4.6,4.6,0,0,1,8,0L774,687.93" transform="translate(-152.22 -33)"/><path class="cls-4" d="M862.22,892.39,834.33,843.1a4.6,4.6,0,0,0-8,0l-17.77,31.4" transform="translate(-152.22 -33)"/><path class="cls-4" d="M693.78,828.49,665.9,779.2a4.6,4.6,0,0,0-8,0L633,823.91" transform="translate(-152.22 -33)"/><path class="cls-4" d="M821.73,851.24l-10.81-19.1a4.6,4.6,0,0,0-8,0l-11.07,19.57" transform="translate(-152.22 -33)"/><circle class="cls-15" cx="1146.43" cy="918.64" r="25.63"/><line class="cls-4" x1="1146.43" y1="934.1" x2="1146.43" y2="1005.04"/><line class="cls-4" x1="1140.34" y1="934.1" x2="1152.52" y2="934.1"/><circle class="cls-14" cx="1138.68" cy="903.26" r="2.89"/><circle class="cls-14" cx="1159.3" cy="914.02" r="2.89"/><circle class="cls-14" cx="1135.79" cy="922.25" r="2.89"/><circle class="cls-14" cx="1159.3" cy="930.24" r="2.89"/><circle class="cls-15" cx="996.14" cy="928.89" r="25.63"/><line class="cls-4" x1="996.14" y1="944.35" x2="996.14" y2="1005.06"/><line class="cls-4" x1="990.05" y1="944.35" x2="1002.23" y2="944.35"/><circle class="cls-14" cx="1006.41" cy="916.91" r="2.89"/><circle class="cls-14" cx="982.46" cy="939.58" r="2.89"/><circle class="cls-14" cx="985.35" cy="919.8" r="2.89"/><circle class="cls-14" cx="1011.81" cy="935.14" r="2.89"/><circle class="cls-14" cx="997.73" cy="927.35" r="2.89"/><path class="cls-15" d="M1353.91,1010.44l-19,12.68a5.86,5.86,0,0,1-6.5,0l-19-12.68a5.86,5.86,0,0,1-2.44-6.25l19-78.67a5.86,5.86,0,0,1,11.39,0l19,78.67A5.86,5.86,0,0,1,1353.91,1010.44Z" transform="translate(-152.22 -33)"/><line class="cls-4" x1="1179.41" y1="982.9" x2="1179.41" y2="1005.04"/><line class="cls-4" x1="1173.32" y1="982.9" x2="1185.5" y2="982.9"/><circle class="cls-14" cx="1170.43" cy="971.71" r="2.89"/><circle class="cls-14" cx="1190.03" cy="968.18" r="2.89"/><circle class="cls-14" cx="1170.43" cy="948.37" r="2.89"/><circle class="cls-14" cx="1184.25" cy="930.24" r="2.89"/><circle class="cls-14" cx="1179.41" cy="906.15" r="2.89"/><path class="cls-15" d="M1211.56,999.92l-19,12.68a5.86,5.86,0,0,1-6.5,0l-19-12.68a5.86,5.86,0,0,1-2.44-6.25l19-78.67a5.86,5.86,0,0,1,11.39,0l19,78.67A5.86,5.86,0,0,1,1211.56,999.92Z" transform="translate(-152.22 -33)"/><line class="cls-4" x1="1037.07" y1="972.37" x2="1037.07" y2="1005.04"/><line class="cls-4" x1="1030.98" y1="972.37" x2="1043.15" y2="972.37"/><circle class="cls-14" cx="1043.15" cy="917.87" r="2.89"/><circle class="cls-14" cx="1028.09" cy="936.71" r="2.89"/><circle class="cls-14" cx="1034.54" cy="902.54" r="2.89"/><circle class="cls-14" cx="1041.84" cy="948.02" r="2.89"/><circle class="cls-14" cx="1031.65" cy="960.54" r="2.89"/><path class="cls-15" d="M1285.28,971.22A12.27,12.27,0,0,0,1273,959h-26a9.22,9.22,0,0,0-14.37-7.64,19.12,19.12,0,1,0-15.09,32.12v.06h37.36a12.14,12.14,0,0,0,24.22-1.21c0-.15,0-.29,0-.44A12.25,12.25,0,0,0,1285.28,971.22Z" transform="translate(-152.22 -33)"/><line class="cls-4" x1="1090.2" y1="941.86" x2="1090.2" y2="1005.04"/><line class="cls-4" x1="1084.11" y1="941.86" x2="1096.29" y2="941.86"/><circle class="cls-14" cx="1069.37" cy="922.2" r="2.89"/><circle class="cls-14" cx="1118.75" cy="934.06" r="2.89"/><circle class="cls-14" cx="1063.59" cy="936.95" r="2.89"/><circle class="cls-14" cx="1087" cy="929.58" r="2.89"/><circle class="cls-14" cx="1111.71" cy="948.09" r="2.89"/><path class="cls-1" d="M813,919.7l-133.51-175a38.21,38.21,0,0,1,7.2-53.56l404.85-308.95a38.21,38.21,0,0,1,53.56,7.2l133.51,175a38.21,38.21,0,0,1-7.2,53.56L866.6,926.9A38.21,38.21,0,0,1,813,919.7Z" transform="translate(-152.22 -33)"/><path class="cls-10" d="M843.47,937.52a41,41,0,0,1-32.66-16.12l-133.51-175A41.06,41.06,0,0,1,685,689L1089.87,380a41,41,0,0,1,57.49,7.72l133.51,175a41.06,41.06,0,0,1-7.72,57.49L868.3,929.13A40.82,40.82,0,0,1,843.47,937.52Z" transform="translate(-152.22 -33)"/><rect class="cls-13" x="874.29" y="423.24" width="235.07" height="443.23" transform="translate(750.84 -567.83) rotate(52.67)"/><path class="cls-13" d="M889.62,478.51A42.08,42.08,0,0,0,822.34,529L898.14,630a42.08,42.08,0,0,0,67.29-50.53" transform="translate(-152.22 -33)"/><path class="cls-13" d="M1032.71,528.91A42.08,42.08,0,0,0,1100,478.37l-75.8-100.93A42.08,42.08,0,0,0,956.91,428" transform="translate(-152.22 -33)"/><path class="cls-13" d="M877,461.69,978.06,596.26a42.08,42.08,0,0,0,67.29-50.53L944.28,411.15A42.08,42.08,0,0,0,877,461.69" transform="translate(-152.22 -33)"/><path class="cls-16" d="M781.75,787.83a19.48,19.48,0,1,0-5.2,38.61,19.73,19.73,0,0,0,2.64.18,19.48,19.48,0,0,0,2.56-38.79Z" transform="translate(-152.22 -33)"/><path class="cls-13" d="M885.5,613.15a42.08,42.08,0,0,1-67.29,50.53l-37.9-50.47a42.08,42.08,0,0,1,67.29-50.53Z" transform="translate(-152.22 -33)"/><path class="cls-13" d="M852.26,663.2a29.67,29.67,0,0,1-23.77-11.84l-14.85-19.75a2.8,2.8,0,0,1,.56-3.93l43-32.33a2.8,2.8,0,0,1,3.93.56L876,615.67a29.68,29.68,0,0,1-23.7,47.53Z" transform="translate(-152.22 -33)"/><path class="cls-1" d="M852.26,663.2a29.67,29.67,0,0,1-23.77-11.84l-14.85-19.75a2.8,2.8,0,0,1,.56-3.93l43-32.33a2.8,2.8,0,0,1,3.93.56L876,615.67a29.68,29.68,0,0,1-23.7,47.53Z" transform="translate(-152.22 -33)"/><path class="cls-13" d="M933.24,629.7a29.67,29.67,0,0,1-23.77-11.84l-14.85-19.75a2.8,2.8,0,0,1,.56-3.93l43-32.33a2.8,2.8,0,0,1,3.93.56l14.85,19.75a29.68,29.68,0,0,1-23.7,47.53Z" transform="translate(-152.22 -33)"/><path class="cls-1" d="M933.24,629.7a29.67,29.67,0,0,1-23.77-11.84l-14.85-19.75a2.8,2.8,0,0,1,.56-3.93l43-32.33a2.8,2.8,0,0,1,3.93.56l14.85,19.75a29.68,29.68,0,0,1-23.7,47.53Z" transform="translate(-152.22 -33)"/><path class="cls-13" d="M1011.06,600a29.67,29.67,0,0,1-23.77-11.84l-14.85-19.75a2.8,2.8,0,0,1,.56-3.93l43-32.33a2.8,2.8,0,0,1,3.93.56l14.85,19.75a29.68,29.68,0,0,1-23.7,47.53Z" transform="translate(-152.22 -33)"/><path class="cls-1" d="M1011.06,600a29.67,29.67,0,0,1-23.77-11.84l-14.85-19.75a2.8,2.8,0,0,1,.56-3.93l43-32.33a2.8,2.8,0,0,1,3.93.56l14.85,19.75a29.68,29.68,0,0,1-23.7,47.53Z" transform="translate(-152.22 -33)"/><path class="cls-13" d="M1064.75,531.07A29.67,29.67,0,0,1,1041,519.23l-14.85-19.75a2.8,2.8,0,0,1,.56-3.93l43-32.33a2.8,2.8,0,0,1,3.93.56l14.85,19.75a29.68,29.68,0,0,1-23.7,47.53Z" transform="translate(-152.22 -33)"/><path class="cls-1" d="M1064.75,531.07A29.67,29.67,0,0,1,1041,519.23l-14.85-19.75a2.8,2.8,0,0,1,.56-3.93l43-32.33a2.8,2.8,0,0,1,3.93.56l14.85,19.75a29.68,29.68,0,0,1-23.7,47.53Z" transform="translate(-152.22 -33)"/><path class="cls-13" d="M1169.51,737.4V669.79a12.33,12.33,0,0,0-12.33-12.33h-52.24c-23,0-80.63,0-86.62-76.06a12.36,12.36,0,0,1,12.3-13.36H1224a35.19,35.19,0,0,1,35.19,35.19v124.6s.77,20.64-13.71,43.54-84.12,119.17-84.59,162.17v330.91H897.42V967.78c0-26.53-15.49-49.05-15.49-49.05l287.57-219.45" transform="translate(-152.22 -33)"/><path class="cls-13" d="M1062.89,607.94a39.34,39.34,0,0,1-39.3-39.28,2.82,2.82,0,0,1,2.82-2.82l70,0h0a2.82,2.82,0,0,1,2.82,2.82v36.47a2.82,2.82,0,0,1-2.82,2.82h-33.53Z" transform="translate(-152.22 -33)"/><path class="cls-1" d="M1062.89,607.94a39.34,39.34,0,0,1-39.3-39.28,2.82,2.82,0,0,1,2.82-2.82l70,0h0a2.82,2.82,0,0,1,2.82,2.82v36.47a2.82,2.82,0,0,1-2.82,2.82h-33.53Z" transform="translate(-152.22 -33)"/></g><line class="cls-4" x1="1388.67" y1="210.21" x2="1378.3" y2="210.21"/><path class="cls-4" d="M1499.65,243.17a15.17,15.17,0,0,1,30.33,0" transform="translate(-152.22 -33)"/><line class="cls-4" x1="1347.43" y1="210.17" x2="1294.25" y2="210.17"/><line class="cls-4" x1="1282.04" y1="210.17" x2="1263.73" y2="210.17"/><path class="cls-4" d="M859.92,305.25a21.31,21.31,0,0,1,36.55,6.09" transform="translate(-152.22 -33)"/><path class="cls-4" d="M894.54,307.43a13.06,13.06,0,0,1,19.69,11.25" transform="translate(-152.22 -33)"/><line class="cls-4" x1="631.73" y1="285.68" x2="687.08" y2="285.68"/><line class="cls-4" x1="612.09" y1="285.68" x2="622.95" y2="285.68"/><path class="cls-4" d="M839.3,318.68A13.06,13.06,0,0,1,863,308.54" transform="translate(-152.22 -33)"/><line class="cls-4" x1="449.7" y1="390.64" x2="489.53" y2="390.64"/><line class="cls-4" x1="417.9" y1="390.64" x2="432.54" y2="390.64"/><circle class="cls-15" cx="603.77" cy="918.64" r="25.63"/><line class="cls-4" x1="603.77" y1="934.1" x2="603.77" y2="1005.04"/><line class="cls-4" x1="597.68" y1="934.1" x2="609.86" y2="934.1"/><circle class="cls-14" cx="596.02" cy="903.26" r="2.89"/><circle class="cls-14" cx="616.65" cy="914.02" r="2.89"/><circle class="cls-14" cx="593.13" cy="922.25" r="2.89"/><circle class="cls-14" cx="616.65" cy="930.24" r="2.89"/><circle class="cls-15" cx="453.48" cy="928.89" r="25.63"/><line class="cls-4" x1="453.48" y1="944.35" x2="453.48" y2="1005.06"/><line class="cls-4" x1="447.4" y1="944.35" x2="459.57" y2="944.35"/><circle class="cls-14" cx="463.75" cy="916.91" r="2.89"/><circle class="cls-14" cx="439.8" cy="939.58" r="2.89"/><circle class="cls-14" cx="442.7" cy="919.8" r="2.89"/><circle class="cls-14" cx="469.16" cy="935.14" r="2.89"/><circle class="cls-14" cx="455.07" cy="927.35" r="2.89"/><path class="cls-15" d="M811.25,1010.44l-19,12.68a5.86,5.86,0,0,1-6.5,0l-19-12.68a5.86,5.86,0,0,1-2.44-6.25l19-78.67a5.86,5.86,0,0,1,11.39,0l19,78.67A5.86,5.86,0,0,1,811.25,1010.44Z" transform="translate(-152.22 -33)"/><line class="cls-4" x1="636.75" y1="982.9" x2="636.75" y2="1005.04"/><line class="cls-4" x1="630.66" y1="982.9" x2="642.84" y2="982.9"/><circle class="cls-14" cx="627.77" cy="971.71" r="2.89"/><circle class="cls-14" cx="647.37" cy="968.18" r="2.89"/><circle class="cls-14" cx="627.77" cy="948.37" r="2.89"/><circle class="cls-14" cx="641.59" cy="930.24" r="2.89"/><circle class="cls-14" cx="636.75" cy="906.15" r="2.89"/><path class="cls-15" d="M668.91,999.92l-19,12.68a5.86,5.86,0,0,1-6.5,0l-19-12.68a5.86,5.86,0,0,1-2.44-6.25l19-78.67a5.86,5.86,0,0,1,11.39,0l19,78.67A5.86,5.86,0,0,1,668.91,999.92Z" transform="translate(-152.22 -33)"/><line class="cls-4" x1="494.41" y1="972.37" x2="494.41" y2="1005.04"/><line class="cls-4" x1="488.32" y1="972.37" x2="500.5" y2="972.37"/><circle class="cls-14" cx="500.5" cy="917.87" r="2.89"/><circle class="cls-14" cx="485.43" cy="936.71" r="2.89"/><circle class="cls-14" cx="491.88" cy="902.54" r="2.89"/><circle class="cls-14" cx="499.18" cy="948.02" r="2.89"/><circle class="cls-14" cx="488.99" cy="960.54" r="2.89"/><path class="cls-15" d="M742.63,971.22A12.27,12.27,0,0,0,730.36,959h-26A9.22,9.22,0,0,0,690,951.32a19.12,19.12,0,1,0-15.09,32.12v.06h37.36a12.14,12.14,0,0,0,24.22-1.21c0-.15,0-.29,0-.44A12.25,12.25,0,0,0,742.63,971.22Z" transform="translate(-152.22 -33)"/><line class="cls-4" x1="547.54" y1="941.86" x2="547.54" y2="1005.04"/><line class="cls-4" x1="541.45" y1="941.86" x2="553.63" y2="941.86"/><circle class="cls-14" cx="526.71" cy="922.2" r="2.89"/><circle class="cls-14" cx="576.09" cy="934.06" r="2.89"/><circle class="cls-14" cx="520.93" cy="936.95" r="2.89"/><circle class="cls-14" cx="544.34" cy="929.58" r="2.89"/><circle class="cls-14" cx="569.06" cy="948.09" r="2.89"/><polygon class="cls-4" points="397.81 229.83 391.24 227.73 399.76 212.41 397.81 229.83"/><path class="cls-17" d="M545.64,326.34l16.91-52.88c1.57-4.91-5.1-11.42-14.89-14.56s-19-1.69-20.57,3.21L510.18,315Z" transform="translate(-152.22 -33)"/><ellipse class="cls-17" cx="527.91" cy="320.67" rx="9.33" ry="18.62" transform="translate(-90.55 692.8) rotate(-72.26)"/><path class="cls-4" d="M560.17,280.92c1.57-4.91-5.1-11.42-14.89-14.56s-19-1.69-20.57,3.21" transform="translate(-152.22 -33)"/><path class="cls-4" d="M548.48,317.45c1.57-4.91-5.1-11.42-14.89-14.56s-19-1.69-20.57,3.21" transform="translate(-152.22 -33)"/><path class="cls-7" d="M531.9,274.76c8.47-1,13.09.46,19.39,6.2l-6.17,19.3c-6.3-5.75-10.92-7.23-19.39-6.2Z" transform="translate(-152.22 -33)"/><line class="cls-4" x1="402.06" y1="266.35" x2="415.79" y2="270.74"/><rect class="cls-2" x="566.06" y="296.86" width="82.24" height="38.8" transform="matrix(0.95, 0.3, -0.3, 0.95, -27.01, -202.93)"/><line class="cls-4" x1="431.49" y1="255.39" x2="419.67" y2="292.35"/><line class="cls-4" x1="441.28" y1="258.53" x2="429.47" y2="295.48"/><line class="cls-4" x1="451.08" y1="261.66" x2="439.26" y2="298.61"/><line class="cls-4" x1="460.87" y1="264.79" x2="449.05" y2="301.74"/><line class="cls-4" x1="470.66" y1="267.92" x2="458.84" y2="304.87"/><line class="cls-4" x1="480.45" y1="271.05" x2="468.63" y2="308.01"/><line class="cls-4" x1="490.24" y1="274.18" x2="478.42" y2="311.14"/><line class="cls-4" x1="496.9" y1="287.11" x2="418.57" y2="262.05"/><line class="cls-4" x1="494.12" y1="295.79" x2="415.79" y2="270.74"/><line class="cls-4" x1="491.34" y1="304.48" x2="413.02" y2="279.43"/><line class="cls-4" x1="366.6" y1="255" x2="352.86" y2="250.61"/><rect class="cls-2" x="424.79" y="251.68" width="82.24" height="38.8" transform="translate(674.88 638.21) rotate(-162.26)"/><line class="cls-4" x1="337.16" y1="265.96" x2="348.98" y2="229"/><line class="cls-4" x1="327.37" y1="262.82" x2="339.19" y2="225.87"/><line class="cls-4" x1="317.58" y1="259.69" x2="329.4" y2="222.74"/><line class="cls-4" x1="307.79" y1="256.56" x2="319.6" y2="219.61"/><line class="cls-4" x1="297.99" y1="253.43" x2="309.81" y2="216.48"/><line class="cls-4" x1="288.2" y1="250.3" x2="300.02" y2="213.34"/><line class="cls-4" x1="278.41" y1="247.17" x2="290.23" y2="210.21"/><line class="cls-4" x1="271.75" y1="234.24" x2="350.08" y2="259.3"/><line class="cls-4" x1="274.53" y1="225.56" x2="352.86" y2="250.61"/><line class="cls-4" x1="277.31" y1="216.87" x2="355.64" y2="241.92"/><path class="cls-7" d="M562,258a12.89,12.89,0,1,1-3.31-25.56" transform="translate(-152.22 -33)"/><ellipse class="cls-4" cx="561.09" cy="245.11" rx="7.75" ry="12.89" transform="translate(-179.06 41.12) rotate(-7.38)"/><circle class="cls-18" cx="575.29" cy="242.88" r="1.19" transform="translate(16.48 683.84) rotate(-72.26)"/><line class="cls-4" x1="401.19" y1="213.11" x2="423.07" y2="209.88"/></svg>