<svg id="Layer_1" data-name="Layer 1" xmlns="http://www.w3.org/2000/svg" xmlns:xlink="http://www.w3.org/1999/xlink" viewBox="0 0 1370.13 1384.07"><defs><style>.cls-1,.cls-14,.cls-2{fill:none;}.cls-10,.cls-11,.cls-13,.cls-14,.cls-15,.cls-16,.cls-2,.cls-20,.cls-21,.cls-5,.cls-7,.cls-9{stroke:#33f;stroke-width:2px;}.cls-16,.cls-2,.cls-5,.cls-7,.cls-9{stroke-linecap:round;stroke-linejoin:round;}.cls-3{fill:#e1f4ff;}.cls-21,.cls-4,.cls-7{fill:#ffc51b;}.cls-13,.cls-5{fill:#fff;}.cls-6{clip-path:url(#clip-path);}.cls-20,.cls-8{fill:#1eb3ae;}.cls-9{fill:#48dcad;}.cls-10,.cls-12{fill:#ebebeb;}.cls-10,.cls-11,.cls-13,.cls-14,.cls-15,.cls-20,.cls-21{stroke-miterlimit:10;}.cls-11,.cls-16,.cls-19{fill:#33f;}.cls-15,.cls-18{fill:#5de9ff;}.cls-17{clip-path:url(#clip-path-2);}</style><clipPath id="clip-path" transform="translate(-279.25 -65.98)"><circle class="cls-1" cx="901.81" cy="678.47" r="612.47"/></clipPath><clipPath id="clip-path-2" transform="translate(-279.25 -65.98)"><path class="cls-2" d="M1158.78,1230.83,1098.6,1162l-87.38,12.21-459.87-.12c-21.16,0-43.89,16.75-27.37,37.44S584.16,1249,611.16,1249l460.24.12Z"/></clipPath></defs><title>Illustration_1</title><circle class="cls-3" cx="901.81" cy="678.47" r="612.47" transform="translate(-102.62 1477.18) rotate(-86.97)"/><circle class="cls-4" cx="977.59" cy="558.3" r="153.96"/><polygon class="cls-5" points="868.37 819.61 855.36 819.61 858.51 613.84 865.21 613.84 868.37 819.61"/><circle class="cls-5" cx="1140.64" cy="680.5" r="9.66" transform="translate(-463.82 525.29) rotate(-26.97)"/><path class="cls-5" d="M1140.64,680.5l2.68-3.32,9.66-66.76a2.06,2.06,0,0,0-1.74-2.33h0a2.06,2.06,0,0,0-2.29,1.52l-12.55,48.74,2.48,18.68Z" transform="translate(-279.25 -65.98)"/><path class="cls-5" d="M1140.64,680.5l-4.22-.66-62.64,25a2.06,2.06,0,0,0-1.15,2.67h0a2.06,2.06,0,0,0,2.47,1.23l48.48-13.5,14.94-11.49Z" transform="translate(-279.25 -65.98)"/><path class="cls-5" d="M1140.64,680.5l1.54,4,53,41.74a2.06,2.06,0,0,0,2.89-.34h0a2.06,2.06,0,0,0-.17-2.75L1162,687.9l-17.42-7.2Z" transform="translate(-279.25 -65.98)"/><circle class="cls-5" cx="1140.64" cy="680.5" r="3.9" transform="translate(-463.82 525.29) rotate(-26.97)"/><path class="cls-2" d="M1160,980l-25.46-45a4.2,4.2,0,0,0-7.31,0L1111,963.68" transform="translate(-279.25 -65.98)"/><path class="cls-2" d="M1109,943.94l-7.88-12.78c-1.28-2.08-4.16-2.31-5.13-.4l-6.11,12" transform="translate(-279.25 -65.98)"/><g class="cls-6"><line class="cls-2" x1="555.6" y1="977.82" x2="555.6" y2="1004.01"/><ellipse class="cls-7" cx="555.6" cy="976.05" rx="1.96" ry="1.78"/><line class="cls-2" x1="548.95" y1="968.61" x2="548.95" y2="1003.92"/><ellipse class="cls-7" cx="548.95" cy="966.83" rx="1.96" ry="1.78"/><line class="cls-2" x1="542.3" y1="977.82" x2="542.3" y2="1004.01"/><ellipse class="cls-7" cx="542.3" cy="976.05" rx="1.96" ry="1.78"/><line class="cls-2" x1="535.64" y1="968.61" x2="535.64" y2="1003.92"/><ellipse class="cls-7" cx="535.64" cy="966.83" rx="1.96" ry="1.78"/><line class="cls-2" x1="528.99" y1="977.82" x2="528.99" y2="1004.01"/><ellipse class="cls-7" cx="528.99" cy="976.05" rx="1.96" ry="1.78"/><line class="cls-2" x1="522.34" y1="968.61" x2="522.34" y2="1003.92"/><ellipse class="cls-7" cx="522.34" cy="966.83" rx="1.96" ry="1.78"/><line class="cls-2" x1="515.69" y1="977.82" x2="515.69" y2="1004.01"/><ellipse class="cls-7" cx="515.69" cy="976.05" rx="1.96" ry="1.78"/><line class="cls-2" x1="509.03" y1="968.61" x2="509.03" y2="1003.92"/><ellipse class="cls-7" cx="509.03" cy="966.83" rx="1.96" ry="1.78"/><line class="cls-2" x1="502.38" y1="977.82" x2="502.38" y2="1004.01"/><ellipse class="cls-7" cx="502.38" cy="976.05" rx="1.96" ry="1.78"/><line class="cls-2" x1="495.73" y1="968.61" x2="495.73" y2="1003.92"/><ellipse class="cls-7" cx="495.73" cy="966.83" rx="1.96" ry="1.78"/><line class="cls-2" x1="487.62" y1="974.89" x2="487.62" y2="1003.78"/><circle class="cls-7" cx="487.62" cy="972.93" r="1.96"/><line class="cls-2" x1="480.97" y1="964.73" x2="480.97" y2="1003.67"/><circle class="cls-7" cx="480.97" cy="962.77" r="1.96"/><line class="cls-2" x1="474.32" y1="974.89" x2="474.32" y2="1003.78"/><circle class="cls-7" cx="474.32" cy="972.93" r="1.96"/><line class="cls-2" x1="467.66" y1="964.73" x2="467.66" y2="1003.67"/><circle class="cls-7" cx="467.66" cy="962.77" r="1.96"/><line class="cls-2" x1="461.01" y1="974.89" x2="461.01" y2="1003.78"/><circle class="cls-7" cx="461.01" cy="972.93" r="1.96"/><line class="cls-2" x1="454.36" y1="964.73" x2="454.36" y2="1003.67"/><circle class="cls-7" cx="454.36" cy="962.77" r="1.96"/><line class="cls-2" x1="447.71" y1="974.89" x2="447.71" y2="1003.78"/><circle class="cls-7" cx="447.71" cy="972.93" r="1.96"/><line class="cls-2" x1="441.05" y1="964.73" x2="441.05" y2="1003.67"/><circle class="cls-7" cx="441.05" cy="962.77" r="1.96"/><line class="cls-2" x1="434.4" y1="974.89" x2="434.4" y2="1003.78"/><circle class="cls-7" cx="434.4" cy="972.93" r="1.96"/><line class="cls-2" x1="427.75" y1="964.73" x2="427.75" y2="1003.67"/><circle class="cls-7" cx="427.75" cy="962.77" r="1.96"/><rect class="cls-8" x="109.27" y="1001.34" width="1015.56" height="382.74"/><path class="cls-9" d="M1299.81,1070.17,1071.58,677.9a11.13,11.13,0,0,0-19.24,0L824.11,1070.17Z" transform="translate(-279.25 -65.98)"/><path class="cls-5" d="M1152.52,817.49l-29.88,19.6a12.49,12.49,0,0,1-15.06-1l-22.41-19.55a12.49,12.49,0,0,0-8.81-3.06l-24.9,1.2a12.49,12.49,0,0,1-11.9-7.15l-3.77-8a12.49,12.49,0,0,0-13.58-7l-41.32,7.7,71.3-122.54a11,11,0,0,1,19,0Z" transform="translate(-279.25 -65.98)"/><path class="cls-2" d="M1020.86,886.59l-22.18-38.85a3.61,3.61,0,0,0-6.28,0l-19.25,34.93" transform="translate(-279.25 -65.98)"/><polygon class="cls-5" points="382.83 1004.49 365.89 1004.49 370 736.53 378.72 736.53 382.83 1004.49"/><circle class="cls-5" cx="653.21" cy="802.65" r="12.57" transform="translate(-292.95 -54.63) rotate(-0.98)"/><path class="cls-5" d="M653.21,802.65l-5,2.36-49.39,72.64a2.68,2.68,0,0,0,.7,3.72h0a2.68,2.68,0,0,0,3.55-.47L645.54,831l7.76-23.28Z" transform="translate(-279.25 -65.98)"/><path class="cls-5" d="M653.21,802.65l4.56,3.18,87.6,6.45a2.68,2.68,0,0,0,2.87-2.47h0a2.68,2.68,0,0,0-2.19-2.84l-64.45-11.86-24,4.92Z" transform="translate(-279.25 -65.98)"/><path class="cls-5" d="M653.21,802.65l.47-5.54L615.47,718a2.68,2.68,0,0,0-3.57-1.25h0a2.68,2.68,0,0,0-1.37,3.32l22,61.75,16.28,18.36Z" transform="translate(-279.25 -65.98)"/><circle class="cls-5" cx="653.21" cy="802.65" r="5.07" transform="matrix(1, -0.02, 0.02, 1, -292.95, -54.63)"/><path class="cls-9" d="M746.79,1069.73l-221-379.8a10.77,10.77,0,0,0-18.62,0L345.31,968.17l-65.05,101.57Z" transform="translate(-279.25 -65.98)"/><path class="cls-2" d="M535,887.72l18.87-33.36a3.11,3.11,0,0,1,5.42,0l12,21.25" transform="translate(-279.25 -65.98)"/><path class="cls-2" d="M566.83,867.62l7.5-13.26a3.11,3.11,0,0,1,5.42,0l7.49,13.25" transform="translate(-279.25 -65.98)"/><path class="cls-5" d="M428.56,825.08l28.93,19a12.09,12.09,0,0,0,14.58-1l21.69-18.93a12.09,12.09,0,0,1,8.53-3l24.11,1.16a12.09,12.09,0,0,0,11.52-6.92l3.65-7.74a12.09,12.09,0,0,1,13.15-6.73l40,7.45-69-118.65a10.64,10.64,0,0,0-18.39,0Z" transform="translate(-279.25 -65.98)"/><path class="cls-9" d="M1648.38,1155,1305.64,565.93a16.71,16.71,0,0,0-28.89,0L934,1155Z" transform="translate(-279.25 -65.98)"/><path class="cls-5" d="M1427.18,775.53,1382.32,805a18.75,18.75,0,0,1-22.62-1.55l-33.65-29.36a18.75,18.75,0,0,0-13.23-4.6l-37.39,1.8a18.75,18.75,0,0,1-17.87-10.74l-5.66-12a18.75,18.75,0,0,0-20.4-10.44l-62,11.56,107.07-184a16.5,16.5,0,0,1,28.52,0Z" transform="translate(-279.25 -65.98)"/><path class="cls-2" d="M1293.42,697.06l14.49-25.61a6,6,0,0,1,10.46,0L1332.84,697" transform="translate(-279.25 -65.98)"/><path class="cls-2" d="M1448.19,964.34l-36.45-64.44a6,6,0,0,0-10.46,0L1378.06,941" transform="translate(-279.25 -65.98)"/><path class="cls-2" d="M1395.26,910.55l-14.13-25a6,6,0,0,0-10.46,0l-14.48,25.59" transform="translate(-279.25 -65.98)"/></g><line class="cls-2" x1="873.59" y1="483.75" x2="863.23" y2="483.75"/><path class="cls-2" d="M1111.61,549.69a15.17,15.17,0,0,1,30.33,0" transform="translate(-279.25 -65.98)"/><line class="cls-2" x1="832.36" y1="483.71" x2="779.17" y2="483.71"/><line class="cls-2" x1="766.97" y1="483.71" x2="748.66" y2="483.71"/><path class="cls-2" d="M1074,305a27.09,27.09,0,0,1,46.46,7.74" transform="translate(-279.25 -65.98)"/><path class="cls-2" d="M1118,307.82a16.6,16.6,0,0,1,25,14.3" transform="translate(-279.25 -65.98)"/><line class="cls-2" x1="698.21" y1="256.14" x2="768.57" y2="256.14"/><line class="cls-2" x1="673.25" y1="256.14" x2="687.04" y2="256.14"/><path class="cls-2" d="M1047.82,322.13a16.6,16.6,0,0,1,30.08-12.89" transform="translate(-279.25 -65.98)"/><path class="cls-2" d="M544.63,565.05a27.09,27.09,0,0,1,46.46,7.74" transform="translate(-279.25 -65.98)"/><path class="cls-2" d="M588.63,567.83a16.6,16.6,0,0,1,25,14.3" transform="translate(-279.25 -65.98)"/><line class="cls-2" x1="168.81" y1="516.14" x2="239.16" y2="516.14"/><line class="cls-2" x1="143.85" y1="516.14" x2="157.64" y2="516.14"/><path class="cls-2" d="M518.41,582.13a16.6,16.6,0,0,1,30.08-12.89" transform="translate(-279.25 -65.98)"/><rect class="cls-10" x="573.62" y="320.91" width="5.83" height="7.72" transform="translate(-227.72 -143.99) rotate(8.1)"/><circle class="cls-10" cx="574.06" cy="342.16" r="16.62" transform="translate(-124.84 796.29) rotate(-81.9)"/><circle class="cls-11" cx="574.06" cy="342.16" r="10.41" transform="translate(-124.84 796.29) rotate(-81.9)"/><circle class="cls-12" cx="574.06" cy="342.16" r="4.19" transform="matrix(0.14, -0.99, 0.99, 0.14, -124.84, 796.29)"/><path class="cls-10" d="M656.55,332.31l-170.78-22.5.81-5.68,170.51,24.27a2,2,0,0,1,1.67,2.23h0A2,2,0,0,1,656.55,332.31Z" transform="translate(-279.25 -65.98)"/><rect class="cls-10" x="386.26" y="294.24" width="5.83" height="7.72" transform="translate(453.2 582.09) rotate(-171.9)"/><circle class="cls-10" cx="386.7" cy="315.49" r="16.62" transform="translate(-259.39 587.88) rotate(-81.9)"/><circle class="cls-11" cx="386.7" cy="315.49" r="10.41" transform="translate(-259.39 587.88) rotate(-81.9)"/><circle class="cls-12" cx="386.7" cy="315.49" r="4.19" transform="translate(-259.39 587.88) rotate(-81.9)"/><path class="cls-10" d="M310.24,283l170.28,26.05.81-5.68L310.81,279.11a2,2,0,0,0-2.23,1.67h0A2,2,0,0,0,310.24,283Z" transform="translate(-279.25 -65.98)"/><path class="cls-10" d="M509,291h0a1.81,1.81,0,0,0-1.47-2l-20.94-3.83-.75,5.24L507,292.55A1.81,1.81,0,0,0,509,291Z" transform="translate(-279.25 -65.98)"/><path class="cls-10" d="M463.44,284.51h0a1.81,1.81,0,0,0,1.47,2l20.94,3.83.75-5.24L465.42,283A1.81,1.81,0,0,0,463.44,284.51Z" transform="translate(-279.25 -65.98)"/><path class="cls-11" d="M426.43,361.39h16.83a0,0,0,0,1,0,0v7.95a2.59,2.59,0,0,1-2.59,2.59H429a2.59,2.59,0,0,1-2.59-2.59v-7.95a0,0,0,0,1,0,0Z" transform="translate(-223.24 -123.61) rotate(8.1)"/><path class="cls-11" d="M507.72,372.59h11.64a2.59,2.59,0,0,1,2.59,2.59v7.95a0,0,0,0,1,0,0H505.13a0,0,0,0,1,0,0v-7.95A2.59,2.59,0,0,1,507.72,372.59Z" transform="matrix(-0.99, -0.14, 0.14, -0.99, 689.45, 758.35)"/><path class="cls-10" d="M525,337.09l-3.2-3.24a16.13,16.13,0,0,1-3.12-4.47l-7-14.93a14.81,14.81,0,0,0-11.31-8.36l-16.37-2.33-16.37-2.33a14.81,14.81,0,0,0-13.19,4.87l-10.91,12.38a16.13,16.13,0,0,1-4.24,3.42l-4,2.22a15.82,15.82,0,0,0-8,11.59l-3,21.07a5.21,5.21,0,0,0,4.42,5.89l45.89,6.53,45.89,6.53a5.21,5.21,0,0,0,5.89-4.42l3-21.07A15.82,15.82,0,0,0,525,337.09Z" transform="translate(-279.25 -65.98)"/><path class="cls-13" d="M446.76,345.18l-11.42-3.38a4,4,0,0,1-2.84-4.43l.42-2.94a2.24,2.24,0,0,1,2.86-1.84l11.2,3.32a5.07,5.07,0,0,1,3.58,5.58l-.19,1.36A2.83,2.83,0,0,1,446.76,345.18Z" transform="translate(-279.25 -65.98)"/><path class="cls-13" d="M508.1,353.92l11.91-.06a4,4,0,0,0,4-3.46l.42-2.94a2.24,2.24,0,0,0-2.23-2.56l-11.69.06a5.07,5.07,0,0,0-5,4.36l-.19,1.36A2.83,2.83,0,0,0,508.1,353.92Z" transform="translate(-279.25 -65.98)"/><path class="cls-14" d="M499.12,344.5l-20.56-2.93L458,338.65a2,2,0,0,0-2.19,2.37l2.19,9.73a2,2,0,0,0,1.46,1.48l12.19,2.89a53.85,53.85,0,0,0,9.74,1.39l12.52.63a2,2,0,0,0,1.82-1l4.82-8.73A2,2,0,0,0,499.12,344.5Z" transform="translate(-279.25 -65.98)"/><path class="cls-15" d="M512.94,330.15l-6.22-13.28a13,13,0,0,0-10-7.35l-13.36-1.86L470,305.71A13,13,0,0,0,458.41,310l-9.68,11a1.33,1.33,0,0,0,.81,2.2l31,4.41,31,4.41A1.33,1.33,0,0,0,512.94,330.15Z" transform="translate(-279.25 -65.98)"/><rect class="cls-14" x="466.94" y="359.87" width="17.24" height="5.66" transform="translate(-223.39 -129.38) rotate(8.1)"/><polygon class="cls-10" points="242.38 262.57 238.77 262.05 237.32 258.96 242.78 259.74 242.38 262.57"/><rect class="cls-10" x="520.75" y="324.12" width="12.85" height="7.55" rx="2.72" ry="2.72" transform="translate(-227.78 -137.01) rotate(8.1)"/><polygon class="cls-10" points="161.59 251.07 165.19 251.58 167.46 249.02 161.99 248.24 161.59 251.07"/><rect class="cls-10" x="429.28" y="311.1" width="12.85" height="7.55" rx="2.72" ry="2.72" transform="translate(543.42 622.03) rotate(-171.9)"/><path class="cls-10" d="M487.19,281h0a1.81,1.81,0,0,0-2,1.47l-3.83,20.94,5.24.75L488.74,283A1.81,1.81,0,0,0,487.19,281Z" transform="translate(-279.25 -65.98)"/><line class="cls-2" x1="629.48" y1="519.99" x2="669.32" y2="519.99"/><line class="cls-2" x1="597.69" y1="519.99" x2="612.33" y2="519.99"/><path class="cls-16" d="M781.55,1280.62c0,8.76-33.08,23.47-73.89,23.46s-73.88-14.74-73.87-23.5,33.08-15.85,73.88-15.84S781.56,1271.86,781.55,1280.62Z" transform="translate(-279.25 -65.98)"/><path class="cls-16" d="M1059.09,1280.69c0,8.76-33.08,23.47-73.89,23.46s-73.88-14.74-73.87-23.5,33.08-15.85,73.88-15.84S1059.09,1271.93,1059.09,1280.69Z" transform="translate(-279.25 -65.98)"/><path class="cls-5" d="M1158.78,1230.83v31.54l-87.38,18.32-443.11-.11a186.66,186.66,0,0,1-58.37-8.89c-21.47-7.07-44.64-19.4-51.46-40.42v-35.64Z" transform="translate(-279.25 -65.98)"/><path class="cls-5" d="M1158.78,1230.83,1098.6,1162l-87.38,12.21-459.87-.12c-21.16,0-43.89,16.75-27.37,37.44S584.16,1249,611.16,1249l460.24.12Z" transform="translate(-279.25 -65.98)"/><path class="cls-12" d="M1133,1358.68c-.11,15.52-119.17,27.27-265.91,26.26S601.5,1370.52,601.61,1355s119.17-27.27,265.91-26.26S1133.14,1343.16,1133,1358.68Z" transform="translate(-279.25 -65.98)"/><g class="cls-17"><polygon class="cls-18" points="344.94 1224.57 237.09 1223.32 353.49 1057.66 461.35 1058.92 344.94 1224.57"/><polygon class="cls-18" points="505.71 1226.44 397.86 1225.19 514.26 1059.54 622.11 1060.79 505.71 1226.44"/><polygon class="cls-18" points="666.48 1228.31 558.62 1227.06 675.03 1061.41 782.88 1062.66 666.48 1228.31"/><polygon class="cls-18" points="826.95 1230.18 719.09 1228.92 835.5 1063.27 943.35 1064.53 826.95 1230.18"/></g><path class="cls-2" d="M1158.78,1230.83,1098.6,1162l-87.38,12.21-459.87-.12c-21.16,0-43.89,16.75-27.37,37.44S584.16,1249,611.16,1249l460.24.12Z" transform="translate(-279.25 -65.98)"/><path class="cls-5" d="M716.36,800.88l-2,53.51-36.26,67a10.18,10.18,0,0,0-.48,8.71l3.65,8.93a10.74,10.74,0,0,0,17.17,3.7l1.2-1.11a10.23,10.23,0,0,0,2.81-10.73l-1.18-3.57a10.19,10.19,0,0,1,1.36-9.07l49.08-69.71.78-68.15" transform="translate(-279.25 -65.98)"/><path class="cls-2" d="M735,759.17a19.39,19.39,0,0,1,17.5,21.23" transform="translate(-279.25 -65.98)"/><path class="cls-5" d="M799.21,715.52l-46.2-69-42.77,34.95c11.22,16.09,10.63,38.82,5.05,59.12" transform="translate(-279.25 -65.98)"/><line class="cls-2" x1="518.18" y1="1031.66" x2="517.37" y2="1014.39"/><path class="cls-5" d="M639.76,1231.09a12.86,12.86,0,0,1,.6-25.38l-.27,0,111.13-17.65a15.56,15.56,0,0,0,13.12-17.8l-23.63-142.16a78.4,78.4,0,0,1,.11-27.47c7.9-43.68,50.53-72.84,95.22-65.12s74.52,49.39,66.62,93.08-50.53,72.84-95.22,65.12a84.55,84.55,0,0,1-10.28-2.44l5,110a15.6,15.6,0,0,1-13.31,16l-138.55,22" transform="translate(-279.25 -65.98)"/><path class="cls-5" d="M650.27,1239.32a9.06,9.06,0,0,1-10.42-7.33,8.9,8.9,0,0,1,7.5-10.18" transform="translate(-279.25 -65.98)"/><path class="cls-5" d="M728.57,727.2a75.88,75.88,0,0,0-29.2,80v0l75.77,215c21.1,52.1,81.41,77.61,134.71,57s79.4-79.58,58.3-131.68l-125-197.85a78.14,78.14,0,0,0-49.12-35.62" transform="translate(-279.25 -65.98)"/><path class="cls-5" d="M794.07,714.11" transform="translate(-279.25 -65.98)"/><path class="cls-5" d="M687.1,612.08c-26.6-15.42-35.38-49-19.6-75v0l38.37,28.42A26.1,26.1,0,0,1,713,596.15" transform="translate(-279.25 -65.98)"/><path class="cls-5" d="M680.13,698l64.19-35.75a37.52,37.52,0,0,0,9.21-53.08,39.52,39.52,0,0,0-54.3-9l-62.6,62.19a28.33,28.33,0,0,0-.53,40.71,29.54,29.54,0,0,0,2.43,2.18c11.48,9.21,28.61,7.1,38.82-3.44l24.94-34" transform="translate(-279.25 -65.98)"/><path class="cls-16" d="M643.74,687.17a7.23,7.23,0,0,1-5.71,8.57,7.4,7.4,0,0,1-8.76-5.58,7.23,7.23,0,0,1,5.71-8.57A7.4,7.4,0,0,1,643.74,687.17Z" transform="translate(-279.25 -65.98)"/><path class="cls-19" d="M709.28,630.09a7.23,7.23,0,0,1-5.71,8.57,7.4,7.4,0,0,1-8.76-5.58,7.23,7.23,0,0,1,5.71-8.57A7.4,7.4,0,0,1,709.28,630.09Z" transform="translate(-279.25 -65.98)"/><path class="cls-5" d="M745.79,610.92a59.22,59.22,0,0,0-14.29-83.81v0l-25.66,45.14a28.62,28.62,0,0,0,6.69,33.92" transform="translate(-279.25 -65.98)"/><path class="cls-5" d="M999.29,1076.24c23.41,60.61,92.66,91.19,154.66,68.31,60.92-22.48,92.18-88.2,71.06-148a11.61,11.61,0,0,1,8.94-13.91,11.89,11.89,0,0,1,14.23,8.74h0c30.84,79.83-10.37,169-92,199.13s-172.88-10.14-203.72-90" transform="translate(-279.25 -65.98)"/><path class="cls-7" d="M843.19,749.73c-19.54-32.45-54.09-36.61-54.09-36.61-30.54,0-55.3,24.2-55.3,54.06h0a53.86,53.86,0,0,1-30.07,52l46.4,132c75.19-10.33,159-42.68,157.49-99.5Zm-38.33,51.7c-21.39,0-38.74-17-38.74-37.87s17.34-37.86,38.74-37.86,38.74,17,38.74,37.86S826.25,801.43,804.86,801.43Z" transform="translate(-279.25 -65.98)"/><ellipse class="cls-7" cx="525.6" cy="697.58" rx="38.74" ry="37.86"/><ellipse class="cls-5" cx="525.6" cy="697.58" rx="38.74" ry="37.86"/><path class="cls-5" d="M804.56,787.31l21,42.6a26.8,26.8,0,0,1,2.78,11.87v69.3a11,11,0,0,0,3.9,8.38l7.55,6.42a11.5,11.5,0,0,0,17.64-3.46h0a10.92,10.92,0,0,0-2.13-12.75l-3.52-3.45a11,11,0,0,1-3.23-9.12l9-75.55a26.78,26.78,0,0,0-2.91-15.66l-28-53.19" transform="translate(-279.25 -65.98)"/><path class="cls-5" d="M801.09,741.92a19.88,19.88,0,0,1,25.63,10.76" transform="translate(-279.25 -65.98)"/><path class="cls-5" d="M751.3,1288.37a15.2,15.2,0,0,1-13.88-9.94,14.8,14.8,0,0,1,9.32-19l-.3.1,122.43-42a17.78,17.78,0,0,0,11.19-22.79l-51.35-136.92-.05-.15a90.56,90.56,0,0,1-5.52-31.06c-.1-51.13,42.23-92.66,94.54-92.75s94.79,41.28,94.89,92.41S970.34,1118.9,918,1119a97.8,97.8,0,0,1-12.17-.73l23.51,104.15a17.82,17.82,0,0,1-11.78,20.78l-152.64,52.42a10.53,10.53,0,0,1-13.34-6.26,10.17,10.17,0,0,1,6.4-13" transform="translate(-279.25 -65.98)"/><line class="cls-2" x1="630.25" y1="1068.12" x2="620.31" y2="1025.07"/><polygon class="cls-8" points="478.51 754.32 472.03 761.18 470.4 751.98 461.73 748.07 470.18 743.72 471.3 734.45 478.15 740.96 487.51 739.14 483.3 747.51 487.96 755.66 478.51 754.32"/><polygon class="cls-8" points="514.28 852.98 507.8 859.84 506.17 850.64 497.5 846.73 505.95 842.38 507.07 833.11 513.92 839.62 523.28 837.8 519.07 846.17 523.73 854.32 514.28 852.98"/><polygon class="cls-8" points="525.37 813.53 522.13 816.96 521.32 812.36 516.98 810.41 521.21 808.23 521.77 803.6 525.19 806.85 529.87 805.94 527.76 810.13 530.1 814.2 525.37 813.53"/><polygon class="cls-8" points="521.24 783.21 514.75 790.06 513.13 780.86 504.46 776.95 512.91 772.6 514.03 763.33 520.87 769.84 530.24 768.02 526.02 776.39 530.69 784.54 521.24 783.21"/><polygon class="cls-8" points="463.92 803.06 457.44 809.91 455.82 800.72 447.15 796.81 455.6 792.46 456.72 783.19 463.56 789.7 472.93 787.88 468.71 796.25 473.38 804.39 463.92 803.06"/><circle class="cls-20" cx="299.63" cy="948.79" r="29.5"/><line class="cls-2" x1="299.63" y1="966.57" x2="299.63" y2="1004.31"/><line class="cls-2" x1="292.62" y1="966.57" x2="306.63" y2="966.57"/><circle class="cls-21" cx="283.22" cy="942.38" r="3.33"/><circle class="cls-21" cx="307.33" cy="936.52" r="3.33"/><circle class="cls-21" cx="292.31" cy="957.74" r="3.33"/><circle class="cls-21" cx="317.89" cy="950.78" r="3.33"/><path class="cls-20" d="M677.71,994.69a14.12,14.12,0,0,0-14.12-14.12H633.7a10.61,10.61,0,0,0-16.53-8.79,22,22,0,1,0-17.37,37v.06h43a14,14,0,0,0,27.87-1.39c0-.17,0-.34,0-.51A14.1,14.1,0,0,0,677.71,994.69Z" transform="translate(-279.25 -65.98)"/><line class="cls-2" x1="349.13" y1="932.88" x2="349.13" y2="1004.31"/><line class="cls-2" x1="342.12" y1="932.88" x2="356.13" y2="932.88"/><circle class="cls-21" cx="325.16" cy="910.26" r="3.33"/><circle class="cls-21" cx="381.98" cy="923.91" r="3.33"/><circle class="cls-21" cx="318.5" cy="927.24" r="3.33"/><circle class="cls-21" cx="345.45" cy="918.76" r="3.33"/><circle class="cls-21" cx="373.89" cy="940.06" r="3.33"/><path class="cls-20" d="M643.71,1023.22l21.9,14.6a6.74,6.74,0,0,0,7.48,0l21.9-14.6a6.74,6.74,0,0,0,2.81-7.19l-21.9-90.54a6.74,6.74,0,0,0-13.1,0L640.9,1016A6.74,6.74,0,0,0,643.71,1023.22Z" transform="translate(-279.25 -65.98)"/><line class="cls-2" x1="390.1" y1="963.51" x2="390.1" y2="1004.31"/><line class="cls-2" x1="397.11" y1="963.51" x2="383.09" y2="963.51"/><circle class="cls-21" cx="396.31" cy="936.14" r="3.33"/><circle class="cls-21" cx="405.96" cy="954.1" r="3.33"/><circle class="cls-21" cx="377.88" cy="946.57" r="3.33"/><circle class="cls-21" cx="395" cy="907.73" r="3.33"/><circle class="cls-21" cx="380.05" cy="922.73" r="3.33"/><circle class="cls-21" cx="388.75" cy="891.16" r="3.33"/><circle class="cls-20" cx="166.4" cy="948.79" r="29.5"/><line class="cls-2" x1="166.4" y1="966.57" x2="166.4" y2="1004.31"/><line class="cls-2" x1="159.39" y1="966.57" x2="173.41" y2="966.57"/><circle class="cls-21" cx="150" cy="942.38" r="3.33"/><circle class="cls-21" cx="174.11" cy="936.52" r="3.33"/><circle class="cls-21" cx="159.09" cy="957.74" r="3.33"/><circle class="cls-21" cx="184.66" cy="950.78" r="3.33"/><path class="cls-20" d="M544.49,994.69a14.12,14.12,0,0,0-14.12-14.12h-29.9a10.61,10.61,0,0,0-16.53-8.79,22,22,0,1,0-17.37,37v.06h43a14,14,0,0,0,27.87-1.39c0-.17,0-.34,0-.51A14.1,14.1,0,0,0,544.49,994.69Z" transform="translate(-279.25 -65.98)"/><line class="cls-2" x1="215.9" y1="932.88" x2="215.9" y2="1004.31"/><line class="cls-2" x1="208.89" y1="932.88" x2="222.91" y2="932.88"/><circle class="cls-21" cx="191.93" cy="910.26" r="3.33"/><circle class="cls-21" cx="248.76" cy="923.91" r="3.33"/><circle class="cls-21" cx="185.28" cy="927.24" r="3.33"/><circle class="cls-21" cx="212.22" cy="918.76" r="3.33"/><circle class="cls-21" cx="240.66" cy="940.06" r="3.33"/><path class="cls-20" d="M510.48,1023.22l21.9,14.6a6.74,6.74,0,0,0,7.48,0l21.9-14.6a6.74,6.74,0,0,0,2.81-7.19l-21.9-90.54a6.74,6.74,0,0,0-13.1,0L507.67,1016A6.74,6.74,0,0,0,510.48,1023.22Z" transform="translate(-279.25 -65.98)"/><line class="cls-2" x1="256.87" y1="963.51" x2="256.87" y2="1004.31"/><line class="cls-2" x1="263.88" y1="963.51" x2="249.87" y2="963.51"/><circle class="cls-21" cx="263.08" cy="936.14" r="3.33"/><circle class="cls-21" cx="272.73" cy="954.1" r="3.33"/><circle class="cls-21" cx="244.65" cy="946.57" r="3.33"/><circle class="cls-21" cx="261.77" cy="907.73" r="3.33"/><circle class="cls-21" cx="246.82" cy="922.73" r="3.33"/><circle class="cls-21" cx="255.53" cy="891.16" r="3.33"/></svg>