<?xml version="1.0" encoding="utf-8"?>
<!-- Generator: Adobe Illustrator 16.0.0, SVG Export Plug-In . SVG Version: 6.00 Build 0)  -->
<!DOCTYPE svg PUBLIC "-//W3C//DTD SVG 1.1//EN" "http://www.w3.org/Graphics/SVG/1.1/DTD/svg11.dtd">
<svg version="1.1" id="Layer_1" xmlns="http://www.w3.org/2000/svg" xmlns:xlink="http://www.w3.org/1999/xlink" x="0px" y="0px"
	 width="510px" height="435px" viewBox="0 0 510 435" enable-background="new 0 0 510 435" xml:space="preserve">
<g>
	<defs>
		<path id="SVGID_1_" d="M55,216.43c0,110.457,89.543,199.999,200,199.999s200-89.542,200-199.999
			c0-110.457-89.543-200.001-200-200.001S55,105.973,55,216.43"/>
	</defs>
	<clipPath id="SVGID_2_">
		<use xlink:href="#SVGID_1_"  overflow="visible"/>
	</clipPath>
	<polygon clip-path="url(#SVGID_2_)" fill="#48DCAD" points="30,354.43 211.75,454.68 387.625,434.43 449.345,335.68 444,310.597 
		442.1,302.68 74.505,302.68 	"/>
	
		<polygon clip-path="url(#SVGID_2_)" fill="none" stroke="#3333FF" stroke-width="2" stroke-linecap="round" stroke-linejoin="round" stroke-miterlimit="10" points="
		30,354.43 211.75,454.68 387.625,434.43 449.345,335.68 444,310.597 442.1,302.68 74.505,302.68 	"/>
	<polygon clip-path="url(#SVGID_2_)" fill="#898989" points="356.599,302.68 312.758,416.43 397.207,399.43 412.964,339.763 
		388.634,302.68 	"/>
	
		<polygon clip-path="url(#SVGID_2_)" fill="none" stroke="#3333FF" stroke-width="2" stroke-linecap="round" stroke-linejoin="round" stroke-miterlimit="10" points="
		356.599,302.68 312.758,416.43 397.207,399.43 412.964,339.763 388.634,302.68 	"/>
	<path clip-path="url(#SVGID_2_)" fill="#C7E8F9" d="M360.557,16.429L183.312,1.759c-1.359,0.669-2.814,1.065-4.331,1.089
		c-2.257,0.036-4.336-0.714-6.12-1.955l-47.898-3.964l-98.463,171l8.846,126.833l1.9,7.917H442.1l44.4-133.75L360.557,16.429z"/>
	
		<path clip-path="url(#SVGID_2_)" fill="none" stroke="#3333FF" stroke-width="2" stroke-linecap="round" stroke-linejoin="round" stroke-miterlimit="10" d="
		M360.557,16.429L183.312,1.759c-1.359,0.669-2.814,1.065-4.331,1.089c-2.257,0.036-4.336-0.714-6.12-1.955l-47.898-3.964
		l-98.463,171l8.846,126.833l1.9,7.917H442.1l44.4-133.75L360.557,16.429z"/>
	<path clip-path="url(#SVGID_2_)" fill="#FFC51B" d="M460.887,67.827c0,33.689-27.311,61-61,61s-61-27.311-61-61s27.311-61,61-61
		S460.887,34.138,460.887,67.827"/>
	
		<line clip-path="url(#SVGID_2_)" fill="none" stroke="#FFC51B" stroke-width="2" stroke-linecap="round" stroke-miterlimit="10" x1="372.981" y1="306.43" x2="372.981" y2="312.43"/>
	
		<line clip-path="url(#SVGID_2_)" fill="none" stroke="#FFC51B" stroke-width="2" stroke-linecap="round" stroke-miterlimit="10" stroke-dasharray="10.429,10.429" x1="372.981" y1="322.858" x2="372.981" y2="380.215"/>
	
		<line clip-path="url(#SVGID_2_)" fill="none" stroke="#FFC51B" stroke-width="2" stroke-linecap="round" stroke-miterlimit="10" x1="372.981" y1="385.43" x2="372.981" y2="391.43"/>
</g>
<g>
	<defs>
		<rect id="SVGID_3_" width="510" height="435"/>
	</defs>
	<clipPath id="SVGID_4_">
		<use xlink:href="#SVGID_3_"  overflow="visible"/>
	</clipPath>
	
		<path clip-path="url(#SVGID_4_)" fill="none" stroke="#3333FF" stroke-width="2" stroke-linecap="round" stroke-linejoin="round" stroke-miterlimit="10" d="
		M228.918,86.082c0-7.66-6.21-13.87-13.87-13.87c-4.788,0-9.009,2.426-11.502,6.115"/>
	
		<line clip-path="url(#SVGID_4_)" fill="none" stroke="#3333FF" stroke-width="2" stroke-linecap="round" stroke-linejoin="round" stroke-miterlimit="10" x1="228.918" y1="86.082" x2="243.981" y2="86.082"/>
	
		<line clip-path="url(#SVGID_4_)" fill="none" stroke="#3333FF" stroke-width="2" stroke-linecap="round" stroke-linejoin="round" stroke-miterlimit="10" x1="248.192" y1="86.082" x2="252.534" y2="86.082"/>
	
		<path clip-path="url(#SVGID_4_)" fill="none" stroke="#3333FF" stroke-width="2" stroke-linecap="round" stroke-linejoin="round" stroke-miterlimit="10" d="
		M206.24,79.778c-1.553-1.088-3.444-1.727-5.484-1.727c-4.7,0-8.607,3.389-9.412,7.857"/>
	
		<path clip-path="url(#SVGID_4_)" fill="none" stroke="#3333FF" stroke-width="2" stroke-linecap="round" stroke-linejoin="round" stroke-miterlimit="10" d="
		M414.138,225.422c0-4.277-3.467-7.744-7.744-7.744s-7.743,3.466-7.743,7.744"/>
	
		<line clip-path="url(#SVGID_4_)" fill="none" stroke="#3333FF" stroke-width="2" stroke-linecap="round" stroke-linejoin="round" stroke-miterlimit="10" x1="414.138" y1="225.422" x2="432.882" y2="225.422"/>
	
		<path clip-path="url(#SVGID_4_)" fill="none" stroke="#3333FF" stroke-width="2" stroke-linecap="round" stroke-linejoin="round" stroke-miterlimit="10" d="
		M393.229,179.305c2.788-3.429,7.04-5.62,11.804-5.62c6.558,0,12.145,4.15,14.28,9.967"/>
	
		<path clip-path="url(#SVGID_4_)" fill="none" stroke="#3333FF" stroke-width="2" stroke-linecap="round" stroke-linejoin="round" stroke-miterlimit="10" d="
		M417.937,180.863c1.388-0.82,3.006-1.291,4.734-1.291c5.147,0,9.319,4.173,9.319,9.319"/>
	
		<line clip-path="url(#SVGID_4_)" fill="none" stroke="#3333FF" stroke-width="2" stroke-linecap="round" stroke-linejoin="round" stroke-miterlimit="10" x1="339.008" y1="188.891" x2="378.511" y2="188.891"/>
	
		<line clip-path="url(#SVGID_4_)" fill="none" stroke="#3333FF" stroke-width="2" stroke-linecap="round" stroke-linejoin="round" stroke-miterlimit="10" x1="324.995" y1="188.891" x2="332.739" y2="188.891"/>
	
		<path clip-path="url(#SVGID_4_)" fill="none" stroke="#3333FF" stroke-width="2" stroke-linecap="round" stroke-linejoin="round" stroke-miterlimit="10" d="
		M378.511,188.894c-0.167-0.7-0.256-1.43-0.256-2.181c0-5.147,4.172-9.319,9.318-9.319c3.282,0,6.169,1.696,7.829,4.26"/>
	
		<path clip-path="url(#SVGID_4_)" fill="none" stroke="#3333FF" stroke-width="2" stroke-linecap="round" stroke-linejoin="round" stroke-miterlimit="10" d="
		M210.936,158.962c0-4.725,3.831-8.556,8.556-8.556c4.725,0,8.555,3.831,8.555,8.556"/>
	
		<line clip-path="url(#SVGID_4_)" fill="none" stroke="#3333FF" stroke-width="2" stroke-linecap="round" stroke-linejoin="round" stroke-miterlimit="10" x1="210.936" y1="158.962" x2="180.933" y2="158.962"/>
	
		<line clip-path="url(#SVGID_4_)" fill="none" stroke="#3333FF" stroke-width="2" stroke-linecap="round" stroke-linejoin="round" stroke-miterlimit="10" x1="233.865" y1="158.962" x2="228.047" y2="158.962"/>
	
		<line clip-path="url(#SVGID_4_)" fill="none" stroke="#3333FF" stroke-width="2" stroke-linecap="round" stroke-linejoin="round" stroke-miterlimit="10" x1="174.046" y1="158.962" x2="163.717" y2="158.962"/>
	
		<line clip-path="url(#SVGID_4_)" fill="none" stroke="#3333FF" stroke-width="2" stroke-linecap="round" stroke-linejoin="round" stroke-miterlimit="10" x1="193.75" y1="39.825" x2="216.119" y2="39.825"/>
	
		<line clip-path="url(#SVGID_4_)" fill="none" stroke="#3333FF" stroke-width="2" stroke-linecap="round" stroke-linejoin="round" stroke-miterlimit="10" x1="175.901" y1="39.825" x2="184.121" y2="39.825"/>
	
		<line clip-path="url(#SVGID_4_)" fill="none" stroke="#3333FF" stroke-width="2" stroke-linecap="round" stroke-linejoin="round" stroke-miterlimit="10" x1="337.242" y1="113.944" x2="286.88" y2="113.944"/>
	
		<line clip-path="url(#SVGID_4_)" fill="none" stroke="#3333FF" stroke-width="2" stroke-linecap="round" stroke-linejoin="round" stroke-miterlimit="10" x1="351.31" y1="113.944" x2="346.873" y2="113.944"/>
</g>
<polygon fill="#C9C9C9" points="263.541,181.107 227.237,181.107 227.237,186.43 212,186.43 212,170.68 182.208,170.68 
	182.208,175.853 168.715,175.853 168.715,134.804 20.465,134.804 20.465,191.954 156.708,191.954 156.708,207.353 186.5,207.353 
	186.5,202.18 200.083,202.18 200.083,217.93 229.874,217.93 229.874,207.353 260.635,207.353 260.635,215.68 283.885,215.68 
	283.885,192.43 263.541,192.43 "/>
<rect x="287.717" y="213.035" fill="#C9C9C9" width="20.063" height="23.25"/>
<polygon fill="#C9C9C9" points="358.234,255.933 339.088,255.933 339.088,238.472 319.026,238.472 319.026,302.68 338.173,302.68 
	338.173,302.771 348.204,302.771 358.234,302.771 368.265,302.771 368.265,270.667 358.234,270.667 "/>
<polygon fill="#C9C9C9" points="459.15,238.471 455.855,238.471 455.855,230.536 435.795,230.536 435.795,238.471 419.313,238.471 
	419.313,265.169 404.641,265.169 404.641,270.667 394.692,270.667 394.692,302.771 404.641,302.771 404.641,302.932 
	424.701,302.932 424.701,302.679 459.15,302.679 "/>
<line fill="none" stroke="#3333FF" stroke-width="2" stroke-linecap="round" stroke-linejoin="round" stroke-miterlimit="10" x1="37.246" y1="302.68" x2="442.1" y2="302.68"/>
<rect x="233.246" y="225.185" fill="#FFFFFF" width="97.218" height="108.655"/>
<rect x="233.246" y="225.185" fill="none" stroke="#3333FF" stroke-width="2" stroke-linecap="round" stroke-linejoin="round" stroke-miterlimit="10" width="97.218" height="108.655"/>
<rect x="243.899" y="230.544" fill="#5DE9FF" width="11.375" height="11.375"/>
<rect x="243.899" y="230.544" fill="none" stroke="#3333FF" stroke-width="2" stroke-linecap="round" stroke-linejoin="round" stroke-miterlimit="10" width="11.375" height="11.375"/>
<rect x="261.274" y="230.544" fill="#5DE9FF" width="11.375" height="11.375"/>
<rect x="261.274" y="230.544" fill="none" stroke="#3333FF" stroke-width="2" stroke-linecap="round" stroke-linejoin="round" stroke-miterlimit="10" width="11.375" height="11.375"/>
<rect x="278.649" y="230.544" fill="#5DE9FF" width="11.375" height="11.375"/>
<rect x="278.649" y="230.544" fill="none" stroke="#3333FF" stroke-width="2" stroke-linecap="round" stroke-linejoin="round" stroke-miterlimit="10" width="11.375" height="11.375"/>
<rect x="296.024" y="230.544" fill="#5DE9FF" width="11.375" height="11.375"/>
<rect x="296.024" y="230.544" fill="none" stroke="#3333FF" stroke-width="2" stroke-linecap="round" stroke-linejoin="round" stroke-miterlimit="10" width="11.375" height="11.375"/>
<rect x="313.399" y="230.544" fill="#5DE9FF" width="11.375" height="11.375"/>
<rect x="313.399" y="230.544" fill="none" stroke="#3333FF" stroke-width="2" stroke-linecap="round" stroke-linejoin="round" stroke-miterlimit="10" width="11.375" height="11.375"/>
<rect x="243.899" y="247.857" fill="#5DE9FF" width="11.375" height="11.375"/>
<rect x="243.899" y="247.857" fill="none" stroke="#3333FF" stroke-width="2" stroke-linecap="round" stroke-linejoin="round" stroke-miterlimit="10" width="11.375" height="11.375"/>
<rect x="261.274" y="247.857" fill="#5DE9FF" width="11.375" height="11.375"/>
<rect x="261.274" y="247.857" fill="none" stroke="#3333FF" stroke-width="2" stroke-linecap="round" stroke-linejoin="round" stroke-miterlimit="10" width="11.375" height="11.375"/>
<rect x="278.649" y="247.857" fill="#5DE9FF" width="11.375" height="11.375"/>
<rect x="278.649" y="247.857" fill="none" stroke="#3333FF" stroke-width="2" stroke-linecap="round" stroke-linejoin="round" stroke-miterlimit="10" width="11.375" height="11.375"/>
<rect x="296.024" y="247.857" fill="#5DE9FF" width="11.375" height="11.375"/>
<rect x="296.024" y="247.857" fill="none" stroke="#3333FF" stroke-width="2" stroke-linecap="round" stroke-linejoin="round" stroke-miterlimit="10" width="11.375" height="11.375"/>
<rect x="313.399" y="247.857" fill="#5DE9FF" width="11.375" height="11.375"/>
<rect x="313.399" y="247.857" fill="none" stroke="#3333FF" stroke-width="2" stroke-linecap="round" stroke-linejoin="round" stroke-miterlimit="10" width="11.375" height="11.375"/>
<rect x="243.899" y="265.169" fill="#5DE9FF" width="11.375" height="11.375"/>
<rect x="243.899" y="265.169" fill="none" stroke="#3333FF" stroke-width="2" stroke-linecap="round" stroke-linejoin="round" stroke-miterlimit="10" width="11.375" height="11.375"/>
<rect x="261.274" y="265.169" fill="#5DE9FF" width="11.375" height="11.375"/>
<rect x="261.274" y="265.169" fill="none" stroke="#3333FF" stroke-width="2" stroke-linecap="round" stroke-linejoin="round" stroke-miterlimit="10" width="11.375" height="11.375"/>
<rect x="278.649" y="265.169" fill="#5DE9FF" width="11.375" height="11.375"/>
<rect x="278.649" y="265.169" fill="none" stroke="#3333FF" stroke-width="2" stroke-linecap="round" stroke-linejoin="round" stroke-miterlimit="10" width="11.375" height="11.375"/>
<rect x="296.024" y="265.169" fill="#5DE9FF" width="11.375" height="11.375"/>
<rect x="296.024" y="265.169" fill="none" stroke="#3333FF" stroke-width="2" stroke-linecap="round" stroke-linejoin="round" stroke-miterlimit="10" width="11.375" height="11.375"/>
<rect x="313.399" y="265.169" fill="#5DE9FF" width="11.375" height="11.375"/>
<rect x="313.399" y="265.169" fill="none" stroke="#3333FF" stroke-width="2" stroke-linecap="round" stroke-linejoin="round" stroke-miterlimit="10" width="11.375" height="11.375"/>
<rect x="243.899" y="282.481" fill="#5DE9FF" width="11.375" height="11.375"/>
<rect x="243.899" y="282.481" fill="none" stroke="#3333FF" stroke-width="2" stroke-linecap="round" stroke-linejoin="round" stroke-miterlimit="10" width="11.375" height="11.375"/>
<rect x="261.274" y="282.481" fill="#5DE9FF" width="11.375" height="11.375"/>
<rect x="261.274" y="282.481" fill="none" stroke="#3333FF" stroke-width="2" stroke-linecap="round" stroke-linejoin="round" stroke-miterlimit="10" width="11.375" height="11.375"/>
<rect x="278.649" y="282.481" fill="#5DE9FF" width="11.375" height="11.375"/>
<rect x="278.649" y="282.481" fill="none" stroke="#3333FF" stroke-width="2" stroke-linecap="round" stroke-linejoin="round" stroke-miterlimit="10" width="11.375" height="11.375"/>
<rect x="296.024" y="282.481" fill="#5DE9FF" width="11.375" height="11.375"/>
<rect x="296.024" y="282.481" fill="none" stroke="#3333FF" stroke-width="2" stroke-linecap="round" stroke-linejoin="round" stroke-miterlimit="10" width="11.375" height="11.375"/>
<rect x="313.399" y="282.481" fill="#5DE9FF" width="11.375" height="11.375"/>
<rect x="313.399" y="282.481" fill="none" stroke="#3333FF" stroke-width="2" stroke-linecap="round" stroke-linejoin="round" stroke-miterlimit="10" width="11.375" height="11.375"/>
<rect x="243.899" y="299.794" fill="#5DE9FF" width="11.375" height="11.375"/>
<rect x="243.899" y="299.794" fill="none" stroke="#3333FF" stroke-width="2" stroke-linecap="round" stroke-linejoin="round" stroke-miterlimit="10" width="11.375" height="11.375"/>
<rect x="261.274" y="299.794" fill="#5DE9FF" width="11.375" height="11.375"/>
<rect x="261.274" y="299.794" fill="none" stroke="#3333FF" stroke-width="2" stroke-linecap="round" stroke-linejoin="round" stroke-miterlimit="10" width="11.375" height="11.375"/>
<rect x="278.649" y="299.794" fill="#5DE9FF" width="11.375" height="11.375"/>
<rect x="278.649" y="299.794" fill="none" stroke="#3333FF" stroke-width="2" stroke-linecap="round" stroke-linejoin="round" stroke-miterlimit="10" width="11.375" height="11.375"/>
<rect x="296.024" y="299.794" fill="#5DE9FF" width="11.375" height="11.375"/>
<rect x="296.024" y="299.794" fill="none" stroke="#3333FF" stroke-width="2" stroke-linecap="round" stroke-linejoin="round" stroke-miterlimit="10" width="11.375" height="11.375"/>
<rect x="313.399" y="299.794" fill="#5DE9FF" width="11.375" height="11.375"/>
<rect x="313.399" y="299.794" fill="none" stroke="#3333FF" stroke-width="2" stroke-linecap="round" stroke-linejoin="round" stroke-miterlimit="10" width="11.375" height="11.375"/>
<rect x="243.899" y="317.106" fill="#5DE9FF" width="11.375" height="11.375"/>
<rect x="243.899" y="317.106" fill="none" stroke="#3333FF" stroke-width="2" stroke-linecap="round" stroke-linejoin="round" stroke-miterlimit="10" width="11.375" height="11.375"/>
<rect x="261.274" y="317.106" fill="#5DE9FF" width="11.375" height="11.375"/>
<rect x="261.274" y="317.106" fill="none" stroke="#3333FF" stroke-width="2" stroke-linecap="round" stroke-linejoin="round" stroke-miterlimit="10" width="11.375" height="11.375"/>
<rect x="278.649" y="317.106" fill="#5DE9FF" width="11.375" height="11.375"/>
<rect x="278.649" y="317.106" fill="none" stroke="#3333FF" stroke-width="2" stroke-linecap="round" stroke-linejoin="round" stroke-miterlimit="10" width="11.375" height="11.375"/>
<rect x="296.024" y="317.106" fill="#5DE9FF" width="11.375" height="11.375"/>
<rect x="296.024" y="317.106" fill="none" stroke="#3333FF" stroke-width="2" stroke-linecap="round" stroke-linejoin="round" stroke-miterlimit="10" width="11.375" height="11.375"/>
<rect x="313.399" y="317.106" fill="#5DE9FF" width="11.375" height="11.375"/>
<rect x="313.399" y="317.106" fill="none" stroke="#3333FF" stroke-width="2" stroke-linecap="round" stroke-linejoin="round" stroke-miterlimit="10" width="11.375" height="11.375"/>
<rect x="161.335" y="207.352" fill="#FFFFFF" width="129.128" height="144.32"/>
<rect x="161.335" y="207.352" fill="none" stroke="#3333FF" stroke-width="2" stroke-linecap="round" stroke-linejoin="round" stroke-miterlimit="10" width="129.128" height="144.32"/>
<rect x="125.384" y="216.459" fill="#5DE9FF" width="165.079" height="14.077"/>
<rect x="125.384" y="216.459" fill="none" stroke="#3333FF" stroke-width="2" stroke-linecap="round" stroke-linejoin="round" stroke-miterlimit="10" width="165.079" height="14.077"/>
<rect x="125.384" y="245.467" fill="#5DE9FF" width="165.079" height="14.077"/>
<rect x="125.384" y="245.467" fill="none" stroke="#3333FF" stroke-width="2" stroke-linecap="round" stroke-linejoin="round" stroke-miterlimit="10" width="165.079" height="14.077"/>
<rect x="125.384" y="274.474" fill="#5DE9FF" width="165.079" height="14.077"/>
<rect x="125.384" y="274.474" fill="none" stroke="#3333FF" stroke-width="2" stroke-linecap="round" stroke-linejoin="round" stroke-miterlimit="10" width="165.079" height="14.077"/>
<rect x="125.384" y="303.482" fill="#5DE9FF" width="165.079" height="14.075"/>
<rect x="125.384" y="303.482" fill="none" stroke="#3333FF" stroke-width="2" stroke-linecap="round" stroke-linejoin="round" stroke-miterlimit="10" width="165.079" height="14.075"/>
<rect x="125.384" y="330.49" fill="#5DE9FF" width="165.079" height="14.076"/>
<rect x="125.384" y="330.49" fill="none" stroke="#3333FF" stroke-width="2" stroke-linecap="round" stroke-linejoin="round" stroke-miterlimit="10" width="165.079" height="14.076"/>
<line fill="none" stroke="#3333FF" stroke-width="2" stroke-linecap="round" stroke-linejoin="round" stroke-miterlimit="10" x1="443.774" y1="250.096" x2="443.774" y2="281.429"/>
<line fill="none" stroke="#3333FF" stroke-width="2" stroke-linecap="round" stroke-linejoin="round" stroke-miterlimit="10" x1="415.766" y1="274.096" x2="432.774" y2="274.096"/>
<g>
	<defs>
		<rect id="SVGID_5_" width="510" height="435"/>
	</defs>
	<clipPath id="SVGID_6_">
		<use xlink:href="#SVGID_5_"  overflow="visible"/>
	</clipPath>
	
		<path clip-path="url(#SVGID_6_)" fill="none" stroke="#3333FF" stroke-linecap="round" stroke-linejoin="round" stroke-miterlimit="10" d="
		M432.774,255.43c0,8.833-3.063,28.625-17.009,18.667"/>
	
		<path clip-path="url(#SVGID_6_)" fill="none" stroke="#3333FF" stroke-linecap="round" stroke-linejoin="round" stroke-miterlimit="10" d="
		M449.119,263.846c-3.679,8.083-7.246,16.833-16.345,10.25"/>
	
		<path clip-path="url(#SVGID_6_)" fill="none" stroke="#3333FF" stroke-linecap="round" stroke-linejoin="round" stroke-miterlimit="10" d="
		M432.774,274.096c0,11.333-15.063,18.271-22.834,10.75"/>
	
		<line clip-path="url(#SVGID_6_)" fill="none" stroke="#3333FF" stroke-width="2" stroke-linecap="round" stroke-linejoin="round" stroke-miterlimit="10" x1="450.973" y1="255.43" x2="432.774" y2="255.43"/>
	
		<line clip-path="url(#SVGID_6_)" fill="none" stroke="#3333FF" stroke-width="2" stroke-linecap="round" stroke-linejoin="round" stroke-miterlimit="10" x1="424.271" y1="269.93" x2="424.271" y2="310.597"/>
	
		<line clip-path="url(#SVGID_6_)" fill="none" stroke="#3333FF" stroke-width="2" stroke-linecap="round" stroke-linejoin="round" stroke-miterlimit="10" x1="403.44" y1="281.43" x2="403.44" y2="302.68"/>
	
		<line clip-path="url(#SVGID_6_)" fill="none" stroke="#3333FF" stroke-width="2" stroke-linecap="round" stroke-linejoin="round" stroke-miterlimit="10" x1="389.89" y1="290.263" x2="389.89" y2="302.68"/>
	
		<line clip-path="url(#SVGID_6_)" fill="none" stroke="#3333FF" stroke-width="2" stroke-linecap="round" stroke-linejoin="round" stroke-miterlimit="10" x1="387.399" y1="292.555" x2="394.024" y2="292.555"/>
	
		<path clip-path="url(#SVGID_6_)" fill="none" stroke="#3333FF" stroke-linecap="round" stroke-linejoin="round" stroke-miterlimit="10" d="
		M396.94,284.847c5.709,8.396,18.825,2.504,18.825-10.75"/>
	
		<path clip-path="url(#SVGID_6_)" fill="none" stroke="#3333FF" stroke-linecap="round" stroke-linejoin="round" stroke-miterlimit="10" d="
		M409.94,284.847c0,11.333-8.146,15.229-15.916,7.708"/>
	
		<path clip-path="url(#SVGID_6_)" fill="none" stroke="#3333FF" stroke-linecap="round" stroke-linejoin="round" stroke-miterlimit="10" d="
		M387.399,292.555c1.833,6.396,9.541,5.546,9.541-7.708"/>
	
		<line clip-path="url(#SVGID_6_)" fill="none" stroke="#3333FF" stroke-width="2" stroke-linecap="round" stroke-linejoin="round" stroke-miterlimit="10" x1="409.94" y1="284.847" x2="396.94" y2="284.847"/>
</g>
<g>
	<defs>
		<path id="SVGID_7_" d="M55,216.43c0,110.457,89.543,199.999,200,199.999s200-89.542,200-199.999
			c0-110.457-89.543-200.001-200-200.001S55,105.973,55,216.43"/>
	</defs>
	<clipPath id="SVGID_8_">
		<use xlink:href="#SVGID_7_"  overflow="visible"/>
	</clipPath>
	<rect x="55" y="184.846" clip-path="url(#SVGID_8_)" fill="#FFFFFF" width="165.079" height="178.5"/>
	
		<rect x="55" y="184.846" clip-path="url(#SVGID_8_)" fill="none" stroke="#3333FF" stroke-width="2" stroke-linecap="round" stroke-linejoin="round" stroke-miterlimit="10" width="165.079" height="178.5"/>
	<rect x="55" y="194.769" clip-path="url(#SVGID_8_)" fill="#5DE9FF" width="165.079" height="14.077"/>
	
		<rect x="55" y="194.769" clip-path="url(#SVGID_8_)" fill="none" stroke="#3333FF" stroke-width="2" stroke-linecap="round" stroke-linejoin="round" stroke-miterlimit="10" width="165.079" height="14.077"/>
	<rect x="55" y="223.777" clip-path="url(#SVGID_8_)" fill="#5DE9FF" width="165.079" height="14.076"/>
	
		<rect x="55" y="223.777" clip-path="url(#SVGID_8_)" fill="none" stroke="#3333FF" stroke-width="2" stroke-linecap="round" stroke-linejoin="round" stroke-miterlimit="10" width="165.079" height="14.076"/>
	<rect x="55" y="252.784" clip-path="url(#SVGID_8_)" fill="#5DE9FF" width="165.079" height="14.077"/>
	
		<rect x="55" y="252.784" clip-path="url(#SVGID_8_)" fill="none" stroke="#3333FF" stroke-width="2" stroke-linecap="round" stroke-linejoin="round" stroke-miterlimit="10" width="165.079" height="14.077"/>
	<rect x="55" y="281.792" clip-path="url(#SVGID_8_)" fill="#5DE9FF" width="165.079" height="14.077"/>
	
		<rect x="55" y="281.792" clip-path="url(#SVGID_8_)" fill="none" stroke="#3333FF" stroke-width="2" stroke-linecap="round" stroke-linejoin="round" stroke-miterlimit="10" width="165.079" height="14.077"/>
	<rect x="55" y="310.801" clip-path="url(#SVGID_8_)" fill="#5DE9FF" width="165.079" height="14.076"/>
	
		<rect x="55" y="310.801" clip-path="url(#SVGID_8_)" fill="none" stroke="#3333FF" stroke-width="2" stroke-linecap="round" stroke-linejoin="round" stroke-miterlimit="10" width="165.079" height="14.076"/>
	<rect x="55" y="339.807" clip-path="url(#SVGID_8_)" fill="#5DE9FF" width="165.079" height="14.077"/>
	
		<rect x="55" y="339.807" clip-path="url(#SVGID_8_)" fill="none" stroke="#3333FF" stroke-width="2" stroke-linecap="round" stroke-linejoin="round" stroke-miterlimit="10" width="165.079" height="14.077"/>
	<path clip-path="url(#SVGID_8_)" fill="#E1E1E1" d="M294.318,373.617h-58.843c-4.086,0-7.397-3.313-7.397-7.397V230.744
		c0-4.085,3.311-7.397,7.397-7.397h58.843c4.085,0,7.396,3.313,7.396,7.397V366.22C301.715,370.304,298.403,373.617,294.318,373.617
		"/>
	
		<path clip-path="url(#SVGID_8_)" fill="none" stroke="#3333FF" stroke-width="2" stroke-linecap="round" stroke-linejoin="round" stroke-miterlimit="10" d="
		M294.318,373.617h-58.843c-4.086,0-7.397-3.313-7.397-7.397V230.744c0-4.085,3.311-7.397,7.397-7.397h58.843
		c4.085,0,7.396,3.313,7.396,7.397V366.22C301.715,370.304,298.403,373.617,294.318,373.617z"/>
	
		<line clip-path="url(#SVGID_8_)" fill="none" stroke="#3333FF" stroke-width="2" stroke-linecap="round" stroke-linejoin="round" stroke-miterlimit="10" x1="257.316" y1="228.762" x2="272.477" y2="228.762"/>
	<rect x="234.576" y="234.177" clip-path="url(#SVGID_8_)" fill="#FFFFFF" width="60.642" height="115.785"/>
	
		<rect x="234.576" y="234.177" clip-path="url(#SVGID_8_)" fill="none" stroke="#3333FF" stroke-width="2" stroke-linecap="round" stroke-linejoin="round" stroke-miterlimit="10" width="60.642" height="115.785"/>
	<path clip-path="url(#SVGID_8_)" fill="#FFFFFF" d="M270.312,360.563c0,2.989-2.425,5.414-5.415,5.414s-5.414-2.425-5.414-5.414
		c0-2.991,2.424-5.415,5.414-5.415S270.312,357.571,270.312,360.563"/>
	
		<circle clip-path="url(#SVGID_8_)" fill="none" stroke="#3333FF" stroke-width="2" stroke-linecap="round" stroke-linejoin="round" stroke-miterlimit="10" cx="264.897" cy="360.563" r="5.415"/>
	
		<path clip-path="url(#SVGID_8_)" fill="none" stroke="#3333FF" stroke-width="2" stroke-linecap="round" stroke-linejoin="round" stroke-miterlimit="10" d="
		M274.071,299.006h-6.865l3.731-4.141l4.416-4.745c2.869-3.204,5.683-5.718,5.683-9.576s0.028-6.491,0.028-6.491l-32.256-0.001
		v5.057c0,3.4,3.038,6.062,6.917,6.062h6.924l-8.361,8.886c-1.476,1.505-2.594,2.762-3.436,3.894l-0.06,0.066
		c-1.326,1.423-2.056,3.246-2.058,5.134l-0.004,6.849l32.258,0.088v-5.019C280.987,301.667,277.949,299.006,274.071,299.006"/>
	<rect x="30" y="212.425" clip-path="url(#SVGID_8_)" fill="#E1E1E1" width="166.528" height="168"/>
	
		<rect x="30" y="212.425" clip-path="url(#SVGID_8_)" fill="none" stroke="#3333FF" stroke-width="2" stroke-linecap="round" stroke-linejoin="round" stroke-miterlimit="10" width="166.528" height="168"/>
	<rect x="43" y="224.425" clip-path="url(#SVGID_8_)" fill="#FFFFFF" width="128.898" height="144"/>
	
		<rect x="43" y="224.425" clip-path="url(#SVGID_8_)" fill="none" stroke="#3333FF" stroke-width="2" stroke-linecap="round" stroke-linejoin="round" stroke-miterlimit="10" width="128.898" height="144"/>
	<path clip-path="url(#SVGID_8_)" fill="#FFFFFF" d="M188.872,296.426c0,2.764-2.241,5.005-5.004,5.005
		c-2.765,0-5.005-2.241-5.005-5.005c0-2.765,2.24-5.006,5.005-5.006C186.63,291.42,188.872,293.661,188.872,296.426"/>
	
		<circle clip-path="url(#SVGID_8_)" fill="none" stroke="#3333FF" stroke-width="2" stroke-linecap="round" stroke-linejoin="round" stroke-miterlimit="10" cx="183.867" cy="296.426" r="5.004"/>
	<rect x="64.528" y="285.652" clip-path="url(#SVGID_8_)" fill="#FFFFFF" width="69.741" height="14.488"/>
	
		<rect x="64.528" y="285.652" clip-path="url(#SVGID_8_)" fill="none" stroke="#3333FF" stroke-width="2" stroke-linecap="round" stroke-linejoin="round" stroke-miterlimit="10" width="69.741" height="14.488"/>
	<path clip-path="url(#SVGID_8_)" fill="#007AFF" d="M101.618,315.459H66.665c-2.039,0-3.693-1.653-3.693-3.693
		s1.654-3.694,3.693-3.694h34.953c2.04,0,3.693,1.654,3.693,3.694S103.658,315.459,101.618,315.459"/>
	
		<path clip-path="url(#SVGID_8_)" fill="none" stroke="#3333FF" stroke-width="2" stroke-linecap="round" stroke-linejoin="round" stroke-miterlimit="10" d="
		M101.618,315.459H66.665c-2.039,0-3.693-1.653-3.693-3.693s1.654-3.694,3.693-3.694h34.953c2.04,0,3.693,1.654,3.693,3.694
		S103.658,315.459,101.618,315.459z"/>
	<polygon clip-path="url(#SVGID_8_)" fill="#3333FF" points="48.518,263.217 41.821,263.217 41.821,260.313 53.414,260.313 
		53.414,262.809 47.822,269.05 46.238,270.61 46.238,270.778 53.414,270.778 53.414,273.682 41.341,273.682 41.341,271.162 
		46.934,264.969 48.518,263.409 	"/>
	<path clip-path="url(#SVGID_8_)" fill="#3333FF" d="M54.973,267.009c0-3.936,3.265-7.129,7.297-7.129
		c4.032,0,7.297,3.193,7.297,7.129c0,0.36-0.024,0.721-0.073,1.08H58.55c0.288,1.801,1.92,3.145,4.056,3.145
		c1.536-0.024,2.664-0.601,3.504-1.632l2.689,1.8c-1.441,1.801-3.601,2.713-6.289,2.713
		C58.238,274.114,54.973,270.945,54.973,267.009 M65.822,265.329c-0.504-1.488-1.968-2.544-3.552-2.544s-3.049,1.056-3.529,2.544
		H65.822z"/>
	<path clip-path="url(#SVGID_8_)" fill="#3333FF" d="M71.725,267.009c0-3.936,3.265-7.129,7.297-7.129
		c4.032,0,7.297,3.193,7.297,7.129c0,0.36-0.024,0.721-0.073,1.08H75.302c0.288,1.801,1.92,3.145,4.056,3.145
		c1.536-0.024,2.664-0.601,3.504-1.632l2.689,1.8c-1.441,1.801-3.601,2.713-6.289,2.713
		C74.99,274.114,71.725,270.945,71.725,267.009 M82.574,265.329c-0.504-1.488-1.968-2.544-3.552-2.544s-3.049,1.056-3.529,2.544
		H82.574z"/>
	<path clip-path="url(#SVGID_8_)" fill="#3333FF" d="M88.478,266.984c0-3.936,2.928-7.104,6.96-7.104c1.968,0,3.432,0.6,4.561,1.823
		h0.144l0.288-1.607l3.048,0.216v0.024c-0.312,1.92-0.456,3.913-0.456,5.977v5.976c0,5.089-3.192,7.705-8.161,7.705
		c-2.232,0-4.536-1.008-6.072-2.856l2.616-1.608c0.744,0.937,2.16,1.561,3.432,1.561c3.024,0,4.8-1.319,4.8-4.513h-0.192
		c-1.104,1.009-2.376,1.536-4.032,1.536C91.381,274.113,88.478,270.922,88.478,266.984 M95.773,271.21
		c2.136,0,3.864-1.896,3.864-4.226c0-2.328-1.728-4.2-3.864-4.2c-2.136,0-3.864,1.872-3.864,4.2
		C91.909,269.313,93.637,271.21,95.773,271.21"/>
	<rect x="106.886" y="254.265" clip-path="url(#SVGID_8_)" fill="#3333FF" width="3.384" height="19.417"/>
	<path clip-path="url(#SVGID_8_)" fill="#3333FF" d="M113.389,267.009c0-3.936,3.265-7.129,7.297-7.129
		c4.032,0,7.297,3.193,7.297,7.129c0,0.36-0.024,0.721-0.073,1.08h-10.944c0.288,1.801,1.92,3.145,4.056,3.145
		c1.536-0.024,2.664-0.601,3.504-1.632l2.689,1.8c-1.441,1.801-3.601,2.713-6.289,2.713
		C116.654,274.114,113.389,270.945,113.389,267.009 M124.238,265.329c-0.504-1.488-1.968-2.544-3.552-2.544
		c-1.584,0-3.049,1.056-3.529,2.544H124.238z"/>
</g>
<g>
	<defs>
		<rect id="SVGID_9_" width="510" height="435"/>
	</defs>
	<clipPath id="SVGID_10_">
		<use xlink:href="#SVGID_9_"  overflow="visible"/>
	</clipPath>
	
		<circle clip-path="url(#SVGID_10_)" fill="none" stroke="#3333FF" stroke-width="2" stroke-miterlimit="10" cx="255" cy="216.429" r="200"/>
	
		<rect x="270.46" y="55.881" transform="matrix(-0.9525 -0.3046 0.3046 -0.9525 541.1819 211.9265)" clip-path="url(#SVGID_10_)" fill="#FFC51B" width="33.328" height="15.723"/>
	
		<rect x="270.46" y="55.881" transform="matrix(-0.9525 -0.3046 0.3046 -0.9525 541.1819 211.9265)" clip-path="url(#SVGID_10_)" fill="none" stroke="#3333FF" stroke-width="2" stroke-linecap="round" stroke-linejoin="round" stroke-miterlimit="10" width="33.328" height="15.723"/>
	
		<line clip-path="url(#SVGID_10_)" fill="none" stroke="#3333FF" stroke-width="2" stroke-linecap="round" stroke-linejoin="round" stroke-miterlimit="10" x1="292.665" y1="73.769" x2="297.455" y2="58.792"/>
	
		<line clip-path="url(#SVGID_10_)" fill="none" stroke="#3333FF" stroke-width="2" stroke-linecap="round" stroke-linejoin="round" stroke-miterlimit="10" x1="284.729" y1="71.231" x2="289.52" y2="56.254"/>
	
		<line clip-path="url(#SVGID_10_)" fill="none" stroke="#3333FF" stroke-width="2" stroke-linecap="round" stroke-linejoin="round" stroke-miterlimit="10" x1="276.793" y1="68.693" x2="281.583" y2="53.716"/>
	
		<line clip-path="url(#SVGID_10_)" fill="none" stroke="#3333FF" stroke-width="2" stroke-linecap="round" stroke-linejoin="round" stroke-miterlimit="10" x1="270.358" y1="61.461" x2="302.103" y2="71.614"/>
	
		<line clip-path="url(#SVGID_10_)" fill="none" stroke="#3333FF" stroke-width="2" stroke-linecap="round" stroke-linejoin="round" stroke-miterlimit="10" x1="272.079" y1="56.082" x2="303.823" y2="66.234"/>
	<path clip-path="url(#SVGID_10_)" fill="#E1E1E1" d="M262.186,67.827l6.854-21.431c0.638-1.989-2.064-4.63-6.033-5.9
		c-3.969-1.269-7.701-0.686-8.337,1.303l-6.855,21.431L262.186,67.827z"/>
	
		<path clip-path="url(#SVGID_10_)" fill="none" stroke="#3333FF" stroke-width="2" stroke-linecap="round" stroke-linejoin="round" stroke-miterlimit="10" d="
		M262.186,67.827l6.854-21.431c0.638-1.989-2.064-4.63-6.033-5.9c-3.969-1.269-7.701-0.686-8.337,1.303l-6.855,21.431
		L262.186,67.827z"/>
	<path clip-path="url(#SVGID_10_)" fill="#E1E1E1" d="M247.814,63.23c0.636-1.989,4.369-2.572,8.337-1.303
		c3.969,1.269,6.671,3.911,6.034,5.9c-0.636,1.988-4.369,2.572-8.337,1.302C249.879,67.86,247.178,65.22,247.814,63.23"/>
	
		<ellipse transform="matrix(-0.9525 -0.3047 0.3047 -0.9525 477.9114 205.6338)" clip-path="url(#SVGID_10_)" fill="none" stroke="#3333FF" stroke-width="2" stroke-linecap="round" stroke-linejoin="round" stroke-miterlimit="10" cx="255" cy="65.529" rx="7.544" ry="3.781"/>
	
		<path clip-path="url(#SVGID_10_)" fill="none" stroke="#3333FF" stroke-width="2" stroke-linecap="round" stroke-linejoin="round" stroke-miterlimit="10" d="
		M268.073,49.418c0.637-1.989-2.065-4.63-6.034-5.899c-3.968-1.269-7.701-0.686-8.337,1.302"/>
	
		<path clip-path="url(#SVGID_10_)" fill="none" stroke="#3333FF" stroke-width="2" stroke-linecap="round" stroke-linejoin="round" stroke-miterlimit="10" d="
		M263.338,64.226c0.636-1.989-2.065-4.63-6.034-5.899c-3.969-1.27-7.702-0.686-8.338,1.302"/>
	<path clip-path="url(#SVGID_10_)" fill="#FFFFFF" d="M256.963,47.321c3.042-0.216,4.652,0.3,7.004,2.241
		c-0.887,2.774-1.33,4.161-2.218,6.935c-2.353-1.941-3.962-2.456-7.004-2.24C255.632,51.482,256.076,50.095,256.963,47.321"/>
	
		<path clip-path="url(#SVGID_10_)" fill="none" stroke="#3333FF" stroke-width="2" stroke-linecap="round" stroke-linejoin="round" stroke-miterlimit="10" d="
		M256.963,47.321c3.042-0.216,4.652,0.3,7.004,2.241c-0.887,2.774-1.33,4.161-2.218,6.935c-2.353-1.941-3.962-2.456-7.004-2.24
		C255.632,51.482,256.076,50.095,256.963,47.321z"/>
	
		<line clip-path="url(#SVGID_10_)" fill="none" stroke="#3333FF" stroke-width="2" stroke-linecap="round" stroke-linejoin="round" stroke-miterlimit="10" x1="265.686" y1="56.886" x2="271.252" y2="58.667"/>
	
		<line clip-path="url(#SVGID_10_)" fill="none" stroke="#3333FF" stroke-width="2" stroke-linecap="round" stroke-linejoin="round" stroke-miterlimit="10" x1="251.313" y1="52.289" x2="245.747" y2="50.509"/>
	
		<rect x="213.21" y="37.571" transform="matrix(-0.9525 -0.3046 0.3046 -0.9525 434.9814 158.7353)" clip-path="url(#SVGID_10_)" fill="#FFC51B" width="33.328" height="15.723"/>
	
		<rect x="213.21" y="37.571" transform="matrix(-0.9525 -0.3046 0.3046 -0.9525 434.9814 158.7353)" clip-path="url(#SVGID_10_)" fill="none" stroke="#3333FF" stroke-width="2" stroke-linecap="round" stroke-linejoin="round" stroke-miterlimit="10" width="33.328" height="15.723"/>
	
		<line clip-path="url(#SVGID_10_)" fill="none" stroke="#3333FF" stroke-width="2" stroke-linecap="round" stroke-linejoin="round" stroke-miterlimit="10" x1="235.416" y1="55.458" x2="240.206" y2="40.481"/>
	
		<line clip-path="url(#SVGID_10_)" fill="none" stroke="#3333FF" stroke-width="2" stroke-linecap="round" stroke-linejoin="round" stroke-miterlimit="10" x1="227.479" y1="52.92" x2="232.27" y2="37.943"/>
	
		<line clip-path="url(#SVGID_10_)" fill="none" stroke="#3333FF" stroke-width="2" stroke-linecap="round" stroke-linejoin="round" stroke-miterlimit="10" x1="219.543" y1="50.382" x2="224.333" y2="35.405"/>
	
		<line clip-path="url(#SVGID_10_)" fill="none" stroke="#3333FF" stroke-width="2" stroke-linecap="round" stroke-linejoin="round" stroke-miterlimit="10" x1="213.108" y1="43.15" x2="244.853" y2="53.304"/>
	
		<line clip-path="url(#SVGID_10_)" fill="none" stroke="#3333FF" stroke-width="2" stroke-linecap="round" stroke-linejoin="round" stroke-miterlimit="10" x1="214.829" y1="37.771" x2="246.573" y2="47.924"/>
	<path clip-path="url(#SVGID_10_)" fill="#FFFFFF" d="M268.798,39.63c-2.488,1.458-5.688,0.623-7.146-1.867
		c-1.458-2.488-0.623-5.688,1.865-7.147"/>
	
		<path clip-path="url(#SVGID_10_)" fill="none" stroke="#3333FF" stroke-width="2" stroke-linecap="round" stroke-linejoin="round" stroke-miterlimit="10" d="
		M268.798,39.63c-2.488,1.458-5.688,0.623-7.146-1.867c-1.458-2.488-0.623-5.688,1.865-7.147"/>
	<path clip-path="url(#SVGID_10_)" fill="#FFFFFF" d="M269.149,33.371c1.458,2.489,1.428,5.217-0.069,6.094
		c-1.496,0.877-3.891-0.43-5.35-2.92c-1.458-2.488-1.427-5.217,0.069-6.093C265.297,29.575,267.691,30.882,269.149,33.371"/>
	
		<ellipse transform="matrix(0.8629 -0.5054 0.5054 0.8629 18.8705 139.4653)" clip-path="url(#SVGID_10_)" fill="none" stroke="#3333FF" stroke-width="2" stroke-linecap="round" stroke-linejoin="round" stroke-miterlimit="10" cx="266.44" cy="34.958" rx="3.14" ry="5.223"/>
	<path clip-path="url(#SVGID_10_)" fill="#3333FF" d="M271.862,31.836c0.024,0.265-0.171,0.5-0.436,0.524s-0.499-0.171-0.523-0.436
		c-0.024-0.265,0.17-0.499,0.436-0.524C271.604,31.376,271.838,31.571,271.862,31.836"/>
	
		<circle clip-path="url(#SVGID_10_)" fill="none" stroke="#3333FF" stroke-width="2" stroke-linecap="round" stroke-linejoin="round" stroke-miterlimit="10" cx="271.383" cy="31.88" r="0.482"/>
	
		<line clip-path="url(#SVGID_10_)" fill="none" stroke="#3333FF" stroke-width="2" stroke-linecap="round" stroke-linejoin="round" stroke-miterlimit="10" x1="263.73" y1="36.545" x2="271.383" y2="31.879"/>
	<path clip-path="url(#SVGID_10_)" fill="#FFFFFF" d="M0,0v434.999h510V0.488L0,0z M255,416.43c-110.457,0-200-89.543-200-200
		c0-110.457,89.543-200,200-200s200,89.543,200,200C455,326.887,365.457,416.43,255,416.43"/>
	
		<circle clip-path="url(#SVGID_10_)" fill="none" stroke="#3333FF" stroke-width="2" stroke-miterlimit="10" cx="255" cy="216.429" r="200"/>
</g>
<g>
	<defs>
		<rect id="SVGID_11_" width="510" height="435"/>
	</defs>
	<clipPath id="SVGID_12_">
		<use xlink:href="#SVGID_11_"  overflow="visible"/>
	</clipPath>
	<path clip-path="url(#SVGID_12_)" fill="#E1E1E1" d="M425.805,96.113c2.104,4.759-0.05,10.322-4.809,12.426
		c-4.759,2.103-10.321-0.05-12.425-4.809c-2.104-4.759,0.049-10.322,4.808-12.425C418.138,89.201,423.701,91.354,425.805,96.113"/>
	
		<circle clip-path="url(#SVGID_12_)" fill="none" stroke="#3333FF" stroke-width="2" stroke-miterlimit="10" cx="417.188" cy="99.922" r="9.421"/>
	<path clip-path="url(#SVGID_12_)" fill="#3333FF" d="M422.583,97.538c1.316,2.979-0.031,6.462-3.011,7.779
		c-2.979,1.317-6.463-0.03-7.779-3.01c-1.317-2.98,0.03-6.463,3.01-7.78C417.783,93.21,421.266,94.558,422.583,97.538"/>
	
		<circle clip-path="url(#SVGID_12_)" fill="none" stroke="#3333FF" stroke-width="2" stroke-miterlimit="10" cx="417.188" cy="99.922" r="5.898"/>
	<path clip-path="url(#SVGID_12_)" fill="#E1E1E1" d="M419.357,98.963c0.53,1.198-0.012,2.599-1.211,3.129
		c-1.198,0.53-2.6-0.012-3.129-1.211c-0.529-1.198,0.013-2.599,1.211-3.129C417.427,97.222,418.828,97.765,419.357,98.963"/>
	<path clip-path="url(#SVGID_12_)" fill="#E1E1E1" d="M455.275,72.155l-88.767,40.68l-1.708-3.864l89.29-39.465
		c0.564-0.249,1.284,0.143,1.608,0.876C456.021,71.109,455.832,71.9,455.275,72.155"/>
	<path clip-path="url(#SVGID_12_)" fill="none" stroke="#3333FF" stroke-width="2" stroke-miterlimit="10" d="M455.275,72.155
		l-88.767,40.68l-1.708-3.864l89.29-39.465c0.564-0.249,1.284,0.143,1.608,0.876C456.021,71.109,455.832,71.9,455.275,72.155z"/>
	<path clip-path="url(#SVGID_12_)" fill="#E1E1E1" d="M310.479,147.117c2.103,4.759,7.666,6.912,12.425,4.808
		c4.759-2.103,6.912-7.666,4.809-12.425c-2.104-4.759-7.667-6.912-12.426-4.808C310.527,136.795,308.374,142.358,310.479,147.117"/>
	
		<circle clip-path="url(#SVGID_12_)" fill="none" stroke="#3333FF" stroke-width="2" stroke-miterlimit="10" cx="319.095" cy="143.308" r="9.421"/>
	<path clip-path="url(#SVGID_12_)" fill="#3333FF" d="M313.7,145.693c1.316,2.979,4.8,4.327,7.779,3.01s4.327-4.8,3.011-7.779
		c-1.317-2.98-4.8-4.328-7.78-3.011C313.73,139.23,312.383,142.713,313.7,145.693"/>
	
		<circle clip-path="url(#SVGID_12_)" fill="none" stroke="#3333FF" stroke-width="2" stroke-miterlimit="10" cx="319.095" cy="143.308" r="5.898"/>
	<path clip-path="url(#SVGID_12_)" fill="#E1E1E1" d="M316.925,144.267c0.53,1.199,1.931,1.741,3.129,1.211
		c1.198-0.53,1.741-1.931,1.211-3.129c-0.529-1.198-1.931-1.741-3.129-1.211S316.396,143.069,316.925,144.267"/>
	<path clip-path="url(#SVGID_12_)" fill="#E1E1E1" d="M273.92,152.293l89.833-38.268l-1.698-3.841l-89.29,39.465
		c-0.564,0.249-0.761,1.042-0.438,1.771C272.646,152.145,273.356,152.534,273.92,152.293"/>
	<path clip-path="url(#SVGID_12_)" fill="none" stroke="#3333FF" stroke-width="2" stroke-miterlimit="10" d="M273.92,152.293
		l89.833-38.268l-1.698-3.841l-89.29,39.465c-0.564,0.249-0.761,1.042-0.438,1.771C272.646,152.145,273.356,152.534,273.92,152.293z
		"/>
	<path clip-path="url(#SVGID_12_)" fill="#E1E1E1" d="M371.654,95.924L371.654,95.924c-0.324-0.734-0.989-1.161-1.506-0.968
		l-11.309,4.241l1.768,3.999l10.749-5.508C371.847,97.438,371.979,96.658,371.654,95.924"/>
	<path clip-path="url(#SVGID_12_)" fill="none" stroke="#3333FF" stroke-width="2" stroke-miterlimit="10" d="M371.654,95.924
		L371.654,95.924c-0.324-0.734-0.989-1.161-1.506-0.968l-11.309,4.241l1.768,3.999l10.749-5.508
		C371.847,97.438,371.979,96.658,371.654,95.924z"/>
	<path clip-path="url(#SVGID_12_)" fill="#E1E1E1" d="M347.793,106.47L347.793,106.47c0.324,0.733,0.989,1.16,1.505,0.966
		l11.309-4.241l-1.766-3.996l-10.749,5.508C347.601,104.958,347.469,105.737,347.793,106.47"/>
	<path clip-path="url(#SVGID_12_)" fill="none" stroke="#3333FF" stroke-width="2" stroke-miterlimit="10" d="M347.793,106.47
		L347.793,106.47c0.324,0.733,0.989,1.16,1.505,0.966l11.309-4.241l-1.766-3.996l-10.749,5.508
		C347.601,104.958,347.469,105.737,347.793,106.47z"/>
	<path clip-path="url(#SVGID_12_)" fill="#3333FF" d="M362.131,156.295l-4.492,1.985c-1.169,0.517-2.535-0.012-3.052-1.18
		l-1.479-3.348l8.725-3.857l1.48,3.348C363.829,154.412,363.3,155.778,362.131,156.295"/>
	<path clip-path="url(#SVGID_12_)" fill="none" stroke="#3333FF" stroke-width="2" stroke-miterlimit="10" d="M362.131,156.295
		l-4.492,1.985c-1.169,0.517-2.535-0.012-3.052-1.18l-1.479-3.348l8.725-3.857l1.48,3.348
		C363.829,154.412,363.3,155.778,362.131,156.295z"/>
	<path clip-path="url(#SVGID_12_)" fill="#3333FF" d="M398.849,140.066l4.492-1.986c1.169-0.516,1.696-1.883,1.181-3.052
		l-1.479-3.348l-8.726,3.857l1.48,3.348C396.313,140.055,397.68,140.583,398.849,140.066"/>
	<path clip-path="url(#SVGID_12_)" fill="none" stroke="#3333FF" stroke-width="2" stroke-miterlimit="10" d="M398.849,140.066
		l4.492-1.986c1.169-0.516,1.696-1.883,1.181-3.052l-1.479-3.348l-8.726,3.857l1.48,3.348
		C396.313,140.055,397.68,140.583,398.849,140.066z"/>
	<path clip-path="url(#SVGID_12_)" fill="#E1E1E1" d="M393.156,113.301l-2.512-0.599c-1.01-0.24-1.97-0.651-2.842-1.214
		l-7.854-5.074c-2.375-1.534-5.362-1.769-7.947-0.627l-8.575,3.79l-8.573,3.79c-2.586,1.142-4.422,3.51-4.886,6.298l-1.535,9.224
		c-0.172,1.024-0.514,2.011-1.016,2.919l-1.247,2.26c-1.354,2.453-1.484,5.398-0.352,7.96l4.877,11.035
		c0.66,1.491,2.404,2.167,3.896,1.507l24.028-10.62l24.028-10.621c1.492-0.659,2.167-2.403,1.508-3.895l-4.877-11.035
		C398.146,115.837,395.881,113.95,393.156,113.301"/>
	<path clip-path="url(#SVGID_12_)" fill="none" stroke="#3333FF" stroke-width="2" stroke-miterlimit="10" d="M393.156,113.301
		l-2.512-0.599c-1.01-0.24-1.97-0.651-2.842-1.214l-7.854-5.074c-2.375-1.534-5.362-1.769-7.947-0.627l-8.575,3.79l-8.573,3.79
		c-2.586,1.142-4.422,3.51-4.886,6.298l-1.535,9.224c-0.172,1.024-0.514,2.011-1.016,2.919l-1.247,2.26
		c-1.354,2.453-1.484,5.398-0.352,7.96l4.877,11.035c0.66,1.491,2.404,2.167,3.896,1.507l24.028-10.62l24.028-10.621
		c1.492-0.659,2.167-2.403,1.508-3.895l-4.877-11.035C398.146,115.837,395.881,113.95,393.156,113.301z"/>
	<path clip-path="url(#SVGID_12_)" fill="#FFFFFF" d="M357.38,139.428l-6.505,1.798c-1.091,0.302-2.237-0.242-2.695-1.277
		l-0.679-1.537c-0.314-0.71,0.076-1.533,0.824-1.74l6.384-1.765c1.375-0.38,2.82,0.305,3.396,1.609l0.316,0.715
		C358.816,138.127,358.325,139.167,357.38,139.428"/>
	<path clip-path="url(#SVGID_12_)" fill="none" stroke="#3333FF" stroke-width="2" stroke-miterlimit="10" d="M357.38,139.428
		l-6.505,1.798c-1.091,0.302-2.237-0.242-2.695-1.277l-0.679-1.537c-0.314-0.71,0.076-1.533,0.824-1.74l6.384-1.765
		c1.375-0.38,2.82,0.305,3.396,1.609l0.316,0.715C358.816,138.127,358.325,139.167,357.38,139.428z"/>
	<path clip-path="url(#SVGID_12_)" fill="#FFFFFF" d="M389.499,125.232l5.708-3.6c0.957-0.604,1.327-1.817,0.87-2.853l-0.681-1.537
		c-0.313-0.71-1.184-0.976-1.841-0.561l-5.603,3.533c-1.206,0.761-1.673,2.29-1.096,3.595l0.315,0.714
		C387.569,125.419,388.669,125.755,389.499,125.232"/>
	<path clip-path="url(#SVGID_12_)" fill="none" stroke="#3333FF" stroke-width="2" stroke-miterlimit="10" d="M389.499,125.232
		l5.708-3.6c0.957-0.604,1.327-1.817,0.87-2.853l-0.681-1.537c-0.313-0.71-1.184-0.976-1.841-0.561l-5.603,3.533
		c-1.206,0.761-1.673,2.29-1.096,3.595l0.315,0.714C387.569,125.419,388.669,125.755,389.499,125.232z"/>
	<path clip-path="url(#SVGID_12_)" fill="none" stroke="#3333FF" stroke-width="2" stroke-miterlimit="10" d="M382.359,123.396
		l-10.766,4.758l-10.766,4.759c-0.712,0.314-0.889,1.244-0.342,1.798l3.974,4.02c0.298,0.302,0.743,0.408,1.146,0.272l6.732-2.266
		c1.767-0.594,3.474-1.349,5.103-2.255l6.208-3.453c0.371-0.207,0.592-0.607,0.569-1.03l-0.298-5.645
		C383.878,123.578,383.071,123.082,382.359,123.396z"/>
	<path clip-path="url(#SVGID_12_)" fill="#5DE9FF" d="M385.339,113.686l-6.683-3.865c-2.003-1.159-4.586-1.246-6.862-0.232
		l-6.985,3.113l-7.005,3.07c-2.282,1.001-3.956,2.969-4.447,5.231l-1.64,7.544c-0.119,0.544,0.452,0.945,1.001,0.702l16.233-7.175
		l16.233-7.175C385.732,114.657,385.821,113.965,385.339,113.686"/>
	<path clip-path="url(#SVGID_12_)" fill="none" stroke="#3333FF" stroke-width="2" stroke-miterlimit="10" d="M385.339,113.686
		l-6.683-3.865c-2.003-1.159-4.586-1.246-6.862-0.232l-6.985,3.113l-7.005,3.07c-2.282,1.001-3.956,2.969-4.447,5.231l-1.64,7.544
		c-0.119,0.544,0.452,0.945,1.001,0.702l16.233-7.175l16.233-7.175C385.732,114.657,385.821,113.965,385.339,113.686z"/>
	
		<rect x="371.472" y="138.126" transform="matrix(0.9146 -0.4043 0.4043 0.9146 -24.3626 164.0756)" clip-path="url(#SVGID_12_)" fill="none" stroke="#3333FF" stroke-width="2" stroke-miterlimit="10" width="9.774" height="3.208"/>
	<polygon clip-path="url(#SVGID_12_)" fill="#E1E1E1" points="388.986,110.198 387.098,111.032 385.472,109.982 388.332,108.718 	
		"/>
	<polygon clip-path="url(#SVGID_12_)" fill="none" stroke="#3333FF" stroke-width="2" stroke-miterlimit="10" points="
		388.986,110.198 387.098,111.032 385.472,109.982 388.332,108.718 	"/>
	<path clip-path="url(#SVGID_12_)" fill="#E1E1E1" d="M393.694,109.571l-2.748,1.214c-1.081,0.478-2.344-0.011-2.821-1.091
		c-0.479-1.081,0.011-2.345,1.091-2.822l2.748-1.215c1.081-0.477,2.345,0.012,2.822,1.092
		C395.264,107.831,394.774,109.093,393.694,109.571"/>
	<path clip-path="url(#SVGID_12_)" fill="none" stroke="#3333FF" stroke-width="2" stroke-miterlimit="10" d="M393.694,109.571
		l-2.748,1.214c-1.081,0.478-2.344-0.011-2.821-1.091c-0.479-1.081,0.011-2.345,1.091-2.822l2.748-1.215
		c1.081-0.477,2.345,0.012,2.822,1.092C395.264,107.831,394.774,109.093,393.694,109.571z"/>
	<polygon clip-path="url(#SVGID_12_)" fill="#E1E1E1" points="346.679,128.897 348.567,128.062 348.888,126.151 346.024,127.417 	
		"/>
	<polygon clip-path="url(#SVGID_12_)" fill="none" stroke="#3333FF" stroke-width="2" stroke-miterlimit="10" points="
		346.679,128.897 348.567,128.062 348.888,126.151 346.024,127.417 	"/>
	<path clip-path="url(#SVGID_12_)" fill="#E1E1E1" d="M343.047,131.957l2.748-1.214c1.08-0.478,1.569-1.742,1.092-2.822
		c-0.478-1.081-1.741-1.569-2.822-1.092l-2.746,1.214c-1.082,0.478-1.571,1.742-1.093,2.822
		C340.703,131.946,341.966,132.435,343.047,131.957"/>
	<path clip-path="url(#SVGID_12_)" fill="none" stroke="#3333FF" stroke-width="2" stroke-miterlimit="10" d="M343.047,131.957
		l2.748-1.214c1.08-0.478,1.569-1.742,1.092-2.822c-0.478-1.081-1.741-1.569-2.822-1.092l-2.746,1.214
		c-1.082,0.478-1.571,1.742-1.093,2.822C340.703,131.946,341.966,132.435,343.047,131.957z"/>
	<path clip-path="url(#SVGID_12_)" fill="#E1E1E1" d="M358.154,97.647L358.154,97.647c-0.75,0.332-1.19,1.002-0.997,1.519
		l4.226,11.315l4.089-1.807l-5.522-10.742C359.697,97.441,358.905,97.315,358.154,97.647"/>
	<path clip-path="url(#SVGID_12_)" fill="none" stroke="#3333FF" stroke-width="2" stroke-miterlimit="10" d="M358.154,97.647
		L358.154,97.647c-0.75,0.332-1.19,1.002-0.997,1.519l4.226,11.315l4.089-1.807l-5.522-10.742
		C359.697,97.441,358.905,97.315,358.154,97.647z"/>
	<rect x="72.887" y="155.387" clip-path="url(#SVGID_12_)" fill="#FFFFFF" width="75.258" height="29.459"/>
	
		<rect x="72.887" y="155.387" clip-path="url(#SVGID_12_)" fill="none" stroke="#3333FF" stroke-width="2" stroke-linecap="round" stroke-linejoin="round" stroke-miterlimit="10" width="75.258" height="29.459"/>
	<rect x="72.887" y="115.157" clip-path="url(#SVGID_12_)" fill="#007AFF" width="75.258" height="40.229"/>
	
		<rect x="72.887" y="115.157" clip-path="url(#SVGID_12_)" fill="none" stroke="#3333FF" stroke-width="2" stroke-linecap="round" stroke-linejoin="round" stroke-miterlimit="10" width="75.258" height="40.229"/>
	<path clip-path="url(#SVGID_12_)" fill="#FFFFFF" d="M148.145,115.157H72.887v-13.565c0-2.997,2.429-5.427,5.426-5.427h64.406
		c2.997,0,5.426,2.43,5.426,5.427V115.157z"/>
	
		<path clip-path="url(#SVGID_12_)" fill="none" stroke="#3333FF" stroke-width="2" stroke-linecap="round" stroke-linejoin="round" stroke-miterlimit="10" d="
		M148.145,115.157H72.887v-13.565c0-2.997,2.429-5.427,5.426-5.427h64.406c2.997,0,5.426,2.43,5.426,5.427V115.157z"/>
	<path clip-path="url(#SVGID_12_)" fill="#FFFFFF" d="M128.941,96.166H92.09v-3.885c0-4.413,3.578-7.99,7.991-7.99h20.87
		c4.413,0,7.99,3.577,7.99,7.99V96.166z"/>
	
		<path clip-path="url(#SVGID_12_)" fill="none" stroke="#3333FF" stroke-width="2" stroke-linecap="round" stroke-linejoin="round" stroke-miterlimit="10" d="
		M128.941,96.166H92.09v-3.885c0-4.413,3.578-7.99,7.991-7.99h20.87c4.413,0,7.99,3.577,7.99,7.99V96.166z"/>
	<polygon clip-path="url(#SVGID_12_)" fill="#FFFFFF" points="106.679,124.626 114.582,121.733 111.038,132 118.345,129.327 
		104.383,148.81 107.67,137.102 102.687,138.926 	"/>
	
		<polygon clip-path="url(#SVGID_12_)" fill="none" stroke="#FFFFFF" stroke-width="2" stroke-linecap="round" stroke-linejoin="round" stroke-miterlimit="10" points="
		106.679,124.626 114.582,121.733 111.038,132 118.345,129.327 104.383,148.81 107.67,137.102 102.687,138.926 	"/>
</g>
</svg>
