<svg xmlns="http://www.w3.org/2000/svg" width="42" height="54" viewBox="0 0 42 54">
    <g fill="none" fill-rule="evenodd">
        <g fill="#FFF">
            <path d="M14.283 23.632c0 .68.544 1.23 1.215 1.23.67 0 1.215-.55 1.215-1.23 0-.68-.544-1.23-1.215-1.23s-1.215.55-1.215 1.23M9.423 23.632c0 .68.544 1.23 1.215 1.23.67 0 1.215-.55 1.215-1.23 0-.68-.544-1.23-1.215-1.23s-1.215.55-1.215 1.23M4.563 23.632c0 .68.544 1.23 1.215 1.23.67 0 1.215-.55 1.215-1.23 0-.68-.544-1.23-1.215-1.23s-1.215.55-1.215 1.23M11.853 28.552c0 .68.544 1.23 1.215 1.23.67 0 1.215-.55 1.215-1.23 0-.68-.544-1.23-1.215-1.23s-1.215.55-1.215 1.23M6.993 28.552c0 .68.544 1.23 1.215 1.23.67 0 1.215-.55 1.215-1.23 0-.68-.544-1.23-1.215-1.23s-1.215.55-1.215 1.23M2.133 28.552c0 .68.544 1.23 1.215 1.23.67 0 1.215-.55 1.215-1.23 0-.68-.544-1.23-1.215-1.23s-1.215.55-1.215 1.23M11.853 38.392c0 .68.544 1.23 1.215 1.23.67 0 1.215-.55 1.215-1.23 0-.679-.544-1.23-1.215-1.23s-1.215.551-1.215 1.23M6.993 38.392c0 .68.544 1.23 1.215 1.23.67 0 1.215-.55 1.215-1.23 0-.679-.544-1.23-1.215-1.23s-1.215.551-1.215 1.23M2.133 38.392c0 .68.544 1.23 1.215 1.23.67 0 1.215-.55 1.215-1.23 0-.679-.544-1.23-1.215-1.23s-1.215.551-1.215 1.23M10.638 34.702c.67 0 1.215-.55 1.215-1.23 0-.68-.544-1.23-1.215-1.23s-1.215.55-1.215 1.23c0 .68.544 1.23 1.215 1.23zM4.563 33.472c0 .68.544 1.23 1.215 1.23.67 0 1.215-.55 1.215-1.23 0-.68-.544-1.23-1.215-1.23s-1.215.55-1.215 1.23M14.283 43.312c0 .68.544 1.23 1.215 1.23.67 0 1.215-.55 1.215-1.23 0-.679-.544-1.23-1.215-1.23s-1.215.551-1.215 1.23M9.423 43.312c0 .68.544 1.23 1.215 1.23.67 0 1.215-.55 1.215-1.23 0-.679-.544-1.23-1.215-1.23s-1.215.551-1.215 1.23M4.563 43.312c0 .68.544 1.23 1.215 1.23.67 0 1.215-.55 1.215-1.23 0-.679-.544-1.23-1.215-1.23s-1.215.551-1.215 1.23M19.143 23.632c0 .68.544 1.23 1.215 1.23s1.215-.55 1.215-1.23c0-.68-.544-1.23-1.215-1.23s-1.215.55-1.215 1.23M19.143 33.472c0 .68.544 1.23 1.215 1.23s1.215-.55 1.215-1.23c0-.68-.544-1.23-1.215-1.23s-1.215.55-1.215 1.23"/>
            <g>
                <path d="M16.713 48.314c0 .68.544 1.23 1.215 1.23s1.215-.55 1.215-1.23c0-.679-.544-1.23-1.215-1.23s-1.215.551-1.215 1.23M11.853 48.314c0 .68.544 1.23 1.215 1.23.67 0 1.215-.55 1.215-1.23 0-.679-.544-1.23-1.215-1.23s-1.215.551-1.215 1.23M6.993 48.314c0 .68.544 1.23 1.215 1.23.67 0 1.215-.55 1.215-1.23 0-.679-.544-1.23-1.215-1.23s-1.215.551-1.215 1.23M2.133 48.314c0 .68.544 1.23 1.215 1.23.67 0 1.215-.55 1.215-1.23 0-.679-.544-1.23-1.215-1.23s-1.215.551-1.215 1.23M21.573 48.314c0 .68.544 1.23 1.215 1.23s1.215-.55 1.215-1.23c0-.679-.544-1.23-1.215-1.23s-1.215.551-1.215 1.23"/>
            </g>
            <g>
                <path d="M36.126 48.314c0 .68.544 1.23 1.215 1.23s1.215-.55 1.215-1.23c0-.679-.544-1.23-1.215-1.23s-1.215.551-1.215 1.23M31.266 48.314c0 .68.544 1.23 1.215 1.23s1.215-.55 1.215-1.23c0-.679-.544-1.23-1.215-1.23s-1.215.551-1.215 1.23M26.406 48.314c0 .68.544 1.23 1.215 1.23s1.215-.55 1.215-1.23c0-.679-.544-1.23-1.215-1.23s-1.215.551-1.215 1.23"/>
            </g>
            <g>
                <path d="M28.94 23.632c0 .68.544 1.23 1.215 1.23s1.215-.55 1.215-1.23c0-.68-.544-1.23-1.215-1.23s-1.215.55-1.215 1.23M24.08 23.632c0 .68.544 1.23 1.215 1.23s1.215-.55 1.215-1.23c0-.68-.544-1.23-1.215-1.23-.67 0-1.215.55-1.215 1.23M26.51 28.552c0 .68.544 1.23 1.215 1.23s1.215-.55 1.215-1.23c0-.68-.544-1.23-1.215-1.23s-1.215.55-1.215 1.23M26.51 38.392c0 .68.544 1.23 1.215 1.23s1.215-.55 1.215-1.23c0-.679-.544-1.23-1.215-1.23s-1.215.551-1.215 1.23M28.94 33.472c0 .68.544 1.23 1.215 1.23s1.215-.55 1.215-1.23c0-.68-.544-1.23-1.215-1.23s-1.215.55-1.215 1.23M28.94 43.312c0 .68.544 1.23 1.215 1.23s1.215-.55 1.215-1.23c0-.679-.544-1.23-1.215-1.23s-1.215.551-1.215 1.23M24.08 43.312c0 .68.544 1.23 1.215 1.23s1.215-.55 1.215-1.23c0-.679-.544-1.23-1.215-1.23-.67 0-1.215.551-1.215 1.23"/>
            </g>
            <g>
                <path d="M33.696 23.632c0 .68.544 1.23 1.215 1.23s1.215-.55 1.215-1.23c0-.68-.544-1.23-1.215-1.23s-1.215.55-1.215 1.23M36.126 28.552c0 .68.544 1.23 1.215 1.23s1.215-.55 1.215-1.23c0-.68-.544-1.23-1.215-1.23s-1.215.55-1.215 1.23M31.266 28.552c0 .68.544 1.23 1.215 1.23s1.215-.55 1.215-1.23c0-.68-.544-1.23-1.215-1.23s-1.215.55-1.215 1.23M36.126 38.392c0 .68.544 1.23 1.215 1.23s1.215-.55 1.215-1.23c0-.679-.544-1.23-1.215-1.23s-1.215.551-1.215 1.23M31.266 38.392c0 .68.544 1.23 1.215 1.23s1.215-.55 1.215-1.23c0-.679-.544-1.23-1.215-1.23s-1.215.551-1.215 1.23M33.696 33.472c0 .68.544 1.23 1.215 1.23s1.215-.55 1.215-1.23c0-.68-.544-1.23-1.215-1.23s-1.215.55-1.215 1.23M33.696 43.312c0 .68.544 1.23 1.215 1.23s1.215-.55 1.215-1.23c0-.679-.544-1.23-1.215-1.23s-1.215.551-1.215 1.23"/>
            </g>
        </g>
        <path stroke="#FFF" stroke-linecap="round" stroke-linejoin="round" stroke-width="2" d="M1 19.642h39.793v33.289H1z"/>
        <path stroke="#FFF" stroke-width="2" d="M33.798 19.146H6.891v-4.62C6.891 7.069 12.927 1 20.345 1c7.418 0 13.453 6.068 13.453 13.527v4.62z"/>
        <path fill="#FFF" d="M24.375 32.251c0 2.304-1.808 4.173-4.038 4.173-2.23 0-4.039-1.869-4.039-4.173 0-2.304 1.809-4.172 4.039-4.172 2.23 0 4.038 1.868 4.038 4.172z"/>
        <path stroke="#FFF" stroke-linecap="round" stroke-linejoin="round" stroke-width="2.5" d="M20.477 42.536v-7.85"/>
    </g>
</svg>
