<svg xmlns="http://www.w3.org/2000/svg" width="73" height="50" viewBox="0 0 73 50">
    <g fill="none" fill-rule="evenodd">
        <g stroke="#FFF" stroke-linecap="round" stroke-width="3">
            <path d="M24.5 47.635H2M24.506 37.058H2M30 27.442H2"/>
        </g>
        <path fill="#FFF" d="M68.656 12.055c-.355 0-.695-.146-.945-.404L61.473 5.22a1.409 1.409 0 0 1 0-1.948L63.92.749a1.308 1.308 0 0 1 1.89 0l6.237 6.432c.522.537.522 1.41 0 1.948L69.6 11.65c-.25.258-.59.404-.944.404zM38.599 35.222c0 .793.623 1.436 1.392 1.436.77 0 1.392-.643 1.392-1.436 0-.793-.623-1.435-1.392-1.435-.769 0-1.392.642-1.392 1.435M33.029 35.222c0 .793.623 1.436 1.392 1.436.77 0 1.393-.643 1.393-1.436 0-.793-.624-1.435-1.393-1.435s-1.392.642-1.392 1.435M35.814 40.965c0 .793.623 1.436 1.392 1.436.77 0 1.392-.643 1.392-1.436 0-.793-.623-1.435-1.392-1.435-.769 0-1.392.642-1.392 1.435M30.244 40.965c0 .793.623 1.436 1.392 1.436.77 0 1.393-.643 1.393-1.436 0-.793-.623-1.435-1.393-1.435-.769 0-1.392.642-1.392 1.435M60.877 12.25c0 .794.624 1.436 1.393 1.436s1.392-.642 1.392-1.436c0-.792-.623-1.435-1.392-1.435-.77 0-1.393.643-1.393 1.435M55.308 12.25c0 .794.623 1.436 1.392 1.436.77 0 1.392-.642 1.392-1.436 0-.792-.623-1.435-1.392-1.435-.769 0-1.392.643-1.392 1.435M58.092 17.993c0 .793.624 1.436 1.393 1.436s1.392-.643 1.392-1.436c0-.792-.623-1.435-1.392-1.435-.769 0-1.393.643-1.393 1.435M52.523 17.993c0 .793.623 1.436 1.392 1.436.77 0 1.393-.643 1.393-1.436 0-.792-.624-1.435-1.393-1.435s-1.392.643-1.392 1.435M49.738 23.737c0 .792.623 1.435 1.392 1.435.77 0 1.393-.643 1.393-1.435 0-.794-.624-1.436-1.393-1.436s-1.392.642-1.392 1.436M44.168 23.737c0 .792.624 1.435 1.393 1.435s1.392-.643 1.392-1.435c0-.794-.623-1.436-1.392-1.436-.77 0-1.393.642-1.393 1.436M46.953 29.48c0 .792.624 1.435 1.393 1.435s1.392-.643 1.392-1.436c0-.793-.623-1.435-1.392-1.435-.77 0-1.393.642-1.393 1.435M41.383 29.48c0 .792.624 1.435 1.393 1.435s1.392-.643 1.392-1.436c0-.793-.623-1.435-1.392-1.435-.769 0-1.393.642-1.393 1.435"/>
        <path fill="#FFF" d="M33.79 46.45h.004-.004zm-5.854-5.59l-1.657 7.217 7.016-1.884 34.57-35.616-5.36-5.333-34.57 35.615zM61.56 3.282a1.308 1.308 0 0 1 1.89 0l6.101 6.292a1.4 1.4 0 0 1 .391.974 1.4 1.4 0 0 1-.39.974l-34.818 35.9c-.173.179-.39.305-.628.365l-8.076 2.035a1.316 1.316 0 0 1-1.262-.364 1.407 1.407 0 0 1-.353-1.3l1.974-8.328c.058-.245.18-.47.353-.648l34.818-35.9z"/>
    </g>
</svg>
