<?xml version="1.0" encoding="UTF-8"?>
<svg width="62px" height="61px" viewBox="0 0 62 61" version="1.1" xmlns="http://www.w3.org/2000/svg" xmlns:xlink="http://www.w3.org/1999/xlink">
    <!-- Generator: Sketch 44.1 (41455) - http://www.bohemiancoding.com/sketch -->
    <title>Icon :: Search</title>
    <desc>Created with Sketch.</desc>
    <defs></defs>
    <g id="New-User" stroke="none" stroke-width="1" fill="none" fill-rule="evenodd">
        <g id="New-04-Search-for-Super-On" transform="translate(-687.000000, -59.000000)">
            <g id="Icon-::-Search" transform="translate(720.500000, 91.500000) rotate(-45.000000) translate(-720.500000, -91.500000) translate(698.000000, 55.000000)">
                <ellipse id="Oval-4" stroke="#FFFFFF" stroke-width="4" cx="22.0422009" cy="21.6253851" rx="20.0422009" ry="19.6253851"></ellipse>
                <g id="o" transform="translate(18.034010, 46.686158)" fill="#FFFFFF">
                    <path d="M0.995073263,1.78736448 C0.995073263,2.74836999 1.76405398,3.52748111 2.71275238,3.52748111 C3.66126241,3.52748111 4.43024312,2.74836999 4.43024312,1.78736448 C4.43024312,0.826168099 3.66126241,0.0470569766 2.71275238,0.0470569766 C1.76405398,0.0470569766 0.995073263,0.826168099 0.995073263,1.78736448" id="Fill-15"></path>
                    <path d="M0.995073263,15.7093282 C0.995073263,16.6703337 1.76405398,17.4494448 2.71275238,17.4494448 C3.66126241,17.4494448 4.43024312,16.6703337 4.43024312,15.7093282 C4.43024312,14.7483227 3.66126241,13.9692116 2.71275238,13.9692116 C1.76405398,13.9692116 0.995073263,14.7483227 0.995073263,15.7093282" id="Fill-23"></path>
                    <path d="M4.43031847,8.74834635 C4.43031847,9.70935186 5.19929919,10.488463 6.1479976,10.488463 C7.09650762,10.488463 7.86548833,9.70935186 7.86548833,8.74834635 C7.86548833,7.78714997 7.09650762,7.00803885 6.1479976,7.00803885 C5.19929919,7.00803885 4.43031847,7.78714997 4.43031847,8.74834635" id="Fill-29"></path>
                    <path d="M4.43031847,22.6703101 C4.43031847,23.6315065 5.19929919,24.4106176 6.1479976,24.4106176 C7.09650762,24.4106176 7.86548833,23.6315065 7.86548833,22.6703101 C7.86548833,21.7093046 7.09650762,20.9301935 6.1479976,20.9301935 C5.19929919,20.9301935 4.43031847,21.7093046 4.43031847,22.6703101" id="Fill-38"></path>
                </g>
                <rect id="Rectangle-2" stroke="#FFFFFF" stroke-width="3.5" x="18.0340097" y="45.686158" width="8.41587121" height="26.449881" rx="4.20793561"></rect>
                <rect id="Rectangle-3" fill="#FFFFFF" x="19.2362771" y="42.0793561" width="6.01133658" height="4.80906926"></rect>
            </g>
        </g>
    </g>
</svg>