<svg xmlns="http://www.w3.org/2000/svg" width="62" height="50" viewBox="0 0 62 50">
    <g fill="none" fill-rule="evenodd">
        <path stroke="#FFF" stroke-linecap="round" stroke-linejoin="round" stroke-width="2" d="M60.128 34.088l-14.36-.055.106-12.546 14.36.056z"/>
        <path stroke="#FFF" stroke-linecap="round" stroke-linejoin="round" stroke-width="3" d="M54.061 21.515V13.97a5 5 0 0 0-5-5H5.518C3.583 8.97 2 7.402 2 5.485 2 3.568 3.583 2 5.518 2h41.156"/>
        <path stroke="#FFF" stroke-linecap="round" stroke-linejoin="round" stroke-width="3" d="M54.061 34.06V43a5 5 0 0 1-5 5H7a5 5 0 0 1-5-5V5.833"/>
        <g fill="#FFF">
            <path d="M18.412 12.308c0 .885.713 1.602 1.593 1.602s1.593-.717 1.593-1.602c0-.885-.713-1.602-1.593-1.602s-1.593.717-1.593 1.602M12.04 12.308c0 .885.714 1.602 1.593 1.602.88 0 1.593-.717 1.593-1.602 0-.885-.713-1.602-1.593-1.602s-1.593.717-1.593 1.602M5.669 12.308c0 .885.713 1.602 1.593 1.602s1.593-.717 1.593-1.602c0-.885-.714-1.602-1.593-1.602-.88 0-1.593.717-1.593 1.602M21.598 18.716c0 .884.713 1.601 1.593 1.601s1.593-.717 1.593-1.601c0-.885-.713-1.602-1.593-1.602s-1.593.717-1.593 1.602M15.226 18.716c0 .884.713 1.601 1.593 1.601s1.593-.717 1.593-1.601c0-.885-.713-1.602-1.593-1.602s-1.593.717-1.593 1.602M8.855 18.716c0 .884.713 1.601 1.593 1.601s1.592-.717 1.592-1.601c0-.885-.713-1.602-1.592-1.602-.88 0-1.593.717-1.593 1.602M2.483 18.716c0 .884.713 1.601 1.593 1.601s1.593-.717 1.593-1.601c0-.885-.713-1.602-1.593-1.602s-1.593.717-1.593 1.602M21.598 31.531c0 .885.713 1.602 1.593 1.602s1.593-.717 1.593-1.602c0-.884-.713-1.602-1.593-1.602s-1.593.718-1.593 1.602M15.226 31.531c0 .885.713 1.602 1.593 1.602s1.593-.717 1.593-1.602c0-.884-.713-1.602-1.593-1.602s-1.593.718-1.593 1.602M8.855 31.531c0 .885.713 1.602 1.593 1.602s1.592-.717 1.592-1.602c0-.884-.713-1.602-1.592-1.602-.88 0-1.593.718-1.593 1.602M2.483 31.531c0 .885.713 1.602 1.593 1.602s1.593-.717 1.593-1.602c0-.884-.713-1.602-1.593-1.602s-1.593.718-1.593 1.602M18.412 25.123c0 .885.713 1.602 1.593 1.602s1.593-.717 1.593-1.602c0-.884-.713-1.602-1.593-1.602s-1.593.718-1.593 1.602M13.633 26.725c.88 0 1.593-.717 1.593-1.602 0-.884-.713-1.602-1.593-1.602s-1.593.718-1.593 1.602c0 .885.714 1.602 1.593 1.602zM5.669 25.123c0 .885.713 1.602 1.593 1.602s1.593-.717 1.593-1.602c0-.884-.714-1.602-1.593-1.602-.88 0-1.593.718-1.593 1.602M18.412 37.939c0 .885.713 1.602 1.593 1.602s1.593-.717 1.593-1.602c0-.885-.713-1.602-1.593-1.602s-1.593.717-1.593 1.602M12.04 37.939c0 .885.714 1.602 1.593 1.602.88 0 1.593-.717 1.593-1.602 0-.885-.713-1.602-1.593-1.602s-1.593.717-1.593 1.602M5.669 37.939c0 .885.713 1.602 1.593 1.602s1.593-.717 1.593-1.602c0-.885-.714-1.602-1.593-1.602-.88 0-1.593.717-1.593 1.602M24.784 12.308c0 .885.713 1.602 1.593 1.602s1.593-.717 1.593-1.602c0-.885-.714-1.602-1.593-1.602-.88 0-1.593.717-1.593 1.602M27.97 18.716c0 .884.713 1.601 1.592 1.601.88 0 1.593-.717 1.593-1.601 0-.885-.713-1.602-1.593-1.602s-1.592.717-1.592 1.602M27.97 31.531c0 .885.713 1.602 1.592 1.602.88 0 1.593-.717 1.593-1.602 0-.884-.713-1.602-1.593-1.602s-1.592.718-1.592 1.602M24.784 25.123c0 .885.713 1.602 1.593 1.602s1.593-.717 1.593-1.602c0-.884-.714-1.602-1.593-1.602-.88 0-1.593.718-1.593 1.602M24.784 37.939c0 .885.713 1.602 1.593 1.602s1.593-.717 1.593-1.602c0-.885-.714-1.602-1.593-1.602-.88 0-1.593.717-1.593 1.602"/>
            <g>
                <path d="M21.598 44.453c0 .885.713 1.602 1.593 1.602s1.593-.717 1.593-1.602c0-.884-.713-1.602-1.593-1.602s-1.593.718-1.593 1.602M15.226 44.453c0 .885.713 1.602 1.593 1.602s1.593-.717 1.593-1.602c0-.884-.713-1.602-1.593-1.602s-1.593.718-1.593 1.602M8.855 44.453c0 .885.713 1.602 1.593 1.602s1.592-.717 1.592-1.602c0-.884-.713-1.602-1.592-1.602-.88 0-1.593.718-1.593 1.602M2.483 44.453c0 .885.713 1.602 1.593 1.602s1.593-.717 1.593-1.602c0-.884-.713-1.602-1.593-1.602s-1.593.718-1.593 1.602M27.97 44.453c0 .885.713 1.602 1.592 1.602.88 0 1.593-.717 1.593-1.602 0-.884-.713-1.602-1.593-1.602s-1.592.718-1.592 1.602"/>
            </g>
            <g>
                <path d="M47.049 44.453c0 .885.713 1.602 1.593 1.602s1.593-.717 1.593-1.602c0-.884-.713-1.602-1.593-1.602s-1.593.718-1.593 1.602M40.677 44.453c0 .885.714 1.602 1.593 1.602.88 0 1.593-.717 1.593-1.602 0-.884-.713-1.602-1.593-1.602s-1.593.718-1.593 1.602M34.306 44.453c0 .885.713 1.602 1.593 1.602s1.592-.717 1.592-1.602c0-.884-.713-1.602-1.592-1.602-.88 0-1.593.718-1.593 1.602"/>
            </g>
            <g>
                <path d="M37.628 12.308c0 .885.713 1.602 1.593 1.602s1.593-.717 1.593-1.602c0-.885-.713-1.602-1.593-1.602s-1.593.717-1.593 1.602M31.256 12.308c0 .885.714 1.602 1.593 1.602.88 0 1.593-.717 1.593-1.602 0-.885-.713-1.602-1.593-1.602s-1.593.717-1.593 1.602M34.442 18.716c0 .884.713 1.601 1.593 1.601s1.593-.717 1.593-1.601c0-.885-.713-1.602-1.593-1.602s-1.593.717-1.593 1.602M34.442 31.531c0 .885.713 1.602 1.593 1.602s1.593-.717 1.593-1.602c0-.884-.713-1.602-1.593-1.602s-1.593.718-1.593 1.602M37.628 25.123c0 .885.713 1.602 1.593 1.602s1.593-.717 1.593-1.602c0-.884-.713-1.602-1.593-1.602s-1.593.718-1.593 1.602M31.256 25.123c0 .885.714 1.602 1.593 1.602.88 0 1.593-.717 1.593-1.602 0-.884-.713-1.602-1.593-1.602s-1.593.718-1.593 1.602M37.628 37.939c0 .885.713 1.602 1.593 1.602s1.593-.717 1.593-1.602c0-.885-.713-1.602-1.593-1.602s-1.593.717-1.593 1.602M31.256 37.939c0 .885.714 1.602 1.593 1.602.88 0 1.593-.717 1.593-1.602 0-.885-.713-1.602-1.593-1.602s-1.593.717-1.593 1.602"/>
            </g>
            <g>
                <path d="M43.863 12.308c0 .885.713 1.602 1.593 1.602s1.593-.717 1.593-1.602c0-.885-.713-1.602-1.593-1.602s-1.593.717-1.593 1.602M48.642 20.317c.88 0 1.593-.717 1.593-1.601 0-.885-.713-1.602-1.593-1.602s-1.593.717-1.593 1.602c0 .884.713 1.601 1.593 1.601zM40.677 18.716c0 .884.714 1.601 1.593 1.601.88 0 1.593-.717 1.593-1.601 0-.885-.713-1.602-1.593-1.602s-1.593.717-1.593 1.602M40.677 31.531c0 .885.714 1.602 1.593 1.602.88 0 1.593-.717 1.593-1.602 0-.884-.713-1.602-1.593-1.602s-1.593.718-1.593 1.602M43.863 37.939c0 .885.713 1.602 1.593 1.602s1.593-.717 1.593-1.602c0-.885-.713-1.602-1.593-1.602s-1.593.717-1.593 1.602"/>
            </g>
        </g>
    </g>
</svg>
